G75*
G70*
%OFA0B0*%
%FSLAX24Y24*%
%IPPOS*%
%LPD*%
%AMOC8*
5,1,8,0,0,1.08239X$1,22.5*
%
%ADD10C,0.1300*%
%ADD11R,0.0591X0.0178*%
%ADD12C,0.0808*%
%ADD13C,0.0660*%
%ADD14R,0.0631X0.0631*%
%ADD15C,0.0640*%
%ADD16C,0.0780*%
%ADD17C,0.0555*%
D10*
X004721Y002276D03*
X022787Y002276D03*
X034654Y005563D03*
X034654Y023693D03*
X022787Y026980D03*
X004721Y026980D03*
D11*
X037587Y010146D03*
X037587Y009890D03*
X037587Y009634D03*
X037587Y009378D03*
X037587Y009122D03*
D12*
X038630Y008256D03*
X038630Y011012D03*
D13*
X037567Y010618D03*
X037567Y008650D03*
D14*
X038630Y009240D03*
X038630Y010028D03*
D15*
X035930Y013134D02*
X035330Y013134D01*
X035330Y014134D02*
X035930Y014134D01*
X035930Y015134D02*
X035330Y015134D01*
X035330Y016134D02*
X035930Y016134D01*
X035930Y017134D02*
X035330Y017134D01*
X035330Y018134D02*
X035930Y018134D01*
X035930Y019134D02*
X035330Y019134D01*
X035330Y020134D02*
X035930Y020134D01*
X035930Y021134D02*
X035330Y021134D01*
D16*
X033020Y022350D03*
X031240Y022350D03*
X031240Y024910D03*
X033020Y024910D03*
X001130Y014630D03*
X001130Y013630D03*
D17*
X012873Y013130D02*
X013387Y013130D01*
X013387Y012130D02*
X012873Y012130D01*
X012873Y011130D02*
X013387Y011130D01*
X013387Y010130D02*
X012873Y010130D01*
X012873Y009130D02*
X013387Y009130D01*
X013387Y008130D02*
X012873Y008130D01*
X012873Y007130D02*
X013387Y007130D01*
X013387Y006130D02*
X012873Y006130D01*
X012873Y005130D02*
X013387Y005130D01*
X013387Y014130D02*
X012873Y014130D01*
X012873Y015130D02*
X013387Y015130D01*
X013387Y016130D02*
X012873Y016130D01*
X012873Y017130D02*
X013387Y017130D01*
X013387Y018130D02*
X012873Y018130D01*
X012873Y019130D02*
X013387Y019130D01*
X013387Y020130D02*
X012873Y020130D01*
X012873Y021130D02*
X013387Y021130D01*
X013387Y022130D02*
X012873Y022130D01*
X012873Y023130D02*
X013387Y023130D01*
X013387Y024130D02*
X012873Y024130D01*
X029873Y024130D02*
X030387Y024130D01*
X030387Y023130D02*
X029873Y023130D01*
X029873Y022130D02*
X030387Y022130D01*
X030387Y007130D02*
X029873Y007130D01*
X029873Y006130D02*
X030387Y006130D01*
X030387Y005130D02*
X029873Y005130D01*
M02*
