G75*
G70*
%OFA0B0*%
%FSLAX24Y24*%
%IPPOS*%
%LPD*%
%AMOC8*
5,1,8,0,0,1.08239X$1,22.5*
%
%ADD10R,0.0433X0.0394*%
%ADD11R,0.0425X0.0413*%
%ADD12R,0.0413X0.0425*%
%ADD13R,0.0290X0.1100*%
%ADD14R,0.0276X0.0295*%
%ADD15R,0.0394X0.0433*%
%ADD16R,0.0551X0.0138*%
%ADD17R,0.0591X0.0591*%
%ADD18R,0.0354X0.0118*%
%ADD19R,0.0118X0.0354*%
%ADD20R,0.1260X0.0551*%
%ADD21R,0.0500X0.0579*%
%ADD22R,0.0472X0.0315*%
%ADD23R,0.0098X0.0394*%
%ADD24R,0.0276X0.0118*%
%ADD25R,0.0118X0.0276*%
%ADD26R,0.0472X0.0217*%
%ADD27R,0.0315X0.0472*%
%ADD28R,0.0728X0.0236*%
%ADD29R,0.1693X0.0827*%
%ADD30C,0.0000*%
%ADD31R,0.0354X0.0236*%
D10*
X012195Y014330D03*
X012865Y014330D03*
X023095Y011630D03*
X023765Y011630D03*
X023765Y010830D03*
X023095Y010830D03*
X023095Y010030D03*
X023765Y010030D03*
X023765Y009230D03*
X023095Y009230D03*
X032395Y003630D03*
X033065Y003630D03*
X033065Y002830D03*
X032395Y002830D03*
X024965Y016630D03*
X024295Y016630D03*
X024295Y017430D03*
X024965Y017430D03*
X024965Y018230D03*
X024295Y018230D03*
X024295Y019030D03*
X024965Y019030D03*
D11*
X019130Y019686D03*
X018630Y019686D03*
X018130Y019686D03*
X018130Y020374D03*
X018630Y020374D03*
X019130Y020374D03*
X018830Y011374D03*
X018330Y011374D03*
X017830Y011374D03*
X017830Y010686D03*
X018330Y010686D03*
X018830Y010686D03*
X024130Y005224D03*
X024130Y004536D03*
D12*
G36*
X022120Y011841D02*
X021829Y012132D01*
X022128Y012431D01*
X022419Y012140D01*
X022120Y011841D01*
G37*
G36*
X021632Y012329D02*
X021341Y012620D01*
X021640Y012919D01*
X021931Y012628D01*
X021632Y012329D01*
G37*
X022286Y014730D03*
X022286Y015255D03*
X022974Y015255D03*
X023536Y015255D03*
X023536Y015755D03*
X024224Y015755D03*
X024224Y015255D03*
X022974Y014730D03*
G36*
X021931Y018632D02*
X021640Y018341D01*
X021341Y018640D01*
X021632Y018931D01*
X021931Y018632D01*
G37*
G36*
X022419Y019120D02*
X022128Y018829D01*
X021829Y019128D01*
X022120Y019419D01*
X022419Y019120D01*
G37*
G36*
X015628Y018931D02*
X015919Y018640D01*
X015620Y018341D01*
X015329Y018632D01*
X015628Y018931D01*
G37*
G36*
X015140Y019419D02*
X015431Y019128D01*
X015132Y018829D01*
X014841Y019120D01*
X015140Y019419D01*
G37*
X011174Y015130D03*
X010486Y015130D03*
X010486Y014130D03*
X011174Y014130D03*
X011174Y013130D03*
X010486Y013130D03*
X010486Y011130D03*
X011174Y011130D03*
X011174Y009130D03*
X010486Y009130D03*
X010486Y008130D03*
X011174Y008130D03*
X011174Y007130D03*
X010486Y007130D03*
X010486Y006130D03*
X011174Y006130D03*
X011174Y005130D03*
X010486Y005130D03*
X012783Y004510D03*
X013472Y004510D03*
G36*
X014841Y012140D02*
X015132Y012431D01*
X015431Y012132D01*
X015140Y011841D01*
X014841Y012140D01*
G37*
G36*
X015329Y012628D02*
X015620Y012919D01*
X015919Y012620D01*
X015628Y012329D01*
X015329Y012628D01*
G37*
D13*
X014160Y007440D03*
X013660Y007440D03*
X013160Y007440D03*
X012660Y007440D03*
X012160Y007440D03*
X012160Y005940D03*
X012660Y005940D03*
X013160Y005940D03*
X013660Y005940D03*
X014160Y005940D03*
D14*
X019533Y010664D03*
X019927Y010664D03*
X019927Y011196D03*
X019533Y011196D03*
D15*
X019330Y010165D03*
X019330Y009495D03*
X020130Y009495D03*
X020130Y010165D03*
X016730Y008365D03*
X016730Y007695D03*
X015930Y007695D03*
X015930Y008365D03*
X015130Y008365D03*
X015130Y007695D03*
X013130Y018295D03*
X013130Y018965D03*
X010730Y018965D03*
X010730Y018295D03*
D16*
X034087Y003958D03*
X034087Y003702D03*
X034087Y003446D03*
X034087Y003190D03*
X034087Y002934D03*
D17*
X035130Y003052D03*
X035130Y003839D03*
D18*
X021799Y013268D03*
X021799Y013465D03*
X021799Y013661D03*
X021799Y013858D03*
X021799Y014055D03*
X021799Y014252D03*
X021799Y014449D03*
X021799Y014646D03*
X021799Y014843D03*
X021799Y015039D03*
X021799Y015236D03*
X021799Y015433D03*
X021799Y015630D03*
X021799Y015827D03*
X021799Y016024D03*
X021799Y016221D03*
X021799Y016417D03*
X021799Y016614D03*
X021799Y016811D03*
X021799Y017008D03*
X021799Y017205D03*
X021799Y017402D03*
X021799Y017599D03*
X021799Y017795D03*
X021799Y017992D03*
X015461Y017992D03*
X015461Y017795D03*
X015461Y017599D03*
X015461Y017402D03*
X015461Y017205D03*
X015461Y017008D03*
X015461Y016811D03*
X015461Y016614D03*
X015461Y016417D03*
X015461Y016221D03*
X015461Y016024D03*
X015461Y015827D03*
X015461Y015630D03*
X015461Y015433D03*
X015461Y015236D03*
X015461Y015039D03*
X015461Y014843D03*
X015461Y014646D03*
X015461Y014449D03*
X015461Y014252D03*
X015461Y014055D03*
X015461Y013858D03*
X015461Y013661D03*
X015461Y013465D03*
X015461Y013268D03*
D19*
X016268Y012461D03*
X016465Y012461D03*
X016661Y012461D03*
X016858Y012461D03*
X017055Y012461D03*
X017252Y012461D03*
X017449Y012461D03*
X017646Y012461D03*
X017843Y012461D03*
X018039Y012461D03*
X018236Y012461D03*
X018433Y012461D03*
X018630Y012461D03*
X018827Y012461D03*
X019024Y012461D03*
X019221Y012461D03*
X019417Y012461D03*
X019614Y012461D03*
X019811Y012461D03*
X020008Y012461D03*
X020205Y012461D03*
X020402Y012461D03*
X020599Y012461D03*
X020795Y012461D03*
X020992Y012461D03*
X020992Y018799D03*
X020795Y018799D03*
X020599Y018799D03*
X020402Y018799D03*
X020205Y018799D03*
X020008Y018799D03*
X019811Y018799D03*
X019614Y018799D03*
X019417Y018799D03*
X019221Y018799D03*
X019024Y018799D03*
X018827Y018799D03*
X018630Y018799D03*
X018433Y018799D03*
X018236Y018799D03*
X018039Y018799D03*
X017843Y018799D03*
X017646Y018799D03*
X017449Y018799D03*
X017252Y018799D03*
X017055Y018799D03*
X016858Y018799D03*
X016661Y018799D03*
X016465Y018799D03*
X016268Y018799D03*
D20*
X013955Y016130D03*
X013955Y015343D03*
D21*
X013126Y016755D03*
X011434Y016755D03*
D22*
X020880Y010109D03*
X020880Y009401D03*
D23*
X021736Y009598D03*
X021933Y009598D03*
X022130Y009598D03*
X022327Y009598D03*
X022524Y009598D03*
X022524Y011262D03*
X022327Y011262D03*
X022130Y011262D03*
X021933Y011262D03*
X021736Y011262D03*
X022955Y016971D03*
X023152Y016971D03*
X023349Y016971D03*
X023546Y016971D03*
X023743Y016971D03*
X023743Y018634D03*
X023546Y018634D03*
X023349Y018634D03*
X023152Y018634D03*
X022955Y018634D03*
D24*
X023615Y014586D03*
X023615Y014330D03*
X023615Y014074D03*
X024245Y014074D03*
X024245Y014330D03*
X024245Y014586D03*
D25*
X030374Y012945D03*
X030630Y012945D03*
X030886Y012945D03*
X030886Y012315D03*
X030630Y012315D03*
X030374Y012315D03*
X030374Y008945D03*
X030630Y008945D03*
X030886Y008945D03*
X030886Y008315D03*
X030630Y008315D03*
X030374Y008315D03*
X032474Y004945D03*
X032730Y004945D03*
X032986Y004945D03*
X032986Y004315D03*
X032730Y004315D03*
X032474Y004315D03*
D26*
X012476Y018284D03*
X012476Y019032D03*
X011452Y019032D03*
X011452Y018658D03*
X011452Y018284D03*
D27*
X012176Y015730D03*
X012176Y015030D03*
X012884Y015030D03*
X012884Y015730D03*
D28*
X007730Y015221D03*
X007730Y014827D03*
X007730Y014433D03*
X007730Y014039D03*
D29*
X006519Y012602D03*
X006519Y016658D03*
D30*
X002571Y003083D02*
X002573Y003041D01*
X002578Y002999D01*
X002587Y002957D01*
X002599Y002917D01*
X002614Y002877D01*
X002633Y002839D01*
X002654Y002803D01*
X002679Y002769D01*
X002706Y002736D01*
X002736Y002706D01*
X002769Y002679D01*
X002803Y002654D01*
X002839Y002633D01*
X002877Y002614D01*
X002917Y002599D01*
X002957Y002587D01*
X002999Y002578D01*
X003041Y002573D01*
X003083Y002571D01*
X003125Y002573D01*
X003167Y002578D01*
X003209Y002587D01*
X003249Y002599D01*
X003289Y002614D01*
X003327Y002633D01*
X003363Y002654D01*
X003397Y002679D01*
X003430Y002706D01*
X003460Y002736D01*
X003487Y002769D01*
X003512Y002803D01*
X003533Y002839D01*
X003552Y002877D01*
X003567Y002917D01*
X003579Y002957D01*
X003588Y002999D01*
X003593Y003041D01*
X003595Y003083D01*
X003593Y003125D01*
X003588Y003167D01*
X003579Y003209D01*
X003567Y003249D01*
X003552Y003289D01*
X003533Y003327D01*
X003512Y003363D01*
X003487Y003397D01*
X003460Y003430D01*
X003430Y003460D01*
X003397Y003487D01*
X003363Y003512D01*
X003327Y003533D01*
X003289Y003552D01*
X003249Y003567D01*
X003209Y003579D01*
X003167Y003588D01*
X003125Y003593D01*
X003083Y003595D01*
X003041Y003593D01*
X002999Y003588D01*
X002957Y003579D01*
X002917Y003567D01*
X002877Y003552D01*
X002839Y003533D01*
X002803Y003512D01*
X002769Y003487D01*
X002736Y003460D01*
X002706Y003430D01*
X002679Y003397D01*
X002654Y003363D01*
X002633Y003327D01*
X002614Y003289D01*
X002599Y003249D01*
X002587Y003209D01*
X002578Y003167D01*
X002573Y003125D01*
X002571Y003083D01*
X003083Y026193D02*
X003041Y026195D01*
X002999Y026200D01*
X002957Y026209D01*
X002917Y026221D01*
X002877Y026236D01*
X002839Y026255D01*
X002803Y026276D01*
X002769Y026301D01*
X002736Y026328D01*
X002706Y026358D01*
X002679Y026391D01*
X002654Y026425D01*
X002633Y026461D01*
X002614Y026499D01*
X002599Y026539D01*
X002587Y026579D01*
X002578Y026621D01*
X002573Y026663D01*
X002571Y026705D01*
X003083Y026193D02*
X003125Y026195D01*
X003167Y026200D01*
X003209Y026209D01*
X003249Y026221D01*
X003289Y026236D01*
X003327Y026255D01*
X003363Y026276D01*
X003397Y026301D01*
X003430Y026328D01*
X003460Y026358D01*
X003487Y026391D01*
X003512Y026425D01*
X003533Y026461D01*
X003552Y026499D01*
X003567Y026539D01*
X003579Y026579D01*
X003588Y026621D01*
X003593Y026663D01*
X003595Y026705D01*
X003593Y026747D01*
X003588Y026789D01*
X003579Y026831D01*
X003567Y026871D01*
X003552Y026911D01*
X003533Y026949D01*
X003512Y026985D01*
X003487Y027019D01*
X003460Y027052D01*
X003430Y027082D01*
X003397Y027109D01*
X003363Y027134D01*
X003327Y027155D01*
X003289Y027174D01*
X003249Y027189D01*
X003209Y027201D01*
X003167Y027210D01*
X003125Y027215D01*
X003083Y027217D01*
X003041Y027215D01*
X002999Y027210D01*
X002957Y027201D01*
X002917Y027189D01*
X002877Y027174D01*
X002839Y027155D01*
X002803Y027134D01*
X002769Y027109D01*
X002736Y027082D01*
X002706Y027052D01*
X002679Y027019D01*
X002654Y026985D01*
X002633Y026949D01*
X002614Y026911D01*
X002599Y026871D01*
X002587Y026831D01*
X002578Y026789D01*
X002573Y026747D01*
X002571Y026705D01*
X030130Y026705D02*
X030132Y026663D01*
X030137Y026621D01*
X030146Y026579D01*
X030158Y026539D01*
X030173Y026499D01*
X030192Y026461D01*
X030213Y026425D01*
X030238Y026391D01*
X030265Y026358D01*
X030295Y026328D01*
X030328Y026301D01*
X030362Y026276D01*
X030398Y026255D01*
X030436Y026236D01*
X030476Y026221D01*
X030516Y026209D01*
X030558Y026200D01*
X030600Y026195D01*
X030642Y026193D01*
X030684Y026195D01*
X030726Y026200D01*
X030768Y026209D01*
X030808Y026221D01*
X030848Y026236D01*
X030886Y026255D01*
X030922Y026276D01*
X030956Y026301D01*
X030989Y026328D01*
X031019Y026358D01*
X031046Y026391D01*
X031071Y026425D01*
X031092Y026461D01*
X031111Y026499D01*
X031126Y026539D01*
X031138Y026579D01*
X031147Y026621D01*
X031152Y026663D01*
X031154Y026705D01*
X031152Y026747D01*
X031147Y026789D01*
X031138Y026831D01*
X031126Y026871D01*
X031111Y026911D01*
X031092Y026949D01*
X031071Y026985D01*
X031046Y027019D01*
X031019Y027052D01*
X030989Y027082D01*
X030956Y027109D01*
X030922Y027134D01*
X030886Y027155D01*
X030848Y027174D01*
X030808Y027189D01*
X030768Y027201D01*
X030726Y027210D01*
X030684Y027215D01*
X030642Y027217D01*
X030600Y027215D01*
X030558Y027210D01*
X030516Y027201D01*
X030476Y027189D01*
X030436Y027174D01*
X030398Y027155D01*
X030362Y027134D01*
X030328Y027109D01*
X030295Y027082D01*
X030265Y027052D01*
X030238Y027019D01*
X030213Y026985D01*
X030192Y026949D01*
X030173Y026911D01*
X030158Y026871D01*
X030146Y026831D01*
X030137Y026789D01*
X030132Y026747D01*
X030130Y026705D01*
D31*
X025583Y005504D03*
X025583Y005130D03*
X025583Y004756D03*
X024677Y004756D03*
X024677Y005130D03*
X024677Y005504D03*
M02*
