G75*
G70*
%OFA0B0*%
%FSLAX24Y24*%
%IPPOS*%
%LPD*%
%AMOC8*
5,1,8,0,0,1.08239X$1,22.5*
%
%ADD10C,0.0000*%
D10*
X000130Y000130D02*
X027811Y000130D01*
X027811Y002827D01*
X027812Y002827D02*
X027814Y002897D01*
X027819Y002968D01*
X027829Y003038D01*
X027841Y003107D01*
X027858Y003175D01*
X027878Y003243D01*
X027901Y003309D01*
X027928Y003374D01*
X027959Y003438D01*
X027992Y003500D01*
X028029Y003560D01*
X028069Y003618D01*
X028112Y003674D01*
X028158Y003728D01*
X028206Y003779D01*
X028257Y003827D01*
X028311Y003873D01*
X028367Y003916D01*
X028425Y003956D01*
X028485Y003993D01*
X028547Y004026D01*
X028611Y004057D01*
X028676Y004084D01*
X028742Y004107D01*
X028810Y004127D01*
X028878Y004144D01*
X028947Y004156D01*
X029017Y004166D01*
X029088Y004171D01*
X029158Y004173D01*
X029228Y004171D01*
X029299Y004166D01*
X029369Y004156D01*
X029438Y004144D01*
X029506Y004127D01*
X029574Y004107D01*
X029640Y004084D01*
X029705Y004057D01*
X029769Y004026D01*
X029831Y003993D01*
X029891Y003956D01*
X029949Y003916D01*
X030005Y003873D01*
X030059Y003827D01*
X030110Y003779D01*
X030158Y003728D01*
X030204Y003674D01*
X030247Y003618D01*
X030287Y003560D01*
X030324Y003500D01*
X030357Y003438D01*
X030388Y003374D01*
X030415Y003309D01*
X030438Y003243D01*
X030458Y003175D01*
X030475Y003107D01*
X030487Y003038D01*
X030497Y002968D01*
X030502Y002897D01*
X030504Y002827D01*
X030504Y001376D01*
X039130Y001376D01*
X034024Y005563D02*
X034026Y005613D01*
X034032Y005663D01*
X034042Y005712D01*
X034056Y005760D01*
X034073Y005807D01*
X034094Y005852D01*
X034119Y005896D01*
X034147Y005937D01*
X034179Y005976D01*
X034213Y006013D01*
X034250Y006047D01*
X034290Y006077D01*
X034332Y006104D01*
X034376Y006128D01*
X034422Y006149D01*
X034469Y006165D01*
X034517Y006178D01*
X034567Y006187D01*
X034616Y006192D01*
X034667Y006193D01*
X034717Y006190D01*
X034766Y006183D01*
X034815Y006172D01*
X034863Y006157D01*
X034909Y006139D01*
X034954Y006117D01*
X034997Y006091D01*
X035038Y006062D01*
X035077Y006030D01*
X035113Y005995D01*
X035145Y005957D01*
X035175Y005917D01*
X035202Y005874D01*
X035225Y005830D01*
X035244Y005784D01*
X035260Y005736D01*
X035272Y005687D01*
X035280Y005638D01*
X035284Y005588D01*
X035284Y005538D01*
X035280Y005488D01*
X035272Y005439D01*
X035260Y005390D01*
X035244Y005342D01*
X035225Y005296D01*
X035202Y005252D01*
X035175Y005209D01*
X035145Y005169D01*
X035113Y005131D01*
X035077Y005096D01*
X035038Y005064D01*
X034997Y005035D01*
X034954Y005009D01*
X034909Y004987D01*
X034863Y004969D01*
X034815Y004954D01*
X034766Y004943D01*
X034717Y004936D01*
X034667Y004933D01*
X034616Y004934D01*
X034567Y004939D01*
X034517Y004948D01*
X034469Y004961D01*
X034422Y004977D01*
X034376Y004998D01*
X034332Y005022D01*
X034290Y005049D01*
X034250Y005079D01*
X034213Y005113D01*
X034179Y005150D01*
X034147Y005189D01*
X034119Y005230D01*
X034094Y005274D01*
X034073Y005319D01*
X034056Y005366D01*
X034042Y005414D01*
X034032Y005463D01*
X034026Y005513D01*
X034024Y005563D01*
X022157Y002276D02*
X022159Y002326D01*
X022165Y002376D01*
X022175Y002425D01*
X022189Y002473D01*
X022206Y002520D01*
X022227Y002565D01*
X022252Y002609D01*
X022280Y002650D01*
X022312Y002689D01*
X022346Y002726D01*
X022383Y002760D01*
X022423Y002790D01*
X022465Y002817D01*
X022509Y002841D01*
X022555Y002862D01*
X022602Y002878D01*
X022650Y002891D01*
X022700Y002900D01*
X022749Y002905D01*
X022800Y002906D01*
X022850Y002903D01*
X022899Y002896D01*
X022948Y002885D01*
X022996Y002870D01*
X023042Y002852D01*
X023087Y002830D01*
X023130Y002804D01*
X023171Y002775D01*
X023210Y002743D01*
X023246Y002708D01*
X023278Y002670D01*
X023308Y002630D01*
X023335Y002587D01*
X023358Y002543D01*
X023377Y002497D01*
X023393Y002449D01*
X023405Y002400D01*
X023413Y002351D01*
X023417Y002301D01*
X023417Y002251D01*
X023413Y002201D01*
X023405Y002152D01*
X023393Y002103D01*
X023377Y002055D01*
X023358Y002009D01*
X023335Y001965D01*
X023308Y001922D01*
X023278Y001882D01*
X023246Y001844D01*
X023210Y001809D01*
X023171Y001777D01*
X023130Y001748D01*
X023087Y001722D01*
X023042Y001700D01*
X022996Y001682D01*
X022948Y001667D01*
X022899Y001656D01*
X022850Y001649D01*
X022800Y001646D01*
X022749Y001647D01*
X022700Y001652D01*
X022650Y001661D01*
X022602Y001674D01*
X022555Y001690D01*
X022509Y001711D01*
X022465Y001735D01*
X022423Y001762D01*
X022383Y001792D01*
X022346Y001826D01*
X022312Y001863D01*
X022280Y001902D01*
X022252Y001943D01*
X022227Y001987D01*
X022206Y002032D01*
X022189Y002079D01*
X022175Y002127D01*
X022165Y002176D01*
X022159Y002226D01*
X022157Y002276D01*
X004091Y002276D02*
X004093Y002326D01*
X004099Y002376D01*
X004109Y002425D01*
X004123Y002473D01*
X004140Y002520D01*
X004161Y002565D01*
X004186Y002609D01*
X004214Y002650D01*
X004246Y002689D01*
X004280Y002726D01*
X004317Y002760D01*
X004357Y002790D01*
X004399Y002817D01*
X004443Y002841D01*
X004489Y002862D01*
X004536Y002878D01*
X004584Y002891D01*
X004634Y002900D01*
X004683Y002905D01*
X004734Y002906D01*
X004784Y002903D01*
X004833Y002896D01*
X004882Y002885D01*
X004930Y002870D01*
X004976Y002852D01*
X005021Y002830D01*
X005064Y002804D01*
X005105Y002775D01*
X005144Y002743D01*
X005180Y002708D01*
X005212Y002670D01*
X005242Y002630D01*
X005269Y002587D01*
X005292Y002543D01*
X005311Y002497D01*
X005327Y002449D01*
X005339Y002400D01*
X005347Y002351D01*
X005351Y002301D01*
X005351Y002251D01*
X005347Y002201D01*
X005339Y002152D01*
X005327Y002103D01*
X005311Y002055D01*
X005292Y002009D01*
X005269Y001965D01*
X005242Y001922D01*
X005212Y001882D01*
X005180Y001844D01*
X005144Y001809D01*
X005105Y001777D01*
X005064Y001748D01*
X005021Y001722D01*
X004976Y001700D01*
X004930Y001682D01*
X004882Y001667D01*
X004833Y001656D01*
X004784Y001649D01*
X004734Y001646D01*
X004683Y001647D01*
X004634Y001652D01*
X004584Y001661D01*
X004536Y001674D01*
X004489Y001690D01*
X004443Y001711D01*
X004399Y001735D01*
X004357Y001762D01*
X004317Y001792D01*
X004280Y001826D01*
X004246Y001863D01*
X004214Y001902D01*
X004186Y001943D01*
X004161Y001987D01*
X004140Y002032D01*
X004123Y002079D01*
X004109Y002127D01*
X004099Y002176D01*
X004093Y002226D01*
X004091Y002276D01*
X000130Y000130D02*
X000130Y029130D01*
X027811Y029130D01*
X027811Y026429D01*
X027812Y026429D02*
X027814Y026359D01*
X027819Y026288D01*
X027829Y026218D01*
X027841Y026149D01*
X027858Y026081D01*
X027878Y026013D01*
X027901Y025947D01*
X027928Y025882D01*
X027959Y025818D01*
X027992Y025756D01*
X028029Y025696D01*
X028069Y025638D01*
X028112Y025582D01*
X028158Y025528D01*
X028206Y025477D01*
X028257Y025429D01*
X028311Y025383D01*
X028367Y025340D01*
X028425Y025300D01*
X028485Y025263D01*
X028547Y025230D01*
X028611Y025199D01*
X028676Y025172D01*
X028742Y025149D01*
X028810Y025129D01*
X028878Y025112D01*
X028947Y025100D01*
X029017Y025090D01*
X029088Y025085D01*
X029158Y025083D01*
X029228Y025085D01*
X029299Y025090D01*
X029369Y025100D01*
X029438Y025112D01*
X029506Y025129D01*
X029574Y025149D01*
X029640Y025172D01*
X029705Y025199D01*
X029769Y025230D01*
X029831Y025263D01*
X029891Y025300D01*
X029949Y025340D01*
X030005Y025383D01*
X030059Y025429D01*
X030110Y025477D01*
X030158Y025528D01*
X030204Y025582D01*
X030247Y025638D01*
X030287Y025696D01*
X030324Y025756D01*
X030357Y025818D01*
X030388Y025882D01*
X030415Y025947D01*
X030438Y026013D01*
X030458Y026081D01*
X030475Y026149D01*
X030487Y026218D01*
X030497Y026288D01*
X030502Y026359D01*
X030504Y026429D01*
X030504Y027880D01*
X039130Y027880D01*
X034024Y023693D02*
X034026Y023743D01*
X034032Y023793D01*
X034042Y023842D01*
X034056Y023890D01*
X034073Y023937D01*
X034094Y023982D01*
X034119Y024026D01*
X034147Y024067D01*
X034179Y024106D01*
X034213Y024143D01*
X034250Y024177D01*
X034290Y024207D01*
X034332Y024234D01*
X034376Y024258D01*
X034422Y024279D01*
X034469Y024295D01*
X034517Y024308D01*
X034567Y024317D01*
X034616Y024322D01*
X034667Y024323D01*
X034717Y024320D01*
X034766Y024313D01*
X034815Y024302D01*
X034863Y024287D01*
X034909Y024269D01*
X034954Y024247D01*
X034997Y024221D01*
X035038Y024192D01*
X035077Y024160D01*
X035113Y024125D01*
X035145Y024087D01*
X035175Y024047D01*
X035202Y024004D01*
X035225Y023960D01*
X035244Y023914D01*
X035260Y023866D01*
X035272Y023817D01*
X035280Y023768D01*
X035284Y023718D01*
X035284Y023668D01*
X035280Y023618D01*
X035272Y023569D01*
X035260Y023520D01*
X035244Y023472D01*
X035225Y023426D01*
X035202Y023382D01*
X035175Y023339D01*
X035145Y023299D01*
X035113Y023261D01*
X035077Y023226D01*
X035038Y023194D01*
X034997Y023165D01*
X034954Y023139D01*
X034909Y023117D01*
X034863Y023099D01*
X034815Y023084D01*
X034766Y023073D01*
X034717Y023066D01*
X034667Y023063D01*
X034616Y023064D01*
X034567Y023069D01*
X034517Y023078D01*
X034469Y023091D01*
X034422Y023107D01*
X034376Y023128D01*
X034332Y023152D01*
X034290Y023179D01*
X034250Y023209D01*
X034213Y023243D01*
X034179Y023280D01*
X034147Y023319D01*
X034119Y023360D01*
X034094Y023404D01*
X034073Y023449D01*
X034056Y023496D01*
X034042Y023544D01*
X034032Y023593D01*
X034026Y023643D01*
X034024Y023693D01*
X022157Y026980D02*
X022159Y027030D01*
X022165Y027080D01*
X022175Y027129D01*
X022189Y027177D01*
X022206Y027224D01*
X022227Y027269D01*
X022252Y027313D01*
X022280Y027354D01*
X022312Y027393D01*
X022346Y027430D01*
X022383Y027464D01*
X022423Y027494D01*
X022465Y027521D01*
X022509Y027545D01*
X022555Y027566D01*
X022602Y027582D01*
X022650Y027595D01*
X022700Y027604D01*
X022749Y027609D01*
X022800Y027610D01*
X022850Y027607D01*
X022899Y027600D01*
X022948Y027589D01*
X022996Y027574D01*
X023042Y027556D01*
X023087Y027534D01*
X023130Y027508D01*
X023171Y027479D01*
X023210Y027447D01*
X023246Y027412D01*
X023278Y027374D01*
X023308Y027334D01*
X023335Y027291D01*
X023358Y027247D01*
X023377Y027201D01*
X023393Y027153D01*
X023405Y027104D01*
X023413Y027055D01*
X023417Y027005D01*
X023417Y026955D01*
X023413Y026905D01*
X023405Y026856D01*
X023393Y026807D01*
X023377Y026759D01*
X023358Y026713D01*
X023335Y026669D01*
X023308Y026626D01*
X023278Y026586D01*
X023246Y026548D01*
X023210Y026513D01*
X023171Y026481D01*
X023130Y026452D01*
X023087Y026426D01*
X023042Y026404D01*
X022996Y026386D01*
X022948Y026371D01*
X022899Y026360D01*
X022850Y026353D01*
X022800Y026350D01*
X022749Y026351D01*
X022700Y026356D01*
X022650Y026365D01*
X022602Y026378D01*
X022555Y026394D01*
X022509Y026415D01*
X022465Y026439D01*
X022423Y026466D01*
X022383Y026496D01*
X022346Y026530D01*
X022312Y026567D01*
X022280Y026606D01*
X022252Y026647D01*
X022227Y026691D01*
X022206Y026736D01*
X022189Y026783D01*
X022175Y026831D01*
X022165Y026880D01*
X022159Y026930D01*
X022157Y026980D01*
X004091Y026980D02*
X004093Y027030D01*
X004099Y027080D01*
X004109Y027129D01*
X004123Y027177D01*
X004140Y027224D01*
X004161Y027269D01*
X004186Y027313D01*
X004214Y027354D01*
X004246Y027393D01*
X004280Y027430D01*
X004317Y027464D01*
X004357Y027494D01*
X004399Y027521D01*
X004443Y027545D01*
X004489Y027566D01*
X004536Y027582D01*
X004584Y027595D01*
X004634Y027604D01*
X004683Y027609D01*
X004734Y027610D01*
X004784Y027607D01*
X004833Y027600D01*
X004882Y027589D01*
X004930Y027574D01*
X004976Y027556D01*
X005021Y027534D01*
X005064Y027508D01*
X005105Y027479D01*
X005144Y027447D01*
X005180Y027412D01*
X005212Y027374D01*
X005242Y027334D01*
X005269Y027291D01*
X005292Y027247D01*
X005311Y027201D01*
X005327Y027153D01*
X005339Y027104D01*
X005347Y027055D01*
X005351Y027005D01*
X005351Y026955D01*
X005347Y026905D01*
X005339Y026856D01*
X005327Y026807D01*
X005311Y026759D01*
X005292Y026713D01*
X005269Y026669D01*
X005242Y026626D01*
X005212Y026586D01*
X005180Y026548D01*
X005144Y026513D01*
X005105Y026481D01*
X005064Y026452D01*
X005021Y026426D01*
X004976Y026404D01*
X004930Y026386D01*
X004882Y026371D01*
X004833Y026360D01*
X004784Y026353D01*
X004734Y026350D01*
X004683Y026351D01*
X004634Y026356D01*
X004584Y026365D01*
X004536Y026378D01*
X004489Y026394D01*
X004443Y026415D01*
X004399Y026439D01*
X004357Y026466D01*
X004317Y026496D01*
X004280Y026530D01*
X004246Y026567D01*
X004214Y026606D01*
X004186Y026647D01*
X004161Y026691D01*
X004140Y026736D01*
X004123Y026783D01*
X004109Y026831D01*
X004099Y026880D01*
X004093Y026930D01*
X004091Y026980D01*
M02*
