%
M48
M72
T01C0.0118
T02C0.0315
T03C0.0400
T04C0.0413
T05C0.0512
%
T01
X14630Y4630
X19130Y7130
X18630Y8830
X18130Y10630
X18130Y11030
X18930Y11630
X18380Y11880
X17130Y12330
X14630Y11030
X14630Y10630
X13630Y12630
X10130Y12630
X15130Y15630
X15730Y16730
X17730Y18330
X18130Y18330
X18380Y19380
X18130Y21630
X17730Y21630
X21130Y23530
X21130Y25830
X14230Y19630
X17130Y14630
X21830Y13730
X22030Y13080
X22630Y13030
X24730Y13030
X24730Y13730
X25880Y11880
X25630Y10830
X25630Y9930
X25130Y8930
X24430Y9730
X23230Y9430
X22330Y10430
X21880Y10430
X28130Y13730
X28130Y14130
X28830Y15130
X28130Y15430
X26655Y16130
X26130Y16530
X25730Y16330
X25730Y16930
X26830Y17330
X26930Y17930
X26830Y18230
X25880Y19380
X24230Y18130
X23630Y18130
X22530Y18430
X21630Y18380
X22130Y19255
X21630Y19380
X23005Y19380
X22005Y16380
X22280Y16005
X21880Y15380
X24880Y15755
X30330Y15430
X30330Y15030
X31130Y14930
X33530Y18330
X33530Y18930
X36230Y11030
X36930Y10530
X36930Y10130
X36930Y9330
X27630Y4630
T02
X13130Y5130
X13130Y6130
X13130Y7130
X13130Y8130
X13130Y9130
X13130Y10130
X13130Y11130
X13130Y12130
X13130Y13130
X13130Y14130
X13130Y15130
X13130Y16130
X13130Y17130
X13130Y18130
X13130Y19130
X13130Y20130
X13130Y21130
X13130Y22130
X13130Y23130
X13130Y24130
X30130Y24130
X30130Y23130
X30130Y22130
X30130Y7130
X30130Y6130
X30130Y5130
T03
X35630Y13134
X35630Y14134
X35630Y15134
X35630Y16134
X35630Y17134
X35630Y18134
X35630Y19134
X35630Y20134
X35630Y21134
X33020Y22350
X31240Y22350
X31240Y24910
X33020Y24910
X1130Y14630
X1130Y13630
T04
X37567Y10618
X37567Y8650
T05
X38630Y8256
X38630Y11012
M30
