G75*
G70*
%OFA0B0*%
%FSLAX24Y24*%
%IPPOS*%
%LPD*%
%AMOC8*
5,1,8,0,0,1.08239X$1,22.5*
%
%ADD10R,0.0551X0.0138*%
%ADD11C,0.0768*%
%ADD12C,0.0620*%
%ADD13R,0.0591X0.0591*%
%ADD14C,0.0160*%
%ADD15C,0.0600*%
%ADD16C,0.0740*%
%ADD17C,0.0515*%
%ADD18C,0.0238*%
%ADD19C,0.0100*%
%ADD20C,0.0160*%
%ADD21C,0.0060*%
D10*
X037587Y009122D03*
X037587Y009378D03*
X037587Y009634D03*
X037587Y009890D03*
X037587Y010146D03*
D11*
X038630Y011012D03*
X038630Y008256D03*
D12*
X037567Y008650D03*
X037567Y010618D03*
D13*
X038630Y010028D03*
X038630Y009240D03*
D14*
X022130Y021630D03*
X022130Y021630D03*
X022130Y021630D03*
X022130Y021630D03*
D15*
X035330Y021134D02*
X035930Y021134D01*
X035930Y020134D02*
X035330Y020134D01*
X035330Y019134D02*
X035930Y019134D01*
X035930Y018134D02*
X035330Y018134D01*
X035330Y017134D02*
X035930Y017134D01*
X035930Y016134D02*
X035330Y016134D01*
X035330Y015134D02*
X035930Y015134D01*
X035930Y014134D02*
X035330Y014134D01*
X035330Y013134D02*
X035930Y013134D01*
D16*
X033020Y022350D03*
X031240Y022350D03*
X031240Y024910D03*
X033020Y024910D03*
X001130Y014630D03*
X001130Y013630D03*
D17*
X012873Y013130D02*
X013387Y013130D01*
X013387Y012130D02*
X012873Y012130D01*
X012873Y011130D02*
X013387Y011130D01*
X013387Y010130D02*
X012873Y010130D01*
X012873Y009130D02*
X013387Y009130D01*
X013387Y008130D02*
X012873Y008130D01*
X012873Y007130D02*
X013387Y007130D01*
X013387Y006130D02*
X012873Y006130D01*
X012873Y005130D02*
X013387Y005130D01*
X013387Y014130D02*
X012873Y014130D01*
X012873Y015130D02*
X013387Y015130D01*
X013387Y016130D02*
X012873Y016130D01*
X012873Y017130D02*
X013387Y017130D01*
X013387Y018130D02*
X012873Y018130D01*
X012873Y019130D02*
X013387Y019130D01*
X013387Y020130D02*
X012873Y020130D01*
X012873Y021130D02*
X013387Y021130D01*
X013387Y022130D02*
X012873Y022130D01*
X012873Y023130D02*
X013387Y023130D01*
X013387Y024130D02*
X012873Y024130D01*
X029873Y024130D02*
X030387Y024130D01*
X030387Y023130D02*
X029873Y023130D01*
X029873Y022130D02*
X030387Y022130D01*
X030387Y007130D02*
X029873Y007130D01*
X029873Y006130D02*
X030387Y006130D01*
X030387Y005130D02*
X029873Y005130D01*
D18*
X027630Y004630D03*
X025130Y008930D03*
X024430Y009730D03*
X025630Y009930D03*
X025630Y010830D03*
X025880Y011880D03*
X024730Y013030D03*
X024730Y013730D03*
X022630Y013030D03*
X022030Y013080D03*
X021830Y013730D03*
X021880Y015380D03*
X022280Y016005D03*
X022005Y016380D03*
X023630Y018130D03*
X024230Y018130D03*
X022530Y018430D03*
X021630Y018380D03*
X022130Y019255D03*
X021630Y019380D03*
X023005Y019380D03*
X025880Y019380D03*
X026830Y018230D03*
X026930Y017930D03*
X026830Y017330D03*
X026130Y016530D03*
X025730Y016330D03*
X025730Y016930D03*
X026655Y016130D03*
X028130Y015430D03*
X028830Y015130D03*
X028130Y014130D03*
X028130Y013730D03*
X030330Y015030D03*
X030330Y015430D03*
X031130Y014930D03*
X033530Y018330D03*
X033530Y018930D03*
X024880Y015755D03*
X018930Y011630D03*
X018380Y011880D03*
X018130Y011030D03*
X018130Y010630D03*
X018630Y008830D03*
X019130Y007130D03*
X023230Y009430D03*
X022330Y010430D03*
X021880Y010430D03*
X017130Y012330D03*
X014630Y011030D03*
X014630Y010630D03*
X013630Y012630D03*
X010130Y012630D03*
X015130Y015630D03*
X015730Y016730D03*
X017730Y018330D03*
X018130Y018330D03*
X018380Y019380D03*
X018130Y021630D03*
X017730Y021630D03*
X021130Y023530D03*
X021130Y025830D03*
X014230Y019630D03*
X017130Y014630D03*
X014630Y004630D03*
X036230Y011030D03*
X036930Y010530D03*
X036930Y010130D03*
X036930Y009330D03*
D19*
X037234Y009634D01*
X037587Y009634D01*
X037587Y009890D02*
X037170Y009890D01*
X036930Y010130D01*
X037030Y010430D02*
X036930Y010530D01*
X037030Y010430D02*
X037314Y010146D01*
X037587Y010146D01*
X037579Y009130D02*
X037587Y009122D01*
X037579Y009130D02*
X037330Y009130D01*
X037230Y009030D01*
X036330Y009030D01*
X036230Y009130D01*
X036230Y011030D01*
X036230Y004730D01*
X035830Y004330D01*
X027930Y004330D01*
X027630Y004630D01*
X027130Y004630D01*
X014630Y004630D01*
X018930Y007330D02*
X019130Y007130D01*
X018930Y007330D02*
X018930Y011630D01*
X019090Y011466D02*
X019159Y011535D01*
X019159Y011725D01*
X019025Y011859D01*
X018835Y011859D01*
X018701Y011725D01*
X018701Y011535D01*
X018770Y011466D01*
X018770Y008630D01*
X014630Y008630D01*
X014630Y010401D01*
X014725Y010401D01*
X014794Y010470D01*
X017966Y010470D01*
X018035Y010401D01*
X018225Y010401D01*
X018359Y010535D01*
X018359Y010725D01*
X018254Y010830D01*
X018359Y010935D01*
X018359Y011125D01*
X018225Y011259D01*
X018035Y011259D01*
X017966Y011190D01*
X014794Y011190D01*
X014725Y011259D01*
X014630Y011259D01*
X014630Y015440D01*
X014996Y015440D01*
X015035Y015401D01*
X015225Y015401D01*
X015359Y015535D01*
X015359Y015725D01*
X015225Y015859D01*
X015035Y015859D01*
X014996Y015820D01*
X014630Y015820D01*
X014630Y016570D01*
X015566Y016570D01*
X015635Y016501D01*
X015825Y016501D01*
X015959Y016635D01*
X015959Y016825D01*
X015825Y016959D01*
X015635Y016959D01*
X015566Y016890D01*
X014630Y016890D01*
X014630Y021630D01*
X017501Y021630D01*
X017501Y021535D01*
X017570Y021466D01*
X017570Y018494D01*
X017501Y018425D01*
X017501Y018235D01*
X017635Y018101D01*
X017825Y018101D01*
X017930Y018206D01*
X018035Y018101D01*
X018225Y018101D01*
X018359Y018235D01*
X018359Y018425D01*
X018290Y018494D01*
X018290Y021466D01*
X018359Y021535D01*
X018359Y021630D01*
X021904Y021630D01*
X021940Y021594D01*
X021940Y021551D01*
X022051Y021440D01*
X022094Y021440D01*
X022130Y021404D01*
X022130Y016179D01*
X022051Y016100D01*
X022051Y015910D01*
X022130Y015831D01*
X022130Y013130D01*
X022170Y013130D01*
X022170Y010594D01*
X022101Y010525D01*
X022101Y010335D01*
X022235Y010201D01*
X022425Y010201D01*
X022559Y010335D01*
X022559Y010525D01*
X022490Y010594D01*
X022490Y012846D01*
X022535Y012801D01*
X022559Y012801D01*
X023930Y011430D01*
X023930Y008630D01*
X019090Y008630D01*
X019090Y011466D01*
X019090Y011458D02*
X022170Y011458D01*
X022170Y011556D02*
X019159Y011556D01*
X019159Y011655D02*
X022170Y011655D01*
X022170Y011753D02*
X019131Y011753D01*
X019032Y011852D02*
X022170Y011852D01*
X022170Y011950D02*
X014630Y011950D01*
X014630Y011852D02*
X018828Y011852D01*
X018729Y011753D02*
X014630Y011753D01*
X014630Y011655D02*
X018701Y011655D01*
X018701Y011556D02*
X014630Y011556D01*
X014630Y011458D02*
X018770Y011458D01*
X018770Y011359D02*
X014630Y011359D01*
X014630Y011261D02*
X018770Y011261D01*
X018770Y011162D02*
X018322Y011162D01*
X018359Y011064D02*
X018770Y011064D01*
X018770Y010965D02*
X018359Y010965D01*
X018290Y010867D02*
X018770Y010867D01*
X018770Y010768D02*
X018316Y010768D01*
X018359Y010670D02*
X018770Y010670D01*
X018770Y010571D02*
X018359Y010571D01*
X018296Y010473D02*
X018770Y010473D01*
X018770Y010374D02*
X014630Y010374D01*
X014630Y010276D02*
X018770Y010276D01*
X018770Y010177D02*
X014630Y010177D01*
X014630Y010079D02*
X018770Y010079D01*
X018770Y009980D02*
X014630Y009980D01*
X014630Y009882D02*
X018770Y009882D01*
X018770Y009783D02*
X014630Y009783D01*
X014630Y009685D02*
X018770Y009685D01*
X018770Y009586D02*
X014630Y009586D01*
X014630Y009488D02*
X018770Y009488D01*
X018770Y009389D02*
X014630Y009389D01*
X014630Y009291D02*
X018770Y009291D01*
X018770Y009192D02*
X014630Y009192D01*
X014630Y009094D02*
X018770Y009094D01*
X018770Y008995D02*
X014630Y008995D01*
X014630Y008897D02*
X018770Y008897D01*
X018770Y008798D02*
X014630Y008798D01*
X014630Y008700D02*
X018770Y008700D01*
X018630Y008830D02*
X018630Y011880D01*
X021130Y011880D01*
X021755Y012505D01*
X022030Y012780D01*
X022030Y013080D01*
X022130Y013230D01*
X022130Y015130D01*
X021880Y015380D01*
X022005Y015505D01*
X022005Y016380D01*
X022005Y018380D01*
X022005Y019130D01*
X022130Y019255D01*
X022130Y021630D01*
X033630Y021630D01*
X034126Y021134D01*
X035630Y021134D01*
X035630Y020134D02*
X034426Y018930D01*
X033530Y018930D01*
X033530Y018330D02*
X034434Y018330D01*
X035630Y017134D01*
X035630Y016134D02*
X035426Y015930D01*
X027930Y015930D01*
X027730Y015730D01*
X026330Y015730D01*
X026130Y015930D01*
X026130Y016230D01*
X026130Y016530D01*
X026290Y016366D02*
X026359Y016435D01*
X026359Y016625D01*
X026225Y016759D01*
X026035Y016759D01*
X025901Y016625D01*
X025901Y016483D01*
X025825Y016559D01*
X025635Y016559D01*
X025501Y016425D01*
X025501Y016235D01*
X025570Y016166D01*
X025570Y015564D01*
X025670Y015464D01*
X025764Y015370D01*
X027896Y015370D01*
X027901Y015375D01*
X027901Y015335D01*
X028035Y015201D01*
X028225Y015201D01*
X028294Y015270D01*
X030166Y015270D01*
X030206Y015230D01*
X030101Y015125D01*
X030101Y014935D01*
X030235Y014801D01*
X030425Y014801D01*
X030494Y014870D01*
X030630Y014870D01*
X030630Y014294D01*
X028290Y014294D01*
X028225Y014359D01*
X028035Y014359D01*
X027901Y014225D01*
X027901Y014035D01*
X028006Y013930D01*
X027901Y013825D01*
X027901Y013635D01*
X028035Y013501D01*
X028225Y013501D01*
X028294Y013570D01*
X030630Y013570D01*
X030630Y008630D01*
X024090Y008630D01*
X024090Y008970D01*
X024496Y008970D01*
X024590Y009064D01*
X025401Y009875D01*
X025401Y009835D01*
X025470Y009766D01*
X025470Y009496D01*
X025133Y009159D01*
X025035Y009159D01*
X024901Y009025D01*
X024901Y008835D01*
X025035Y008701D01*
X025225Y008701D01*
X025359Y008835D01*
X025359Y008933D01*
X025790Y009364D01*
X025790Y009766D01*
X025859Y009835D01*
X025859Y010025D01*
X025725Y010159D01*
X025685Y010159D01*
X026040Y010514D01*
X026040Y011716D01*
X026109Y011785D01*
X026109Y011975D01*
X025975Y012109D01*
X025785Y012109D01*
X025651Y011975D01*
X025651Y011785D01*
X025720Y011716D01*
X025720Y010646D01*
X024364Y009290D01*
X024090Y009290D01*
X024090Y011496D01*
X022755Y012831D01*
X022859Y012935D01*
X024501Y012935D01*
X024635Y012801D01*
X024825Y012801D01*
X024959Y012935D01*
X030630Y012935D01*
X030630Y012837D02*
X024860Y012837D01*
X024959Y012935D02*
X024959Y013125D01*
X024890Y013194D01*
X024890Y013566D01*
X024959Y013635D01*
X024959Y013825D01*
X024825Y013959D01*
X024635Y013959D01*
X024501Y013825D01*
X024501Y013635D01*
X024570Y013566D01*
X024570Y013194D01*
X024501Y013125D01*
X024501Y012935D01*
X024501Y013034D02*
X022859Y013034D01*
X022859Y013125D02*
X022790Y013194D01*
X022790Y016396D01*
X022490Y016696D01*
X022490Y018164D01*
X022527Y018201D01*
X022625Y018201D01*
X022759Y018335D01*
X022759Y018525D01*
X022625Y018659D01*
X022435Y018659D01*
X022301Y018525D01*
X022301Y018427D01*
X022290Y018416D01*
X022290Y019091D01*
X022359Y019160D01*
X022359Y019350D01*
X022290Y019419D01*
X022290Y021470D01*
X030630Y021470D01*
X030630Y016090D01*
X027864Y016090D01*
X027770Y015996D01*
X027664Y015890D01*
X026396Y015890D01*
X026290Y015996D01*
X026290Y016366D01*
X026306Y016383D02*
X026670Y016383D01*
X026670Y016371D02*
X026658Y016359D01*
X026560Y016359D01*
X026426Y016225D01*
X026426Y016035D01*
X026560Y015901D01*
X026750Y015901D01*
X026884Y016035D01*
X026884Y016133D01*
X026990Y016239D01*
X026990Y017166D01*
X027059Y017235D01*
X027059Y017425D01*
X026925Y017559D01*
X026785Y017559D01*
X026927Y017701D01*
X027025Y017701D01*
X027159Y017835D01*
X027159Y018025D01*
X027025Y018159D01*
X026835Y018159D01*
X026701Y018025D01*
X026701Y017927D01*
X025879Y017105D01*
X025825Y017159D01*
X025635Y017159D01*
X025501Y017025D01*
X025501Y016835D01*
X025635Y016701D01*
X025825Y016701D01*
X025894Y016770D01*
X025996Y016770D01*
X026601Y017375D01*
X026601Y017235D01*
X026670Y017166D01*
X026670Y016371D01*
X026670Y016481D02*
X026359Y016481D01*
X026359Y016580D02*
X026670Y016580D01*
X026670Y016678D02*
X026306Y016678D01*
X026101Y016875D02*
X026670Y016875D01*
X026670Y016777D02*
X026003Y016777D01*
X025954Y016678D02*
X022508Y016678D01*
X022490Y016777D02*
X025560Y016777D01*
X025501Y016875D02*
X022490Y016875D01*
X022490Y016974D02*
X025501Y016974D01*
X025548Y017072D02*
X022490Y017072D01*
X022490Y017171D02*
X025944Y017171D01*
X026043Y017269D02*
X022490Y017269D01*
X022490Y017368D02*
X026141Y017368D01*
X026240Y017466D02*
X022490Y017466D01*
X022490Y017565D02*
X026338Y017565D01*
X026437Y017663D02*
X022490Y017663D01*
X022490Y017762D02*
X026535Y017762D01*
X026634Y017860D02*
X022490Y017860D01*
X022490Y017959D02*
X023478Y017959D01*
X023535Y017901D02*
X023725Y017901D01*
X023794Y017970D01*
X024066Y017970D01*
X024135Y017901D01*
X024325Y017901D01*
X024459Y018035D01*
X024459Y018225D01*
X024325Y018359D01*
X024135Y018359D01*
X024066Y018290D01*
X023794Y018290D01*
X023725Y018359D01*
X023535Y018359D01*
X023401Y018225D01*
X023401Y018035D01*
X023535Y017901D01*
X023401Y018057D02*
X022490Y018057D01*
X022490Y018156D02*
X023401Y018156D01*
X023430Y018254D02*
X022678Y018254D01*
X022759Y018353D02*
X023529Y018353D01*
X023731Y018353D02*
X024129Y018353D01*
X024331Y018353D02*
X030630Y018353D01*
X030630Y018451D02*
X022759Y018451D01*
X022734Y018550D02*
X030630Y018550D01*
X030630Y018648D02*
X022636Y018648D01*
X022424Y018648D02*
X022290Y018648D01*
X022290Y018550D02*
X022326Y018550D01*
X022301Y018451D02*
X022290Y018451D01*
X022130Y018451D02*
X021859Y018451D01*
X021859Y018475D02*
X021790Y018544D01*
X021790Y019216D01*
X021859Y019285D01*
X021859Y019475D01*
X021725Y019609D01*
X021535Y019609D01*
X021401Y019475D01*
X021401Y019285D01*
X021470Y019216D01*
X021470Y018544D01*
X021401Y018475D01*
X021401Y018285D01*
X021535Y018151D01*
X021633Y018151D01*
X021670Y018114D01*
X021670Y016696D01*
X021470Y016496D01*
X021470Y015164D01*
X021564Y015070D01*
X021670Y014964D01*
X021670Y013894D01*
X021601Y013825D01*
X021601Y013635D01*
X021735Y013501D01*
X021925Y013501D01*
X022059Y013635D01*
X022059Y013825D01*
X021990Y013894D01*
X021990Y015096D01*
X021790Y015296D01*
X021790Y016364D01*
X021896Y016470D01*
X021990Y016564D01*
X021990Y018246D01*
X021859Y018377D01*
X021859Y018475D01*
X021790Y018550D02*
X022130Y018550D01*
X022130Y018648D02*
X021790Y018648D01*
X021790Y018747D02*
X022130Y018747D01*
X022130Y018845D02*
X021790Y018845D01*
X021790Y018944D02*
X022130Y018944D01*
X022130Y019042D02*
X021790Y019042D01*
X021790Y019141D02*
X022130Y019141D01*
X022130Y019239D02*
X021813Y019239D01*
X021859Y019338D02*
X022130Y019338D01*
X022130Y019255D02*
X021755Y019630D01*
X018630Y019630D01*
X018380Y019380D01*
X018290Y019338D02*
X021401Y019338D01*
X021401Y019436D02*
X018290Y019436D01*
X018290Y019535D02*
X021461Y019535D01*
X021630Y019380D02*
X021630Y019005D01*
X021630Y018380D01*
X021830Y018180D01*
X021830Y016630D01*
X021630Y016430D01*
X021630Y015230D01*
X021830Y015030D01*
X021830Y013730D01*
X022059Y013723D02*
X022130Y013723D01*
X022130Y013625D02*
X022048Y013625D01*
X022130Y013526D02*
X021950Y013526D01*
X022130Y013428D02*
X017290Y013428D01*
X017290Y013526D02*
X021710Y013526D01*
X021612Y013625D02*
X017290Y013625D01*
X017290Y013723D02*
X021601Y013723D01*
X021601Y013822D02*
X017290Y013822D01*
X017290Y013920D02*
X021670Y013920D01*
X021670Y014019D02*
X017290Y014019D01*
X017290Y014117D02*
X021670Y014117D01*
X021670Y014216D02*
X017290Y014216D01*
X017290Y014314D02*
X021670Y014314D01*
X021670Y014413D02*
X017290Y014413D01*
X017290Y014466D02*
X017359Y014535D01*
X017359Y014725D01*
X017225Y014859D01*
X017035Y014859D01*
X016901Y014725D01*
X016901Y014535D01*
X016970Y014466D01*
X016970Y012494D01*
X016901Y012425D01*
X016901Y012235D01*
X017035Y012101D01*
X017225Y012101D01*
X017359Y012235D01*
X017359Y012425D01*
X017290Y012494D01*
X017290Y014466D01*
X017335Y014511D02*
X021670Y014511D01*
X021670Y014610D02*
X017359Y014610D01*
X017359Y014708D02*
X021670Y014708D01*
X021670Y014807D02*
X017277Y014807D01*
X017130Y014630D02*
X017130Y012330D01*
X017359Y012344D02*
X022170Y012344D01*
X022170Y012246D02*
X017359Y012246D01*
X017271Y012147D02*
X022170Y012147D01*
X022170Y012049D02*
X014630Y012049D01*
X014630Y012147D02*
X016989Y012147D01*
X016901Y012246D02*
X014630Y012246D01*
X014630Y012344D02*
X016901Y012344D01*
X016919Y012443D02*
X014630Y012443D01*
X014630Y012541D02*
X016970Y012541D01*
X016970Y012640D02*
X014630Y012640D01*
X014630Y012738D02*
X016970Y012738D01*
X016970Y012837D02*
X014630Y012837D01*
X014630Y012935D02*
X016970Y012935D01*
X016970Y013034D02*
X014630Y013034D01*
X014630Y013132D02*
X016970Y013132D01*
X016970Y013231D02*
X014630Y013231D01*
X014630Y013329D02*
X016970Y013329D01*
X016970Y013428D02*
X014630Y013428D01*
X014630Y013526D02*
X016970Y013526D01*
X016970Y013625D02*
X014630Y013625D01*
X014630Y013723D02*
X016970Y013723D01*
X016970Y013822D02*
X014630Y013822D01*
X014630Y013920D02*
X016970Y013920D01*
X016970Y014019D02*
X014630Y014019D01*
X014630Y014117D02*
X016970Y014117D01*
X016970Y014216D02*
X014630Y014216D01*
X014630Y014314D02*
X016970Y014314D01*
X016970Y014413D02*
X014630Y014413D01*
X014630Y014511D02*
X016925Y014511D01*
X016901Y014610D02*
X014630Y014610D01*
X014630Y014708D02*
X016901Y014708D01*
X016983Y014807D02*
X014630Y014807D01*
X014630Y014905D02*
X021670Y014905D01*
X021630Y015004D02*
X014630Y015004D01*
X014630Y015102D02*
X021532Y015102D01*
X021470Y015201D02*
X014630Y015201D01*
X014630Y015299D02*
X021470Y015299D01*
X021470Y015398D02*
X014630Y015398D01*
X015320Y015496D02*
X021470Y015496D01*
X021470Y015595D02*
X015359Y015595D01*
X015359Y015693D02*
X021470Y015693D01*
X021470Y015792D02*
X015292Y015792D01*
X014630Y015890D02*
X021470Y015890D01*
X021470Y015989D02*
X014630Y015989D01*
X014630Y016087D02*
X021470Y016087D01*
X021470Y016186D02*
X014630Y016186D01*
X014630Y016284D02*
X021470Y016284D01*
X021470Y016383D02*
X014630Y016383D01*
X014630Y016481D02*
X021470Y016481D01*
X021553Y016580D02*
X015903Y016580D01*
X015959Y016678D02*
X021652Y016678D01*
X021670Y016777D02*
X015959Y016777D01*
X015909Y016875D02*
X021670Y016875D01*
X021670Y016974D02*
X014630Y016974D01*
X014630Y017072D02*
X021670Y017072D01*
X021670Y017171D02*
X014630Y017171D01*
X014630Y017269D02*
X021670Y017269D01*
X021670Y017368D02*
X014630Y017368D01*
X014630Y017466D02*
X021670Y017466D01*
X021670Y017565D02*
X014630Y017565D01*
X014630Y017663D02*
X021670Y017663D01*
X021670Y017762D02*
X014630Y017762D01*
X014630Y017860D02*
X021670Y017860D01*
X021670Y017959D02*
X014630Y017959D01*
X014630Y018057D02*
X021670Y018057D01*
X021531Y018156D02*
X018279Y018156D01*
X018359Y018254D02*
X021432Y018254D01*
X021401Y018353D02*
X018359Y018353D01*
X018333Y018451D02*
X021401Y018451D01*
X021470Y018550D02*
X018290Y018550D01*
X018290Y018648D02*
X021470Y018648D01*
X021470Y018747D02*
X018290Y018747D01*
X018290Y018845D02*
X021470Y018845D01*
X021470Y018944D02*
X018290Y018944D01*
X018290Y019042D02*
X021470Y019042D01*
X021470Y019141D02*
X018290Y019141D01*
X018290Y019239D02*
X021447Y019239D01*
X021859Y019436D02*
X022130Y019436D01*
X022130Y019535D02*
X021799Y019535D01*
X022130Y019633D02*
X018290Y019633D01*
X018290Y019732D02*
X022130Y019732D01*
X022130Y019830D02*
X018290Y019830D01*
X018290Y019929D02*
X022130Y019929D01*
X022130Y020027D02*
X018290Y020027D01*
X018290Y020126D02*
X022130Y020126D01*
X022130Y020224D02*
X018290Y020224D01*
X018290Y020323D02*
X022130Y020323D01*
X022130Y020421D02*
X018290Y020421D01*
X018290Y020520D02*
X022130Y020520D01*
X022130Y020618D02*
X018290Y020618D01*
X018290Y020717D02*
X022130Y020717D01*
X022130Y020815D02*
X018290Y020815D01*
X018290Y020914D02*
X022130Y020914D01*
X022130Y021012D02*
X018290Y021012D01*
X018290Y021111D02*
X022130Y021111D01*
X022130Y021209D02*
X018290Y021209D01*
X018290Y021308D02*
X022130Y021308D01*
X022128Y021406D02*
X018290Y021406D01*
X018328Y021505D02*
X021987Y021505D01*
X021931Y021603D02*
X018359Y021603D01*
X018130Y021630D02*
X018130Y021130D01*
X018130Y018330D01*
X018130Y021130D01*
X017570Y021111D02*
X014630Y021111D01*
X014630Y021209D02*
X017570Y021209D01*
X017570Y021308D02*
X014630Y021308D01*
X014630Y021406D02*
X017570Y021406D01*
X017532Y021505D02*
X014630Y021505D01*
X014630Y021603D02*
X017501Y021603D01*
X017730Y021630D02*
X017730Y020630D01*
X017730Y018330D01*
X017730Y020630D01*
X017570Y020618D02*
X014630Y020618D01*
X014630Y020520D02*
X017570Y020520D01*
X017570Y020421D02*
X014630Y020421D01*
X014630Y020323D02*
X017570Y020323D01*
X017570Y020224D02*
X014630Y020224D01*
X014630Y020126D02*
X017570Y020126D01*
X017570Y020027D02*
X014630Y020027D01*
X014630Y019929D02*
X017570Y019929D01*
X017570Y019830D02*
X014630Y019830D01*
X014630Y019732D02*
X017570Y019732D01*
X017570Y019633D02*
X014630Y019633D01*
X014630Y019535D02*
X017570Y019535D01*
X017570Y019436D02*
X014630Y019436D01*
X014630Y019338D02*
X017570Y019338D01*
X017570Y019239D02*
X014630Y019239D01*
X014630Y019141D02*
X017570Y019141D01*
X017570Y019042D02*
X014630Y019042D01*
X014630Y018944D02*
X017570Y018944D01*
X017570Y018845D02*
X014630Y018845D01*
X014630Y018747D02*
X017570Y018747D01*
X017570Y018648D02*
X014630Y018648D01*
X014630Y018550D02*
X017570Y018550D01*
X017527Y018451D02*
X014630Y018451D01*
X014630Y018353D02*
X017501Y018353D01*
X017501Y018254D02*
X014630Y018254D01*
X014630Y018156D02*
X017581Y018156D01*
X017879Y018156D02*
X017981Y018156D01*
X015730Y016730D02*
X014530Y016730D01*
X013380Y017880D01*
X013130Y018130D01*
X013130Y019130D01*
X012630Y019630D02*
X012130Y019130D01*
X012130Y015630D01*
X014130Y015630D02*
X014130Y016630D01*
X013630Y017130D01*
X013130Y017130D01*
X013380Y017880D02*
X013130Y018130D01*
X012630Y019630D02*
X014230Y019630D01*
X014230Y021730D01*
X014630Y022130D01*
X021630Y022130D01*
X024130Y024630D01*
X029630Y024630D01*
X030130Y025130D01*
X030630Y025630D01*
X032130Y025630D01*
X032850Y024910D01*
X033020Y024910D01*
X030630Y021406D02*
X022290Y021406D01*
X022290Y021308D02*
X030630Y021308D01*
X030630Y021209D02*
X022290Y021209D01*
X022290Y021111D02*
X030630Y021111D01*
X030630Y021012D02*
X022290Y021012D01*
X022290Y020914D02*
X030630Y020914D01*
X030630Y020815D02*
X022290Y020815D01*
X022290Y020717D02*
X030630Y020717D01*
X030630Y020618D02*
X022290Y020618D01*
X022290Y020520D02*
X030630Y020520D01*
X030630Y020421D02*
X022290Y020421D01*
X022290Y020323D02*
X030630Y020323D01*
X030630Y020224D02*
X022290Y020224D01*
X022290Y020126D02*
X030630Y020126D01*
X030630Y020027D02*
X022290Y020027D01*
X022290Y019929D02*
X030630Y019929D01*
X030630Y019830D02*
X022290Y019830D01*
X022290Y019732D02*
X030630Y019732D01*
X030630Y019633D02*
X022290Y019633D01*
X022290Y019535D02*
X022836Y019535D01*
X022776Y019475D02*
X022776Y019285D01*
X022910Y019151D01*
X023100Y019151D01*
X023169Y019220D01*
X025716Y019220D01*
X025785Y019151D01*
X025975Y019151D01*
X026109Y019285D01*
X026109Y019475D01*
X025975Y019609D01*
X025785Y019609D01*
X025716Y019540D01*
X023169Y019540D01*
X023100Y019609D01*
X022910Y019609D01*
X022776Y019475D01*
X022776Y019436D02*
X022290Y019436D01*
X022359Y019338D02*
X022776Y019338D01*
X022822Y019239D02*
X022359Y019239D01*
X022339Y019141D02*
X030630Y019141D01*
X030630Y019239D02*
X026063Y019239D01*
X026109Y019338D02*
X030630Y019338D01*
X030630Y019436D02*
X026109Y019436D01*
X026049Y019535D02*
X030630Y019535D01*
X030630Y019042D02*
X022290Y019042D01*
X022290Y018944D02*
X030630Y018944D01*
X030630Y018845D02*
X022290Y018845D01*
X022290Y018747D02*
X030630Y018747D01*
X030630Y018254D02*
X024430Y018254D01*
X024459Y018156D02*
X026832Y018156D01*
X026830Y018230D02*
X024830Y018230D01*
X024430Y017830D01*
X022830Y017830D01*
X022830Y017930D01*
X022830Y018930D01*
X022630Y019130D01*
X022630Y021130D01*
X022130Y021630D01*
X021630Y022130D01*
X021130Y023530D02*
X021130Y025530D01*
X021130Y025830D01*
X017570Y021012D02*
X014630Y021012D01*
X014630Y020914D02*
X017570Y020914D01*
X017570Y020815D02*
X014630Y020815D01*
X014630Y020717D02*
X017570Y020717D01*
X022005Y019130D02*
X022130Y019255D01*
X023005Y019380D02*
X025880Y019380D01*
X027028Y018156D02*
X030630Y018156D01*
X030630Y018057D02*
X027127Y018057D01*
X027159Y017959D02*
X030630Y017959D01*
X030630Y017860D02*
X027159Y017860D01*
X027085Y017762D02*
X030630Y017762D01*
X030630Y017663D02*
X026889Y017663D01*
X026791Y017565D02*
X030630Y017565D01*
X030630Y017466D02*
X027018Y017466D01*
X027059Y017368D02*
X030630Y017368D01*
X030630Y017269D02*
X027059Y017269D01*
X026994Y017171D02*
X030630Y017171D01*
X030630Y017072D02*
X026990Y017072D01*
X026990Y016974D02*
X030630Y016974D01*
X030630Y016875D02*
X026990Y016875D01*
X026990Y016777D02*
X030630Y016777D01*
X030630Y016678D02*
X026990Y016678D01*
X026990Y016580D02*
X030630Y016580D01*
X030630Y016481D02*
X026990Y016481D01*
X026990Y016383D02*
X030630Y016383D01*
X030630Y016284D02*
X026990Y016284D01*
X026937Y016186D02*
X030630Y016186D01*
X030330Y015430D02*
X028130Y015430D01*
X027937Y015299D02*
X022790Y015299D01*
X022790Y015201D02*
X030177Y015201D01*
X030101Y015102D02*
X022790Y015102D01*
X022790Y015004D02*
X030101Y015004D01*
X030131Y014905D02*
X022790Y014905D01*
X022790Y014807D02*
X030230Y014807D01*
X030430Y014807D02*
X030630Y014807D01*
X030630Y014708D02*
X022790Y014708D01*
X022790Y014610D02*
X030630Y014610D01*
X030630Y014511D02*
X022790Y014511D01*
X022790Y014413D02*
X030630Y014413D01*
X030630Y014314D02*
X028270Y014314D01*
X028134Y014134D02*
X028130Y014130D01*
X028134Y014134D02*
X035630Y014134D01*
X035034Y013730D02*
X035630Y013134D01*
X035034Y013730D02*
X028130Y013730D01*
X027901Y013723D02*
X024959Y013723D01*
X024959Y013822D02*
X027901Y013822D01*
X027996Y013920D02*
X024864Y013920D01*
X024730Y013730D02*
X024730Y013030D01*
X024959Y013034D02*
X030630Y013034D01*
X030630Y013132D02*
X024952Y013132D01*
X024890Y013231D02*
X030630Y013231D01*
X030630Y013329D02*
X024890Y013329D01*
X024890Y013428D02*
X030630Y013428D01*
X030630Y013526D02*
X028250Y013526D01*
X028010Y013526D02*
X024890Y013526D01*
X024948Y013625D02*
X027912Y013625D01*
X027918Y014019D02*
X022790Y014019D01*
X022790Y014117D02*
X027901Y014117D01*
X027901Y014216D02*
X022790Y014216D01*
X022790Y014314D02*
X027990Y014314D01*
X028830Y015130D02*
X025505Y015130D01*
X024880Y015755D01*
X025630Y015005D01*
X025630Y010830D01*
X024530Y009730D01*
X024430Y009730D01*
X024660Y009586D02*
X024090Y009586D01*
X024090Y009488D02*
X024561Y009488D01*
X024463Y009389D02*
X024090Y009389D01*
X024090Y009291D02*
X024364Y009291D01*
X024430Y009130D02*
X023530Y009130D01*
X023230Y009430D01*
X022830Y009830D01*
X022530Y009830D01*
X021880Y010480D01*
X021880Y010430D01*
X021880Y010480D01*
X021880Y012630D01*
X021755Y012505D01*
X022170Y012541D02*
X017290Y012541D01*
X017290Y012640D02*
X022170Y012640D01*
X022170Y012738D02*
X017290Y012738D01*
X017290Y012837D02*
X022170Y012837D01*
X022170Y012935D02*
X017290Y012935D01*
X017290Y013034D02*
X022170Y013034D01*
X022130Y013132D02*
X017290Y013132D01*
X017290Y013231D02*
X022130Y013231D01*
X022130Y013329D02*
X017290Y013329D01*
X017341Y012443D02*
X022170Y012443D01*
X022490Y012443D02*
X022917Y012443D01*
X022819Y012541D02*
X022490Y012541D01*
X022490Y012640D02*
X022720Y012640D01*
X022622Y012738D02*
X022490Y012738D01*
X022490Y012837D02*
X022500Y012837D01*
X022630Y013030D02*
X022630Y016330D01*
X022330Y016630D01*
X022330Y018230D01*
X022530Y018430D01*
X022130Y018353D02*
X021884Y018353D01*
X021982Y018254D02*
X022130Y018254D01*
X022130Y018156D02*
X021990Y018156D01*
X021990Y018057D02*
X022130Y018057D01*
X022130Y017959D02*
X021990Y017959D01*
X021990Y017860D02*
X022130Y017860D01*
X022130Y017762D02*
X021990Y017762D01*
X021990Y017663D02*
X022130Y017663D01*
X022130Y017565D02*
X021990Y017565D01*
X021990Y017466D02*
X022130Y017466D01*
X022130Y017368D02*
X021990Y017368D01*
X021990Y017269D02*
X022130Y017269D01*
X022130Y017171D02*
X021990Y017171D01*
X021990Y017072D02*
X022130Y017072D01*
X022130Y016974D02*
X021990Y016974D01*
X021990Y016875D02*
X022130Y016875D01*
X022130Y016777D02*
X021990Y016777D01*
X021990Y016678D02*
X022130Y016678D01*
X022130Y016580D02*
X021990Y016580D01*
X021907Y016481D02*
X022130Y016481D01*
X022130Y016383D02*
X021809Y016383D01*
X021790Y016284D02*
X022130Y016284D01*
X022130Y016186D02*
X021790Y016186D01*
X021790Y016087D02*
X022051Y016087D01*
X022051Y015989D02*
X021790Y015989D01*
X021790Y015890D02*
X022071Y015890D01*
X022130Y015792D02*
X021790Y015792D01*
X021790Y015693D02*
X022130Y015693D01*
X022130Y015595D02*
X021790Y015595D01*
X021790Y015496D02*
X022130Y015496D01*
X022130Y015398D02*
X021790Y015398D01*
X021790Y015299D02*
X022130Y015299D01*
X022130Y015201D02*
X021886Y015201D01*
X021984Y015102D02*
X022130Y015102D01*
X022130Y015004D02*
X021990Y015004D01*
X021990Y014905D02*
X022130Y014905D01*
X022130Y014807D02*
X021990Y014807D01*
X021990Y014708D02*
X022130Y014708D01*
X022130Y014610D02*
X021990Y014610D01*
X021990Y014511D02*
X022130Y014511D01*
X022130Y014413D02*
X021990Y014413D01*
X021990Y014314D02*
X022130Y014314D01*
X022130Y014216D02*
X021990Y014216D01*
X021990Y014117D02*
X022130Y014117D01*
X022130Y014019D02*
X021990Y014019D01*
X021990Y013920D02*
X022130Y013920D01*
X022130Y013822D02*
X022059Y013822D01*
X022790Y013822D02*
X024501Y013822D01*
X024501Y013723D02*
X022790Y013723D01*
X022790Y013625D02*
X024512Y013625D01*
X024570Y013526D02*
X022790Y013526D01*
X022790Y013428D02*
X024570Y013428D01*
X024570Y013329D02*
X022790Y013329D01*
X022790Y013231D02*
X024570Y013231D01*
X024508Y013132D02*
X022852Y013132D01*
X022859Y013125D02*
X022859Y012935D01*
X022760Y012837D02*
X024600Y012837D01*
X023538Y012049D02*
X025725Y012049D01*
X025651Y011950D02*
X023636Y011950D01*
X023735Y011852D02*
X025651Y011852D01*
X025683Y011753D02*
X023833Y011753D01*
X023932Y011655D02*
X025720Y011655D01*
X025720Y011556D02*
X024030Y011556D01*
X024090Y011458D02*
X025720Y011458D01*
X025720Y011359D02*
X024090Y011359D01*
X024090Y011261D02*
X025720Y011261D01*
X025720Y011162D02*
X024090Y011162D01*
X024090Y011064D02*
X025720Y011064D01*
X025720Y010965D02*
X024090Y010965D01*
X024090Y010867D02*
X025720Y010867D01*
X025720Y010768D02*
X024090Y010768D01*
X024090Y010670D02*
X025720Y010670D01*
X025645Y010571D02*
X024090Y010571D01*
X024090Y010473D02*
X025546Y010473D01*
X025448Y010374D02*
X024090Y010374D01*
X024090Y010276D02*
X025349Y010276D01*
X025251Y010177D02*
X024090Y010177D01*
X024090Y010079D02*
X025152Y010079D01*
X025054Y009980D02*
X024090Y009980D01*
X024090Y009882D02*
X024955Y009882D01*
X024857Y009783D02*
X024090Y009783D01*
X024090Y009685D02*
X024758Y009685D01*
X025014Y009488D02*
X025461Y009488D01*
X025470Y009586D02*
X025112Y009586D01*
X025211Y009685D02*
X025470Y009685D01*
X025453Y009783D02*
X025309Y009783D01*
X025630Y009930D02*
X025630Y009430D01*
X025130Y008930D01*
X024970Y009094D02*
X024620Y009094D01*
X024718Y009192D02*
X025166Y009192D01*
X025264Y009291D02*
X024817Y009291D01*
X024915Y009389D02*
X025363Y009389D01*
X025618Y009192D02*
X030630Y009192D01*
X030630Y009094D02*
X025520Y009094D01*
X025421Y008995D02*
X030630Y008995D01*
X030630Y008897D02*
X025359Y008897D01*
X025322Y008798D02*
X030630Y008798D01*
X030630Y008700D02*
X024090Y008700D01*
X024090Y008798D02*
X024938Y008798D01*
X024901Y008897D02*
X024090Y008897D01*
X023930Y008897D02*
X019090Y008897D01*
X019090Y008995D02*
X023930Y008995D01*
X023930Y009094D02*
X019090Y009094D01*
X019090Y009192D02*
X023930Y009192D01*
X023930Y009291D02*
X019090Y009291D01*
X019090Y009389D02*
X023930Y009389D01*
X023930Y009488D02*
X019090Y009488D01*
X019090Y009586D02*
X023930Y009586D01*
X023930Y009685D02*
X019090Y009685D01*
X019090Y009783D02*
X023930Y009783D01*
X023930Y009882D02*
X019090Y009882D01*
X019090Y009980D02*
X023930Y009980D01*
X023930Y010079D02*
X019090Y010079D01*
X019090Y010177D02*
X023930Y010177D01*
X023930Y010276D02*
X022499Y010276D01*
X022559Y010374D02*
X023930Y010374D01*
X023930Y010473D02*
X022559Y010473D01*
X022513Y010571D02*
X023930Y010571D01*
X023930Y010670D02*
X022490Y010670D01*
X022490Y010768D02*
X023930Y010768D01*
X023930Y010867D02*
X022490Y010867D01*
X022490Y010965D02*
X023930Y010965D01*
X023930Y011064D02*
X022490Y011064D01*
X022490Y011162D02*
X023930Y011162D01*
X023930Y011261D02*
X022490Y011261D01*
X022490Y011359D02*
X023930Y011359D01*
X023902Y011458D02*
X022490Y011458D01*
X022490Y011556D02*
X023804Y011556D01*
X023705Y011655D02*
X022490Y011655D01*
X022490Y011753D02*
X023607Y011753D01*
X023508Y011852D02*
X022490Y011852D01*
X022490Y011950D02*
X023410Y011950D01*
X023311Y012049D02*
X022490Y012049D01*
X022490Y012147D02*
X023213Y012147D01*
X023114Y012246D02*
X022490Y012246D01*
X022490Y012344D02*
X023016Y012344D01*
X023144Y012443D02*
X030630Y012443D01*
X030630Y012541D02*
X023045Y012541D01*
X022947Y012640D02*
X030630Y012640D01*
X030630Y012738D02*
X022848Y012738D01*
X023242Y012344D02*
X030630Y012344D01*
X030630Y012246D02*
X023341Y012246D01*
X023439Y012147D02*
X030630Y012147D01*
X030630Y012049D02*
X026035Y012049D01*
X026109Y011950D02*
X030630Y011950D01*
X030630Y011852D02*
X026109Y011852D01*
X026077Y011753D02*
X030630Y011753D01*
X030630Y011655D02*
X026040Y011655D01*
X026040Y011556D02*
X030630Y011556D01*
X030630Y011458D02*
X026040Y011458D01*
X026040Y011359D02*
X030630Y011359D01*
X030630Y011261D02*
X026040Y011261D01*
X026040Y011162D02*
X030630Y011162D01*
X030630Y011064D02*
X026040Y011064D01*
X026040Y010965D02*
X030630Y010965D01*
X030630Y010867D02*
X026040Y010867D01*
X026040Y010768D02*
X030630Y010768D01*
X030630Y010670D02*
X026040Y010670D01*
X026040Y010571D02*
X030630Y010571D01*
X030630Y010473D02*
X025999Y010473D01*
X025900Y010374D02*
X030630Y010374D01*
X030630Y010276D02*
X025802Y010276D01*
X025703Y010177D02*
X030630Y010177D01*
X030630Y010079D02*
X025805Y010079D01*
X025859Y009980D02*
X030630Y009980D01*
X030630Y009882D02*
X025859Y009882D01*
X025807Y009783D02*
X030630Y009783D01*
X030630Y009685D02*
X025790Y009685D01*
X025790Y009586D02*
X030630Y009586D01*
X030630Y009488D02*
X025790Y009488D01*
X025790Y009389D02*
X030630Y009389D01*
X030630Y009291D02*
X025717Y009291D01*
X024901Y008995D02*
X024521Y008995D01*
X024430Y009130D02*
X025880Y010580D01*
X025880Y011880D01*
X024596Y013920D02*
X022790Y013920D01*
X022790Y015398D02*
X025736Y015398D01*
X025638Y015496D02*
X022790Y015496D01*
X022790Y015595D02*
X025570Y015595D01*
X025570Y015693D02*
X022790Y015693D01*
X022790Y015792D02*
X025570Y015792D01*
X025570Y015890D02*
X022790Y015890D01*
X022790Y015989D02*
X025570Y015989D01*
X025570Y016087D02*
X022790Y016087D01*
X022790Y016186D02*
X025551Y016186D01*
X025501Y016284D02*
X022790Y016284D01*
X022790Y016383D02*
X025501Y016383D01*
X025557Y016481D02*
X022705Y016481D01*
X022607Y016580D02*
X025901Y016580D01*
X025730Y016330D02*
X025730Y015630D01*
X025830Y015530D01*
X027830Y015530D01*
X027930Y015630D01*
X028030Y015730D01*
X033030Y015730D01*
X033630Y015130D01*
X035626Y015130D01*
X035630Y015134D01*
X031130Y014930D02*
X031030Y015030D01*
X030330Y015030D01*
X027861Y016087D02*
X026884Y016087D01*
X026837Y015989D02*
X027762Y015989D01*
X027664Y015890D02*
X026396Y015890D01*
X026473Y015989D02*
X026298Y015989D01*
X026290Y016087D02*
X026426Y016087D01*
X026426Y016186D02*
X026290Y016186D01*
X026290Y016284D02*
X026485Y016284D01*
X026655Y016130D02*
X026830Y016305D01*
X026830Y017330D01*
X026666Y017171D02*
X026397Y017171D01*
X026495Y017269D02*
X026601Y017269D01*
X026594Y017368D02*
X026601Y017368D01*
X026670Y017072D02*
X026298Y017072D01*
X026200Y016974D02*
X026670Y016974D01*
X025930Y016930D02*
X026930Y017930D01*
X026701Y017959D02*
X024382Y017959D01*
X024459Y018057D02*
X026733Y018057D01*
X025930Y016930D02*
X025730Y016930D01*
X024880Y015755D02*
X024705Y015755D01*
X022830Y017630D01*
X022830Y017830D01*
X022830Y017630D01*
X023630Y018130D02*
X024230Y018130D01*
X024078Y017959D02*
X023782Y017959D01*
X022280Y016005D02*
X022330Y015955D01*
X022330Y010430D01*
X022161Y010276D02*
X019090Y010276D01*
X019090Y010374D02*
X022101Y010374D01*
X022101Y010473D02*
X019090Y010473D01*
X019090Y010571D02*
X022147Y010571D01*
X022170Y010670D02*
X019090Y010670D01*
X019090Y010768D02*
X022170Y010768D01*
X022170Y010867D02*
X019090Y010867D01*
X019090Y010965D02*
X022170Y010965D01*
X022170Y011064D02*
X019090Y011064D01*
X019090Y011162D02*
X022170Y011162D01*
X022170Y011261D02*
X019090Y011261D01*
X019090Y011359D02*
X022170Y011359D01*
X023230Y009430D02*
X023280Y009380D01*
X023230Y009430D01*
X023930Y008798D02*
X019090Y008798D01*
X019090Y008700D02*
X023930Y008700D01*
X018630Y011880D02*
X018380Y011880D01*
X018130Y011030D02*
X014630Y011030D01*
X014630Y010630D02*
X018130Y010630D01*
X022330Y015955D02*
X022280Y016005D01*
X010130Y012630D02*
X009630Y012630D01*
X027130Y004630D02*
X027630Y004630D01*
X030130Y005130D02*
X030130Y006130D01*
X030130Y007130D01*
D20*
X015130Y015630D02*
X014130Y015630D01*
X014130Y010130D01*
X013130Y010130D01*
X014130Y010130D02*
X014130Y004930D01*
X014430Y004630D01*
X014630Y004630D01*
X013630Y012630D02*
X010130Y012630D01*
X009630Y012630D01*
X002130Y012630D01*
X001130Y013630D01*
X001130Y014630D02*
X002130Y015630D01*
X010630Y015630D01*
X012130Y015630D01*
X013630Y015630D01*
X014130Y015630D01*
D21*
X000260Y029000D02*
X000260Y000260D01*
X027681Y000260D01*
X027681Y003021D01*
X027782Y003397D01*
X027976Y003733D01*
X027976Y003733D01*
X028251Y004008D01*
X028251Y004008D01*
X028588Y004203D01*
X028588Y004203D01*
X028963Y004303D01*
X029352Y004303D01*
X029727Y004203D01*
X029727Y004203D01*
X030064Y004008D01*
X030064Y004008D01*
X030339Y003733D01*
X030339Y003733D01*
X030533Y003397D01*
X030533Y003397D01*
X030634Y003021D01*
X030634Y002773D01*
X030634Y001506D01*
X039130Y001506D01*
X039130Y027750D01*
X030634Y027750D01*
X030634Y026235D01*
X030533Y025859D01*
X030533Y025859D01*
X030339Y025523D01*
X030339Y025523D01*
X030339Y025523D01*
X030064Y025248D01*
X030064Y025248D01*
X029727Y025053D01*
X029727Y025053D01*
X029352Y024953D01*
X028963Y024953D01*
X028588Y025053D01*
X028588Y025053D01*
X028251Y025248D01*
X028251Y025248D01*
X027976Y025523D01*
X027976Y025523D01*
X027782Y025859D01*
X027782Y025859D01*
X027681Y026235D01*
X027681Y029000D01*
X000260Y029000D01*
X000260Y028971D02*
X027681Y028971D01*
X027681Y028912D02*
X000260Y028912D01*
X000260Y028854D02*
X027681Y028854D01*
X027681Y028795D02*
X000260Y028795D01*
X000260Y028737D02*
X027681Y028737D01*
X027681Y028678D02*
X000260Y028678D01*
X000260Y028620D02*
X027681Y028620D01*
X027681Y028561D02*
X000260Y028561D01*
X000260Y028503D02*
X027681Y028503D01*
X027681Y028444D02*
X000260Y028444D01*
X000260Y028386D02*
X027681Y028386D01*
X027681Y028327D02*
X000260Y028327D01*
X000260Y028269D02*
X027681Y028269D01*
X027681Y028210D02*
X000260Y028210D01*
X000260Y028152D02*
X027681Y028152D01*
X027681Y028093D02*
X000260Y028093D01*
X000260Y028035D02*
X027681Y028035D01*
X027681Y027976D02*
X000260Y027976D01*
X000260Y027918D02*
X027681Y027918D01*
X027681Y027859D02*
X000260Y027859D01*
X000260Y027801D02*
X027681Y027801D01*
X027681Y027742D02*
X000260Y027742D01*
X000260Y027684D02*
X004433Y027684D01*
X004569Y027740D02*
X004290Y027625D01*
X004076Y027411D01*
X003961Y027132D01*
X003961Y026829D01*
X004076Y026550D01*
X004290Y026336D01*
X004569Y026220D01*
X004872Y026220D01*
X005151Y026336D01*
X005365Y026550D01*
X005480Y026829D01*
X005480Y027132D01*
X005365Y027411D01*
X005151Y027625D01*
X004872Y027740D01*
X004569Y027740D01*
X004291Y027625D02*
X000260Y027625D01*
X000260Y027567D02*
X004232Y027567D01*
X004174Y027508D02*
X000260Y027508D01*
X000260Y027450D02*
X004115Y027450D01*
X004068Y027391D02*
X000260Y027391D01*
X000260Y027333D02*
X004044Y027333D01*
X004020Y027274D02*
X000260Y027274D01*
X000260Y027216D02*
X003995Y027216D01*
X003971Y027157D02*
X000260Y027157D01*
X000260Y027099D02*
X003961Y027099D01*
X003961Y027040D02*
X000260Y027040D01*
X000260Y026982D02*
X003961Y026982D01*
X003961Y026923D02*
X000260Y026923D01*
X000260Y026865D02*
X003961Y026865D01*
X003970Y026806D02*
X000260Y026806D01*
X000260Y026748D02*
X003994Y026748D01*
X004019Y026689D02*
X000260Y026689D01*
X000260Y026631D02*
X004043Y026631D01*
X004067Y026572D02*
X000260Y026572D01*
X000260Y026514D02*
X004113Y026514D01*
X004171Y026455D02*
X000260Y026455D01*
X000260Y026397D02*
X004230Y026397D01*
X004288Y026338D02*
X000260Y026338D01*
X000260Y026280D02*
X004427Y026280D01*
X004568Y026221D02*
X000260Y026221D01*
X000260Y026163D02*
X027700Y026163D01*
X027685Y026221D02*
X022940Y026221D01*
X022939Y026220D02*
X023218Y026336D01*
X023432Y026550D01*
X023547Y026829D01*
X023547Y027132D01*
X023432Y027411D01*
X023218Y027625D01*
X022939Y027740D01*
X022636Y027740D01*
X022357Y027625D01*
X022143Y027411D01*
X022028Y027132D01*
X022028Y026829D01*
X022143Y026550D01*
X022357Y026336D01*
X022636Y026220D01*
X022939Y026220D01*
X023081Y026280D02*
X027681Y026280D01*
X027681Y026338D02*
X023220Y026338D01*
X023278Y026397D02*
X027681Y026397D01*
X027681Y026455D02*
X023337Y026455D01*
X023395Y026514D02*
X027681Y026514D01*
X027681Y026572D02*
X023441Y026572D01*
X023465Y026631D02*
X027681Y026631D01*
X027681Y026689D02*
X023489Y026689D01*
X023514Y026748D02*
X027681Y026748D01*
X027681Y026806D02*
X023538Y026806D01*
X023547Y026865D02*
X027681Y026865D01*
X027681Y026923D02*
X023547Y026923D01*
X023547Y026982D02*
X027681Y026982D01*
X027681Y027040D02*
X023547Y027040D01*
X023547Y027099D02*
X027681Y027099D01*
X027681Y027157D02*
X023537Y027157D01*
X023513Y027216D02*
X027681Y027216D01*
X027681Y027274D02*
X023488Y027274D01*
X023464Y027333D02*
X027681Y027333D01*
X027681Y027391D02*
X023440Y027391D01*
X023393Y027450D02*
X027681Y027450D01*
X027681Y027508D02*
X023334Y027508D01*
X023276Y027567D02*
X027681Y027567D01*
X027681Y027625D02*
X023217Y027625D01*
X023076Y027684D02*
X027681Y027684D01*
X027716Y026104D02*
X000260Y026104D01*
X000260Y026046D02*
X027732Y026046D01*
X027747Y025987D02*
X021269Y025987D01*
X021217Y026039D02*
X021043Y026039D01*
X020921Y025917D01*
X020921Y025743D01*
X020990Y025674D01*
X020990Y023686D01*
X020921Y023617D01*
X020921Y023443D01*
X021043Y023321D01*
X021217Y023321D01*
X021339Y023443D01*
X021339Y023617D01*
X021270Y023686D01*
X021270Y025674D01*
X021339Y025743D01*
X021339Y025917D01*
X021217Y026039D01*
X021327Y025929D02*
X027763Y025929D01*
X027779Y025870D02*
X021339Y025870D01*
X021339Y025812D02*
X027809Y025812D01*
X027843Y025753D02*
X021339Y025753D01*
X021290Y025695D02*
X027877Y025695D01*
X027911Y025636D02*
X021270Y025636D01*
X021270Y025578D02*
X027944Y025578D01*
X027980Y025519D02*
X021270Y025519D01*
X021270Y025461D02*
X028038Y025461D01*
X028097Y025402D02*
X021270Y025402D01*
X021270Y025344D02*
X028155Y025344D01*
X028214Y025285D02*
X021270Y025285D01*
X021270Y025227D02*
X028288Y025227D01*
X028389Y025168D02*
X021270Y025168D01*
X021270Y025110D02*
X028490Y025110D01*
X028596Y025051D02*
X021270Y025051D01*
X021270Y024993D02*
X028814Y024993D01*
X029501Y024993D02*
X030780Y024993D01*
X030780Y025001D02*
X030780Y024818D01*
X030850Y024649D01*
X030979Y024520D01*
X031148Y024450D01*
X031331Y024450D01*
X031501Y024520D01*
X031630Y024649D01*
X031700Y024818D01*
X031700Y025001D01*
X031630Y025171D01*
X031501Y025300D01*
X031331Y025370D01*
X031148Y025370D01*
X030979Y025300D01*
X030850Y025171D01*
X030780Y025001D01*
X030801Y025051D02*
X029719Y025051D01*
X029825Y025110D02*
X030825Y025110D01*
X030849Y025168D02*
X029926Y025168D01*
X030027Y025227D02*
X030906Y025227D01*
X030965Y025285D02*
X030101Y025285D01*
X030160Y025344D02*
X031085Y025344D01*
X031395Y025344D02*
X032770Y025344D01*
X032758Y025338D02*
X032694Y025291D01*
X032639Y025236D01*
X032592Y025172D01*
X032557Y025102D01*
X032532Y025027D01*
X032520Y024949D01*
X032520Y024940D01*
X032990Y024940D01*
X032990Y025410D01*
X032981Y025410D01*
X032903Y025398D01*
X032828Y025373D01*
X032758Y025338D01*
X032688Y025285D02*
X031515Y025285D01*
X031574Y025227D02*
X032632Y025227D01*
X032590Y025168D02*
X031631Y025168D01*
X031655Y025110D02*
X032561Y025110D01*
X032540Y025051D02*
X031679Y025051D01*
X031700Y024993D02*
X032527Y024993D01*
X032520Y024880D02*
X032520Y024871D01*
X032532Y024793D01*
X032557Y024718D01*
X032592Y024648D01*
X032639Y024584D01*
X032694Y024529D01*
X032758Y024482D01*
X032828Y024447D01*
X032903Y024422D01*
X032981Y024410D01*
X032990Y024410D01*
X032990Y024880D01*
X032520Y024880D01*
X032520Y024876D02*
X031700Y024876D01*
X031700Y024934D02*
X032990Y024934D01*
X032990Y024940D02*
X032990Y024880D01*
X033050Y024880D01*
X033050Y024940D01*
X032990Y024940D01*
X032990Y024993D02*
X033050Y024993D01*
X033050Y024940D02*
X033050Y025410D01*
X033059Y025410D01*
X033137Y025398D01*
X033212Y025373D01*
X033282Y025338D01*
X033346Y025291D01*
X033401Y025236D01*
X033448Y025172D01*
X033483Y025102D01*
X033508Y025027D01*
X033520Y024949D01*
X033520Y024940D01*
X033050Y024940D01*
X033050Y024934D02*
X039130Y024934D01*
X039130Y024876D02*
X033520Y024876D01*
X033520Y024880D02*
X033050Y024880D01*
X033050Y024410D01*
X033059Y024410D01*
X033137Y024422D01*
X033212Y024447D01*
X033282Y024482D01*
X033346Y024529D01*
X033401Y024584D01*
X033448Y024648D01*
X033483Y024718D01*
X033508Y024793D01*
X033520Y024871D01*
X033520Y024880D01*
X033512Y024817D02*
X039130Y024817D01*
X039130Y024759D02*
X033497Y024759D01*
X033474Y024700D02*
X039130Y024700D01*
X039130Y024642D02*
X033443Y024642D01*
X033400Y024583D02*
X039130Y024583D01*
X039130Y024525D02*
X033340Y024525D01*
X033250Y024466D02*
X039130Y024466D01*
X039130Y024408D02*
X034914Y024408D01*
X034805Y024453D02*
X034502Y024453D01*
X034223Y024337D01*
X034009Y024123D01*
X033894Y023844D01*
X033894Y023542D01*
X034009Y023263D01*
X034223Y023049D01*
X034502Y022933D01*
X034805Y022933D01*
X035084Y023049D01*
X035298Y023263D01*
X035414Y023542D01*
X035414Y023844D01*
X035298Y024123D01*
X035084Y024337D01*
X034805Y024453D01*
X035055Y024349D02*
X039130Y024349D01*
X039130Y024291D02*
X035131Y024291D01*
X035189Y024232D02*
X039130Y024232D01*
X039130Y024174D02*
X035248Y024174D01*
X035301Y024115D02*
X039130Y024115D01*
X039130Y024057D02*
X035326Y024057D01*
X035350Y023998D02*
X039130Y023998D01*
X039130Y023940D02*
X035374Y023940D01*
X035398Y023881D02*
X039130Y023881D01*
X039130Y023823D02*
X035414Y023823D01*
X035414Y023764D02*
X039130Y023764D01*
X039130Y023706D02*
X035414Y023706D01*
X035414Y023647D02*
X039130Y023647D01*
X039130Y023589D02*
X035414Y023589D01*
X035409Y023530D02*
X039130Y023530D01*
X039130Y023472D02*
X035384Y023472D01*
X035360Y023413D02*
X039130Y023413D01*
X039130Y023355D02*
X035336Y023355D01*
X035312Y023296D02*
X039130Y023296D01*
X039130Y023238D02*
X035273Y023238D01*
X035214Y023179D02*
X039130Y023179D01*
X039130Y023121D02*
X035156Y023121D01*
X035097Y023062D02*
X039130Y023062D01*
X039130Y023004D02*
X034975Y023004D01*
X034834Y022945D02*
X039130Y022945D01*
X039130Y022887D02*
X030635Y022887D01*
X030682Y022933D02*
X030735Y023061D01*
X030735Y023199D01*
X030682Y023327D01*
X030584Y023425D01*
X030457Y023477D01*
X029803Y023477D01*
X029676Y023425D01*
X029578Y023327D01*
X029525Y023199D01*
X029525Y023061D01*
X029578Y022933D01*
X029676Y022835D01*
X029803Y022783D01*
X030457Y022783D01*
X030584Y022835D01*
X030682Y022933D01*
X030687Y022945D02*
X034473Y022945D01*
X034332Y023004D02*
X030711Y023004D01*
X030735Y023062D02*
X034210Y023062D01*
X034151Y023121D02*
X030735Y023121D01*
X030735Y023179D02*
X034093Y023179D01*
X034034Y023238D02*
X030719Y023238D01*
X030695Y023296D02*
X033995Y023296D01*
X033971Y023355D02*
X030654Y023355D01*
X030596Y023413D02*
X033947Y023413D01*
X033923Y023472D02*
X030471Y023472D01*
X030457Y023783D02*
X029803Y023783D01*
X029676Y023835D01*
X029578Y023933D01*
X029525Y024061D01*
X029525Y024199D01*
X029578Y024327D01*
X029676Y024425D01*
X029803Y024477D01*
X030457Y024477D01*
X030584Y024425D01*
X030682Y024327D01*
X030735Y024199D01*
X030735Y024061D01*
X030682Y023933D01*
X030584Y023835D01*
X030457Y023783D01*
X030553Y023823D02*
X033894Y023823D01*
X033894Y023764D02*
X021270Y023764D01*
X021270Y023706D02*
X033894Y023706D01*
X033894Y023647D02*
X021309Y023647D01*
X021339Y023589D02*
X033894Y023589D01*
X033899Y023530D02*
X021339Y023530D01*
X021339Y023472D02*
X029789Y023472D01*
X029664Y023413D02*
X021309Y023413D01*
X021250Y023355D02*
X029606Y023355D01*
X029565Y023296D02*
X013695Y023296D01*
X013682Y023327D02*
X013584Y023425D01*
X013457Y023477D01*
X012803Y023477D01*
X012676Y023425D01*
X012578Y023327D01*
X012525Y023199D01*
X012525Y023061D01*
X012578Y022933D01*
X012676Y022835D01*
X012803Y022783D01*
X013457Y022783D01*
X013584Y022835D01*
X013682Y022933D01*
X013735Y023061D01*
X013735Y023199D01*
X013682Y023327D01*
X013654Y023355D02*
X021010Y023355D01*
X020951Y023413D02*
X013596Y023413D01*
X013471Y023472D02*
X020921Y023472D01*
X020921Y023530D02*
X000260Y023530D01*
X000260Y023472D02*
X012789Y023472D01*
X012664Y023413D02*
X000260Y023413D01*
X000260Y023355D02*
X012606Y023355D01*
X012565Y023296D02*
X000260Y023296D01*
X000260Y023238D02*
X012541Y023238D01*
X012525Y023179D02*
X000260Y023179D01*
X000260Y023121D02*
X012525Y023121D01*
X012525Y023062D02*
X000260Y023062D01*
X000260Y023004D02*
X012549Y023004D01*
X012573Y022945D02*
X000260Y022945D01*
X000260Y022887D02*
X012625Y022887D01*
X012693Y022828D02*
X000260Y022828D01*
X000260Y022770D02*
X031051Y022770D01*
X030979Y022740D02*
X030850Y022611D01*
X030780Y022441D01*
X030780Y022258D01*
X030850Y022089D01*
X030979Y021960D01*
X031148Y021890D01*
X031331Y021890D01*
X031501Y021960D01*
X031630Y022089D01*
X031700Y022258D01*
X031700Y022441D01*
X031630Y022611D01*
X031501Y022740D01*
X031331Y022810D01*
X031148Y022810D01*
X030979Y022740D01*
X030951Y022711D02*
X000260Y022711D01*
X000260Y022653D02*
X030892Y022653D01*
X030843Y022594D02*
X000260Y022594D01*
X000260Y022536D02*
X030819Y022536D01*
X030795Y022477D02*
X030458Y022477D01*
X030457Y022477D02*
X030584Y022425D01*
X030682Y022327D01*
X030735Y022199D01*
X030735Y022061D01*
X030682Y021933D01*
X030584Y021835D01*
X030457Y021783D01*
X029803Y021783D01*
X029676Y021835D01*
X029578Y021933D01*
X029525Y022061D01*
X029525Y022199D01*
X029578Y022327D01*
X029676Y022425D01*
X029803Y022477D01*
X029802Y022477D02*
X013458Y022477D01*
X013457Y022477D02*
X013584Y022425D01*
X013682Y022327D01*
X013735Y022199D01*
X013735Y022061D01*
X013682Y021933D01*
X013584Y021835D01*
X013457Y021783D01*
X012803Y021783D01*
X012676Y021835D01*
X012578Y021933D01*
X012525Y022061D01*
X012525Y022199D01*
X012578Y022327D01*
X012676Y022425D01*
X012803Y022477D01*
X012802Y022477D02*
X000260Y022477D01*
X000260Y022419D02*
X012670Y022419D01*
X012611Y022360D02*
X000260Y022360D01*
X000260Y022302D02*
X012567Y022302D01*
X012543Y022243D02*
X000260Y022243D01*
X000260Y022185D02*
X012525Y022185D01*
X012525Y022126D02*
X000260Y022126D01*
X000260Y022068D02*
X012525Y022068D01*
X012546Y022009D02*
X000260Y022009D01*
X000260Y021951D02*
X012571Y021951D01*
X012619Y021892D02*
X000260Y021892D01*
X000260Y021834D02*
X012680Y021834D01*
X012803Y021477D02*
X012676Y021425D01*
X012578Y021327D01*
X012525Y021199D01*
X012525Y021061D01*
X012578Y020933D01*
X012676Y020835D01*
X012803Y020783D01*
X013457Y020783D01*
X013584Y020835D01*
X013682Y020933D01*
X013735Y021061D01*
X013735Y021199D01*
X013682Y021327D01*
X013584Y021425D01*
X013457Y021477D01*
X012803Y021477D01*
X012675Y021424D02*
X000260Y021424D01*
X000260Y021366D02*
X012617Y021366D01*
X012570Y021307D02*
X000260Y021307D01*
X000260Y021249D02*
X012546Y021249D01*
X012525Y021190D02*
X000260Y021190D01*
X000260Y021132D02*
X012525Y021132D01*
X012525Y021073D02*
X000260Y021073D01*
X000260Y021015D02*
X012544Y021015D01*
X012568Y020956D02*
X000260Y020956D01*
X000260Y020898D02*
X012614Y020898D01*
X012672Y020839D02*
X000260Y020839D01*
X000260Y020781D02*
X014490Y020781D01*
X014490Y020839D02*
X013588Y020839D01*
X013646Y020898D02*
X014490Y020898D01*
X014490Y020956D02*
X013692Y020956D01*
X013716Y021015D02*
X014490Y021015D01*
X014490Y021073D02*
X013735Y021073D01*
X013735Y021132D02*
X014490Y021132D01*
X014490Y021190D02*
X013735Y021190D01*
X013714Y021249D02*
X014490Y021249D01*
X014490Y021307D02*
X013690Y021307D01*
X013643Y021366D02*
X014490Y021366D01*
X014490Y021424D02*
X013585Y021424D01*
X013580Y021834D02*
X017638Y021834D01*
X017643Y021839D02*
X017574Y021770D01*
X014572Y021770D01*
X014490Y021688D01*
X014490Y016968D01*
X013603Y017855D01*
X013682Y017933D01*
X013735Y018061D01*
X013735Y018199D01*
X013682Y018327D01*
X013584Y018425D01*
X013457Y018477D01*
X013270Y018477D01*
X013270Y018783D01*
X013457Y018783D01*
X013584Y018835D01*
X013682Y018933D01*
X013735Y019061D01*
X013735Y019199D01*
X013682Y019327D01*
X013584Y019425D01*
X013457Y019477D01*
X012803Y019477D01*
X012676Y019425D01*
X012578Y019327D01*
X012525Y019199D01*
X012525Y019061D01*
X012578Y018933D01*
X012676Y018835D01*
X012803Y018783D01*
X012990Y018783D01*
X012990Y018477D01*
X012803Y018477D01*
X012676Y018425D01*
X012578Y018327D01*
X012525Y018199D01*
X012525Y018061D01*
X012578Y017933D01*
X012676Y017835D01*
X012803Y017783D01*
X013279Y017783D01*
X013322Y017740D01*
X013624Y017438D01*
X013571Y017473D01*
X013501Y017503D01*
X013426Y017517D01*
X013160Y017517D01*
X013160Y017160D01*
X013775Y017160D01*
X013775Y017168D01*
X013760Y017243D01*
X013731Y017314D01*
X013695Y017367D01*
X014472Y016590D01*
X014490Y016590D01*
X014490Y011186D01*
X014421Y011117D01*
X014421Y010943D01*
X014490Y010874D01*
X014490Y010786D01*
X014421Y010717D01*
X014421Y010543D01*
X000260Y010543D01*
X000260Y010485D02*
X012716Y010485D01*
X012689Y010473D02*
X012626Y010431D01*
X012572Y010377D01*
X012529Y010314D01*
X012500Y010243D01*
X012485Y010168D01*
X012485Y010160D01*
X013100Y010160D01*
X013100Y010517D01*
X012834Y010517D01*
X012759Y010503D01*
X012689Y010473D01*
X012621Y010426D02*
X000260Y010426D01*
X000260Y010368D02*
X012565Y010368D01*
X012527Y010309D02*
X000260Y010309D01*
X000260Y010251D02*
X012503Y010251D01*
X012490Y010192D02*
X000260Y010192D01*
X000260Y010134D02*
X013100Y010134D01*
X013100Y010160D02*
X013100Y010100D01*
X013160Y010100D01*
X013160Y010160D01*
X013100Y010160D01*
X013100Y010192D02*
X013160Y010192D01*
X013160Y010160D02*
X013160Y010517D01*
X013426Y010517D01*
X013501Y010503D01*
X013571Y010473D01*
X013634Y010431D01*
X013688Y010377D01*
X013731Y010314D01*
X013760Y010243D01*
X013775Y010168D01*
X013775Y010160D01*
X013160Y010160D01*
X013160Y010134D02*
X014490Y010134D01*
X014490Y010192D02*
X013770Y010192D01*
X013757Y010251D02*
X014490Y010251D01*
X014490Y010309D02*
X013733Y010309D01*
X013695Y010368D02*
X014490Y010368D01*
X014490Y010426D02*
X013639Y010426D01*
X013544Y010485D02*
X014480Y010485D01*
X014490Y010474D02*
X014490Y008572D01*
X014572Y008490D01*
X018790Y008490D01*
X018790Y007272D01*
X018921Y007141D01*
X018921Y007043D01*
X019043Y006921D01*
X019217Y006921D01*
X019339Y007043D01*
X019339Y007217D01*
X019217Y007339D01*
X019119Y007339D01*
X019070Y007388D01*
X019070Y008490D01*
X030688Y008490D01*
X030770Y008572D01*
X030770Y013590D01*
X034976Y013590D01*
X035105Y013461D01*
X034999Y013355D01*
X034940Y013212D01*
X034940Y013056D01*
X034999Y012913D01*
X035109Y012803D01*
X035252Y012744D01*
X036008Y012744D01*
X036151Y012803D01*
X036261Y012913D01*
X036320Y013056D01*
X036320Y013212D01*
X036261Y013355D01*
X036151Y013465D01*
X036008Y013524D01*
X035438Y013524D01*
X035194Y013768D01*
X035252Y013744D01*
X036008Y013744D01*
X036151Y013803D01*
X036261Y013913D01*
X036320Y014056D01*
X036320Y014212D01*
X036261Y014355D01*
X036151Y014465D01*
X036008Y014524D01*
X035252Y014524D01*
X035109Y014465D01*
X034999Y014355D01*
X034966Y014274D01*
X030770Y014274D01*
X030770Y014890D01*
X030921Y014890D01*
X030921Y014843D01*
X031043Y014721D01*
X031217Y014721D01*
X031339Y014843D01*
X031339Y015017D01*
X031217Y015139D01*
X031119Y015139D01*
X031088Y015170D01*
X030770Y015170D01*
X030770Y015590D01*
X032972Y015590D01*
X033490Y015072D01*
X033572Y014990D01*
X034967Y014990D01*
X034999Y014913D01*
X035109Y014803D01*
X035252Y014744D01*
X036008Y014744D01*
X036151Y014803D01*
X036261Y014913D01*
X036320Y015056D01*
X036320Y015212D01*
X036261Y015355D01*
X036151Y015465D01*
X036008Y015524D01*
X035252Y015524D01*
X035109Y015465D01*
X034999Y015355D01*
X034964Y015270D01*
X033688Y015270D01*
X033170Y015788D01*
X033168Y015790D01*
X035141Y015790D01*
X035252Y015744D01*
X036008Y015744D01*
X036151Y015803D01*
X036261Y015913D01*
X036320Y016056D01*
X036320Y016212D01*
X036261Y016355D01*
X036151Y016465D01*
X036008Y016524D01*
X035252Y016524D01*
X035109Y016465D01*
X034999Y016355D01*
X034940Y016212D01*
X034940Y016070D01*
X030770Y016070D01*
X030770Y021490D01*
X033572Y021490D01*
X033986Y021076D01*
X033986Y021076D01*
X034068Y020994D01*
X034966Y020994D01*
X034999Y020913D01*
X035109Y020803D01*
X035252Y020744D01*
X036008Y020744D01*
X036151Y020803D01*
X036261Y020913D01*
X036320Y021056D01*
X036320Y021212D01*
X036261Y021355D01*
X036151Y021465D01*
X036008Y021524D01*
X035252Y021524D01*
X035109Y021465D01*
X034999Y021355D01*
X034966Y021274D01*
X034184Y021274D01*
X033770Y021688D01*
X033688Y021770D01*
X022230Y021770D01*
X022200Y021800D01*
X022060Y021800D01*
X022030Y021770D01*
X018286Y021770D01*
X018217Y021839D01*
X018043Y021839D01*
X017974Y021770D01*
X017886Y021770D01*
X017817Y021839D01*
X017643Y021839D01*
X017579Y021775D02*
X000260Y021775D01*
X000260Y021717D02*
X014519Y021717D01*
X014490Y021658D02*
X000260Y021658D01*
X000260Y021600D02*
X014490Y021600D01*
X014490Y021541D02*
X000260Y021541D01*
X000260Y021483D02*
X014490Y021483D01*
X013689Y021951D02*
X029571Y021951D01*
X029546Y022009D02*
X013714Y022009D01*
X013735Y022068D02*
X029525Y022068D01*
X029525Y022126D02*
X013735Y022126D01*
X013735Y022185D02*
X029525Y022185D01*
X029543Y022243D02*
X013717Y022243D01*
X013693Y022302D02*
X029567Y022302D01*
X029611Y022360D02*
X013649Y022360D01*
X013590Y022419D02*
X029670Y022419D01*
X029803Y022477D02*
X030457Y022477D01*
X030590Y022419D02*
X030780Y022419D01*
X030780Y022360D02*
X030649Y022360D01*
X030693Y022302D02*
X030780Y022302D01*
X030786Y022243D02*
X030717Y022243D01*
X030735Y022185D02*
X030811Y022185D01*
X030835Y022126D02*
X030735Y022126D01*
X030735Y022068D02*
X030872Y022068D01*
X030930Y022009D02*
X030714Y022009D01*
X030689Y021951D02*
X031002Y021951D01*
X031143Y021892D02*
X030641Y021892D01*
X030580Y021834D02*
X039130Y021834D01*
X039130Y021892D02*
X033117Y021892D01*
X033111Y021890D02*
X033281Y021960D01*
X033410Y022089D01*
X033480Y022258D01*
X033480Y022441D01*
X033410Y022611D01*
X033281Y022740D01*
X033111Y022810D01*
X032928Y022810D01*
X032759Y022740D01*
X032630Y022611D01*
X032560Y022441D01*
X032560Y022258D01*
X032630Y022089D01*
X032759Y021960D01*
X032928Y021890D01*
X033111Y021890D01*
X033258Y021951D02*
X039130Y021951D01*
X039130Y022009D02*
X033330Y022009D01*
X033388Y022068D02*
X039130Y022068D01*
X039130Y022126D02*
X033425Y022126D01*
X033449Y022185D02*
X039130Y022185D01*
X039130Y022243D02*
X033474Y022243D01*
X033480Y022302D02*
X039130Y022302D01*
X039130Y022360D02*
X033480Y022360D01*
X033480Y022419D02*
X039130Y022419D01*
X039130Y022477D02*
X033465Y022477D01*
X033441Y022536D02*
X039130Y022536D01*
X039130Y022594D02*
X033417Y022594D01*
X033368Y022653D02*
X039130Y022653D01*
X039130Y022711D02*
X033309Y022711D01*
X033209Y022770D02*
X039130Y022770D01*
X039130Y022828D02*
X030567Y022828D01*
X031429Y022770D02*
X032831Y022770D01*
X032731Y022711D02*
X031529Y022711D01*
X031588Y022653D02*
X032672Y022653D01*
X032623Y022594D02*
X031637Y022594D01*
X031661Y022536D02*
X032599Y022536D01*
X032575Y022477D02*
X031685Y022477D01*
X031700Y022419D02*
X032560Y022419D01*
X032560Y022360D02*
X031700Y022360D01*
X031700Y022302D02*
X032560Y022302D01*
X032566Y022243D02*
X031694Y022243D01*
X031669Y022185D02*
X032591Y022185D01*
X032615Y022126D02*
X031645Y022126D01*
X031608Y022068D02*
X032652Y022068D01*
X032710Y022009D02*
X031550Y022009D01*
X031478Y021951D02*
X032782Y021951D01*
X032923Y021892D02*
X031337Y021892D01*
X030770Y021483D02*
X033579Y021483D01*
X033638Y021424D02*
X030770Y021424D01*
X030770Y021366D02*
X033696Y021366D01*
X033755Y021307D02*
X030770Y021307D01*
X030770Y021249D02*
X033813Y021249D01*
X033872Y021190D02*
X030770Y021190D01*
X030770Y021132D02*
X033930Y021132D01*
X033989Y021073D02*
X030770Y021073D01*
X030770Y021015D02*
X034047Y021015D01*
X034151Y021307D02*
X034980Y021307D01*
X035010Y021366D02*
X034092Y021366D01*
X034034Y021424D02*
X035069Y021424D01*
X035153Y021483D02*
X033975Y021483D01*
X033917Y021541D02*
X039130Y021541D01*
X039130Y021483D02*
X036107Y021483D01*
X036191Y021424D02*
X039130Y021424D01*
X039130Y021366D02*
X036250Y021366D01*
X036280Y021307D02*
X039130Y021307D01*
X039130Y021249D02*
X036305Y021249D01*
X036320Y021190D02*
X039130Y021190D01*
X039130Y021132D02*
X036320Y021132D01*
X036320Y021073D02*
X039130Y021073D01*
X039130Y021015D02*
X036303Y021015D01*
X036278Y020956D02*
X039130Y020956D01*
X039130Y020898D02*
X036245Y020898D01*
X036187Y020839D02*
X039130Y020839D01*
X039130Y020781D02*
X036096Y020781D01*
X036008Y020524D02*
X035252Y020524D01*
X035109Y020465D01*
X034999Y020355D01*
X034940Y020212D01*
X034940Y020056D01*
X034999Y019913D01*
X035105Y019807D01*
X034368Y019070D01*
X033686Y019070D01*
X033617Y019139D01*
X033443Y019139D01*
X033321Y019017D01*
X033321Y018843D01*
X033443Y018721D01*
X033617Y018721D01*
X033686Y018790D01*
X034484Y018790D01*
X034964Y019270D01*
X034940Y019212D01*
X034940Y019056D01*
X034999Y018913D01*
X035109Y018803D01*
X035252Y018744D01*
X036008Y018744D01*
X036151Y018803D01*
X036261Y018913D01*
X036320Y019056D01*
X036320Y019212D01*
X036261Y019355D01*
X036151Y019465D01*
X036008Y019524D01*
X035252Y019524D01*
X035194Y019500D01*
X035438Y019744D01*
X036008Y019744D01*
X036151Y019803D01*
X036261Y019913D01*
X036320Y020056D01*
X036320Y020212D01*
X036261Y020355D01*
X036151Y020465D01*
X036008Y020524D01*
X036094Y020488D02*
X039130Y020488D01*
X039130Y020430D02*
X036186Y020430D01*
X036244Y020371D02*
X039130Y020371D01*
X039130Y020313D02*
X036278Y020313D01*
X036302Y020254D02*
X039130Y020254D01*
X039130Y020196D02*
X036320Y020196D01*
X036320Y020137D02*
X039130Y020137D01*
X039130Y020079D02*
X036320Y020079D01*
X036305Y020020D02*
X039130Y020020D01*
X039130Y019962D02*
X036281Y019962D01*
X036251Y019903D02*
X039130Y019903D01*
X039130Y019845D02*
X036192Y019845D01*
X036109Y019786D02*
X039130Y019786D01*
X039130Y019728D02*
X035422Y019728D01*
X035363Y019669D02*
X039130Y019669D01*
X039130Y019611D02*
X035305Y019611D01*
X035246Y019552D02*
X039130Y019552D01*
X039130Y019494D02*
X036081Y019494D01*
X036180Y019435D02*
X039130Y019435D01*
X039130Y019377D02*
X036239Y019377D01*
X036276Y019318D02*
X039130Y019318D01*
X039130Y019260D02*
X036300Y019260D01*
X036320Y019201D02*
X039130Y019201D01*
X039130Y019143D02*
X036320Y019143D01*
X036320Y019084D02*
X039130Y019084D01*
X039130Y019026D02*
X036307Y019026D01*
X036283Y018967D02*
X039130Y018967D01*
X039130Y018909D02*
X036256Y018909D01*
X036198Y018850D02*
X039130Y018850D01*
X039130Y018792D02*
X036123Y018792D01*
X036008Y018524D02*
X035252Y018524D01*
X035109Y018465D01*
X034999Y018355D01*
X034940Y018212D01*
X034940Y018056D01*
X034964Y017998D01*
X034492Y018470D01*
X033686Y018470D01*
X033617Y018539D01*
X033443Y018539D01*
X033321Y018417D01*
X033321Y018243D01*
X033443Y018121D01*
X033617Y018121D01*
X033686Y018190D01*
X034376Y018190D01*
X035105Y017461D01*
X034999Y017355D01*
X034940Y017212D01*
X030770Y017212D01*
X030770Y017154D02*
X034940Y017154D01*
X034940Y017212D02*
X034940Y017056D01*
X034999Y016913D01*
X035109Y016803D01*
X035252Y016744D01*
X030770Y016744D01*
X030770Y016686D02*
X039130Y016686D01*
X039130Y016744D02*
X036008Y016744D01*
X036151Y016803D01*
X036261Y016913D01*
X036320Y017056D01*
X036320Y017212D01*
X039130Y017212D01*
X039130Y017154D02*
X036320Y017154D01*
X036320Y017212D02*
X036261Y017355D01*
X036151Y017465D01*
X036008Y017524D01*
X035438Y017524D01*
X035194Y017768D01*
X035252Y017744D01*
X036008Y017744D01*
X036151Y017803D01*
X036261Y017913D01*
X036320Y018056D01*
X036320Y018212D01*
X036261Y018355D01*
X036151Y018465D01*
X036008Y018524D01*
X036068Y018499D02*
X039130Y018499D01*
X039130Y018441D02*
X036175Y018441D01*
X036233Y018382D02*
X039130Y018382D01*
X039130Y018324D02*
X036274Y018324D01*
X036298Y018265D02*
X039130Y018265D01*
X039130Y018207D02*
X036320Y018207D01*
X036320Y018148D02*
X039130Y018148D01*
X039130Y018090D02*
X036320Y018090D01*
X036310Y018031D02*
X039130Y018031D01*
X039130Y017973D02*
X036285Y017973D01*
X036261Y017914D02*
X039130Y017914D01*
X039130Y017856D02*
X036203Y017856D01*
X036136Y017797D02*
X039130Y017797D01*
X039130Y017739D02*
X035223Y017739D01*
X035282Y017680D02*
X039130Y017680D01*
X039130Y017622D02*
X035340Y017622D01*
X035399Y017563D02*
X039130Y017563D01*
X039130Y017505D02*
X036054Y017505D01*
X036169Y017446D02*
X039130Y017446D01*
X039130Y017388D02*
X036228Y017388D01*
X036271Y017329D02*
X039130Y017329D01*
X039130Y017271D02*
X036296Y017271D01*
X036320Y017095D02*
X039130Y017095D01*
X039130Y017037D02*
X036312Y017037D01*
X036288Y016978D02*
X039130Y016978D01*
X039130Y016920D02*
X036263Y016920D01*
X036209Y016861D02*
X039130Y016861D01*
X039130Y016803D02*
X036149Y016803D01*
X036008Y016744D02*
X035252Y016744D01*
X035111Y016803D02*
X030770Y016803D01*
X030770Y016861D02*
X035051Y016861D01*
X034997Y016920D02*
X030770Y016920D01*
X030770Y016978D02*
X034972Y016978D01*
X034948Y017037D02*
X030770Y017037D01*
X030770Y017095D02*
X034940Y017095D01*
X034964Y017271D02*
X030770Y017271D01*
X030770Y017329D02*
X034989Y017329D01*
X035032Y017388D02*
X030770Y017388D01*
X030770Y017446D02*
X035091Y017446D01*
X035061Y017505D02*
X030770Y017505D01*
X030770Y017563D02*
X035003Y017563D01*
X034944Y017622D02*
X030770Y017622D01*
X030770Y017680D02*
X034886Y017680D01*
X034827Y017739D02*
X030770Y017739D01*
X030770Y017797D02*
X034769Y017797D01*
X034710Y017856D02*
X030770Y017856D01*
X030770Y017914D02*
X034652Y017914D01*
X034593Y017973D02*
X030770Y017973D01*
X030770Y018031D02*
X034535Y018031D01*
X034476Y018090D02*
X030770Y018090D01*
X030770Y018148D02*
X033416Y018148D01*
X033358Y018207D02*
X030770Y018207D01*
X030770Y018265D02*
X033321Y018265D01*
X033321Y018324D02*
X030770Y018324D01*
X030770Y018382D02*
X033321Y018382D01*
X033345Y018441D02*
X030770Y018441D01*
X030770Y018499D02*
X033403Y018499D01*
X033431Y018733D02*
X030770Y018733D01*
X030770Y018675D02*
X039130Y018675D01*
X039130Y018733D02*
X033629Y018733D01*
X033657Y018499D02*
X035192Y018499D01*
X035085Y018441D02*
X034521Y018441D01*
X034580Y018382D02*
X035027Y018382D01*
X034986Y018324D02*
X034638Y018324D01*
X034697Y018265D02*
X034962Y018265D01*
X034940Y018207D02*
X034755Y018207D01*
X034814Y018148D02*
X034940Y018148D01*
X034940Y018090D02*
X034872Y018090D01*
X034931Y018031D02*
X034950Y018031D01*
X034418Y018148D02*
X033644Y018148D01*
X033373Y018792D02*
X030770Y018792D01*
X030770Y018850D02*
X033321Y018850D01*
X033321Y018909D02*
X030770Y018909D01*
X030770Y018967D02*
X033321Y018967D01*
X033330Y019026D02*
X030770Y019026D01*
X030770Y019084D02*
X033388Y019084D01*
X033672Y019084D02*
X034382Y019084D01*
X034441Y019143D02*
X030770Y019143D01*
X030770Y019201D02*
X034499Y019201D01*
X034558Y019260D02*
X030770Y019260D01*
X030770Y019318D02*
X034616Y019318D01*
X034675Y019377D02*
X030770Y019377D01*
X030770Y019435D02*
X034733Y019435D01*
X034792Y019494D02*
X030770Y019494D01*
X030770Y019552D02*
X034850Y019552D01*
X034909Y019611D02*
X030770Y019611D01*
X030770Y019669D02*
X034967Y019669D01*
X035026Y019728D02*
X030770Y019728D01*
X030770Y019786D02*
X035084Y019786D01*
X035068Y019845D02*
X030770Y019845D01*
X030770Y019903D02*
X035009Y019903D01*
X034979Y019962D02*
X030770Y019962D01*
X030770Y020020D02*
X034955Y020020D01*
X034940Y020079D02*
X030770Y020079D01*
X030770Y020137D02*
X034940Y020137D01*
X034940Y020196D02*
X030770Y020196D01*
X030770Y020254D02*
X034958Y020254D01*
X034982Y020313D02*
X030770Y020313D01*
X030770Y020371D02*
X035016Y020371D01*
X035074Y020430D02*
X030770Y020430D01*
X030770Y020488D02*
X035166Y020488D01*
X035164Y020781D02*
X030770Y020781D01*
X030770Y020839D02*
X035073Y020839D01*
X035015Y020898D02*
X030770Y020898D01*
X030770Y020956D02*
X034982Y020956D01*
X033858Y021600D02*
X039130Y021600D01*
X039130Y021658D02*
X033800Y021658D01*
X033770Y021688D02*
X033770Y021688D01*
X033741Y021717D02*
X039130Y021717D01*
X039130Y021775D02*
X022225Y021775D01*
X022035Y021775D02*
X018281Y021775D01*
X018222Y021834D02*
X029680Y021834D01*
X029619Y021892D02*
X013641Y021892D01*
X013457Y022477D02*
X012803Y022477D01*
X013567Y022828D02*
X029693Y022828D01*
X029625Y022887D02*
X013635Y022887D01*
X013687Y022945D02*
X029573Y022945D01*
X029549Y023004D02*
X013711Y023004D01*
X013735Y023062D02*
X029525Y023062D01*
X029525Y023121D02*
X013735Y023121D01*
X013735Y023179D02*
X029525Y023179D01*
X029541Y023238D02*
X013719Y023238D01*
X013457Y023783D02*
X012803Y023783D01*
X012676Y023835D01*
X012578Y023933D01*
X012525Y024061D01*
X012525Y024199D01*
X012578Y024327D01*
X012676Y024425D01*
X012803Y024477D01*
X013457Y024477D01*
X013584Y024425D01*
X013682Y024327D01*
X013735Y024199D01*
X013735Y024061D01*
X013682Y023933D01*
X013584Y023835D01*
X013457Y023783D01*
X013553Y023823D02*
X020990Y023823D01*
X020990Y023881D02*
X013630Y023881D01*
X013685Y023940D02*
X020990Y023940D01*
X020990Y023998D02*
X013709Y023998D01*
X013733Y024057D02*
X020990Y024057D01*
X020990Y024115D02*
X013735Y024115D01*
X013735Y024174D02*
X020990Y024174D01*
X020990Y024232D02*
X013721Y024232D01*
X013697Y024291D02*
X020990Y024291D01*
X020990Y024349D02*
X013660Y024349D01*
X013601Y024408D02*
X020990Y024408D01*
X020990Y024466D02*
X013484Y024466D01*
X012776Y024466D02*
X000260Y024466D01*
X000260Y024408D02*
X012659Y024408D01*
X012600Y024349D02*
X000260Y024349D01*
X000260Y024291D02*
X012563Y024291D01*
X012539Y024232D02*
X000260Y024232D01*
X000260Y024174D02*
X012525Y024174D01*
X012525Y024115D02*
X000260Y024115D01*
X000260Y024057D02*
X012527Y024057D01*
X012551Y023998D02*
X000260Y023998D01*
X000260Y023940D02*
X012575Y023940D01*
X012630Y023881D02*
X000260Y023881D01*
X000260Y023823D02*
X012707Y023823D01*
X014490Y020722D02*
X000260Y020722D01*
X000260Y020664D02*
X014490Y020664D01*
X014490Y020605D02*
X000260Y020605D01*
X000260Y020547D02*
X014490Y020547D01*
X014490Y020488D02*
X000260Y020488D01*
X000260Y020430D02*
X012688Y020430D01*
X012676Y020425D02*
X012578Y020327D01*
X012525Y020199D01*
X012525Y020061D01*
X012578Y019933D01*
X012676Y019835D01*
X012803Y019783D01*
X013457Y019783D01*
X013584Y019835D01*
X013682Y019933D01*
X013735Y020061D01*
X013735Y020199D01*
X013682Y020327D01*
X013584Y020425D01*
X013457Y020477D01*
X012803Y020477D01*
X012676Y020425D01*
X012622Y020371D02*
X000260Y020371D01*
X000260Y020313D02*
X012572Y020313D01*
X012548Y020254D02*
X000260Y020254D01*
X000260Y020196D02*
X012525Y020196D01*
X012525Y020137D02*
X000260Y020137D01*
X000260Y020079D02*
X012525Y020079D01*
X012542Y020020D02*
X000260Y020020D01*
X000260Y019962D02*
X012566Y019962D01*
X012608Y019903D02*
X000260Y019903D01*
X000260Y019845D02*
X012667Y019845D01*
X012795Y019786D02*
X000260Y019786D01*
X000260Y019728D02*
X014490Y019728D01*
X014490Y019786D02*
X013465Y019786D01*
X013593Y019845D02*
X014490Y019845D01*
X014490Y019903D02*
X013652Y019903D01*
X013694Y019962D02*
X014490Y019962D01*
X014490Y020020D02*
X013718Y020020D01*
X013735Y020079D02*
X014490Y020079D01*
X014490Y020137D02*
X013735Y020137D01*
X013735Y020196D02*
X014490Y020196D01*
X014490Y020254D02*
X013712Y020254D01*
X013688Y020313D02*
X014490Y020313D01*
X014490Y020371D02*
X013638Y020371D01*
X013572Y020430D02*
X014490Y020430D01*
X014490Y019669D02*
X000260Y019669D01*
X000260Y019611D02*
X014490Y019611D01*
X014490Y019552D02*
X000260Y019552D01*
X000260Y019494D02*
X014490Y019494D01*
X014490Y019435D02*
X013559Y019435D01*
X013632Y019377D02*
X014490Y019377D01*
X014490Y019318D02*
X013686Y019318D01*
X013710Y019260D02*
X014490Y019260D01*
X014490Y019201D02*
X013734Y019201D01*
X013735Y019143D02*
X014490Y019143D01*
X014490Y019084D02*
X013735Y019084D01*
X013720Y019026D02*
X014490Y019026D01*
X014490Y018967D02*
X013696Y018967D01*
X013657Y018909D02*
X014490Y018909D01*
X014490Y018850D02*
X013599Y018850D01*
X013478Y018792D02*
X014490Y018792D01*
X014490Y018733D02*
X013270Y018733D01*
X013270Y018675D02*
X014490Y018675D01*
X014490Y018616D02*
X013270Y018616D01*
X013270Y018558D02*
X014490Y018558D01*
X014490Y018499D02*
X013270Y018499D01*
X012990Y018499D02*
X000260Y018499D01*
X000260Y018441D02*
X012714Y018441D01*
X012633Y018382D02*
X000260Y018382D01*
X000260Y018324D02*
X012577Y018324D01*
X012552Y018265D02*
X000260Y018265D01*
X000260Y018207D02*
X012528Y018207D01*
X012525Y018148D02*
X000260Y018148D01*
X000260Y018090D02*
X012525Y018090D01*
X012537Y018031D02*
X000260Y018031D01*
X000260Y017973D02*
X012562Y017973D01*
X012597Y017914D02*
X000260Y017914D01*
X000260Y017856D02*
X012656Y017856D01*
X012768Y017797D02*
X000260Y017797D01*
X000260Y017739D02*
X013323Y017739D01*
X013382Y017680D02*
X000260Y017680D01*
X000260Y017622D02*
X013440Y017622D01*
X013499Y017563D02*
X000260Y017563D01*
X000260Y017505D02*
X012769Y017505D01*
X012759Y017503D02*
X012689Y017473D01*
X012626Y017431D01*
X012572Y017377D01*
X012529Y017314D01*
X012500Y017243D01*
X012485Y017168D01*
X012485Y017160D01*
X013100Y017160D01*
X013100Y017517D01*
X012834Y017517D01*
X012759Y017503D01*
X012648Y017446D02*
X000260Y017446D01*
X000260Y017388D02*
X012582Y017388D01*
X012540Y017329D02*
X000260Y017329D01*
X000260Y017271D02*
X012511Y017271D01*
X012494Y017212D02*
X000260Y017212D01*
X000260Y017154D02*
X013100Y017154D01*
X013100Y017160D02*
X013100Y017100D01*
X013160Y017100D01*
X013160Y017160D01*
X013100Y017160D01*
X013100Y017212D02*
X013160Y017212D01*
X013160Y017154D02*
X013908Y017154D01*
X013850Y017212D02*
X013766Y017212D01*
X013749Y017271D02*
X013791Y017271D01*
X013733Y017329D02*
X013720Y017329D01*
X013616Y017446D02*
X013612Y017446D01*
X013557Y017505D02*
X013491Y017505D01*
X013719Y017739D02*
X014490Y017739D01*
X014490Y017797D02*
X013661Y017797D01*
X013604Y017856D02*
X014490Y017856D01*
X014490Y017914D02*
X013663Y017914D01*
X013698Y017973D02*
X014490Y017973D01*
X014490Y018031D02*
X013723Y018031D01*
X013735Y018090D02*
X014490Y018090D01*
X014490Y018148D02*
X013735Y018148D01*
X013732Y018207D02*
X014490Y018207D01*
X014490Y018265D02*
X013708Y018265D01*
X013683Y018324D02*
X014490Y018324D01*
X014490Y018382D02*
X013627Y018382D01*
X013546Y018441D02*
X014490Y018441D01*
X014490Y017680D02*
X013778Y017680D01*
X013836Y017622D02*
X014490Y017622D01*
X014490Y017563D02*
X013895Y017563D01*
X013953Y017505D02*
X014490Y017505D01*
X014490Y017446D02*
X014012Y017446D01*
X014070Y017388D02*
X014490Y017388D01*
X014490Y017329D02*
X014129Y017329D01*
X014187Y017271D02*
X014490Y017271D01*
X014490Y017212D02*
X014246Y017212D01*
X014304Y017154D02*
X014490Y017154D01*
X014490Y017095D02*
X014363Y017095D01*
X014421Y017037D02*
X014490Y017037D01*
X014480Y016978D02*
X014490Y016978D01*
X014259Y016803D02*
X013595Y016803D01*
X013571Y016787D02*
X013634Y016829D01*
X013688Y016883D01*
X013731Y016946D01*
X013760Y017017D01*
X013775Y017092D01*
X013775Y017100D01*
X013160Y017100D01*
X013160Y016743D01*
X013426Y016743D01*
X013501Y016757D01*
X013571Y016787D01*
X013667Y016861D02*
X014201Y016861D01*
X014142Y016920D02*
X013713Y016920D01*
X013744Y016978D02*
X014084Y016978D01*
X014025Y017037D02*
X013764Y017037D01*
X013775Y017095D02*
X013967Y017095D01*
X014318Y016744D02*
X013433Y016744D01*
X013457Y016477D02*
X013584Y016425D01*
X013682Y016327D01*
X013735Y016199D01*
X013735Y016061D01*
X013682Y015933D01*
X013584Y015835D01*
X013457Y015783D01*
X012803Y015783D01*
X012676Y015835D01*
X012578Y015933D01*
X012525Y016061D01*
X012525Y016199D01*
X012578Y016327D01*
X012676Y016425D01*
X012803Y016477D01*
X013457Y016477D01*
X013519Y016452D02*
X014490Y016452D01*
X014490Y016510D02*
X000260Y016510D01*
X000260Y016452D02*
X012741Y016452D01*
X012644Y016393D02*
X000260Y016393D01*
X000260Y016335D02*
X012586Y016335D01*
X012557Y016276D02*
X000260Y016276D01*
X000260Y016218D02*
X012533Y016218D01*
X012525Y016159D02*
X000260Y016159D01*
X000260Y016101D02*
X012525Y016101D01*
X012533Y016042D02*
X000260Y016042D01*
X000260Y015984D02*
X012557Y015984D01*
X012586Y015925D02*
X000260Y015925D01*
X000260Y015867D02*
X012645Y015867D01*
X012742Y015808D02*
X000260Y015808D01*
X000260Y015750D02*
X014490Y015750D01*
X014490Y015808D02*
X013518Y015808D01*
X013615Y015867D02*
X014490Y015867D01*
X014490Y015925D02*
X013674Y015925D01*
X013703Y015984D02*
X014490Y015984D01*
X014490Y016042D02*
X013727Y016042D01*
X013735Y016101D02*
X014490Y016101D01*
X014490Y016159D02*
X013735Y016159D01*
X013727Y016218D02*
X014490Y016218D01*
X014490Y016276D02*
X013703Y016276D01*
X013674Y016335D02*
X014490Y016335D01*
X014490Y016393D02*
X013616Y016393D01*
X013160Y016744D02*
X013100Y016744D01*
X013100Y016743D02*
X013100Y017100D01*
X012485Y017100D01*
X012485Y017092D01*
X012500Y017017D01*
X012529Y016946D01*
X012572Y016883D01*
X012626Y016829D01*
X012689Y016787D01*
X012759Y016757D01*
X012834Y016743D01*
X013100Y016743D01*
X013100Y016803D02*
X013160Y016803D01*
X013160Y016861D02*
X013100Y016861D01*
X013100Y016920D02*
X013160Y016920D01*
X013160Y016978D02*
X013100Y016978D01*
X013100Y017037D02*
X013160Y017037D01*
X013160Y017095D02*
X013100Y017095D01*
X013100Y017271D02*
X013160Y017271D01*
X013160Y017329D02*
X013100Y017329D01*
X013100Y017388D02*
X013160Y017388D01*
X013160Y017446D02*
X013100Y017446D01*
X013100Y017505D02*
X013160Y017505D01*
X012485Y017095D02*
X000260Y017095D01*
X000260Y017037D02*
X012496Y017037D01*
X012516Y016978D02*
X000260Y016978D01*
X000260Y016920D02*
X012547Y016920D01*
X012593Y016861D02*
X000260Y016861D01*
X000260Y016803D02*
X012665Y016803D01*
X012827Y016744D02*
X000260Y016744D01*
X000260Y016686D02*
X014376Y016686D01*
X014435Y016627D02*
X000260Y016627D01*
X000260Y016569D02*
X014490Y016569D01*
X014490Y015691D02*
X000260Y015691D01*
X000260Y015633D02*
X014490Y015633D01*
X014490Y015574D02*
X000260Y015574D01*
X000260Y015516D02*
X014490Y015516D01*
X014490Y015457D02*
X013506Y015457D01*
X013457Y015477D02*
X013584Y015425D01*
X013682Y015327D01*
X013735Y015199D01*
X013735Y015061D01*
X013682Y014933D01*
X013584Y014835D01*
X013457Y014783D01*
X012803Y014783D01*
X012676Y014835D01*
X012578Y014933D01*
X012525Y015061D01*
X012525Y015199D01*
X012578Y015327D01*
X012676Y015425D01*
X012803Y015477D01*
X013457Y015477D01*
X013610Y015399D02*
X014490Y015399D01*
X014490Y015340D02*
X013669Y015340D01*
X013701Y015282D02*
X014490Y015282D01*
X014490Y015223D02*
X013725Y015223D01*
X013735Y015165D02*
X014490Y015165D01*
X014490Y015106D02*
X013735Y015106D01*
X013729Y015048D02*
X014490Y015048D01*
X014490Y014989D02*
X013705Y014989D01*
X013679Y014931D02*
X014490Y014931D01*
X014490Y014872D02*
X013621Y014872D01*
X013532Y014814D02*
X014490Y014814D01*
X014490Y014755D02*
X001615Y014755D01*
X001618Y014747D02*
X001593Y014822D01*
X001558Y014892D01*
X001511Y014956D01*
X001456Y015011D01*
X001392Y015058D01*
X001322Y015093D01*
X001247Y015118D01*
X001169Y015130D01*
X001160Y015130D01*
X001160Y014660D01*
X001630Y014660D01*
X001630Y014669D01*
X001618Y014747D01*
X001626Y014697D02*
X014490Y014697D01*
X014490Y014638D02*
X001160Y014638D01*
X001160Y014660D02*
X001160Y014600D01*
X001630Y014600D01*
X001630Y014591D01*
X001618Y014513D01*
X001593Y014438D01*
X001558Y014368D01*
X001511Y014304D01*
X001456Y014249D01*
X001392Y014202D01*
X001322Y014167D01*
X001247Y014142D01*
X001169Y014130D01*
X001160Y014130D01*
X001160Y014600D01*
X001100Y014600D01*
X001100Y014130D01*
X001091Y014130D01*
X001013Y014142D01*
X000938Y014167D01*
X000868Y014202D01*
X000804Y014249D01*
X000749Y014304D01*
X000702Y014368D01*
X000667Y014438D01*
X000642Y014513D01*
X000630Y014591D01*
X000630Y014600D01*
X001100Y014600D01*
X001100Y014660D01*
X001100Y015130D01*
X001091Y015130D01*
X001013Y015118D01*
X000938Y015093D01*
X000868Y015058D01*
X000804Y015011D01*
X000749Y014956D01*
X000702Y014892D01*
X000667Y014822D01*
X000642Y014747D01*
X000630Y014669D01*
X000630Y014660D01*
X001100Y014660D01*
X001160Y014660D01*
X001160Y014697D02*
X001100Y014697D01*
X001100Y014755D02*
X001160Y014755D01*
X001160Y014814D02*
X001100Y014814D01*
X001100Y014872D02*
X001160Y014872D01*
X001160Y014931D02*
X001100Y014931D01*
X001100Y014989D02*
X001160Y014989D01*
X001160Y015048D02*
X001100Y015048D01*
X001100Y015106D02*
X001160Y015106D01*
X001283Y015106D02*
X012525Y015106D01*
X012525Y015165D02*
X000260Y015165D01*
X000260Y015223D02*
X012535Y015223D01*
X012559Y015282D02*
X000260Y015282D01*
X000260Y015340D02*
X012591Y015340D01*
X012650Y015399D02*
X000260Y015399D01*
X000260Y015457D02*
X012754Y015457D01*
X012531Y015048D02*
X001406Y015048D01*
X001478Y014989D02*
X012555Y014989D01*
X012581Y014931D02*
X001530Y014931D01*
X001568Y014872D02*
X012639Y014872D01*
X012728Y014814D02*
X001596Y014814D01*
X001628Y014580D02*
X014490Y014580D01*
X014490Y014521D02*
X001619Y014521D01*
X001601Y014463D02*
X012767Y014463D01*
X012803Y014477D02*
X012676Y014425D01*
X012578Y014327D01*
X012525Y014199D01*
X012525Y014061D01*
X012578Y013933D01*
X012676Y013835D01*
X012803Y013783D01*
X013457Y013783D01*
X013584Y013835D01*
X013682Y013933D01*
X013735Y014061D01*
X013735Y014199D01*
X013682Y014327D01*
X013584Y014425D01*
X013457Y014477D01*
X012803Y014477D01*
X012655Y014404D02*
X001576Y014404D01*
X001541Y014346D02*
X012597Y014346D01*
X012561Y014287D02*
X001494Y014287D01*
X001428Y014229D02*
X012537Y014229D01*
X012525Y014170D02*
X001329Y014170D01*
X001311Y014053D02*
X012528Y014053D01*
X012525Y014112D02*
X000260Y014112D01*
X000260Y014170D02*
X000931Y014170D01*
X000832Y014229D02*
X000260Y014229D01*
X000260Y014287D02*
X000766Y014287D01*
X000719Y014346D02*
X000260Y014346D01*
X000260Y014404D02*
X000684Y014404D01*
X000659Y014463D02*
X000260Y014463D01*
X000260Y014521D02*
X000641Y014521D01*
X000632Y014580D02*
X000260Y014580D01*
X000260Y014638D02*
X001100Y014638D01*
X001100Y014580D02*
X001160Y014580D01*
X001160Y014521D02*
X001100Y014521D01*
X001100Y014463D02*
X001160Y014463D01*
X001160Y014404D02*
X001100Y014404D01*
X001100Y014346D02*
X001160Y014346D01*
X001160Y014287D02*
X001100Y014287D01*
X001100Y014229D02*
X001160Y014229D01*
X001160Y014170D02*
X001100Y014170D01*
X001038Y014090D02*
X000869Y014020D01*
X000740Y013891D01*
X000670Y013721D01*
X000670Y013538D01*
X000740Y013369D01*
X000869Y013240D01*
X001038Y013170D01*
X001221Y013170D01*
X001312Y013208D01*
X001960Y012560D01*
X002060Y012460D01*
X010004Y012460D01*
X010043Y012421D01*
X010217Y012421D01*
X010256Y012460D01*
X012761Y012460D01*
X012676Y012425D01*
X012578Y012327D01*
X012525Y012199D01*
X012525Y012061D01*
X012578Y011933D01*
X012676Y011835D01*
X012803Y011783D01*
X013457Y011783D01*
X013584Y011835D01*
X013682Y011933D01*
X013735Y012061D01*
X013735Y012199D01*
X013682Y012327D01*
X013588Y012421D01*
X013717Y012421D01*
X013839Y012543D01*
X013839Y012717D01*
X013717Y012839D01*
X013588Y012839D01*
X013682Y012933D01*
X013735Y013061D01*
X013735Y013199D01*
X013682Y013327D01*
X013584Y013425D01*
X013457Y013477D01*
X012803Y013477D01*
X012676Y013425D01*
X012578Y013327D01*
X012525Y013199D01*
X012525Y013061D01*
X012578Y012933D01*
X012676Y012835D01*
X012761Y012800D01*
X010256Y012800D01*
X010217Y012839D01*
X010043Y012839D01*
X010004Y012800D01*
X002200Y012800D01*
X001552Y013448D01*
X001590Y013538D01*
X001590Y013721D01*
X001520Y013891D01*
X001391Y014020D01*
X001221Y014090D01*
X001038Y014090D01*
X000949Y014053D02*
X000260Y014053D01*
X000260Y013995D02*
X000844Y013995D01*
X000786Y013936D02*
X000260Y013936D01*
X000260Y013878D02*
X000735Y013878D01*
X000710Y013819D02*
X000260Y013819D01*
X000260Y013761D02*
X000686Y013761D01*
X000670Y013702D02*
X000260Y013702D01*
X000260Y013644D02*
X000670Y013644D01*
X000670Y013585D02*
X000260Y013585D01*
X000260Y013527D02*
X000675Y013527D01*
X000699Y013468D02*
X000260Y013468D01*
X000260Y013410D02*
X000723Y013410D01*
X000758Y013351D02*
X000260Y013351D01*
X000260Y013293D02*
X000817Y013293D01*
X000884Y013234D02*
X000260Y013234D01*
X000260Y013176D02*
X001025Y013176D01*
X001235Y013176D02*
X001344Y013176D01*
X001403Y013117D02*
X000260Y013117D01*
X000260Y013059D02*
X001461Y013059D01*
X001520Y013000D02*
X000260Y013000D01*
X000260Y012942D02*
X001578Y012942D01*
X001637Y012883D02*
X000260Y012883D01*
X000260Y012825D02*
X001695Y012825D01*
X001754Y012766D02*
X000260Y012766D01*
X000260Y012708D02*
X001812Y012708D01*
X001871Y012649D02*
X000260Y012649D01*
X000260Y012591D02*
X001929Y012591D01*
X001988Y012532D02*
X000260Y012532D01*
X000260Y012474D02*
X002046Y012474D01*
X002176Y012825D02*
X010029Y012825D01*
X010231Y012825D02*
X012702Y012825D01*
X012628Y012883D02*
X002117Y012883D01*
X002059Y012942D02*
X012574Y012942D01*
X012550Y013000D02*
X002000Y013000D01*
X001942Y013059D02*
X012526Y013059D01*
X012525Y013117D02*
X001883Y013117D01*
X001825Y013176D02*
X012525Y013176D01*
X012540Y013234D02*
X001766Y013234D01*
X001708Y013293D02*
X012564Y013293D01*
X012602Y013351D02*
X001649Y013351D01*
X001591Y013410D02*
X012661Y013410D01*
X012781Y013468D02*
X001561Y013468D01*
X001585Y013527D02*
X014490Y013527D01*
X014490Y013585D02*
X001590Y013585D01*
X001590Y013644D02*
X014490Y013644D01*
X014490Y013702D02*
X001590Y013702D01*
X001574Y013761D02*
X014490Y013761D01*
X014490Y013819D02*
X013545Y013819D01*
X013626Y013878D02*
X014490Y013878D01*
X014490Y013936D02*
X013683Y013936D01*
X013707Y013995D02*
X014490Y013995D01*
X014490Y014053D02*
X013732Y014053D01*
X013735Y014112D02*
X014490Y014112D01*
X014490Y014170D02*
X013735Y014170D01*
X013723Y014229D02*
X014490Y014229D01*
X014490Y014287D02*
X013699Y014287D01*
X013663Y014346D02*
X014490Y014346D01*
X014490Y014404D02*
X013605Y014404D01*
X013493Y014463D02*
X014490Y014463D01*
X014490Y013468D02*
X013479Y013468D01*
X013599Y013410D02*
X014490Y013410D01*
X014490Y013351D02*
X013658Y013351D01*
X013696Y013293D02*
X014490Y013293D01*
X014490Y013234D02*
X013720Y013234D01*
X013735Y013176D02*
X014490Y013176D01*
X014490Y013117D02*
X013735Y013117D01*
X013734Y013059D02*
X014490Y013059D01*
X014490Y013000D02*
X013710Y013000D01*
X013686Y012942D02*
X014490Y012942D01*
X014490Y012883D02*
X013632Y012883D01*
X013731Y012825D02*
X014490Y012825D01*
X014490Y012766D02*
X013790Y012766D01*
X013839Y012708D02*
X014490Y012708D01*
X014490Y012649D02*
X013839Y012649D01*
X013839Y012591D02*
X014490Y012591D01*
X014490Y012532D02*
X013828Y012532D01*
X013769Y012474D02*
X014490Y012474D01*
X014490Y012415D02*
X013594Y012415D01*
X013652Y012357D02*
X014490Y012357D01*
X014490Y012298D02*
X013694Y012298D01*
X013718Y012240D02*
X014490Y012240D01*
X014490Y012181D02*
X013735Y012181D01*
X013735Y012123D02*
X014490Y012123D01*
X014490Y012064D02*
X013735Y012064D01*
X013712Y012006D02*
X014490Y012006D01*
X014490Y011947D02*
X013688Y011947D01*
X013637Y011889D02*
X014490Y011889D01*
X014490Y011830D02*
X013571Y011830D01*
X013457Y011477D02*
X013584Y011425D01*
X013682Y011327D01*
X013735Y011199D01*
X013735Y011061D01*
X013682Y010933D01*
X013584Y010835D01*
X013457Y010783D01*
X012803Y010783D01*
X012676Y010835D01*
X012578Y010933D01*
X012525Y011061D01*
X012525Y011199D01*
X012578Y011327D01*
X012676Y011425D01*
X012803Y011477D01*
X013457Y011477D01*
X013588Y011421D02*
X014490Y011421D01*
X014490Y011479D02*
X000260Y011479D01*
X000260Y011421D02*
X012672Y011421D01*
X012613Y011362D02*
X000260Y011362D01*
X000260Y011304D02*
X012568Y011304D01*
X012544Y011245D02*
X000260Y011245D01*
X000260Y011187D02*
X012525Y011187D01*
X012525Y011128D02*
X000260Y011128D01*
X000260Y011070D02*
X012525Y011070D01*
X012546Y011011D02*
X000260Y011011D01*
X000260Y010953D02*
X012570Y010953D01*
X012617Y010894D02*
X000260Y010894D01*
X000260Y010836D02*
X012676Y010836D01*
X013100Y010485D02*
X013160Y010485D01*
X013160Y010426D02*
X013100Y010426D01*
X013100Y010368D02*
X013160Y010368D01*
X013160Y010309D02*
X013100Y010309D01*
X013100Y010251D02*
X013160Y010251D01*
X013160Y010100D02*
X013775Y010100D01*
X013775Y010092D01*
X013760Y010017D01*
X013731Y009946D01*
X013688Y009883D01*
X013634Y009829D01*
X013571Y009787D01*
X013501Y009757D01*
X013426Y009743D01*
X013160Y009743D01*
X013160Y010100D01*
X013160Y010075D02*
X013100Y010075D01*
X013100Y010100D02*
X013100Y009743D01*
X012834Y009743D01*
X012759Y009757D01*
X012689Y009787D01*
X012626Y009829D01*
X012572Y009883D01*
X012529Y009946D01*
X012500Y010017D01*
X012485Y010092D01*
X012485Y010100D01*
X013100Y010100D01*
X013100Y010017D02*
X013160Y010017D01*
X013160Y009958D02*
X013100Y009958D01*
X013100Y009900D02*
X013160Y009900D01*
X013160Y009841D02*
X013100Y009841D01*
X013100Y009783D02*
X013160Y009783D01*
X013561Y009783D02*
X014490Y009783D01*
X014490Y009841D02*
X013646Y009841D01*
X013700Y009900D02*
X014490Y009900D01*
X014490Y009958D02*
X013736Y009958D01*
X013760Y010017D02*
X014490Y010017D01*
X014490Y010075D02*
X013772Y010075D01*
X013568Y009432D02*
X014490Y009432D01*
X014490Y009490D02*
X000260Y009490D01*
X000260Y009432D02*
X012692Y009432D01*
X012676Y009425D02*
X012578Y009327D01*
X012525Y009199D01*
X012525Y009061D01*
X012578Y008933D01*
X012676Y008835D01*
X012803Y008783D01*
X013457Y008783D01*
X013584Y008835D01*
X013682Y008933D01*
X013735Y009061D01*
X013735Y009199D01*
X013682Y009327D01*
X013584Y009425D01*
X013457Y009477D01*
X012803Y009477D01*
X012676Y009425D01*
X012624Y009373D02*
X000260Y009373D01*
X000260Y009315D02*
X012573Y009315D01*
X012549Y009256D02*
X000260Y009256D01*
X000260Y009198D02*
X012525Y009198D01*
X012525Y009139D02*
X000260Y009139D01*
X000260Y009081D02*
X012525Y009081D01*
X012541Y009022D02*
X000260Y009022D01*
X000260Y008964D02*
X012565Y008964D01*
X012606Y008905D02*
X000260Y008905D01*
X000260Y008847D02*
X012665Y008847D01*
X012790Y008788D02*
X000260Y008788D01*
X000260Y008730D02*
X014490Y008730D01*
X014490Y008788D02*
X013470Y008788D01*
X013595Y008847D02*
X014490Y008847D01*
X014490Y008905D02*
X013654Y008905D01*
X013695Y008964D02*
X014490Y008964D01*
X014490Y009022D02*
X013719Y009022D01*
X013735Y009081D02*
X014490Y009081D01*
X014490Y009139D02*
X013735Y009139D01*
X013735Y009198D02*
X014490Y009198D01*
X014490Y009256D02*
X013711Y009256D01*
X013687Y009315D02*
X014490Y009315D01*
X014490Y009373D02*
X013636Y009373D01*
X014490Y009549D02*
X000260Y009549D01*
X000260Y009607D02*
X014490Y009607D01*
X014490Y009666D02*
X000260Y009666D01*
X000260Y009724D02*
X014490Y009724D01*
X014490Y010474D02*
X014421Y010543D01*
X014421Y010602D02*
X000260Y010602D01*
X000260Y010660D02*
X014421Y010660D01*
X014423Y010719D02*
X000260Y010719D01*
X000260Y010777D02*
X014481Y010777D01*
X014490Y010836D02*
X013584Y010836D01*
X013643Y010894D02*
X014470Y010894D01*
X014421Y010953D02*
X013690Y010953D01*
X013714Y011011D02*
X014421Y011011D01*
X014421Y011070D02*
X013735Y011070D01*
X013735Y011128D02*
X014432Y011128D01*
X014490Y011187D02*
X013735Y011187D01*
X013716Y011245D02*
X014490Y011245D01*
X014490Y011304D02*
X013692Y011304D01*
X013647Y011362D02*
X014490Y011362D01*
X014490Y011538D02*
X000260Y011538D01*
X000260Y011596D02*
X014490Y011596D01*
X014490Y011655D02*
X000260Y011655D01*
X000260Y011713D02*
X014490Y011713D01*
X014490Y011772D02*
X000260Y011772D01*
X000260Y011830D02*
X012689Y011830D01*
X012623Y011889D02*
X000260Y011889D01*
X000260Y011947D02*
X012572Y011947D01*
X012548Y012006D02*
X000260Y012006D01*
X000260Y012064D02*
X012525Y012064D01*
X012525Y012123D02*
X000260Y012123D01*
X000260Y012181D02*
X012525Y012181D01*
X012542Y012240D02*
X000260Y012240D01*
X000260Y012298D02*
X012566Y012298D01*
X012608Y012357D02*
X000260Y012357D01*
X000260Y012415D02*
X012666Y012415D01*
X012715Y013819D02*
X001550Y013819D01*
X001525Y013878D02*
X012634Y013878D01*
X012577Y013936D02*
X001474Y013936D01*
X001416Y013995D02*
X012553Y013995D01*
X012488Y010075D02*
X000260Y010075D01*
X000260Y010017D02*
X012500Y010017D01*
X012524Y009958D02*
X000260Y009958D01*
X000260Y009900D02*
X012560Y009900D01*
X012613Y009841D02*
X000260Y009841D01*
X000260Y009783D02*
X012699Y009783D01*
X014490Y008671D02*
X000260Y008671D01*
X000260Y008613D02*
X014490Y008613D01*
X014508Y008554D02*
X000260Y008554D01*
X000260Y008496D02*
X014566Y008496D01*
X013735Y008199D02*
X013735Y008061D01*
X013682Y007933D01*
X013584Y007835D01*
X013457Y007783D01*
X012803Y007783D01*
X012676Y007835D01*
X012578Y007933D01*
X012525Y008061D01*
X012525Y008199D01*
X012578Y008327D01*
X012676Y008425D01*
X012803Y008477D01*
X013457Y008477D01*
X013584Y008425D01*
X013682Y008327D01*
X013735Y008199D01*
X013733Y008203D02*
X018790Y008203D01*
X018790Y008145D02*
X013735Y008145D01*
X013735Y008086D02*
X018790Y008086D01*
X018790Y008028D02*
X013721Y008028D01*
X013697Y007969D02*
X018790Y007969D01*
X018790Y007911D02*
X013659Y007911D01*
X013601Y007852D02*
X018790Y007852D01*
X018790Y007794D02*
X013483Y007794D01*
X013457Y007477D02*
X013584Y007425D01*
X013682Y007327D01*
X013735Y007199D01*
X013735Y007061D01*
X013682Y006933D01*
X013584Y006835D01*
X013457Y006783D01*
X012803Y006783D01*
X012676Y006835D01*
X012578Y006933D01*
X012525Y007061D01*
X012525Y007199D01*
X012578Y007327D01*
X012676Y007425D01*
X012803Y007477D01*
X013457Y007477D01*
X013541Y007443D02*
X018790Y007443D01*
X018790Y007501D02*
X000260Y007501D01*
X000260Y007443D02*
X012719Y007443D01*
X012635Y007384D02*
X000260Y007384D01*
X000260Y007326D02*
X012577Y007326D01*
X012553Y007267D02*
X000260Y007267D01*
X000260Y007209D02*
X012529Y007209D01*
X012525Y007150D02*
X000260Y007150D01*
X000260Y007092D02*
X012525Y007092D01*
X012537Y007033D02*
X000260Y007033D01*
X000260Y006975D02*
X012561Y006975D01*
X012595Y006916D02*
X000260Y006916D01*
X000260Y006858D02*
X012654Y006858D01*
X012764Y006799D02*
X000260Y006799D01*
X000260Y006741D02*
X029990Y006741D01*
X029990Y006783D02*
X029990Y006477D01*
X029803Y006477D01*
X029676Y006425D01*
X029578Y006327D01*
X029525Y006199D01*
X029525Y006061D01*
X029578Y005933D01*
X029676Y005835D01*
X029803Y005783D01*
X029990Y005783D01*
X029990Y005477D01*
X029803Y005477D01*
X029676Y005425D01*
X029578Y005327D01*
X029525Y005199D01*
X029525Y005061D01*
X029578Y004933D01*
X029676Y004835D01*
X029803Y004783D01*
X030457Y004783D01*
X030584Y004835D01*
X030682Y004933D01*
X030735Y005061D01*
X030735Y005199D01*
X030682Y005327D01*
X030584Y005425D01*
X030457Y005477D01*
X030270Y005477D01*
X030270Y005783D01*
X030457Y005783D01*
X030584Y005835D01*
X030682Y005933D01*
X030735Y006061D01*
X030735Y006199D01*
X030682Y006327D01*
X030584Y006425D01*
X030457Y006477D01*
X030270Y006477D01*
X030270Y006783D01*
X030457Y006783D01*
X030584Y006835D01*
X030682Y006933D01*
X030735Y007061D01*
X030735Y007199D01*
X030682Y007327D01*
X030584Y007425D01*
X030457Y007477D01*
X029803Y007477D01*
X029676Y007425D01*
X029578Y007327D01*
X029525Y007199D01*
X029525Y007061D01*
X029578Y006933D01*
X029676Y006835D01*
X029803Y006783D01*
X029990Y006783D01*
X029990Y006682D02*
X000260Y006682D01*
X000260Y006624D02*
X029990Y006624D01*
X029990Y006565D02*
X000260Y006565D01*
X000260Y006507D02*
X029990Y006507D01*
X029732Y006448D02*
X013528Y006448D01*
X013584Y006425D02*
X013457Y006477D01*
X012803Y006477D01*
X012676Y006425D01*
X012578Y006327D01*
X012525Y006199D01*
X012525Y006061D01*
X012578Y005933D01*
X012676Y005835D01*
X012803Y005783D01*
X013457Y005783D01*
X013584Y005835D01*
X013682Y005933D01*
X013735Y006061D01*
X013735Y006199D01*
X013682Y006327D01*
X013584Y006425D01*
X013619Y006390D02*
X029641Y006390D01*
X029582Y006331D02*
X013678Y006331D01*
X013705Y006273D02*
X029555Y006273D01*
X029531Y006214D02*
X013729Y006214D01*
X013735Y006156D02*
X029525Y006156D01*
X029525Y006097D02*
X013735Y006097D01*
X013726Y006039D02*
X029534Y006039D01*
X029559Y005980D02*
X013701Y005980D01*
X013670Y005922D02*
X029590Y005922D01*
X029648Y005863D02*
X013612Y005863D01*
X013510Y005805D02*
X029750Y005805D01*
X029990Y005746D02*
X000260Y005746D01*
X000260Y005688D02*
X029990Y005688D01*
X029990Y005629D02*
X000260Y005629D01*
X000260Y005571D02*
X029990Y005571D01*
X029990Y005512D02*
X000260Y005512D01*
X000260Y005454D02*
X012746Y005454D01*
X012803Y005477D02*
X012676Y005425D01*
X012578Y005327D01*
X012525Y005199D01*
X012525Y005061D01*
X012578Y004933D01*
X012676Y004835D01*
X012803Y004783D01*
X013457Y004783D01*
X013584Y004835D01*
X013682Y004933D01*
X013735Y005061D01*
X013735Y005199D01*
X013682Y005327D01*
X013584Y005425D01*
X013457Y005477D01*
X012803Y005477D01*
X012646Y005395D02*
X000260Y005395D01*
X000260Y005337D02*
X012588Y005337D01*
X012558Y005278D02*
X000260Y005278D01*
X000260Y005220D02*
X012533Y005220D01*
X012525Y005161D02*
X000260Y005161D01*
X000260Y005103D02*
X012525Y005103D01*
X012532Y005044D02*
X000260Y005044D01*
X000260Y004986D02*
X012556Y004986D01*
X012584Y004927D02*
X000260Y004927D01*
X000260Y004869D02*
X012643Y004869D01*
X012737Y004810D02*
X000260Y004810D01*
X000260Y004752D02*
X039130Y004752D01*
X039130Y004810D02*
X034821Y004810D01*
X034805Y004803D02*
X035084Y004919D01*
X035298Y005133D01*
X035414Y005412D01*
X035414Y005714D01*
X035298Y005994D01*
X035084Y006207D01*
X034805Y006323D01*
X034502Y006323D01*
X034223Y006207D01*
X034009Y005994D01*
X033894Y005714D01*
X033894Y005412D01*
X034009Y005133D01*
X034223Y004919D01*
X034502Y004803D01*
X034805Y004803D01*
X034963Y004869D02*
X039130Y004869D01*
X039130Y004927D02*
X035092Y004927D01*
X035151Y004986D02*
X039130Y004986D01*
X039130Y005044D02*
X035209Y005044D01*
X035268Y005103D02*
X039130Y005103D01*
X039130Y005161D02*
X035310Y005161D01*
X035334Y005220D02*
X039130Y005220D01*
X039130Y005278D02*
X035358Y005278D01*
X035382Y005337D02*
X039130Y005337D01*
X039130Y005395D02*
X035407Y005395D01*
X035414Y005454D02*
X039130Y005454D01*
X039130Y005512D02*
X035414Y005512D01*
X035414Y005571D02*
X039130Y005571D01*
X039130Y005629D02*
X035414Y005629D01*
X035414Y005688D02*
X039130Y005688D01*
X039130Y005746D02*
X035400Y005746D01*
X035376Y005805D02*
X039130Y005805D01*
X039130Y005863D02*
X035352Y005863D01*
X035328Y005922D02*
X039130Y005922D01*
X039130Y005980D02*
X035303Y005980D01*
X035253Y006039D02*
X039130Y006039D01*
X039130Y006097D02*
X035194Y006097D01*
X035136Y006156D02*
X039130Y006156D01*
X039130Y006214D02*
X035068Y006214D01*
X034927Y006273D02*
X039130Y006273D01*
X039130Y006331D02*
X030678Y006331D01*
X030705Y006273D02*
X034381Y006273D01*
X034239Y006214D02*
X030729Y006214D01*
X030735Y006156D02*
X034171Y006156D01*
X034113Y006097D02*
X030735Y006097D01*
X030726Y006039D02*
X034054Y006039D01*
X034004Y005980D02*
X030701Y005980D01*
X030670Y005922D02*
X033980Y005922D01*
X033955Y005863D02*
X030612Y005863D01*
X030510Y005805D02*
X033931Y005805D01*
X033907Y005746D02*
X030270Y005746D01*
X030270Y005688D02*
X033894Y005688D01*
X033894Y005629D02*
X030270Y005629D01*
X030270Y005571D02*
X033894Y005571D01*
X033894Y005512D02*
X030270Y005512D01*
X030514Y005454D02*
X033894Y005454D01*
X033901Y005395D02*
X030614Y005395D01*
X030672Y005337D02*
X033925Y005337D01*
X033949Y005278D02*
X030702Y005278D01*
X030727Y005220D02*
X033973Y005220D01*
X033998Y005161D02*
X030735Y005161D01*
X030735Y005103D02*
X034039Y005103D01*
X034098Y005044D02*
X030728Y005044D01*
X030704Y004986D02*
X034156Y004986D01*
X034215Y004927D02*
X030676Y004927D01*
X030617Y004869D02*
X034345Y004869D01*
X034486Y004810D02*
X030523Y004810D01*
X029737Y004810D02*
X013523Y004810D01*
X013617Y004869D02*
X029643Y004869D01*
X029584Y004927D02*
X013676Y004927D01*
X013704Y004986D02*
X029556Y004986D01*
X029532Y005044D02*
X013728Y005044D01*
X013735Y005103D02*
X029525Y005103D01*
X029525Y005161D02*
X013735Y005161D01*
X013727Y005220D02*
X029533Y005220D01*
X029558Y005278D02*
X013702Y005278D01*
X013672Y005337D02*
X029588Y005337D01*
X029646Y005395D02*
X013614Y005395D01*
X013514Y005454D02*
X029746Y005454D01*
X030619Y006390D02*
X039130Y006390D01*
X039130Y006448D02*
X030528Y006448D01*
X030270Y006507D02*
X039130Y006507D01*
X039130Y006565D02*
X030270Y006565D01*
X030270Y006624D02*
X039130Y006624D01*
X039130Y006682D02*
X030270Y006682D01*
X030270Y006741D02*
X039130Y006741D01*
X039130Y006799D02*
X030496Y006799D01*
X030606Y006858D02*
X039130Y006858D01*
X039130Y006916D02*
X030665Y006916D01*
X030699Y006975D02*
X039130Y006975D01*
X039130Y007033D02*
X030723Y007033D01*
X030735Y007092D02*
X039130Y007092D01*
X039130Y007150D02*
X030735Y007150D01*
X030731Y007209D02*
X039130Y007209D01*
X039130Y007267D02*
X030707Y007267D01*
X030683Y007326D02*
X039130Y007326D01*
X039130Y007384D02*
X030625Y007384D01*
X030541Y007443D02*
X039130Y007443D01*
X039130Y007501D02*
X019070Y007501D01*
X019070Y007443D02*
X029719Y007443D01*
X029635Y007384D02*
X019074Y007384D01*
X019230Y007326D02*
X029577Y007326D01*
X029553Y007267D02*
X019289Y007267D01*
X019339Y007209D02*
X029529Y007209D01*
X029525Y007150D02*
X019339Y007150D01*
X019339Y007092D02*
X029525Y007092D01*
X029537Y007033D02*
X019329Y007033D01*
X019270Y006975D02*
X029561Y006975D01*
X029595Y006916D02*
X013665Y006916D01*
X013699Y006975D02*
X018990Y006975D01*
X018931Y007033D02*
X013723Y007033D01*
X013735Y007092D02*
X018921Y007092D01*
X018912Y007150D02*
X013735Y007150D01*
X013731Y007209D02*
X018853Y007209D01*
X018795Y007267D02*
X013707Y007267D01*
X013683Y007326D02*
X018790Y007326D01*
X018790Y007384D02*
X013625Y007384D01*
X013606Y006858D02*
X029654Y006858D01*
X029764Y006799D02*
X013496Y006799D01*
X012732Y006448D02*
X000260Y006448D01*
X000260Y006390D02*
X012641Y006390D01*
X012582Y006331D02*
X000260Y006331D01*
X000260Y006273D02*
X012555Y006273D01*
X012531Y006214D02*
X000260Y006214D01*
X000260Y006156D02*
X012525Y006156D01*
X012525Y006097D02*
X000260Y006097D01*
X000260Y006039D02*
X012534Y006039D01*
X012559Y005980D02*
X000260Y005980D01*
X000260Y005922D02*
X012590Y005922D01*
X012648Y005863D02*
X000260Y005863D01*
X000260Y005805D02*
X012750Y005805D01*
X012777Y007794D02*
X000260Y007794D01*
X000260Y007852D02*
X012659Y007852D01*
X012601Y007911D02*
X000260Y007911D01*
X000260Y007969D02*
X012563Y007969D01*
X012539Y008028D02*
X000260Y008028D01*
X000260Y008086D02*
X012525Y008086D01*
X012525Y008145D02*
X000260Y008145D01*
X000260Y008203D02*
X012527Y008203D01*
X012551Y008262D02*
X000260Y008262D01*
X000260Y008320D02*
X012575Y008320D01*
X012630Y008379D02*
X000260Y008379D01*
X000260Y008437D02*
X012706Y008437D01*
X013554Y008437D02*
X018790Y008437D01*
X018790Y008379D02*
X013630Y008379D01*
X013685Y008320D02*
X018790Y008320D01*
X018790Y008262D02*
X013709Y008262D01*
X018790Y007735D02*
X000260Y007735D01*
X000260Y007677D02*
X018790Y007677D01*
X018790Y007618D02*
X000260Y007618D01*
X000260Y007560D02*
X018790Y007560D01*
X019070Y007560D02*
X039130Y007560D01*
X039130Y007618D02*
X019070Y007618D01*
X019070Y007677D02*
X039130Y007677D01*
X039130Y007735D02*
X019070Y007735D01*
X019070Y007794D02*
X038508Y007794D01*
X038536Y007782D02*
X038724Y007782D01*
X038898Y007854D01*
X039032Y007988D01*
X039104Y008162D01*
X039104Y008350D01*
X039032Y008524D01*
X038898Y008658D01*
X038724Y008730D01*
X038536Y008730D01*
X038362Y008658D01*
X038228Y008524D01*
X038156Y008350D01*
X038156Y008162D01*
X038228Y007988D01*
X038362Y007854D01*
X038536Y007782D01*
X038367Y007852D02*
X019070Y007852D01*
X019070Y007911D02*
X038305Y007911D01*
X038247Y007969D02*
X019070Y007969D01*
X019070Y008028D02*
X038212Y008028D01*
X038187Y008086D02*
X019070Y008086D01*
X019070Y008145D02*
X038163Y008145D01*
X038156Y008203D02*
X019070Y008203D01*
X019070Y008262D02*
X037459Y008262D01*
X037487Y008250D02*
X037647Y008250D01*
X037794Y008311D01*
X037906Y008423D01*
X037967Y008570D01*
X037967Y008729D01*
X037906Y008876D01*
X037859Y008923D01*
X037879Y008923D01*
X037912Y008932D01*
X037942Y008949D01*
X037966Y008973D01*
X037983Y009003D01*
X037992Y009036D01*
X037992Y009118D01*
X037591Y009118D01*
X037591Y009127D01*
X037992Y009127D01*
X037992Y009208D01*
X037983Y009241D01*
X037966Y009271D01*
X037952Y009285D01*
X037952Y009484D01*
X037931Y009506D01*
X037952Y009528D01*
X037952Y009740D01*
X037931Y009762D01*
X037952Y009784D01*
X037952Y009996D01*
X037931Y010018D01*
X037952Y010040D01*
X037952Y010252D01*
X037900Y010305D01*
X037819Y010305D01*
X037906Y010392D01*
X037967Y010539D01*
X037967Y010698D01*
X037906Y010845D01*
X037794Y010957D01*
X037647Y011018D01*
X037487Y011018D01*
X037340Y010957D01*
X037228Y010845D01*
X037167Y010698D01*
X037167Y010539D01*
X037201Y010457D01*
X037170Y010488D01*
X037139Y010519D01*
X037139Y010617D01*
X037017Y010739D01*
X036843Y010739D01*
X036721Y010617D01*
X036721Y010443D01*
X036834Y010330D01*
X036721Y010217D01*
X036721Y010043D01*
X036843Y009921D01*
X036941Y009921D01*
X037112Y009750D01*
X037152Y009750D01*
X036941Y009539D01*
X036843Y009539D01*
X036721Y009417D01*
X036721Y009243D01*
X036843Y009121D01*
X037017Y009121D01*
X037139Y009243D01*
X037139Y009341D01*
X037221Y009423D01*
X037221Y009285D01*
X037207Y009271D01*
X037190Y009241D01*
X037181Y009208D01*
X037181Y009127D01*
X037582Y009127D01*
X037582Y009118D01*
X037181Y009118D01*
X037181Y009036D01*
X037190Y009003D01*
X037207Y008973D01*
X037231Y008949D01*
X037261Y008932D01*
X037279Y008927D01*
X037228Y008876D01*
X037167Y008729D01*
X037167Y008570D01*
X037228Y008423D01*
X037340Y008311D01*
X037487Y008250D01*
X037331Y008320D02*
X019070Y008320D01*
X019070Y008379D02*
X037272Y008379D01*
X037222Y008437D02*
X019070Y008437D01*
X022357Y002920D02*
X022636Y003036D01*
X022939Y003036D01*
X023218Y002920D01*
X023432Y002706D01*
X023547Y002427D01*
X023547Y002125D01*
X023432Y001845D01*
X023218Y001631D01*
X022939Y001516D01*
X022636Y001516D01*
X022357Y001631D01*
X022143Y001845D01*
X022028Y002125D01*
X022028Y002427D01*
X022143Y002706D01*
X022357Y002920D01*
X022401Y002938D02*
X005107Y002938D01*
X005151Y002920D02*
X004872Y003036D01*
X004569Y003036D01*
X004290Y002920D01*
X004076Y002706D01*
X003961Y002427D01*
X003961Y002125D01*
X004076Y001845D01*
X004290Y001631D01*
X004569Y001516D01*
X004872Y001516D01*
X005151Y001631D01*
X005365Y001845D01*
X005480Y002125D01*
X005480Y002427D01*
X005365Y002706D01*
X005151Y002920D01*
X005191Y002880D02*
X022317Y002880D01*
X022258Y002821D02*
X005250Y002821D01*
X005308Y002763D02*
X022200Y002763D01*
X022142Y002704D02*
X005366Y002704D01*
X005390Y002646D02*
X022118Y002646D01*
X022094Y002587D02*
X005414Y002587D01*
X005438Y002529D02*
X022070Y002529D01*
X022045Y002470D02*
X005463Y002470D01*
X005480Y002412D02*
X022028Y002412D01*
X022028Y002353D02*
X005480Y002353D01*
X005480Y002295D02*
X022028Y002295D01*
X022028Y002236D02*
X005480Y002236D01*
X005480Y002178D02*
X022028Y002178D01*
X022030Y002119D02*
X005478Y002119D01*
X005454Y002061D02*
X022054Y002061D01*
X022078Y002002D02*
X005430Y002002D01*
X005405Y001944D02*
X022103Y001944D01*
X022127Y001885D02*
X005381Y001885D01*
X005346Y001827D02*
X022162Y001827D01*
X022220Y001768D02*
X005288Y001768D01*
X005229Y001710D02*
X022279Y001710D01*
X022337Y001651D02*
X005171Y001651D01*
X005057Y001593D02*
X022451Y001593D01*
X022592Y001534D02*
X004916Y001534D01*
X004525Y001534D02*
X000260Y001534D01*
X000260Y001476D02*
X027681Y001476D01*
X027681Y001534D02*
X022983Y001534D01*
X023124Y001593D02*
X027681Y001593D01*
X027681Y001651D02*
X023238Y001651D01*
X023296Y001710D02*
X027681Y001710D01*
X027681Y001768D02*
X023355Y001768D01*
X023413Y001827D02*
X027681Y001827D01*
X027681Y001885D02*
X023448Y001885D01*
X023472Y001944D02*
X027681Y001944D01*
X027681Y002002D02*
X023497Y002002D01*
X023521Y002061D02*
X027681Y002061D01*
X027681Y002119D02*
X023545Y002119D01*
X023547Y002178D02*
X027681Y002178D01*
X027681Y002236D02*
X023547Y002236D01*
X023547Y002295D02*
X027681Y002295D01*
X027681Y002353D02*
X023547Y002353D01*
X023547Y002412D02*
X027681Y002412D01*
X027681Y002470D02*
X023530Y002470D01*
X023505Y002529D02*
X027681Y002529D01*
X027681Y002587D02*
X023481Y002587D01*
X023457Y002646D02*
X027681Y002646D01*
X027681Y002704D02*
X023433Y002704D01*
X023375Y002763D02*
X027681Y002763D01*
X027681Y002821D02*
X023317Y002821D01*
X023258Y002880D02*
X027681Y002880D01*
X027681Y002938D02*
X023174Y002938D01*
X023033Y002997D02*
X027681Y002997D01*
X027690Y003055D02*
X000260Y003055D01*
X000260Y002997D02*
X004475Y002997D01*
X004334Y002938D02*
X000260Y002938D01*
X000260Y002880D02*
X004250Y002880D01*
X004191Y002821D02*
X000260Y002821D01*
X000260Y002763D02*
X004133Y002763D01*
X004075Y002704D02*
X000260Y002704D01*
X000260Y002646D02*
X004051Y002646D01*
X004027Y002587D02*
X000260Y002587D01*
X000260Y002529D02*
X004003Y002529D01*
X003979Y002470D02*
X000260Y002470D01*
X000260Y002412D02*
X003961Y002412D01*
X003961Y002353D02*
X000260Y002353D01*
X000260Y002295D02*
X003961Y002295D01*
X003961Y002236D02*
X000260Y002236D01*
X000260Y002178D02*
X003961Y002178D01*
X003963Y002119D02*
X000260Y002119D01*
X000260Y002061D02*
X003987Y002061D01*
X004011Y002002D02*
X000260Y002002D01*
X000260Y001944D02*
X004036Y001944D01*
X004060Y001885D02*
X000260Y001885D01*
X000260Y001827D02*
X004095Y001827D01*
X004154Y001768D02*
X000260Y001768D01*
X000260Y001710D02*
X004212Y001710D01*
X004271Y001651D02*
X000260Y001651D01*
X000260Y001593D02*
X004384Y001593D01*
X004966Y002997D02*
X022542Y002997D01*
X027706Y003114D02*
X000260Y003114D01*
X000260Y003172D02*
X027722Y003172D01*
X027737Y003231D02*
X000260Y003231D01*
X000260Y003289D02*
X027753Y003289D01*
X027769Y003348D02*
X000260Y003348D01*
X000260Y003406D02*
X027787Y003406D01*
X027821Y003465D02*
X000260Y003465D01*
X000260Y003523D02*
X027855Y003523D01*
X027888Y003582D02*
X000260Y003582D01*
X000260Y003640D02*
X027922Y003640D01*
X027956Y003699D02*
X000260Y003699D01*
X000260Y003757D02*
X028000Y003757D01*
X028058Y003816D02*
X000260Y003816D01*
X000260Y003874D02*
X028117Y003874D01*
X028175Y003933D02*
X000260Y003933D01*
X000260Y003991D02*
X028234Y003991D01*
X028322Y004050D02*
X000260Y004050D01*
X000260Y004108D02*
X028424Y004108D01*
X028525Y004167D02*
X000260Y004167D01*
X000260Y004225D02*
X028671Y004225D01*
X028889Y004284D02*
X000260Y004284D01*
X000260Y004342D02*
X039130Y004342D01*
X039130Y004284D02*
X029426Y004284D01*
X029644Y004225D02*
X039130Y004225D01*
X039130Y004167D02*
X029790Y004167D01*
X029891Y004108D02*
X039130Y004108D01*
X039130Y004050D02*
X029993Y004050D01*
X030081Y003991D02*
X039130Y003991D01*
X039130Y003933D02*
X030140Y003933D01*
X030198Y003874D02*
X039130Y003874D01*
X039130Y003816D02*
X030257Y003816D01*
X030315Y003757D02*
X039130Y003757D01*
X039130Y003699D02*
X030359Y003699D01*
X030393Y003640D02*
X039130Y003640D01*
X039130Y003582D02*
X030427Y003582D01*
X030460Y003523D02*
X039130Y003523D01*
X039130Y003465D02*
X030494Y003465D01*
X030528Y003406D02*
X039130Y003406D01*
X039130Y003348D02*
X030547Y003348D01*
X030562Y003289D02*
X039130Y003289D01*
X039130Y003231D02*
X030578Y003231D01*
X030594Y003172D02*
X039130Y003172D01*
X039130Y003114D02*
X030609Y003114D01*
X030625Y003055D02*
X039130Y003055D01*
X039130Y002997D02*
X030634Y002997D01*
X030634Y002938D02*
X039130Y002938D01*
X039130Y002880D02*
X030634Y002880D01*
X030634Y002821D02*
X039130Y002821D01*
X039130Y002763D02*
X030634Y002763D01*
X030634Y002704D02*
X039130Y002704D01*
X039130Y002646D02*
X030634Y002646D01*
X030634Y002587D02*
X039130Y002587D01*
X039130Y002529D02*
X030634Y002529D01*
X030634Y002470D02*
X039130Y002470D01*
X039130Y002412D02*
X030634Y002412D01*
X030634Y002353D02*
X039130Y002353D01*
X039130Y002295D02*
X030634Y002295D01*
X030634Y002236D02*
X039130Y002236D01*
X039130Y002178D02*
X030634Y002178D01*
X030634Y002119D02*
X039130Y002119D01*
X039130Y002061D02*
X030634Y002061D01*
X030634Y002002D02*
X039130Y002002D01*
X039130Y001944D02*
X030634Y001944D01*
X030634Y001885D02*
X039130Y001885D01*
X039130Y001827D02*
X030634Y001827D01*
X030634Y001768D02*
X039130Y001768D01*
X039130Y001710D02*
X030634Y001710D01*
X030634Y001651D02*
X039130Y001651D01*
X039130Y001593D02*
X030634Y001593D01*
X030634Y001534D02*
X039130Y001534D01*
X039130Y004401D02*
X000260Y004401D01*
X000260Y004459D02*
X039130Y004459D01*
X039130Y004518D02*
X000260Y004518D01*
X000260Y004576D02*
X039130Y004576D01*
X039130Y004635D02*
X000260Y004635D01*
X000260Y004693D02*
X039130Y004693D01*
X039130Y007794D02*
X038752Y007794D01*
X038893Y007852D02*
X039130Y007852D01*
X039130Y007911D02*
X038955Y007911D01*
X039013Y007969D02*
X039130Y007969D01*
X039130Y008028D02*
X039048Y008028D01*
X039073Y008086D02*
X039130Y008086D01*
X039130Y008145D02*
X039097Y008145D01*
X039104Y008203D02*
X039130Y008203D01*
X039130Y008262D02*
X039104Y008262D01*
X039104Y008320D02*
X039130Y008320D01*
X039130Y008379D02*
X039092Y008379D01*
X039068Y008437D02*
X039130Y008437D01*
X039130Y008496D02*
X039044Y008496D01*
X039002Y008554D02*
X039130Y008554D01*
X039130Y008613D02*
X038944Y008613D01*
X038866Y008671D02*
X039130Y008671D01*
X039130Y008730D02*
X038725Y008730D01*
X038535Y008730D02*
X037967Y008730D01*
X037967Y008671D02*
X038394Y008671D01*
X038316Y008613D02*
X037967Y008613D01*
X037960Y008554D02*
X038258Y008554D01*
X038216Y008496D02*
X037936Y008496D01*
X037912Y008437D02*
X038192Y008437D01*
X038168Y008379D02*
X037862Y008379D01*
X037803Y008320D02*
X038156Y008320D01*
X038156Y008262D02*
X037675Y008262D01*
X037198Y008496D02*
X030694Y008496D01*
X030752Y008554D02*
X037174Y008554D01*
X037167Y008613D02*
X030770Y008613D01*
X030770Y008671D02*
X037167Y008671D01*
X037167Y008730D02*
X030770Y008730D01*
X030770Y008788D02*
X037191Y008788D01*
X037216Y008847D02*
X030770Y008847D01*
X030770Y008905D02*
X037257Y008905D01*
X037217Y008964D02*
X030770Y008964D01*
X030770Y009022D02*
X037185Y009022D01*
X037181Y009081D02*
X030770Y009081D01*
X030770Y009139D02*
X036825Y009139D01*
X036767Y009198D02*
X030770Y009198D01*
X030770Y009256D02*
X036721Y009256D01*
X036721Y009315D02*
X030770Y009315D01*
X030770Y009373D02*
X036721Y009373D01*
X036736Y009432D02*
X030770Y009432D01*
X030770Y009490D02*
X036794Y009490D01*
X036951Y009549D02*
X030770Y009549D01*
X030770Y009607D02*
X037009Y009607D01*
X037068Y009666D02*
X030770Y009666D01*
X030770Y009724D02*
X037126Y009724D01*
X037079Y009783D02*
X030770Y009783D01*
X030770Y009841D02*
X037021Y009841D01*
X036962Y009900D02*
X030770Y009900D01*
X030770Y009958D02*
X036806Y009958D01*
X036748Y010017D02*
X030770Y010017D01*
X030770Y010075D02*
X036721Y010075D01*
X036721Y010134D02*
X030770Y010134D01*
X030770Y010192D02*
X036721Y010192D01*
X036755Y010251D02*
X030770Y010251D01*
X030770Y010309D02*
X036813Y010309D01*
X036797Y010368D02*
X030770Y010368D01*
X030770Y010426D02*
X036738Y010426D01*
X036721Y010485D02*
X030770Y010485D01*
X030770Y010543D02*
X036721Y010543D01*
X036721Y010602D02*
X030770Y010602D01*
X030770Y010660D02*
X036764Y010660D01*
X036823Y010719D02*
X030770Y010719D01*
X030770Y010777D02*
X037200Y010777D01*
X037224Y010836D02*
X030770Y010836D01*
X030770Y010894D02*
X037277Y010894D01*
X037336Y010953D02*
X030770Y010953D01*
X030770Y011011D02*
X037470Y011011D01*
X037664Y011011D02*
X038156Y011011D01*
X038156Y010953D02*
X037798Y010953D01*
X037857Y010894D02*
X038166Y010894D01*
X038156Y010918D02*
X038228Y010743D01*
X038362Y010610D01*
X038536Y010538D01*
X038724Y010538D01*
X038898Y010610D01*
X039032Y010743D01*
X039104Y010918D01*
X039104Y011106D01*
X039032Y011280D01*
X038898Y011414D01*
X038724Y011486D01*
X038536Y011486D01*
X038362Y011414D01*
X038228Y011280D01*
X038156Y011106D01*
X038156Y010918D01*
X038190Y010836D02*
X037910Y010836D01*
X037934Y010777D02*
X038214Y010777D01*
X038253Y010719D02*
X037958Y010719D01*
X037967Y010660D02*
X038312Y010660D01*
X038382Y010602D02*
X037967Y010602D01*
X037967Y010543D02*
X038524Y010543D01*
X038736Y010543D02*
X039130Y010543D01*
X039130Y010485D02*
X037945Y010485D01*
X037920Y010426D02*
X039130Y010426D01*
X039130Y010368D02*
X039008Y010368D01*
X039015Y010360D02*
X038963Y010413D01*
X038297Y010413D01*
X038245Y010360D01*
X038245Y009695D01*
X038297Y009642D01*
X038963Y009642D01*
X039015Y009695D01*
X039015Y010360D01*
X039015Y010309D02*
X039130Y010309D01*
X039130Y010251D02*
X039015Y010251D01*
X039015Y010192D02*
X039130Y010192D01*
X039130Y010134D02*
X039015Y010134D01*
X039015Y010075D02*
X039130Y010075D01*
X039130Y010017D02*
X039015Y010017D01*
X039015Y009958D02*
X039130Y009958D01*
X039130Y009900D02*
X039015Y009900D01*
X039015Y009841D02*
X039130Y009841D01*
X039130Y009783D02*
X039015Y009783D01*
X039015Y009724D02*
X039130Y009724D01*
X039130Y009666D02*
X038986Y009666D01*
X038963Y009626D02*
X038297Y009626D01*
X038245Y009573D01*
X038245Y008908D01*
X038297Y008855D01*
X038963Y008855D01*
X039015Y008908D01*
X039015Y009573D01*
X038963Y009626D01*
X038981Y009607D02*
X039130Y009607D01*
X039130Y009549D02*
X039015Y009549D01*
X039015Y009490D02*
X039130Y009490D01*
X039130Y009432D02*
X039015Y009432D01*
X039015Y009373D02*
X039130Y009373D01*
X039130Y009315D02*
X039015Y009315D01*
X039015Y009256D02*
X039130Y009256D01*
X039130Y009198D02*
X039015Y009198D01*
X039015Y009139D02*
X039130Y009139D01*
X039130Y009081D02*
X039015Y009081D01*
X039015Y009022D02*
X039130Y009022D01*
X039130Y008964D02*
X039015Y008964D01*
X039013Y008905D02*
X039130Y008905D01*
X039130Y008847D02*
X037918Y008847D01*
X037943Y008788D02*
X039130Y008788D01*
X038247Y008905D02*
X037877Y008905D01*
X037956Y008964D02*
X038245Y008964D01*
X038245Y009022D02*
X037989Y009022D01*
X037992Y009081D02*
X038245Y009081D01*
X038245Y009139D02*
X037992Y009139D01*
X037992Y009198D02*
X038245Y009198D01*
X038245Y009256D02*
X037975Y009256D01*
X037952Y009315D02*
X038245Y009315D01*
X038245Y009373D02*
X037952Y009373D01*
X037952Y009432D02*
X038245Y009432D01*
X038245Y009490D02*
X037946Y009490D01*
X037952Y009549D02*
X038245Y009549D01*
X038279Y009607D02*
X037952Y009607D01*
X037952Y009666D02*
X038274Y009666D01*
X038245Y009724D02*
X037952Y009724D01*
X037951Y009783D02*
X038245Y009783D01*
X038245Y009841D02*
X037952Y009841D01*
X037952Y009900D02*
X038245Y009900D01*
X038245Y009958D02*
X037952Y009958D01*
X037932Y010017D02*
X038245Y010017D01*
X038245Y010075D02*
X037952Y010075D01*
X037952Y010134D02*
X038245Y010134D01*
X038245Y010192D02*
X037952Y010192D01*
X037952Y010251D02*
X038245Y010251D01*
X038245Y010309D02*
X037824Y010309D01*
X037882Y010368D02*
X038252Y010368D01*
X038878Y010602D02*
X039130Y010602D01*
X039130Y010660D02*
X038948Y010660D01*
X039007Y010719D02*
X039130Y010719D01*
X039130Y010777D02*
X039046Y010777D01*
X039070Y010836D02*
X039130Y010836D01*
X039130Y010894D02*
X039094Y010894D01*
X039104Y010953D02*
X039130Y010953D01*
X039130Y011011D02*
X039104Y011011D01*
X039104Y011070D02*
X039130Y011070D01*
X039130Y011128D02*
X039095Y011128D01*
X039071Y011187D02*
X039130Y011187D01*
X039130Y011245D02*
X039046Y011245D01*
X039008Y011304D02*
X039130Y011304D01*
X039130Y011362D02*
X038950Y011362D01*
X038882Y011421D02*
X039130Y011421D01*
X039130Y011479D02*
X038740Y011479D01*
X038520Y011479D02*
X030770Y011479D01*
X030770Y011421D02*
X038378Y011421D01*
X038310Y011362D02*
X030770Y011362D01*
X030770Y011304D02*
X038252Y011304D01*
X038214Y011245D02*
X030770Y011245D01*
X030770Y011187D02*
X038189Y011187D01*
X038165Y011128D02*
X030770Y011128D01*
X030770Y011070D02*
X038156Y011070D01*
X039130Y011538D02*
X030770Y011538D01*
X030770Y011596D02*
X039130Y011596D01*
X039130Y011655D02*
X030770Y011655D01*
X030770Y011713D02*
X039130Y011713D01*
X039130Y011772D02*
X030770Y011772D01*
X030770Y011830D02*
X039130Y011830D01*
X039130Y011889D02*
X030770Y011889D01*
X030770Y011947D02*
X039130Y011947D01*
X039130Y012006D02*
X030770Y012006D01*
X030770Y012064D02*
X039130Y012064D01*
X039130Y012123D02*
X030770Y012123D01*
X030770Y012181D02*
X039130Y012181D01*
X039130Y012240D02*
X030770Y012240D01*
X030770Y012298D02*
X039130Y012298D01*
X039130Y012357D02*
X030770Y012357D01*
X030770Y012415D02*
X039130Y012415D01*
X039130Y012474D02*
X030770Y012474D01*
X030770Y012532D02*
X039130Y012532D01*
X039130Y012591D02*
X030770Y012591D01*
X030770Y012649D02*
X039130Y012649D01*
X039130Y012708D02*
X030770Y012708D01*
X030770Y012766D02*
X035199Y012766D01*
X035088Y012825D02*
X030770Y012825D01*
X030770Y012883D02*
X035029Y012883D01*
X034988Y012942D02*
X030770Y012942D01*
X030770Y013000D02*
X034963Y013000D01*
X034940Y013059D02*
X030770Y013059D01*
X030770Y013117D02*
X034940Y013117D01*
X034940Y013176D02*
X030770Y013176D01*
X030770Y013234D02*
X034949Y013234D01*
X034974Y013293D02*
X030770Y013293D01*
X030770Y013351D02*
X034998Y013351D01*
X035054Y013410D02*
X030770Y013410D01*
X030770Y013468D02*
X035098Y013468D01*
X035039Y013527D02*
X030770Y013527D01*
X030770Y013585D02*
X034981Y013585D01*
X035201Y013761D02*
X035212Y013761D01*
X035260Y013702D02*
X039130Y013702D01*
X039130Y013644D02*
X035318Y013644D01*
X035377Y013585D02*
X039130Y013585D01*
X039130Y013527D02*
X035435Y013527D01*
X036048Y013761D02*
X039130Y013761D01*
X039130Y013819D02*
X036167Y013819D01*
X036225Y013878D02*
X039130Y013878D01*
X039130Y013936D02*
X036270Y013936D01*
X036294Y013995D02*
X039130Y013995D01*
X039130Y014053D02*
X036319Y014053D01*
X036320Y014112D02*
X039130Y014112D01*
X039130Y014170D02*
X036320Y014170D01*
X036313Y014229D02*
X039130Y014229D01*
X039130Y014287D02*
X036289Y014287D01*
X036264Y014346D02*
X039130Y014346D01*
X039130Y014404D02*
X036211Y014404D01*
X036153Y014463D02*
X039130Y014463D01*
X039130Y014521D02*
X036015Y014521D01*
X036034Y014755D02*
X039130Y014755D01*
X039130Y014697D02*
X030770Y014697D01*
X030770Y014755D02*
X031009Y014755D01*
X030951Y014814D02*
X030770Y014814D01*
X030770Y014872D02*
X030921Y014872D01*
X030770Y014638D02*
X039130Y014638D01*
X039130Y014580D02*
X030770Y014580D01*
X030770Y014521D02*
X035245Y014521D01*
X035107Y014463D02*
X030770Y014463D01*
X030770Y014404D02*
X035049Y014404D01*
X034996Y014346D02*
X030770Y014346D01*
X030770Y014287D02*
X034971Y014287D01*
X035226Y014755D02*
X031251Y014755D01*
X031309Y014814D02*
X035099Y014814D01*
X035040Y014872D02*
X031339Y014872D01*
X031339Y014931D02*
X034992Y014931D01*
X034968Y014989D02*
X031339Y014989D01*
X031308Y015048D02*
X033514Y015048D01*
X033456Y015106D02*
X031250Y015106D01*
X031093Y015165D02*
X033397Y015165D01*
X033339Y015223D02*
X030770Y015223D01*
X030770Y015282D02*
X033280Y015282D01*
X033222Y015340D02*
X030770Y015340D01*
X030770Y015399D02*
X033163Y015399D01*
X033105Y015457D02*
X030770Y015457D01*
X030770Y015516D02*
X033046Y015516D01*
X032988Y015574D02*
X030770Y015574D01*
X030770Y016101D02*
X034940Y016101D01*
X034940Y016159D02*
X030770Y016159D01*
X030770Y016218D02*
X034943Y016218D01*
X034967Y016276D02*
X030770Y016276D01*
X030770Y016335D02*
X034991Y016335D01*
X035038Y016393D02*
X030770Y016393D01*
X030770Y016452D02*
X035096Y016452D01*
X035219Y016510D02*
X030770Y016510D01*
X030770Y016569D02*
X039130Y016569D01*
X039130Y016627D02*
X030770Y016627D01*
X033208Y015750D02*
X035239Y015750D01*
X035232Y015516D02*
X033442Y015516D01*
X033384Y015574D02*
X039130Y015574D01*
X039130Y015516D02*
X036028Y015516D01*
X036158Y015457D02*
X039130Y015457D01*
X039130Y015399D02*
X036217Y015399D01*
X036267Y015340D02*
X039130Y015340D01*
X039130Y015282D02*
X036291Y015282D01*
X036315Y015223D02*
X039130Y015223D01*
X039130Y015165D02*
X036320Y015165D01*
X036320Y015106D02*
X039130Y015106D01*
X039130Y015048D02*
X036316Y015048D01*
X036292Y014989D02*
X039130Y014989D01*
X039130Y014931D02*
X036268Y014931D01*
X036220Y014872D02*
X039130Y014872D01*
X039130Y014814D02*
X036161Y014814D01*
X036021Y015750D02*
X039130Y015750D01*
X039130Y015808D02*
X036156Y015808D01*
X036214Y015867D02*
X039130Y015867D01*
X039130Y015925D02*
X036266Y015925D01*
X036290Y015984D02*
X039130Y015984D01*
X039130Y016042D02*
X036314Y016042D01*
X036320Y016101D02*
X039130Y016101D01*
X039130Y016159D02*
X036320Y016159D01*
X036317Y016218D02*
X039130Y016218D01*
X039130Y016276D02*
X036293Y016276D01*
X036269Y016335D02*
X039130Y016335D01*
X039130Y016393D02*
X036222Y016393D01*
X036164Y016452D02*
X039130Y016452D01*
X039130Y016510D02*
X036041Y016510D01*
X035102Y015457D02*
X033501Y015457D01*
X033559Y015399D02*
X035043Y015399D01*
X034993Y015340D02*
X033618Y015340D01*
X033676Y015282D02*
X034969Y015282D01*
X033325Y015633D02*
X039130Y015633D01*
X039130Y015691D02*
X033267Y015691D01*
X036142Y013468D02*
X039130Y013468D01*
X039130Y013410D02*
X036206Y013410D01*
X036262Y013351D02*
X039130Y013351D01*
X039130Y013293D02*
X036286Y013293D01*
X036311Y013234D02*
X039130Y013234D01*
X039130Y013176D02*
X036320Y013176D01*
X036320Y013117D02*
X039130Y013117D01*
X039130Y013059D02*
X036320Y013059D01*
X036297Y013000D02*
X039130Y013000D01*
X039130Y012942D02*
X036272Y012942D01*
X036231Y012883D02*
X039130Y012883D01*
X039130Y012825D02*
X036172Y012825D01*
X036061Y012766D02*
X039130Y012766D01*
X037176Y010719D02*
X037037Y010719D01*
X037096Y010660D02*
X037167Y010660D01*
X037167Y010602D02*
X037139Y010602D01*
X037139Y010543D02*
X037167Y010543D01*
X037170Y010488D02*
X037170Y010488D01*
X037173Y010485D02*
X037189Y010485D01*
X037171Y009373D02*
X037221Y009373D01*
X037221Y009315D02*
X037139Y009315D01*
X037139Y009256D02*
X037199Y009256D01*
X037181Y009198D02*
X037093Y009198D01*
X037035Y009139D02*
X037181Y009139D01*
X027681Y001417D02*
X000260Y001417D01*
X000260Y001359D02*
X027681Y001359D01*
X027681Y001300D02*
X000260Y001300D01*
X000260Y001242D02*
X027681Y001242D01*
X027681Y001183D02*
X000260Y001183D01*
X000260Y001125D02*
X027681Y001125D01*
X027681Y001066D02*
X000260Y001066D01*
X000260Y001008D02*
X027681Y001008D01*
X027681Y000949D02*
X000260Y000949D01*
X000260Y000891D02*
X027681Y000891D01*
X027681Y000832D02*
X000260Y000832D01*
X000260Y000774D02*
X027681Y000774D01*
X027681Y000715D02*
X000260Y000715D01*
X000260Y000657D02*
X027681Y000657D01*
X027681Y000598D02*
X000260Y000598D01*
X000260Y000540D02*
X027681Y000540D01*
X027681Y000481D02*
X000260Y000481D01*
X000260Y000423D02*
X027681Y000423D01*
X027681Y000364D02*
X000260Y000364D01*
X000260Y000306D02*
X027681Y000306D01*
X030770Y018558D02*
X039130Y018558D01*
X039130Y018616D02*
X030770Y018616D01*
X030770Y020547D02*
X039130Y020547D01*
X039130Y020605D02*
X030770Y020605D01*
X030770Y020664D02*
X039130Y020664D01*
X039130Y020722D02*
X030770Y020722D01*
X034486Y018792D02*
X035137Y018792D01*
X035062Y018850D02*
X034544Y018850D01*
X034603Y018909D02*
X035004Y018909D01*
X034977Y018967D02*
X034661Y018967D01*
X034720Y019026D02*
X034953Y019026D01*
X034940Y019084D02*
X034778Y019084D01*
X034837Y019143D02*
X034940Y019143D01*
X034940Y019201D02*
X034895Y019201D01*
X034954Y019260D02*
X034960Y019260D01*
X033909Y023881D02*
X030630Y023881D01*
X030685Y023940D02*
X033933Y023940D01*
X033957Y023998D02*
X030709Y023998D01*
X030733Y024057D02*
X033982Y024057D01*
X034006Y024115D02*
X030735Y024115D01*
X030735Y024174D02*
X034060Y024174D01*
X034118Y024232D02*
X030721Y024232D01*
X030697Y024291D02*
X034177Y024291D01*
X034252Y024349D02*
X030660Y024349D01*
X030601Y024408D02*
X034393Y024408D01*
X033513Y024993D02*
X039130Y024993D01*
X039130Y025051D02*
X033500Y025051D01*
X033479Y025110D02*
X039130Y025110D01*
X039130Y025168D02*
X033450Y025168D01*
X033408Y025227D02*
X039130Y025227D01*
X039130Y025285D02*
X033352Y025285D01*
X033270Y025344D02*
X039130Y025344D01*
X039130Y025402D02*
X033109Y025402D01*
X033050Y025402D02*
X032990Y025402D01*
X032990Y025344D02*
X033050Y025344D01*
X033050Y025285D02*
X032990Y025285D01*
X032990Y025227D02*
X033050Y025227D01*
X033050Y025168D02*
X032990Y025168D01*
X032990Y025110D02*
X033050Y025110D01*
X033050Y025051D02*
X032990Y025051D01*
X032990Y024876D02*
X033050Y024876D01*
X033050Y024817D02*
X032990Y024817D01*
X032990Y024759D02*
X033050Y024759D01*
X033050Y024700D02*
X032990Y024700D01*
X032990Y024642D02*
X033050Y024642D01*
X033050Y024583D02*
X032990Y024583D01*
X032990Y024525D02*
X033050Y024525D01*
X033050Y024466D02*
X032990Y024466D01*
X032790Y024466D02*
X031370Y024466D01*
X031505Y024525D02*
X032700Y024525D01*
X032640Y024583D02*
X031564Y024583D01*
X031622Y024642D02*
X032597Y024642D01*
X032566Y024700D02*
X031651Y024700D01*
X031675Y024759D02*
X032543Y024759D01*
X032528Y024817D02*
X031699Y024817D01*
X031110Y024466D02*
X030484Y024466D01*
X030858Y024642D02*
X021270Y024642D01*
X021270Y024700D02*
X030829Y024700D01*
X030805Y024759D02*
X021270Y024759D01*
X021270Y024817D02*
X030781Y024817D01*
X030780Y024876D02*
X021270Y024876D01*
X021270Y024934D02*
X030780Y024934D01*
X030916Y024583D02*
X021270Y024583D01*
X021270Y024525D02*
X030975Y024525D01*
X030218Y025402D02*
X032931Y025402D01*
X030583Y026046D02*
X039130Y026046D01*
X039130Y026104D02*
X030599Y026104D01*
X030615Y026163D02*
X039130Y026163D01*
X039130Y026221D02*
X030630Y026221D01*
X030634Y026280D02*
X039130Y026280D01*
X039130Y026338D02*
X030634Y026338D01*
X030634Y026397D02*
X039130Y026397D01*
X039130Y026455D02*
X030634Y026455D01*
X030634Y026514D02*
X039130Y026514D01*
X039130Y026572D02*
X030634Y026572D01*
X030634Y026631D02*
X039130Y026631D01*
X039130Y026689D02*
X030634Y026689D01*
X030634Y026748D02*
X039130Y026748D01*
X039130Y026806D02*
X030634Y026806D01*
X030634Y026865D02*
X039130Y026865D01*
X039130Y026923D02*
X030634Y026923D01*
X030634Y026982D02*
X039130Y026982D01*
X039130Y027040D02*
X030634Y027040D01*
X030634Y027099D02*
X039130Y027099D01*
X039130Y027157D02*
X030634Y027157D01*
X030634Y027216D02*
X039130Y027216D01*
X039130Y027274D02*
X030634Y027274D01*
X030634Y027333D02*
X039130Y027333D01*
X039130Y027391D02*
X030634Y027391D01*
X030634Y027450D02*
X039130Y027450D01*
X039130Y027508D02*
X030634Y027508D01*
X030634Y027567D02*
X039130Y027567D01*
X039130Y027625D02*
X030634Y027625D01*
X030634Y027684D02*
X039130Y027684D01*
X039130Y027742D02*
X030634Y027742D01*
X030568Y025987D02*
X039130Y025987D01*
X039130Y025929D02*
X030552Y025929D01*
X030536Y025870D02*
X039130Y025870D01*
X039130Y025812D02*
X030506Y025812D01*
X030472Y025753D02*
X039130Y025753D01*
X039130Y025695D02*
X030438Y025695D01*
X030405Y025636D02*
X039130Y025636D01*
X039130Y025578D02*
X030371Y025578D01*
X030335Y025519D02*
X039130Y025519D01*
X039130Y025461D02*
X030277Y025461D01*
X029776Y024466D02*
X021270Y024466D01*
X021270Y024408D02*
X029659Y024408D01*
X029600Y024349D02*
X021270Y024349D01*
X021270Y024291D02*
X029563Y024291D01*
X029539Y024232D02*
X021270Y024232D01*
X021270Y024174D02*
X029525Y024174D01*
X029525Y024115D02*
X021270Y024115D01*
X021270Y024057D02*
X029527Y024057D01*
X029551Y023998D02*
X021270Y023998D01*
X021270Y023940D02*
X029575Y023940D01*
X029630Y023881D02*
X021270Y023881D01*
X021270Y023823D02*
X029707Y023823D01*
X022635Y026221D02*
X004873Y026221D01*
X005014Y026280D02*
X022494Y026280D01*
X022355Y026338D02*
X005153Y026338D01*
X005211Y026397D02*
X022297Y026397D01*
X022238Y026455D02*
X005270Y026455D01*
X005328Y026514D02*
X022180Y026514D01*
X022134Y026572D02*
X005374Y026572D01*
X005398Y026631D02*
X022110Y026631D01*
X022086Y026689D02*
X005422Y026689D01*
X005447Y026748D02*
X022061Y026748D01*
X022037Y026806D02*
X005471Y026806D01*
X005480Y026865D02*
X022028Y026865D01*
X022028Y026923D02*
X005480Y026923D01*
X005480Y026982D02*
X022028Y026982D01*
X022028Y027040D02*
X005480Y027040D01*
X005480Y027099D02*
X022028Y027099D01*
X022038Y027157D02*
X005470Y027157D01*
X005446Y027216D02*
X022062Y027216D01*
X022087Y027274D02*
X005421Y027274D01*
X005397Y027333D02*
X022111Y027333D01*
X022135Y027391D02*
X005373Y027391D01*
X005326Y027450D02*
X022182Y027450D01*
X022241Y027508D02*
X005268Y027508D01*
X005209Y027567D02*
X022299Y027567D01*
X022358Y027625D02*
X005150Y027625D01*
X005009Y027684D02*
X022499Y027684D01*
X020991Y025987D02*
X000260Y025987D01*
X000260Y025929D02*
X020933Y025929D01*
X020921Y025870D02*
X000260Y025870D01*
X000260Y025812D02*
X020921Y025812D01*
X020921Y025753D02*
X000260Y025753D01*
X000260Y025695D02*
X020970Y025695D01*
X020990Y025636D02*
X000260Y025636D01*
X000260Y025578D02*
X020990Y025578D01*
X020990Y025519D02*
X000260Y025519D01*
X000260Y025461D02*
X020990Y025461D01*
X020990Y025402D02*
X000260Y025402D01*
X000260Y025344D02*
X020990Y025344D01*
X020990Y025285D02*
X000260Y025285D01*
X000260Y025227D02*
X020990Y025227D01*
X020990Y025168D02*
X000260Y025168D01*
X000260Y025110D02*
X020990Y025110D01*
X020990Y025051D02*
X000260Y025051D01*
X000260Y024993D02*
X020990Y024993D01*
X020990Y024934D02*
X000260Y024934D01*
X000260Y024876D02*
X020990Y024876D01*
X020990Y024817D02*
X000260Y024817D01*
X000260Y024759D02*
X020990Y024759D01*
X020990Y024700D02*
X000260Y024700D01*
X000260Y024642D02*
X020990Y024642D01*
X020990Y024583D02*
X000260Y024583D01*
X000260Y024525D02*
X020990Y024525D01*
X020990Y023764D02*
X000260Y023764D01*
X000260Y023706D02*
X020990Y023706D01*
X020951Y023647D02*
X000260Y023647D01*
X000260Y023589D02*
X020921Y023589D01*
X018038Y021834D02*
X017822Y021834D01*
X017881Y021775D02*
X017979Y021775D01*
X012990Y018733D02*
X000260Y018733D01*
X000260Y018675D02*
X012990Y018675D01*
X012990Y018616D02*
X000260Y018616D01*
X000260Y018558D02*
X012990Y018558D01*
X012782Y018792D02*
X000260Y018792D01*
X000260Y018850D02*
X012661Y018850D01*
X012603Y018909D02*
X000260Y018909D01*
X000260Y018967D02*
X012564Y018967D01*
X012540Y019026D02*
X000260Y019026D01*
X000260Y019084D02*
X012525Y019084D01*
X012525Y019143D02*
X000260Y019143D01*
X000260Y019201D02*
X012526Y019201D01*
X012550Y019260D02*
X000260Y019260D01*
X000260Y019318D02*
X012574Y019318D01*
X012628Y019377D02*
X000260Y019377D01*
X000260Y019435D02*
X012701Y019435D01*
X000977Y015106D02*
X000260Y015106D01*
X000260Y015048D02*
X000854Y015048D01*
X000782Y014989D02*
X000260Y014989D01*
X000260Y014931D02*
X000730Y014931D01*
X000692Y014872D02*
X000260Y014872D01*
X000260Y014814D02*
X000664Y014814D01*
X000645Y014755D02*
X000260Y014755D01*
X000260Y014697D02*
X000634Y014697D01*
M02*
