%
M48
M72
T01C0.0118
T02C0.0315
T03C0.0362
T04C0.0400
T05C0.0413
T06C0.0512
T07C0.0709
%
T01
X11130Y4630
X15630Y7130
X15130Y8830
X16030Y9830
X16330Y9530
X16530Y9230
X16730Y8930
X17830Y10230
X18380Y10330
X18830Y10230
X19730Y9430
X20930Y9730
X22130Y9930
X21630Y8930
X22130Y10830
X21830Y11930
X23130Y12430
X23930Y12930
X23930Y13930
X23130Y13930
X22830Y14230
X22530Y13930
X21230Y13730
X21230Y13030
X19130Y13030
X18530Y13080
X18330Y13730
X17830Y12830
X16330Y11930
X16030Y11630
X15430Y11330
X14880Y11880
X11630Y9130
X10130Y12630
X8430Y12630
X5380Y12630
X11630Y15630
X12230Y16730
X15930Y17230
X16130Y16930
X18130Y18130
X19030Y18430
X18630Y19255
X18130Y19230
X20130Y18130
X20730Y18130
X22230Y16930
X22630Y16530
X22230Y16330
X23155Y16130
X23330Y17330
X23430Y17930
X23330Y18230
X22330Y19330
X19130Y20830
X18630Y20830
X14880Y19380
X10730Y19630
X18380Y15380
X18780Y16005
X18505Y16380
X21330Y16630
X21380Y15755
X25630Y16130
X25630Y17130
X30630Y12530
X26530Y10030
X26230Y10130
X26130Y10430
X25430Y10930
X25130Y10830
X25030Y10530
X24730Y10430
X24630Y10130
X26630Y9730
X27730Y8530
X30630Y8530
X32630Y4630
X33730Y3930
X23380Y4630
X24530Y11830
T02
X9630Y5130
X9630Y6130
X9630Y7130
X9630Y8130
X9630Y9130
X9630Y10130
X9630Y11130
X9630Y12130
X9630Y13130
X9630Y14130
X9630Y15130
X9630Y16130
X9630Y17130
X9630Y18130
X9630Y19130
X9630Y20130
X9630Y21130
X9630Y22130
X9630Y23130
X9630Y24130
X26630Y24130
X26630Y23130
X26630Y22130
X26630Y7130
X26630Y6130
X26630Y5130
T03
X30859Y19028
X30859Y25327
T04
X32130Y15134
X32130Y14134
X32130Y13134
X32130Y12134
X32130Y11134
X32130Y10134
X32130Y9134
X32130Y8134
X32130Y7134
X29520Y6910
X27740Y6910
X27740Y4350
X29520Y4350
X1130Y14130
X1130Y15130
T05
X34067Y4430
X34067Y2461
T06
X35130Y2068
X35130Y4824
T07
X33930Y17532
X33930Y20524
X33930Y23831
X33930Y26823
M30
