G75*
G70*
%OFA0B0*%
%FSLAX24Y24*%
%IPPOS*%
%LPD*%
%AMOC8*
5,1,8,0,0,1.08239X$1,22.5*
%
%ADD10C,0.0000*%
D10*
X000130Y000130D02*
X024311Y000130D01*
X024311Y002827D01*
X024312Y002827D02*
X024314Y002897D01*
X024319Y002968D01*
X024329Y003038D01*
X024341Y003107D01*
X024358Y003175D01*
X024378Y003243D01*
X024401Y003309D01*
X024428Y003374D01*
X024459Y003438D01*
X024492Y003500D01*
X024529Y003560D01*
X024569Y003618D01*
X024612Y003674D01*
X024658Y003728D01*
X024706Y003779D01*
X024757Y003827D01*
X024811Y003873D01*
X024867Y003916D01*
X024925Y003956D01*
X024985Y003993D01*
X025047Y004026D01*
X025111Y004057D01*
X025176Y004084D01*
X025242Y004107D01*
X025310Y004127D01*
X025378Y004144D01*
X025447Y004156D01*
X025517Y004166D01*
X025588Y004171D01*
X025658Y004173D01*
X025728Y004171D01*
X025799Y004166D01*
X025869Y004156D01*
X025938Y004144D01*
X026006Y004127D01*
X026074Y004107D01*
X026140Y004084D01*
X026205Y004057D01*
X026269Y004026D01*
X026331Y003993D01*
X026391Y003956D01*
X026449Y003916D01*
X026505Y003873D01*
X026559Y003827D01*
X026610Y003779D01*
X026658Y003728D01*
X026704Y003674D01*
X026747Y003618D01*
X026787Y003560D01*
X026824Y003500D01*
X026857Y003438D01*
X026888Y003374D01*
X026915Y003309D01*
X026938Y003243D01*
X026958Y003175D01*
X026975Y003107D01*
X026987Y003038D01*
X026997Y002968D01*
X027002Y002897D01*
X027004Y002827D01*
X027004Y001376D01*
X035630Y001376D01*
X035630Y006380D01*
X033830Y006380D01*
X033830Y015880D01*
X035630Y015880D01*
X035630Y027880D01*
X027004Y027880D01*
X027004Y026429D01*
X025658Y025083D02*
X025588Y025085D01*
X025517Y025090D01*
X025447Y025100D01*
X025378Y025112D01*
X025310Y025129D01*
X025242Y025149D01*
X025176Y025172D01*
X025111Y025199D01*
X025047Y025230D01*
X024985Y025263D01*
X024925Y025300D01*
X024867Y025340D01*
X024811Y025383D01*
X024757Y025429D01*
X024706Y025477D01*
X024658Y025528D01*
X024612Y025582D01*
X024569Y025638D01*
X024529Y025696D01*
X024492Y025756D01*
X024459Y025818D01*
X024428Y025882D01*
X024401Y025947D01*
X024378Y026013D01*
X024358Y026081D01*
X024341Y026149D01*
X024329Y026218D01*
X024319Y026288D01*
X024314Y026359D01*
X024312Y026429D01*
X024311Y026429D02*
X024311Y029130D01*
X000130Y029130D01*
X000130Y000130D01*
X000591Y002276D02*
X000593Y002326D01*
X000599Y002376D01*
X000609Y002425D01*
X000623Y002473D01*
X000640Y002520D01*
X000661Y002565D01*
X000686Y002609D01*
X000714Y002650D01*
X000746Y002689D01*
X000780Y002726D01*
X000817Y002760D01*
X000857Y002790D01*
X000899Y002817D01*
X000943Y002841D01*
X000989Y002862D01*
X001036Y002878D01*
X001084Y002891D01*
X001134Y002900D01*
X001183Y002905D01*
X001234Y002906D01*
X001284Y002903D01*
X001333Y002896D01*
X001382Y002885D01*
X001430Y002870D01*
X001476Y002852D01*
X001521Y002830D01*
X001564Y002804D01*
X001605Y002775D01*
X001644Y002743D01*
X001680Y002708D01*
X001712Y002670D01*
X001742Y002630D01*
X001769Y002587D01*
X001792Y002543D01*
X001811Y002497D01*
X001827Y002449D01*
X001839Y002400D01*
X001847Y002351D01*
X001851Y002301D01*
X001851Y002251D01*
X001847Y002201D01*
X001839Y002152D01*
X001827Y002103D01*
X001811Y002055D01*
X001792Y002009D01*
X001769Y001965D01*
X001742Y001922D01*
X001712Y001882D01*
X001680Y001844D01*
X001644Y001809D01*
X001605Y001777D01*
X001564Y001748D01*
X001521Y001722D01*
X001476Y001700D01*
X001430Y001682D01*
X001382Y001667D01*
X001333Y001656D01*
X001284Y001649D01*
X001234Y001646D01*
X001183Y001647D01*
X001134Y001652D01*
X001084Y001661D01*
X001036Y001674D01*
X000989Y001690D01*
X000943Y001711D01*
X000899Y001735D01*
X000857Y001762D01*
X000817Y001792D01*
X000780Y001826D01*
X000746Y001863D01*
X000714Y001902D01*
X000686Y001943D01*
X000661Y001987D01*
X000640Y002032D01*
X000623Y002079D01*
X000609Y002127D01*
X000599Y002176D01*
X000593Y002226D01*
X000591Y002276D01*
X002571Y003083D02*
X002573Y003128D01*
X002579Y003172D01*
X002588Y003216D01*
X002602Y003258D01*
X002619Y003299D01*
X002640Y003339D01*
X002664Y003377D01*
X002691Y003412D01*
X002721Y003445D01*
X002754Y003475D01*
X002789Y003502D01*
X002827Y003526D01*
X002867Y003547D01*
X002908Y003564D01*
X002950Y003578D01*
X002994Y003587D01*
X003038Y003593D01*
X003083Y003595D01*
X003128Y003593D01*
X003172Y003587D01*
X003216Y003578D01*
X003258Y003564D01*
X003299Y003547D01*
X003339Y003526D01*
X003377Y003502D01*
X003412Y003475D01*
X003445Y003445D01*
X003475Y003412D01*
X003502Y003377D01*
X003526Y003339D01*
X003547Y003299D01*
X003564Y003258D01*
X003578Y003216D01*
X003587Y003172D01*
X003593Y003128D01*
X003595Y003083D01*
X003593Y003038D01*
X003587Y002994D01*
X003578Y002950D01*
X003564Y002908D01*
X003547Y002867D01*
X003526Y002827D01*
X003502Y002789D01*
X003475Y002754D01*
X003445Y002721D01*
X003412Y002691D01*
X003377Y002664D01*
X003339Y002640D01*
X003299Y002619D01*
X003258Y002602D01*
X003216Y002588D01*
X003172Y002579D01*
X003128Y002573D01*
X003083Y002571D01*
X003038Y002573D01*
X002994Y002579D01*
X002950Y002588D01*
X002908Y002602D01*
X002867Y002619D01*
X002827Y002640D01*
X002789Y002664D01*
X002754Y002691D01*
X002721Y002721D01*
X002691Y002754D01*
X002664Y002789D01*
X002640Y002827D01*
X002619Y002867D01*
X002602Y002908D01*
X002588Y002950D01*
X002579Y002994D01*
X002573Y003038D01*
X002571Y003083D01*
X003827Y013130D02*
X004433Y013130D01*
X004459Y013132D01*
X004484Y013137D01*
X004508Y013145D01*
X004532Y013156D01*
X004553Y013171D01*
X004572Y013188D01*
X004589Y013207D01*
X004604Y013229D01*
X004615Y013252D01*
X004623Y013276D01*
X004628Y013301D01*
X004630Y013327D01*
X004630Y015933D01*
X004628Y015959D01*
X004623Y015984D01*
X004615Y016008D01*
X004604Y016032D01*
X004589Y016053D01*
X004572Y016072D01*
X004553Y016089D01*
X004532Y016104D01*
X004508Y016115D01*
X004484Y016123D01*
X004459Y016128D01*
X004433Y016130D01*
X003827Y016130D01*
X003801Y016128D01*
X003776Y016123D01*
X003752Y016115D01*
X003729Y016104D01*
X003707Y016089D01*
X003688Y016072D01*
X003671Y016053D01*
X003656Y016032D01*
X003645Y016008D01*
X003637Y015984D01*
X003632Y015959D01*
X003630Y015933D01*
X003630Y013327D01*
X003632Y013301D01*
X003637Y013276D01*
X003645Y013252D01*
X003656Y013229D01*
X003671Y013207D01*
X003688Y013188D01*
X003707Y013171D01*
X003728Y013156D01*
X003752Y013145D01*
X003776Y013137D01*
X003801Y013132D01*
X003827Y013130D01*
X018657Y002276D02*
X018659Y002326D01*
X018665Y002376D01*
X018675Y002425D01*
X018689Y002473D01*
X018706Y002520D01*
X018727Y002565D01*
X018752Y002609D01*
X018780Y002650D01*
X018812Y002689D01*
X018846Y002726D01*
X018883Y002760D01*
X018923Y002790D01*
X018965Y002817D01*
X019009Y002841D01*
X019055Y002862D01*
X019102Y002878D01*
X019150Y002891D01*
X019200Y002900D01*
X019249Y002905D01*
X019300Y002906D01*
X019350Y002903D01*
X019399Y002896D01*
X019448Y002885D01*
X019496Y002870D01*
X019542Y002852D01*
X019587Y002830D01*
X019630Y002804D01*
X019671Y002775D01*
X019710Y002743D01*
X019746Y002708D01*
X019778Y002670D01*
X019808Y002630D01*
X019835Y002587D01*
X019858Y002543D01*
X019877Y002497D01*
X019893Y002449D01*
X019905Y002400D01*
X019913Y002351D01*
X019917Y002301D01*
X019917Y002251D01*
X019913Y002201D01*
X019905Y002152D01*
X019893Y002103D01*
X019877Y002055D01*
X019858Y002009D01*
X019835Y001965D01*
X019808Y001922D01*
X019778Y001882D01*
X019746Y001844D01*
X019710Y001809D01*
X019671Y001777D01*
X019630Y001748D01*
X019587Y001722D01*
X019542Y001700D01*
X019496Y001682D01*
X019448Y001667D01*
X019399Y001656D01*
X019350Y001649D01*
X019300Y001646D01*
X019249Y001647D01*
X019200Y001652D01*
X019150Y001661D01*
X019102Y001674D01*
X019055Y001690D01*
X019009Y001711D01*
X018965Y001735D01*
X018923Y001762D01*
X018883Y001792D01*
X018846Y001826D01*
X018812Y001863D01*
X018780Y001902D01*
X018752Y001943D01*
X018727Y001987D01*
X018706Y002032D01*
X018689Y002079D01*
X018675Y002127D01*
X018665Y002176D01*
X018659Y002226D01*
X018657Y002276D01*
X030524Y005563D02*
X030526Y005613D01*
X030532Y005663D01*
X030542Y005712D01*
X030556Y005760D01*
X030573Y005807D01*
X030594Y005852D01*
X030619Y005896D01*
X030647Y005937D01*
X030679Y005976D01*
X030713Y006013D01*
X030750Y006047D01*
X030790Y006077D01*
X030832Y006104D01*
X030876Y006128D01*
X030922Y006149D01*
X030969Y006165D01*
X031017Y006178D01*
X031067Y006187D01*
X031116Y006192D01*
X031167Y006193D01*
X031217Y006190D01*
X031266Y006183D01*
X031315Y006172D01*
X031363Y006157D01*
X031409Y006139D01*
X031454Y006117D01*
X031497Y006091D01*
X031538Y006062D01*
X031577Y006030D01*
X031613Y005995D01*
X031645Y005957D01*
X031675Y005917D01*
X031702Y005874D01*
X031725Y005830D01*
X031744Y005784D01*
X031760Y005736D01*
X031772Y005687D01*
X031780Y005638D01*
X031784Y005588D01*
X031784Y005538D01*
X031780Y005488D01*
X031772Y005439D01*
X031760Y005390D01*
X031744Y005342D01*
X031725Y005296D01*
X031702Y005252D01*
X031675Y005209D01*
X031645Y005169D01*
X031613Y005131D01*
X031577Y005096D01*
X031538Y005064D01*
X031497Y005035D01*
X031454Y005009D01*
X031409Y004987D01*
X031363Y004969D01*
X031315Y004954D01*
X031266Y004943D01*
X031217Y004936D01*
X031167Y004933D01*
X031116Y004934D01*
X031067Y004939D01*
X031017Y004948D01*
X030969Y004961D01*
X030922Y004977D01*
X030876Y004998D01*
X030832Y005022D01*
X030790Y005049D01*
X030750Y005079D01*
X030713Y005113D01*
X030679Y005150D01*
X030647Y005189D01*
X030619Y005230D01*
X030594Y005274D01*
X030573Y005319D01*
X030556Y005366D01*
X030542Y005414D01*
X030532Y005463D01*
X030526Y005513D01*
X030524Y005563D01*
X030524Y023693D02*
X030526Y023743D01*
X030532Y023793D01*
X030542Y023842D01*
X030556Y023890D01*
X030573Y023937D01*
X030594Y023982D01*
X030619Y024026D01*
X030647Y024067D01*
X030679Y024106D01*
X030713Y024143D01*
X030750Y024177D01*
X030790Y024207D01*
X030832Y024234D01*
X030876Y024258D01*
X030922Y024279D01*
X030969Y024295D01*
X031017Y024308D01*
X031067Y024317D01*
X031116Y024322D01*
X031167Y024323D01*
X031217Y024320D01*
X031266Y024313D01*
X031315Y024302D01*
X031363Y024287D01*
X031409Y024269D01*
X031454Y024247D01*
X031497Y024221D01*
X031538Y024192D01*
X031577Y024160D01*
X031613Y024125D01*
X031645Y024087D01*
X031675Y024047D01*
X031702Y024004D01*
X031725Y023960D01*
X031744Y023914D01*
X031760Y023866D01*
X031772Y023817D01*
X031780Y023768D01*
X031784Y023718D01*
X031784Y023668D01*
X031780Y023618D01*
X031772Y023569D01*
X031760Y023520D01*
X031744Y023472D01*
X031725Y023426D01*
X031702Y023382D01*
X031675Y023339D01*
X031645Y023299D01*
X031613Y023261D01*
X031577Y023226D01*
X031538Y023194D01*
X031497Y023165D01*
X031454Y023139D01*
X031409Y023117D01*
X031363Y023099D01*
X031315Y023084D01*
X031266Y023073D01*
X031217Y023066D01*
X031167Y023063D01*
X031116Y023064D01*
X031067Y023069D01*
X031017Y023078D01*
X030969Y023091D01*
X030922Y023107D01*
X030876Y023128D01*
X030832Y023152D01*
X030790Y023179D01*
X030750Y023209D01*
X030713Y023243D01*
X030679Y023280D01*
X030647Y023319D01*
X030619Y023360D01*
X030594Y023404D01*
X030573Y023449D01*
X030556Y023496D01*
X030542Y023544D01*
X030532Y023593D01*
X030526Y023643D01*
X030524Y023693D01*
X030130Y026705D02*
X030132Y026750D01*
X030138Y026794D01*
X030147Y026838D01*
X030161Y026880D01*
X030178Y026921D01*
X030199Y026961D01*
X030223Y026999D01*
X030250Y027034D01*
X030280Y027067D01*
X030313Y027097D01*
X030348Y027124D01*
X030386Y027148D01*
X030426Y027169D01*
X030467Y027186D01*
X030509Y027200D01*
X030553Y027209D01*
X030597Y027215D01*
X030642Y027217D01*
X030687Y027215D01*
X030731Y027209D01*
X030775Y027200D01*
X030817Y027186D01*
X030858Y027169D01*
X030898Y027148D01*
X030936Y027124D01*
X030971Y027097D01*
X031004Y027067D01*
X031034Y027034D01*
X031061Y026999D01*
X031085Y026961D01*
X031106Y026921D01*
X031123Y026880D01*
X031137Y026838D01*
X031146Y026794D01*
X031152Y026750D01*
X031154Y026705D01*
X031152Y026660D01*
X031146Y026616D01*
X031137Y026572D01*
X031123Y026530D01*
X031106Y026489D01*
X031085Y026449D01*
X031061Y026411D01*
X031034Y026376D01*
X031004Y026343D01*
X030971Y026313D01*
X030936Y026286D01*
X030898Y026262D01*
X030858Y026241D01*
X030817Y026224D01*
X030775Y026210D01*
X030731Y026201D01*
X030687Y026195D01*
X030642Y026193D01*
X030597Y026195D01*
X030553Y026201D01*
X030509Y026210D01*
X030467Y026224D01*
X030426Y026241D01*
X030386Y026262D01*
X030348Y026286D01*
X030313Y026313D01*
X030280Y026343D01*
X030250Y026376D01*
X030223Y026411D01*
X030199Y026449D01*
X030178Y026489D01*
X030161Y026530D01*
X030147Y026572D01*
X030138Y026616D01*
X030132Y026660D01*
X030130Y026705D01*
X027004Y026429D02*
X027002Y026359D01*
X026997Y026288D01*
X026987Y026218D01*
X026975Y026149D01*
X026958Y026081D01*
X026938Y026013D01*
X026915Y025947D01*
X026888Y025882D01*
X026857Y025818D01*
X026824Y025756D01*
X026787Y025696D01*
X026747Y025638D01*
X026704Y025582D01*
X026658Y025528D01*
X026610Y025477D01*
X026559Y025429D01*
X026505Y025383D01*
X026449Y025340D01*
X026391Y025300D01*
X026331Y025263D01*
X026269Y025230D01*
X026205Y025199D01*
X026140Y025172D01*
X026074Y025149D01*
X026006Y025129D01*
X025938Y025112D01*
X025869Y025100D01*
X025799Y025090D01*
X025728Y025085D01*
X025658Y025083D01*
X018657Y026980D02*
X018659Y027030D01*
X018665Y027080D01*
X018675Y027129D01*
X018689Y027177D01*
X018706Y027224D01*
X018727Y027269D01*
X018752Y027313D01*
X018780Y027354D01*
X018812Y027393D01*
X018846Y027430D01*
X018883Y027464D01*
X018923Y027494D01*
X018965Y027521D01*
X019009Y027545D01*
X019055Y027566D01*
X019102Y027582D01*
X019150Y027595D01*
X019200Y027604D01*
X019249Y027609D01*
X019300Y027610D01*
X019350Y027607D01*
X019399Y027600D01*
X019448Y027589D01*
X019496Y027574D01*
X019542Y027556D01*
X019587Y027534D01*
X019630Y027508D01*
X019671Y027479D01*
X019710Y027447D01*
X019746Y027412D01*
X019778Y027374D01*
X019808Y027334D01*
X019835Y027291D01*
X019858Y027247D01*
X019877Y027201D01*
X019893Y027153D01*
X019905Y027104D01*
X019913Y027055D01*
X019917Y027005D01*
X019917Y026955D01*
X019913Y026905D01*
X019905Y026856D01*
X019893Y026807D01*
X019877Y026759D01*
X019858Y026713D01*
X019835Y026669D01*
X019808Y026626D01*
X019778Y026586D01*
X019746Y026548D01*
X019710Y026513D01*
X019671Y026481D01*
X019630Y026452D01*
X019587Y026426D01*
X019542Y026404D01*
X019496Y026386D01*
X019448Y026371D01*
X019399Y026360D01*
X019350Y026353D01*
X019300Y026350D01*
X019249Y026351D01*
X019200Y026356D01*
X019150Y026365D01*
X019102Y026378D01*
X019055Y026394D01*
X019009Y026415D01*
X018965Y026439D01*
X018923Y026466D01*
X018883Y026496D01*
X018846Y026530D01*
X018812Y026567D01*
X018780Y026606D01*
X018752Y026647D01*
X018727Y026691D01*
X018706Y026736D01*
X018689Y026783D01*
X018675Y026831D01*
X018665Y026880D01*
X018659Y026930D01*
X018657Y026980D01*
X002571Y026705D02*
X002573Y026750D01*
X002579Y026794D01*
X002588Y026838D01*
X002602Y026880D01*
X002619Y026921D01*
X002640Y026961D01*
X002664Y026999D01*
X002691Y027034D01*
X002721Y027067D01*
X002754Y027097D01*
X002789Y027124D01*
X002827Y027148D01*
X002867Y027169D01*
X002908Y027186D01*
X002950Y027200D01*
X002994Y027209D01*
X003038Y027215D01*
X003083Y027217D01*
X003128Y027215D01*
X003172Y027209D01*
X003216Y027200D01*
X003258Y027186D01*
X003299Y027169D01*
X003339Y027148D01*
X003377Y027124D01*
X003412Y027097D01*
X003445Y027067D01*
X003475Y027034D01*
X003502Y026999D01*
X003526Y026961D01*
X003547Y026921D01*
X003564Y026880D01*
X003578Y026838D01*
X003587Y026794D01*
X003593Y026750D01*
X003595Y026705D01*
X003593Y026660D01*
X003587Y026616D01*
X003578Y026572D01*
X003564Y026530D01*
X003547Y026489D01*
X003526Y026449D01*
X003502Y026411D01*
X003475Y026376D01*
X003445Y026343D01*
X003412Y026313D01*
X003377Y026286D01*
X003339Y026262D01*
X003299Y026241D01*
X003258Y026224D01*
X003216Y026210D01*
X003172Y026201D01*
X003128Y026195D01*
X003083Y026193D01*
X003038Y026195D01*
X002994Y026201D01*
X002950Y026210D01*
X002908Y026224D01*
X002867Y026241D01*
X002827Y026262D01*
X002789Y026286D01*
X002754Y026313D01*
X002721Y026343D01*
X002691Y026376D01*
X002664Y026411D01*
X002640Y026449D01*
X002619Y026489D01*
X002602Y026530D01*
X002588Y026572D01*
X002579Y026616D01*
X002573Y026660D01*
X002571Y026705D01*
X000591Y026980D02*
X000593Y027030D01*
X000599Y027080D01*
X000609Y027129D01*
X000623Y027177D01*
X000640Y027224D01*
X000661Y027269D01*
X000686Y027313D01*
X000714Y027354D01*
X000746Y027393D01*
X000780Y027430D01*
X000817Y027464D01*
X000857Y027494D01*
X000899Y027521D01*
X000943Y027545D01*
X000989Y027566D01*
X001036Y027582D01*
X001084Y027595D01*
X001134Y027604D01*
X001183Y027609D01*
X001234Y027610D01*
X001284Y027607D01*
X001333Y027600D01*
X001382Y027589D01*
X001430Y027574D01*
X001476Y027556D01*
X001521Y027534D01*
X001564Y027508D01*
X001605Y027479D01*
X001644Y027447D01*
X001680Y027412D01*
X001712Y027374D01*
X001742Y027334D01*
X001769Y027291D01*
X001792Y027247D01*
X001811Y027201D01*
X001827Y027153D01*
X001839Y027104D01*
X001847Y027055D01*
X001851Y027005D01*
X001851Y026955D01*
X001847Y026905D01*
X001839Y026856D01*
X001827Y026807D01*
X001811Y026759D01*
X001792Y026713D01*
X001769Y026669D01*
X001742Y026626D01*
X001712Y026586D01*
X001680Y026548D01*
X001644Y026513D01*
X001605Y026481D01*
X001564Y026452D01*
X001521Y026426D01*
X001476Y026404D01*
X001430Y026386D01*
X001382Y026371D01*
X001333Y026360D01*
X001284Y026353D01*
X001234Y026350D01*
X001183Y026351D01*
X001134Y026356D01*
X001084Y026365D01*
X001036Y026378D01*
X000989Y026394D01*
X000943Y026415D01*
X000899Y026439D01*
X000857Y026466D01*
X000817Y026496D01*
X000780Y026530D01*
X000746Y026567D01*
X000714Y026606D01*
X000686Y026647D01*
X000661Y026691D01*
X000640Y026736D01*
X000623Y026783D01*
X000609Y026831D01*
X000599Y026880D01*
X000593Y026930D01*
X000591Y026980D01*
M02*
