G75*
G70*
%OFA0B0*%
%FSLAX24Y24*%
%IPPOS*%
%LPD*%
%AMOC8*
5,1,8,0,0,1.08239X$1,22.5*
%
%ADD10C,0.1300*%
%ADD11R,0.0473X0.0434*%
%ADD12R,0.0465X0.0453*%
%ADD13R,0.0453X0.0465*%
%ADD14R,0.0330X0.1140*%
%ADD15R,0.0316X0.0335*%
%ADD16R,0.0434X0.0473*%
%ADD17C,0.0808*%
%ADD18C,0.0660*%
%ADD19R,0.0394X0.0158*%
%ADD20R,0.0158X0.0394*%
%ADD21R,0.1300X0.0591*%
%ADD22R,0.0540X0.0619*%
%ADD23R,0.0512X0.0355*%
%ADD24R,0.0138X0.0434*%
%ADD25R,0.0906X0.0375*%
%ADD26R,0.0453X0.0434*%
%ADD27R,0.0316X0.0158*%
%ADD28C,0.0640*%
%ADD29R,0.0158X0.0316*%
%ADD30C,0.0780*%
%ADD31R,0.0512X0.0257*%
%ADD32R,0.0355X0.0512*%
%ADD33C,0.0555*%
%ADD34R,0.0591X0.0434*%
%ADD35C,0.0000*%
%ADD36C,0.0001*%
D10*
X004721Y002276D03*
X022787Y002276D03*
X034654Y005563D03*
X034654Y023693D03*
X022787Y026980D03*
X004721Y026980D03*
D11*
X015995Y014330D03*
X016665Y014330D03*
X026595Y011630D03*
X027265Y011630D03*
X027265Y010830D03*
X026595Y010830D03*
X026595Y010030D03*
X027265Y010030D03*
X027265Y009230D03*
X026595Y009230D03*
X035895Y009330D03*
X036565Y009330D03*
X036565Y010130D03*
X035895Y010130D03*
X028465Y016630D03*
X027795Y016630D03*
X027795Y017430D03*
X028465Y017430D03*
X028465Y018230D03*
X027795Y018230D03*
X027795Y019030D03*
X028465Y019030D03*
X028295Y022130D03*
X028965Y022130D03*
X028965Y023130D03*
X028295Y023130D03*
X028295Y024130D03*
X028965Y024130D03*
D12*
X022630Y020224D03*
X022130Y020224D03*
X022130Y019536D03*
X022630Y019536D03*
X022380Y011524D03*
X021880Y011524D03*
X021880Y010836D03*
X022380Y010836D03*
D13*
G36*
X025132Y012301D02*
X024813Y012620D01*
X025140Y012947D01*
X025459Y012628D01*
X025132Y012301D01*
G37*
G36*
X025620Y011813D02*
X025301Y012132D01*
X025628Y012459D01*
X025947Y012140D01*
X025620Y011813D01*
G37*
X025786Y015255D03*
X026474Y015255D03*
X027036Y015255D03*
X027036Y015755D03*
X027724Y015755D03*
X027724Y015255D03*
G36*
X025459Y018632D02*
X025140Y018313D01*
X024813Y018640D01*
X025132Y018959D01*
X025459Y018632D01*
G37*
G36*
X025947Y019120D02*
X025628Y018801D01*
X025301Y019128D01*
X025620Y019447D01*
X025947Y019120D01*
G37*
G36*
X019128Y018959D02*
X019447Y018640D01*
X019120Y018313D01*
X018801Y018632D01*
X019128Y018959D01*
G37*
G36*
X018640Y019447D02*
X018959Y019128D01*
X018632Y018801D01*
X018313Y019120D01*
X018640Y019447D01*
G37*
X011974Y016130D03*
X011286Y016130D03*
X011286Y014130D03*
X011974Y014130D03*
X011974Y013130D03*
X011286Y013130D03*
X011286Y011130D03*
X011974Y011130D03*
X011974Y009130D03*
X011286Y009130D03*
X011286Y008130D03*
X011974Y008130D03*
X011974Y007130D03*
X011286Y007130D03*
X011286Y006130D03*
X011974Y006130D03*
X011974Y005130D03*
X011286Y005130D03*
X015783Y004510D03*
X016472Y004510D03*
G36*
X018313Y012140D02*
X018632Y012459D01*
X018959Y012132D01*
X018640Y011813D01*
X018313Y012140D01*
G37*
G36*
X018801Y012628D02*
X019120Y012947D01*
X019447Y012620D01*
X019128Y012301D01*
X018801Y012628D01*
G37*
D14*
X017160Y007440D03*
X016660Y007440D03*
X016160Y007440D03*
X015660Y007440D03*
X015160Y007440D03*
X015160Y005940D03*
X015660Y005940D03*
X016160Y005940D03*
X016660Y005940D03*
X017160Y005940D03*
D15*
X023033Y010664D03*
X023427Y010664D03*
X023427Y011196D03*
X023033Y011196D03*
D16*
X022830Y010165D03*
X022830Y009495D03*
X023630Y009495D03*
X023630Y010165D03*
X020230Y008365D03*
X020230Y007695D03*
X019430Y007695D03*
X019430Y008365D03*
X018630Y008365D03*
X018630Y007695D03*
X016630Y018295D03*
X016630Y018965D03*
X014230Y018965D03*
X014230Y018295D03*
D17*
X038630Y011012D03*
X038630Y008256D03*
D18*
X037567Y008650D03*
X037567Y010618D03*
D19*
X025299Y013268D03*
X025299Y013465D03*
X025299Y013661D03*
X025299Y013858D03*
X025299Y014055D03*
X025299Y014252D03*
X025299Y014449D03*
X025299Y014646D03*
X025299Y014843D03*
X025299Y015039D03*
X025299Y015236D03*
X025299Y015433D03*
X025299Y015630D03*
X025299Y015827D03*
X025299Y016024D03*
X025299Y016221D03*
X025299Y016417D03*
X025299Y016614D03*
X025299Y016811D03*
X025299Y017008D03*
X025299Y017205D03*
X025299Y017402D03*
X025299Y017599D03*
X025299Y017795D03*
X025299Y017992D03*
X018961Y017992D03*
X018961Y017795D03*
X018961Y017599D03*
X018961Y017402D03*
X018961Y017205D03*
X018961Y017008D03*
X018961Y016811D03*
X018961Y016614D03*
X018961Y016417D03*
X018961Y016221D03*
X018961Y016024D03*
X018961Y015827D03*
X018961Y015630D03*
X018961Y015433D03*
X018961Y015236D03*
X018961Y015039D03*
X018961Y014843D03*
X018961Y014646D03*
X018961Y014449D03*
X018961Y014252D03*
X018961Y014055D03*
X018961Y013858D03*
X018961Y013661D03*
X018961Y013465D03*
X018961Y013268D03*
D20*
X019768Y012461D03*
X019965Y012461D03*
X020161Y012461D03*
X020358Y012461D03*
X020555Y012461D03*
X020752Y012461D03*
X020949Y012461D03*
X021146Y012461D03*
X021343Y012461D03*
X021539Y012461D03*
X021736Y012461D03*
X021933Y012461D03*
X022130Y012461D03*
X022327Y012461D03*
X022524Y012461D03*
X022721Y012461D03*
X022917Y012461D03*
X023114Y012461D03*
X023311Y012461D03*
X023508Y012461D03*
X023705Y012461D03*
X023902Y012461D03*
X024099Y012461D03*
X024295Y012461D03*
X024492Y012461D03*
X024492Y018799D03*
X024295Y018799D03*
X024099Y018799D03*
X023902Y018799D03*
X023705Y018799D03*
X023508Y018799D03*
X023311Y018799D03*
X023114Y018799D03*
X022917Y018799D03*
X022721Y018799D03*
X022524Y018799D03*
X022327Y018799D03*
X022130Y018799D03*
X021933Y018799D03*
X021736Y018799D03*
X021539Y018799D03*
X021343Y018799D03*
X021146Y018799D03*
X020949Y018799D03*
X020752Y018799D03*
X020555Y018799D03*
X020358Y018799D03*
X020161Y018799D03*
X019965Y018799D03*
X019768Y018799D03*
D21*
X017755Y016130D03*
X017755Y015343D03*
D22*
X016626Y016755D03*
X014934Y016755D03*
D23*
X024380Y010109D03*
X024380Y009401D03*
D24*
X025236Y009598D03*
X025433Y009598D03*
X025630Y009598D03*
X025827Y009598D03*
X026024Y009598D03*
X026024Y011262D03*
X025827Y011262D03*
X025630Y011262D03*
X025433Y011262D03*
X025236Y011262D03*
X026455Y016971D03*
X026652Y016971D03*
X026849Y016971D03*
X027046Y016971D03*
X027243Y016971D03*
X027243Y018634D03*
X027046Y018634D03*
X026849Y018634D03*
X026652Y018634D03*
X026455Y018634D03*
D25*
X029587Y017900D03*
X029587Y016817D03*
X029630Y014171D03*
X029630Y013089D03*
D26*
X029030Y013630D03*
X030230Y013630D03*
X030187Y017358D03*
X028986Y017358D03*
D27*
X029317Y015549D03*
X029317Y015293D03*
X029317Y015037D03*
X029947Y015037D03*
X029947Y015293D03*
X029947Y015549D03*
D28*
X035330Y015134D02*
X035930Y015134D01*
X035930Y014134D02*
X035330Y014134D01*
X035330Y013134D02*
X035930Y013134D01*
X035930Y016134D02*
X035330Y016134D01*
X035330Y017134D02*
X035930Y017134D01*
X035930Y018134D02*
X035330Y018134D01*
X035330Y019134D02*
X035930Y019134D01*
X035930Y020134D02*
X035330Y020134D01*
X035330Y021134D02*
X035930Y021134D01*
D29*
X034386Y018945D03*
X034130Y018945D03*
X033874Y018945D03*
X033874Y018315D03*
X034130Y018315D03*
X034386Y018315D03*
X034386Y014945D03*
X034130Y014945D03*
X033874Y014945D03*
X033874Y014315D03*
X034130Y014315D03*
X034386Y014315D03*
X035974Y011445D03*
X036230Y011445D03*
X036486Y011445D03*
X036486Y010815D03*
X036230Y010815D03*
X035974Y010815D03*
D30*
X033020Y022350D03*
X031240Y022350D03*
X031240Y024910D03*
X033020Y024910D03*
X001130Y014630D03*
X001130Y013630D03*
D31*
X014952Y018284D03*
X014952Y018658D03*
X014952Y019032D03*
X015976Y019032D03*
X015976Y018284D03*
D32*
X015976Y015730D03*
X016684Y015730D03*
X016684Y015030D03*
X015976Y015030D03*
D33*
X013387Y015130D02*
X012873Y015130D01*
X012873Y014130D02*
X013387Y014130D01*
X013387Y013130D02*
X012873Y013130D01*
X012873Y012130D02*
X013387Y012130D01*
X013387Y011130D02*
X012873Y011130D01*
X012873Y010130D02*
X013387Y010130D01*
X013387Y009130D02*
X012873Y009130D01*
X012873Y008130D02*
X013387Y008130D01*
X013387Y007130D02*
X012873Y007130D01*
X012873Y006130D02*
X013387Y006130D01*
X013387Y005130D02*
X012873Y005130D01*
X012873Y016130D02*
X013387Y016130D01*
X013387Y017130D02*
X012873Y017130D01*
X012873Y018130D02*
X013387Y018130D01*
X013387Y019130D02*
X012873Y019130D01*
X012873Y020130D02*
X013387Y020130D01*
X013387Y021130D02*
X012873Y021130D01*
X012873Y022130D02*
X013387Y022130D01*
X013387Y023130D02*
X012873Y023130D01*
X012873Y024130D02*
X013387Y024130D01*
X029873Y024130D02*
X030387Y024130D01*
X030387Y023130D02*
X029873Y023130D01*
X029873Y022130D02*
X030387Y022130D01*
X030387Y007130D02*
X029873Y007130D01*
X029873Y006130D02*
X030387Y006130D01*
X030387Y005130D02*
X029873Y005130D01*
D34*
X029063Y005130D03*
X028197Y004756D03*
X028197Y005504D03*
D35*
X005435Y014394D02*
X005435Y014772D01*
X005435Y014819D01*
X005396Y014835D01*
X005352Y014850D01*
X005309Y014866D01*
X005266Y014882D01*
X005223Y014898D01*
X005179Y014913D01*
X005140Y014929D01*
X005100Y014913D01*
X005065Y014898D01*
X005026Y014878D01*
X005026Y014335D01*
X005065Y014319D01*
X005100Y014303D01*
X005140Y014284D01*
X005179Y014299D01*
X005223Y014315D01*
X005266Y014331D01*
X005309Y014347D01*
X005352Y014362D01*
X005396Y014378D01*
X005435Y014394D01*
D36*
X005026Y014394D01*
X005026Y014395D02*
X005435Y014395D01*
X005435Y014396D02*
X005026Y014396D01*
X005026Y014397D02*
X005435Y014397D01*
X005435Y014398D02*
X005026Y014398D01*
X005026Y014399D02*
X005435Y014399D01*
X005435Y014400D02*
X005026Y014400D01*
X005026Y014401D02*
X005435Y014401D01*
X005435Y014402D02*
X005026Y014402D01*
X005026Y014403D02*
X005435Y014403D01*
X005435Y014404D02*
X005026Y014404D01*
X005026Y014405D02*
X005435Y014405D01*
X005435Y014406D02*
X005026Y014406D01*
X005026Y014407D02*
X005435Y014407D01*
X005435Y014408D02*
X005026Y014408D01*
X005026Y014409D02*
X005435Y014409D01*
X005435Y014410D02*
X005026Y014410D01*
X005026Y014411D02*
X005435Y014411D01*
X005435Y014412D02*
X005026Y014412D01*
X005026Y014413D02*
X005435Y014413D01*
X005435Y014414D02*
X005026Y014414D01*
X005026Y014415D02*
X005435Y014415D01*
X005435Y014416D02*
X005026Y014416D01*
X005026Y014417D02*
X005435Y014417D01*
X005435Y014418D02*
X005026Y014418D01*
X005026Y014419D02*
X005435Y014419D01*
X005435Y014420D02*
X005026Y014420D01*
X005026Y014421D02*
X005435Y014421D01*
X005435Y014422D02*
X005026Y014422D01*
X005026Y014423D02*
X005435Y014423D01*
X005435Y014424D02*
X005026Y014424D01*
X005026Y014425D02*
X005435Y014425D01*
X005435Y014426D02*
X005026Y014426D01*
X005026Y014427D02*
X005435Y014427D01*
X005435Y014428D02*
X005026Y014428D01*
X005026Y014429D02*
X005435Y014429D01*
X005435Y014430D02*
X005026Y014430D01*
X005026Y014431D02*
X005435Y014431D01*
X005435Y014432D02*
X005026Y014432D01*
X005026Y014433D02*
X005435Y014433D01*
X005435Y014434D02*
X005026Y014434D01*
X005026Y014435D02*
X005435Y014435D01*
X005435Y014436D02*
X005026Y014436D01*
X005026Y014437D02*
X005435Y014437D01*
X005435Y014438D02*
X005026Y014438D01*
X005026Y014439D02*
X005435Y014439D01*
X005435Y014440D02*
X005026Y014440D01*
X005026Y014441D02*
X005435Y014441D01*
X005435Y014442D02*
X005026Y014442D01*
X005026Y014443D02*
X005435Y014443D01*
X005435Y014444D02*
X005026Y014444D01*
X005026Y014445D02*
X005435Y014445D01*
X005435Y014446D02*
X005026Y014446D01*
X005026Y014447D02*
X005435Y014447D01*
X005435Y014448D02*
X005026Y014448D01*
X005026Y014449D02*
X005435Y014449D01*
X005435Y014450D02*
X005026Y014450D01*
X005026Y014451D02*
X005435Y014451D01*
X005435Y014452D02*
X005026Y014452D01*
X005026Y014453D02*
X005435Y014453D01*
X005435Y014454D02*
X005026Y014454D01*
X005026Y014455D02*
X005435Y014455D01*
X005435Y014456D02*
X005026Y014456D01*
X005026Y014457D02*
X005435Y014457D01*
X005435Y014458D02*
X005026Y014458D01*
X005026Y014459D02*
X005435Y014459D01*
X005435Y014460D02*
X005026Y014460D01*
X005026Y014461D02*
X005435Y014461D01*
X005435Y014462D02*
X005026Y014462D01*
X005026Y014463D02*
X005435Y014463D01*
X005435Y014464D02*
X005026Y014464D01*
X005026Y014465D02*
X005435Y014465D01*
X005435Y014466D02*
X005026Y014466D01*
X005026Y014467D02*
X005435Y014467D01*
X005435Y014468D02*
X005026Y014468D01*
X005026Y014469D02*
X005435Y014469D01*
X005435Y014470D02*
X005026Y014470D01*
X005026Y014471D02*
X005435Y014471D01*
X005435Y014472D02*
X005026Y014472D01*
X005026Y014473D02*
X005435Y014473D01*
X005435Y014474D02*
X005026Y014474D01*
X005026Y014475D02*
X005435Y014475D01*
X005435Y014476D02*
X005026Y014476D01*
X005026Y014477D02*
X005435Y014477D01*
X005435Y014478D02*
X005026Y014478D01*
X005026Y014479D02*
X005435Y014479D01*
X005435Y014480D02*
X005026Y014480D01*
X005026Y014481D02*
X005435Y014481D01*
X005435Y014482D02*
X005026Y014482D01*
X005026Y014483D02*
X005435Y014483D01*
X005435Y014484D02*
X005026Y014484D01*
X005026Y014485D02*
X005435Y014485D01*
X005435Y014486D02*
X005026Y014486D01*
X005026Y014487D02*
X005435Y014487D01*
X005435Y014488D02*
X005026Y014488D01*
X005026Y014489D02*
X005435Y014489D01*
X005435Y014490D02*
X005026Y014490D01*
X005026Y014491D02*
X005435Y014491D01*
X005435Y014492D02*
X005026Y014492D01*
X005026Y014493D02*
X005435Y014493D01*
X005435Y014494D02*
X005026Y014494D01*
X005026Y014495D02*
X005435Y014495D01*
X005435Y014496D02*
X005026Y014496D01*
X005026Y014497D02*
X005435Y014497D01*
X005435Y014498D02*
X005026Y014498D01*
X005026Y014499D02*
X005435Y014499D01*
X005435Y014500D02*
X005026Y014500D01*
X005026Y014501D02*
X005435Y014501D01*
X005435Y014502D02*
X005026Y014502D01*
X005026Y014503D02*
X005435Y014503D01*
X005435Y014504D02*
X005026Y014504D01*
X005026Y014505D02*
X005435Y014505D01*
X005435Y014506D02*
X005026Y014506D01*
X005026Y014507D02*
X005435Y014507D01*
X005435Y014508D02*
X005026Y014508D01*
X005026Y014509D02*
X005435Y014509D01*
X005435Y014510D02*
X005026Y014510D01*
X005026Y014511D02*
X005435Y014511D01*
X005435Y014512D02*
X005026Y014512D01*
X005026Y014513D02*
X005435Y014513D01*
X005435Y014514D02*
X005026Y014514D01*
X005026Y014515D02*
X005435Y014515D01*
X005435Y014516D02*
X005026Y014516D01*
X005026Y014517D02*
X005435Y014517D01*
X005435Y014518D02*
X005026Y014518D01*
X005026Y014519D02*
X005435Y014519D01*
X005435Y014520D02*
X005026Y014520D01*
X005026Y014521D02*
X005435Y014521D01*
X005435Y014522D02*
X005026Y014522D01*
X005026Y014523D02*
X005435Y014523D01*
X005435Y014524D02*
X005026Y014524D01*
X005026Y014525D02*
X005435Y014525D01*
X005435Y014526D02*
X005026Y014526D01*
X005026Y014527D02*
X005435Y014527D01*
X005435Y014528D02*
X005026Y014528D01*
X005026Y014529D02*
X005435Y014529D01*
X005435Y014530D02*
X005026Y014530D01*
X005026Y014531D02*
X005435Y014531D01*
X005435Y014532D02*
X005026Y014532D01*
X005026Y014533D02*
X005435Y014533D01*
X005435Y014534D02*
X005026Y014534D01*
X005026Y014535D02*
X005435Y014535D01*
X005435Y014536D02*
X005026Y014536D01*
X005026Y014537D02*
X005435Y014537D01*
X005435Y014538D02*
X005026Y014538D01*
X005026Y014539D02*
X005435Y014539D01*
X005435Y014540D02*
X005026Y014540D01*
X005026Y014541D02*
X005435Y014541D01*
X005435Y014542D02*
X005026Y014542D01*
X005026Y014543D02*
X005435Y014543D01*
X005435Y014544D02*
X005026Y014544D01*
X005026Y014545D02*
X005435Y014545D01*
X005435Y014546D02*
X005026Y014546D01*
X005026Y014547D02*
X005435Y014547D01*
X005435Y014548D02*
X005026Y014548D01*
X005026Y014549D02*
X005435Y014549D01*
X005435Y014550D02*
X005026Y014550D01*
X005026Y014551D02*
X005435Y014551D01*
X005435Y014552D02*
X005026Y014552D01*
X005026Y014553D02*
X005435Y014553D01*
X005435Y014554D02*
X005026Y014554D01*
X005026Y014555D02*
X005435Y014555D01*
X005435Y014556D02*
X005026Y014556D01*
X005026Y014557D02*
X005435Y014557D01*
X005435Y014558D02*
X005026Y014558D01*
X005026Y014559D02*
X005435Y014559D01*
X005435Y014560D02*
X005026Y014560D01*
X005026Y014561D02*
X005435Y014561D01*
X005435Y014562D02*
X005026Y014562D01*
X005026Y014563D02*
X005435Y014563D01*
X005435Y014564D02*
X005026Y014564D01*
X005026Y014565D02*
X005435Y014565D01*
X005435Y014566D02*
X005026Y014566D01*
X005026Y014567D02*
X005435Y014567D01*
X005435Y014568D02*
X005026Y014568D01*
X005026Y014569D02*
X005435Y014569D01*
X005435Y014570D02*
X005026Y014570D01*
X005026Y014571D02*
X005435Y014571D01*
X005435Y014572D02*
X005026Y014572D01*
X005026Y014573D02*
X005435Y014573D01*
X005435Y014574D02*
X005026Y014574D01*
X005026Y014575D02*
X005435Y014575D01*
X005435Y014576D02*
X005026Y014576D01*
X005026Y014577D02*
X005435Y014577D01*
X005435Y014578D02*
X005026Y014578D01*
X005026Y014579D02*
X005435Y014579D01*
X005435Y014580D02*
X005026Y014580D01*
X005026Y014581D02*
X005435Y014581D01*
X005435Y014582D02*
X005026Y014582D01*
X005026Y014583D02*
X005435Y014583D01*
X005435Y014584D02*
X005026Y014584D01*
X005026Y014585D02*
X005435Y014585D01*
X005435Y014586D02*
X005026Y014586D01*
X005026Y014587D02*
X005435Y014587D01*
X005435Y014588D02*
X005026Y014588D01*
X005026Y014589D02*
X005435Y014589D01*
X005435Y014590D02*
X005026Y014590D01*
X005026Y014591D02*
X005435Y014591D01*
X005435Y014592D02*
X005026Y014592D01*
X005026Y014593D02*
X005435Y014593D01*
X005435Y014594D02*
X005026Y014594D01*
X005026Y014595D02*
X005435Y014595D01*
X005435Y014596D02*
X005026Y014596D01*
X005026Y014597D02*
X005435Y014597D01*
X005435Y014598D02*
X005026Y014598D01*
X005026Y014599D02*
X005435Y014599D01*
X005435Y014600D02*
X005026Y014600D01*
X005026Y014601D02*
X005435Y014601D01*
X005435Y014602D02*
X005026Y014602D01*
X005026Y014603D02*
X005435Y014603D01*
X005435Y014604D02*
X005026Y014604D01*
X005026Y014605D02*
X005435Y014605D01*
X005435Y014606D02*
X005026Y014606D01*
X005026Y014607D02*
X005435Y014607D01*
X005435Y014608D02*
X005026Y014608D01*
X005026Y014609D02*
X005435Y014609D01*
X005435Y014610D02*
X005026Y014610D01*
X005026Y014611D02*
X005435Y014611D01*
X005435Y014612D02*
X005026Y014612D01*
X005026Y014613D02*
X005435Y014613D01*
X005435Y014614D02*
X005026Y014614D01*
X005026Y014615D02*
X005435Y014615D01*
X005435Y014616D02*
X005026Y014616D01*
X005026Y014617D02*
X005435Y014617D01*
X005435Y014618D02*
X005026Y014618D01*
X005026Y014619D02*
X005435Y014619D01*
X005435Y014620D02*
X005026Y014620D01*
X005026Y014621D02*
X005435Y014621D01*
X005435Y014622D02*
X005026Y014622D01*
X005026Y014623D02*
X005435Y014623D01*
X005435Y014624D02*
X005026Y014624D01*
X005026Y014625D02*
X005435Y014625D01*
X005435Y014626D02*
X005026Y014626D01*
X005026Y014627D02*
X005435Y014627D01*
X005435Y014628D02*
X005026Y014628D01*
X005026Y014629D02*
X005435Y014629D01*
X005435Y014630D02*
X005026Y014630D01*
X005026Y014631D02*
X005435Y014631D01*
X005435Y014632D02*
X005026Y014632D01*
X005026Y014633D02*
X005435Y014633D01*
X005435Y014634D02*
X005026Y014634D01*
X005026Y014635D02*
X005435Y014635D01*
X005435Y014636D02*
X005026Y014636D01*
X005026Y014637D02*
X005435Y014637D01*
X005435Y014638D02*
X005026Y014638D01*
X005026Y014639D02*
X005435Y014639D01*
X005435Y014640D02*
X005026Y014640D01*
X005026Y014641D02*
X005435Y014641D01*
X005435Y014642D02*
X005026Y014642D01*
X005026Y014643D02*
X005435Y014643D01*
X005435Y014644D02*
X005026Y014644D01*
X005026Y014645D02*
X005435Y014645D01*
X005435Y014646D02*
X005026Y014646D01*
X005026Y014647D02*
X005435Y014647D01*
X005435Y014648D02*
X005026Y014648D01*
X005026Y014649D02*
X005435Y014649D01*
X005435Y014650D02*
X005026Y014650D01*
X005026Y014651D02*
X005435Y014651D01*
X005435Y014652D02*
X005026Y014652D01*
X005026Y014653D02*
X005435Y014653D01*
X005435Y014654D02*
X005026Y014654D01*
X005026Y014655D02*
X005435Y014655D01*
X005435Y014656D02*
X005026Y014656D01*
X005026Y014657D02*
X005435Y014657D01*
X005435Y014658D02*
X005026Y014658D01*
X005026Y014659D02*
X005435Y014659D01*
X005435Y014660D02*
X005026Y014660D01*
X005026Y014661D02*
X005435Y014661D01*
X005435Y014662D02*
X005026Y014662D01*
X005026Y014663D02*
X005435Y014663D01*
X005435Y014664D02*
X005026Y014664D01*
X005026Y014665D02*
X005435Y014665D01*
X005435Y014666D02*
X005026Y014666D01*
X005026Y014667D02*
X005435Y014667D01*
X005435Y014668D02*
X005026Y014668D01*
X005026Y014669D02*
X005435Y014669D01*
X005435Y014670D02*
X005026Y014670D01*
X005026Y014671D02*
X005435Y014671D01*
X005435Y014672D02*
X005026Y014672D01*
X005026Y014673D02*
X005435Y014673D01*
X005435Y014674D02*
X005026Y014674D01*
X005026Y014675D02*
X005435Y014675D01*
X005435Y014676D02*
X005026Y014676D01*
X005026Y014677D02*
X005435Y014677D01*
X005435Y014678D02*
X005026Y014678D01*
X005026Y014679D02*
X005435Y014679D01*
X005435Y014680D02*
X005026Y014680D01*
X005026Y014681D02*
X005435Y014681D01*
X005435Y014682D02*
X005026Y014682D01*
X005026Y014683D02*
X005435Y014683D01*
X005435Y014684D02*
X005026Y014684D01*
X005026Y014685D02*
X005435Y014685D01*
X005435Y014686D02*
X005026Y014686D01*
X005026Y014687D02*
X005435Y014687D01*
X005435Y014688D02*
X005026Y014688D01*
X005026Y014689D02*
X005435Y014689D01*
X005435Y014690D02*
X005026Y014690D01*
X005026Y014691D02*
X005435Y014691D01*
X005435Y014692D02*
X005026Y014692D01*
X005026Y014693D02*
X005435Y014693D01*
X005435Y014694D02*
X005026Y014694D01*
X005026Y014695D02*
X005435Y014695D01*
X005435Y014696D02*
X005026Y014696D01*
X005026Y014697D02*
X005435Y014697D01*
X005435Y014698D02*
X005026Y014698D01*
X005026Y014699D02*
X005435Y014699D01*
X005435Y014700D02*
X005026Y014700D01*
X005026Y014701D02*
X005435Y014701D01*
X005435Y014702D02*
X005026Y014702D01*
X005026Y014703D02*
X005435Y014703D01*
X005435Y014704D02*
X005026Y014704D01*
X005026Y014705D02*
X005435Y014705D01*
X005435Y014706D02*
X005026Y014706D01*
X005026Y014707D02*
X005435Y014707D01*
X005435Y014708D02*
X005026Y014708D01*
X005026Y014709D02*
X005435Y014709D01*
X005435Y014710D02*
X005026Y014710D01*
X005026Y014711D02*
X005435Y014711D01*
X005435Y014712D02*
X005026Y014712D01*
X005026Y014713D02*
X005435Y014713D01*
X005435Y014714D02*
X005026Y014714D01*
X005026Y014715D02*
X005435Y014715D01*
X005435Y014716D02*
X005026Y014716D01*
X005026Y014717D02*
X005435Y014717D01*
X005435Y014718D02*
X005026Y014718D01*
X005026Y014719D02*
X005435Y014719D01*
X005435Y014720D02*
X005026Y014720D01*
X005026Y014721D02*
X005435Y014721D01*
X005435Y014722D02*
X005026Y014722D01*
X005026Y014723D02*
X005435Y014723D01*
X005435Y014724D02*
X005026Y014724D01*
X005026Y014725D02*
X005435Y014725D01*
X005435Y014726D02*
X005026Y014726D01*
X005026Y014727D02*
X005435Y014727D01*
X005435Y014728D02*
X005026Y014728D01*
X005026Y014729D02*
X005435Y014729D01*
X005435Y014730D02*
X005026Y014730D01*
X005026Y014731D02*
X005435Y014731D01*
X005435Y014732D02*
X005026Y014732D01*
X005026Y014733D02*
X005435Y014733D01*
X005435Y014734D02*
X005026Y014734D01*
X005026Y014735D02*
X005435Y014735D01*
X005435Y014736D02*
X005026Y014736D01*
X005026Y014737D02*
X005435Y014737D01*
X005435Y014738D02*
X005026Y014738D01*
X005026Y014739D02*
X005435Y014739D01*
X005435Y014740D02*
X005026Y014740D01*
X005026Y014741D02*
X005435Y014741D01*
X005435Y014742D02*
X005026Y014742D01*
X005026Y014743D02*
X005435Y014743D01*
X005435Y014744D02*
X005026Y014744D01*
X005026Y014745D02*
X005435Y014745D01*
X005435Y014746D02*
X005026Y014746D01*
X005026Y014747D02*
X005435Y014747D01*
X005435Y014748D02*
X005026Y014748D01*
X005026Y014749D02*
X005435Y014749D01*
X005435Y014750D02*
X005026Y014750D01*
X005026Y014751D02*
X005435Y014751D01*
X005435Y014752D02*
X005026Y014752D01*
X005026Y014753D02*
X005435Y014753D01*
X005435Y014754D02*
X005026Y014754D01*
X005026Y014755D02*
X005435Y014755D01*
X005435Y014756D02*
X005026Y014756D01*
X005026Y014757D02*
X005435Y014757D01*
X005435Y014758D02*
X005026Y014758D01*
X005026Y014759D02*
X005435Y014759D01*
X005435Y014760D02*
X005026Y014760D01*
X005026Y014761D02*
X005435Y014761D01*
X005435Y014762D02*
X005026Y014762D01*
X005026Y014763D02*
X005435Y014763D01*
X005435Y014764D02*
X005026Y014764D01*
X005026Y014765D02*
X005435Y014765D01*
X005435Y014766D02*
X005026Y014766D01*
X005026Y014767D02*
X005435Y014767D01*
X005435Y014768D02*
X005026Y014768D01*
X005026Y014769D02*
X005435Y014769D01*
X005435Y014770D02*
X005026Y014770D01*
X005026Y014771D02*
X005435Y014771D01*
X005435Y014772D02*
X005026Y014772D01*
X005026Y014773D02*
X005435Y014773D01*
X005435Y014774D02*
X005026Y014774D01*
X005026Y014775D02*
X005435Y014775D01*
X005435Y014776D02*
X005026Y014776D01*
X005026Y014777D02*
X005435Y014777D01*
X005435Y014778D02*
X005026Y014778D01*
X005026Y014779D02*
X005435Y014779D01*
X005435Y014780D02*
X005026Y014780D01*
X005026Y014781D02*
X005435Y014781D01*
X005435Y014782D02*
X005026Y014782D01*
X005026Y014783D02*
X005435Y014783D01*
X005435Y014784D02*
X005026Y014784D01*
X005026Y014785D02*
X005435Y014785D01*
X005435Y014786D02*
X005026Y014786D01*
X005026Y014787D02*
X005435Y014787D01*
X005435Y014788D02*
X005026Y014788D01*
X005026Y014789D02*
X005435Y014789D01*
X005435Y014790D02*
X005026Y014790D01*
X005026Y014791D02*
X005435Y014791D01*
X005435Y014792D02*
X005026Y014792D01*
X005026Y014793D02*
X005435Y014793D01*
X005435Y014794D02*
X005026Y014794D01*
X005026Y014795D02*
X005435Y014795D01*
X005435Y014796D02*
X005026Y014796D01*
X005026Y014797D02*
X005435Y014797D01*
X005435Y014798D02*
X005026Y014798D01*
X005026Y014799D02*
X005435Y014799D01*
X005435Y014800D02*
X005026Y014800D01*
X005026Y014801D02*
X005435Y014801D01*
X005435Y014802D02*
X005026Y014802D01*
X005026Y014803D02*
X005435Y014803D01*
X005435Y014804D02*
X005026Y014804D01*
X005026Y014805D02*
X005435Y014805D01*
X005435Y014806D02*
X005026Y014806D01*
X005026Y014807D02*
X005435Y014807D01*
X005435Y014808D02*
X005026Y014808D01*
X005026Y014809D02*
X005435Y014809D01*
X005435Y014810D02*
X005026Y014810D01*
X005026Y014811D02*
X005435Y014811D01*
X005435Y014812D02*
X005026Y014812D01*
X005026Y014813D02*
X005435Y014813D01*
X005435Y014814D02*
X005026Y014814D01*
X005026Y014815D02*
X005435Y014815D01*
X005435Y014816D02*
X005026Y014816D01*
X005026Y014817D02*
X005435Y014817D01*
X005435Y014818D02*
X005026Y014818D01*
X005026Y014819D02*
X005435Y014819D01*
X005434Y014820D02*
X005026Y014820D01*
X005026Y014821D02*
X005431Y014821D01*
X005429Y014822D02*
X005026Y014822D01*
X005026Y014823D02*
X005426Y014823D01*
X005424Y014824D02*
X005026Y014824D01*
X005026Y014825D02*
X005421Y014825D01*
X005419Y014826D02*
X005026Y014826D01*
X005026Y014827D02*
X005416Y014827D01*
X005414Y014828D02*
X005026Y014828D01*
X005026Y014829D02*
X005411Y014829D01*
X005409Y014830D02*
X005026Y014830D01*
X005026Y014831D02*
X005406Y014831D01*
X005404Y014832D02*
X005026Y014832D01*
X005026Y014833D02*
X005401Y014833D01*
X005399Y014834D02*
X005026Y014834D01*
X005026Y014835D02*
X005396Y014835D01*
X005394Y014836D02*
X005026Y014836D01*
X005026Y014837D02*
X005391Y014837D01*
X005388Y014838D02*
X005026Y014838D01*
X005026Y014839D02*
X005385Y014839D01*
X005383Y014840D02*
X005026Y014840D01*
X005026Y014841D02*
X005380Y014841D01*
X005377Y014842D02*
X005026Y014842D01*
X005026Y014843D02*
X005374Y014843D01*
X005372Y014844D02*
X005026Y014844D01*
X005026Y014845D02*
X005369Y014845D01*
X005366Y014846D02*
X005026Y014846D01*
X005026Y014847D02*
X005363Y014847D01*
X005361Y014848D02*
X005026Y014848D01*
X005358Y014848D01*
X005355Y014849D02*
X005026Y014849D01*
X005026Y014850D02*
X005352Y014850D01*
X005350Y014851D02*
X005026Y014851D01*
X005026Y014852D02*
X005347Y014852D01*
X005344Y014853D02*
X005026Y014853D01*
X005026Y014854D02*
X005341Y014854D01*
X005339Y014855D02*
X005026Y014855D01*
X005026Y014856D02*
X005336Y014856D01*
X005333Y014857D02*
X005026Y014857D01*
X005026Y014858D02*
X005330Y014858D01*
X005328Y014859D02*
X005026Y014859D01*
X005026Y014860D02*
X005325Y014860D01*
X005322Y014861D02*
X005026Y014861D01*
X005026Y014862D02*
X005319Y014862D01*
X005317Y014863D02*
X005026Y014863D01*
X005026Y014864D02*
X005314Y014864D01*
X005311Y014865D02*
X005026Y014865D01*
X005026Y014866D02*
X005308Y014866D01*
X005306Y014867D02*
X005026Y014867D01*
X005026Y014868D02*
X005303Y014868D01*
X005300Y014869D02*
X005026Y014869D01*
X005026Y014870D02*
X005297Y014870D01*
X005295Y014871D02*
X005026Y014871D01*
X005026Y014872D02*
X005292Y014872D01*
X005289Y014873D02*
X005026Y014873D01*
X005026Y014874D02*
X005286Y014874D01*
X005284Y014875D02*
X005026Y014875D01*
X005026Y014876D02*
X005281Y014876D01*
X005278Y014877D02*
X005026Y014877D01*
X005027Y014878D02*
X005275Y014878D01*
X005273Y014879D02*
X005029Y014879D01*
X005031Y014880D02*
X005270Y014880D01*
X005267Y014881D02*
X005033Y014881D01*
X005035Y014882D02*
X005264Y014882D01*
X005262Y014883D02*
X005037Y014883D01*
X005039Y014884D02*
X005259Y014884D01*
X005256Y014885D02*
X005041Y014885D01*
X005043Y014886D02*
X005253Y014886D01*
X005251Y014887D02*
X005045Y014887D01*
X005047Y014888D02*
X005248Y014888D01*
X005245Y014889D02*
X005049Y014889D01*
X005051Y014890D02*
X005242Y014890D01*
X005240Y014891D02*
X005053Y014891D01*
X005055Y014892D02*
X005237Y014892D01*
X005234Y014893D02*
X005057Y014893D01*
X005059Y014894D02*
X005231Y014894D01*
X005229Y014895D02*
X005061Y014895D01*
X005063Y014896D02*
X005226Y014896D01*
X005223Y014897D02*
X005065Y014897D01*
X005067Y014898D02*
X005221Y014898D01*
X005218Y014899D02*
X005069Y014899D01*
X005071Y014900D02*
X005215Y014900D01*
X005212Y014901D02*
X005073Y014901D01*
X005076Y014902D02*
X005210Y014902D01*
X005207Y014903D02*
X005078Y014903D01*
X005080Y014904D02*
X005204Y014904D01*
X005201Y014905D02*
X005082Y014905D01*
X005085Y014906D02*
X005199Y014906D01*
X005196Y014907D02*
X005087Y014907D01*
X005089Y014908D02*
X005193Y014908D01*
X005190Y014909D02*
X005091Y014909D01*
X005094Y014910D02*
X005188Y014910D01*
X005185Y014911D02*
X005096Y014911D01*
X005098Y014912D02*
X005182Y014912D01*
X005179Y014913D02*
X005100Y014913D01*
X005103Y014914D02*
X005177Y014914D01*
X005174Y014915D02*
X005105Y014915D01*
X005108Y014916D02*
X005172Y014916D01*
X005169Y014917D02*
X005110Y014917D01*
X005113Y014918D02*
X005167Y014918D01*
X005164Y014919D02*
X005115Y014919D01*
X005118Y014920D02*
X005162Y014920D01*
X005159Y014921D02*
X005120Y014921D01*
X005123Y014922D02*
X005157Y014922D01*
X005154Y014923D02*
X005125Y014923D01*
X005128Y014924D02*
X005152Y014924D01*
X005149Y014925D02*
X005130Y014925D01*
X005133Y014926D02*
X005147Y014926D01*
X005144Y014927D02*
X005135Y014927D01*
X005138Y014928D02*
X005142Y014928D01*
X005026Y014393D02*
X005433Y014393D01*
X005431Y014392D02*
X005026Y014392D01*
X005026Y014391D02*
X005428Y014391D01*
X005426Y014390D02*
X005026Y014390D01*
X005026Y014389D02*
X005423Y014389D01*
X005421Y014388D02*
X005026Y014388D01*
X005026Y014387D02*
X005418Y014387D01*
X005416Y014386D02*
X005026Y014386D01*
X005026Y014385D02*
X005413Y014385D01*
X005411Y014384D02*
X005026Y014384D01*
X005026Y014383D02*
X005408Y014383D01*
X005406Y014382D02*
X005026Y014382D01*
X005026Y014381D02*
X005403Y014381D01*
X005401Y014380D02*
X005026Y014380D01*
X005026Y014379D02*
X005398Y014379D01*
X005396Y014378D02*
X005026Y014378D01*
X005026Y014377D02*
X005393Y014377D01*
X005390Y014376D02*
X005026Y014376D01*
X005026Y014375D02*
X005387Y014375D01*
X005385Y014374D02*
X005026Y014374D01*
X005026Y014373D02*
X005382Y014373D01*
X005379Y014372D02*
X005026Y014372D01*
X005026Y014371D02*
X005376Y014371D01*
X005374Y014370D02*
X005026Y014370D01*
X005026Y014369D02*
X005371Y014369D01*
X005368Y014368D02*
X005026Y014368D01*
X005026Y014367D02*
X005365Y014367D01*
X005363Y014366D02*
X005026Y014366D01*
X005026Y014365D02*
X005360Y014365D01*
X005357Y014364D02*
X005026Y014364D01*
X005026Y014363D02*
X005354Y014363D01*
X005352Y014362D02*
X005026Y014362D01*
X005026Y014361D02*
X005349Y014361D01*
X005346Y014360D02*
X005026Y014360D01*
X005026Y014359D02*
X005343Y014359D01*
X005341Y014358D02*
X005026Y014358D01*
X005026Y014357D02*
X005338Y014357D01*
X005335Y014356D02*
X005026Y014356D01*
X005026Y014355D02*
X005332Y014355D01*
X005330Y014354D02*
X005026Y014354D01*
X005026Y014353D02*
X005327Y014353D01*
X005324Y014352D02*
X005026Y014352D01*
X005026Y014351D02*
X005321Y014351D01*
X005319Y014350D02*
X005026Y014350D01*
X005026Y014349D02*
X005316Y014349D01*
X005313Y014348D02*
X005026Y014348D01*
X005026Y014347D02*
X005310Y014347D01*
X005308Y014346D02*
X005026Y014346D01*
X005026Y014345D02*
X005305Y014345D01*
X005302Y014344D02*
X005026Y014344D01*
X005026Y014343D02*
X005299Y014343D01*
X005297Y014342D02*
X005026Y014342D01*
X005026Y014341D02*
X005294Y014341D01*
X005291Y014340D02*
X005026Y014340D01*
X005026Y014339D02*
X005288Y014339D01*
X005286Y014338D02*
X005026Y014338D01*
X005026Y014337D02*
X005283Y014337D01*
X005280Y014336D02*
X005026Y014336D01*
X005026Y014335D02*
X005277Y014335D01*
X005275Y014334D02*
X005027Y014334D01*
X005030Y014333D02*
X005272Y014333D01*
X005269Y014332D02*
X005032Y014332D01*
X005035Y014331D02*
X005266Y014331D01*
X005264Y014330D02*
X005037Y014330D01*
X005040Y014329D02*
X005261Y014329D01*
X005258Y014328D02*
X005042Y014328D01*
X005045Y014327D02*
X005255Y014327D01*
X005253Y014326D02*
X005047Y014326D01*
X005050Y014325D02*
X005250Y014325D01*
X005247Y014324D02*
X005052Y014324D01*
X005055Y014323D02*
X005244Y014323D01*
X005242Y014322D02*
X005057Y014322D01*
X005060Y014321D02*
X005239Y014321D01*
X005236Y014320D02*
X005062Y014320D01*
X005065Y014319D02*
X005233Y014319D01*
X005231Y014318D02*
X005067Y014318D01*
X005069Y014317D02*
X005228Y014317D01*
X005225Y014316D02*
X005072Y014316D01*
X005074Y014315D02*
X005222Y014315D01*
X005220Y014314D02*
X005076Y014314D01*
X005078Y014313D02*
X005217Y014313D01*
X005214Y014312D02*
X005081Y014312D01*
X005083Y014311D02*
X005211Y014311D01*
X005209Y014310D02*
X005085Y014310D01*
X005087Y014309D02*
X005206Y014309D01*
X005203Y014308D02*
X005090Y014308D01*
X005092Y014307D02*
X005201Y014307D01*
X005198Y014306D02*
X005094Y014306D01*
X005096Y014305D02*
X005195Y014305D01*
X005192Y014304D02*
X005099Y014304D01*
X005101Y014303D02*
X005190Y014303D01*
X005187Y014302D02*
X005103Y014302D01*
X005105Y014301D02*
X005184Y014301D01*
X005181Y014300D02*
X005107Y014300D01*
X005109Y014299D02*
X005179Y014299D01*
X005176Y014298D02*
X005111Y014298D01*
X005113Y014297D02*
X005174Y014297D01*
X005171Y014296D02*
X005115Y014296D01*
X005117Y014295D02*
X005169Y014295D01*
X005166Y014294D02*
X005119Y014294D01*
X005121Y014293D02*
X005164Y014293D01*
X005161Y014292D02*
X005123Y014292D01*
X005125Y014291D02*
X005159Y014291D01*
X005156Y014290D02*
X005127Y014290D01*
X005129Y014289D02*
X005154Y014289D01*
X005151Y014288D02*
X005131Y014288D01*
X005133Y014287D02*
X005149Y014287D01*
X005146Y014286D02*
X005135Y014286D01*
X005137Y014285D02*
X005144Y014285D01*
X005141Y014284D02*
X005139Y014284D01*
M02*
