G75*
G70*
%OFA0B0*%
%FSLAX24Y24*%
%IPPOS*%
%LPD*%
%AMOC8*
5,1,8,0,0,1.08239X$1,22.5*
%
%ADD10C,0.1300*%
%ADD11R,0.0473X0.0434*%
%ADD12R,0.0465X0.0453*%
%ADD13R,0.0453X0.0465*%
%ADD14R,0.0330X0.1140*%
%ADD15R,0.0316X0.0335*%
%ADD16R,0.0434X0.0473*%
%ADD17R,0.0591X0.0178*%
%ADD18C,0.0808*%
%ADD19C,0.0660*%
%ADD20R,0.0631X0.0631*%
%ADD21R,0.0394X0.0158*%
%ADD22R,0.0158X0.0394*%
%ADD23R,0.1300X0.0591*%
%ADD24R,0.0540X0.0619*%
%ADD25R,0.0512X0.0355*%
%ADD26R,0.0138X0.0434*%
%ADD27R,0.0316X0.0158*%
%ADD28C,0.0640*%
%ADD29R,0.0158X0.0316*%
%ADD30C,0.0780*%
%ADD31R,0.0512X0.0257*%
%ADD32R,0.0355X0.0512*%
%ADD33C,0.0555*%
%ADD34C,0.0000*%
%ADD35C,0.0001*%
%ADD36R,0.0768X0.0276*%
%ADD37R,0.1733X0.0867*%
%ADD38C,0.1064*%
%ADD39C,0.1103*%
%ADD40C,0.0602*%
%ADD41R,0.0394X0.0276*%
D10*
X001221Y002276D03*
X019287Y002276D03*
X031154Y005563D03*
X031154Y023693D03*
X019287Y026980D03*
X001221Y026980D03*
D11*
X012195Y014330D03*
X012865Y014330D03*
X023095Y011630D03*
X023765Y011630D03*
X023765Y010830D03*
X023095Y010830D03*
X023095Y010030D03*
X023765Y010030D03*
X023765Y009230D03*
X023095Y009230D03*
X032395Y003630D03*
X033065Y003630D03*
X033065Y002830D03*
X032395Y002830D03*
X024965Y016630D03*
X024295Y016630D03*
X024295Y017430D03*
X024965Y017430D03*
X024965Y018230D03*
X024295Y018230D03*
X024295Y019030D03*
X024965Y019030D03*
D12*
X019130Y019686D03*
X018630Y019686D03*
X018130Y019686D03*
X018130Y020374D03*
X018630Y020374D03*
X019130Y020374D03*
X018830Y011374D03*
X018330Y011374D03*
X017830Y011374D03*
X017830Y010686D03*
X018330Y010686D03*
X018830Y010686D03*
X024130Y005224D03*
X024130Y004536D03*
D13*
G36*
X022120Y011813D02*
X021801Y012132D01*
X022128Y012459D01*
X022447Y012140D01*
X022120Y011813D01*
G37*
G36*
X021632Y012301D02*
X021313Y012620D01*
X021640Y012947D01*
X021959Y012628D01*
X021632Y012301D01*
G37*
X022286Y014730D03*
X022286Y015255D03*
X022974Y015255D03*
X023536Y015255D03*
X023536Y015755D03*
X024224Y015755D03*
X024224Y015255D03*
X022974Y014730D03*
G36*
X021959Y018632D02*
X021640Y018313D01*
X021313Y018640D01*
X021632Y018959D01*
X021959Y018632D01*
G37*
G36*
X022447Y019120D02*
X022128Y018801D01*
X021801Y019128D01*
X022120Y019447D01*
X022447Y019120D01*
G37*
G36*
X015628Y018959D02*
X015947Y018640D01*
X015620Y018313D01*
X015301Y018632D01*
X015628Y018959D01*
G37*
G36*
X015140Y019447D02*
X015459Y019128D01*
X015132Y018801D01*
X014813Y019120D01*
X015140Y019447D01*
G37*
X011174Y015130D03*
X010486Y015130D03*
X010486Y014130D03*
X011174Y014130D03*
X011174Y013130D03*
X010486Y013130D03*
X010486Y011130D03*
X011174Y011130D03*
X011174Y009130D03*
X010486Y009130D03*
X010486Y008130D03*
X011174Y008130D03*
X011174Y007130D03*
X010486Y007130D03*
X010486Y006130D03*
X011174Y006130D03*
X011174Y005130D03*
X010486Y005130D03*
X012783Y004510D03*
X013472Y004510D03*
G36*
X014813Y012140D02*
X015132Y012459D01*
X015459Y012132D01*
X015140Y011813D01*
X014813Y012140D01*
G37*
G36*
X015301Y012628D02*
X015620Y012947D01*
X015947Y012620D01*
X015628Y012301D01*
X015301Y012628D01*
G37*
D14*
X014160Y007440D03*
X013660Y007440D03*
X013160Y007440D03*
X012660Y007440D03*
X012160Y007440D03*
X012160Y005940D03*
X012660Y005940D03*
X013160Y005940D03*
X013660Y005940D03*
X014160Y005940D03*
D15*
X019533Y010664D03*
X019927Y010664D03*
X019927Y011196D03*
X019533Y011196D03*
D16*
X019330Y010165D03*
X019330Y009495D03*
X020130Y009495D03*
X020130Y010165D03*
X016730Y008365D03*
X016730Y007695D03*
X015930Y007695D03*
X015930Y008365D03*
X015130Y008365D03*
X015130Y007695D03*
X013130Y018295D03*
X013130Y018965D03*
X010730Y018965D03*
X010730Y018295D03*
D17*
X034087Y003958D03*
X034087Y003702D03*
X034087Y003446D03*
X034087Y003190D03*
X034087Y002934D03*
D18*
X035130Y002068D03*
X035130Y004824D03*
D19*
X034067Y004430D03*
X034067Y002461D03*
D20*
X035130Y003052D03*
X035130Y003839D03*
D21*
X021799Y013268D03*
X021799Y013465D03*
X021799Y013661D03*
X021799Y013858D03*
X021799Y014055D03*
X021799Y014252D03*
X021799Y014449D03*
X021799Y014646D03*
X021799Y014843D03*
X021799Y015039D03*
X021799Y015236D03*
X021799Y015433D03*
X021799Y015630D03*
X021799Y015827D03*
X021799Y016024D03*
X021799Y016221D03*
X021799Y016417D03*
X021799Y016614D03*
X021799Y016811D03*
X021799Y017008D03*
X021799Y017205D03*
X021799Y017402D03*
X021799Y017599D03*
X021799Y017795D03*
X021799Y017992D03*
X015461Y017992D03*
X015461Y017795D03*
X015461Y017599D03*
X015461Y017402D03*
X015461Y017205D03*
X015461Y017008D03*
X015461Y016811D03*
X015461Y016614D03*
X015461Y016417D03*
X015461Y016221D03*
X015461Y016024D03*
X015461Y015827D03*
X015461Y015630D03*
X015461Y015433D03*
X015461Y015236D03*
X015461Y015039D03*
X015461Y014843D03*
X015461Y014646D03*
X015461Y014449D03*
X015461Y014252D03*
X015461Y014055D03*
X015461Y013858D03*
X015461Y013661D03*
X015461Y013465D03*
X015461Y013268D03*
D22*
X016268Y012461D03*
X016465Y012461D03*
X016661Y012461D03*
X016858Y012461D03*
X017055Y012461D03*
X017252Y012461D03*
X017449Y012461D03*
X017646Y012461D03*
X017843Y012461D03*
X018039Y012461D03*
X018236Y012461D03*
X018433Y012461D03*
X018630Y012461D03*
X018827Y012461D03*
X019024Y012461D03*
X019221Y012461D03*
X019417Y012461D03*
X019614Y012461D03*
X019811Y012461D03*
X020008Y012461D03*
X020205Y012461D03*
X020402Y012461D03*
X020599Y012461D03*
X020795Y012461D03*
X020992Y012461D03*
X020992Y018799D03*
X020795Y018799D03*
X020599Y018799D03*
X020402Y018799D03*
X020205Y018799D03*
X020008Y018799D03*
X019811Y018799D03*
X019614Y018799D03*
X019417Y018799D03*
X019221Y018799D03*
X019024Y018799D03*
X018827Y018799D03*
X018630Y018799D03*
X018433Y018799D03*
X018236Y018799D03*
X018039Y018799D03*
X017843Y018799D03*
X017646Y018799D03*
X017449Y018799D03*
X017252Y018799D03*
X017055Y018799D03*
X016858Y018799D03*
X016661Y018799D03*
X016465Y018799D03*
X016268Y018799D03*
D23*
X013955Y016130D03*
X013955Y015343D03*
D24*
X013126Y016755D03*
X011434Y016755D03*
D25*
X020880Y010109D03*
X020880Y009401D03*
D26*
X021736Y009598D03*
X021933Y009598D03*
X022130Y009598D03*
X022327Y009598D03*
X022524Y009598D03*
X022524Y011262D03*
X022327Y011262D03*
X022130Y011262D03*
X021933Y011262D03*
X021736Y011262D03*
X022955Y016971D03*
X023152Y016971D03*
X023349Y016971D03*
X023546Y016971D03*
X023743Y016971D03*
X023743Y018634D03*
X023546Y018634D03*
X023349Y018634D03*
X023152Y018634D03*
X022955Y018634D03*
D27*
X023615Y014586D03*
X023615Y014330D03*
X023615Y014074D03*
X024245Y014074D03*
X024245Y014330D03*
X024245Y014586D03*
D28*
X031830Y014134D02*
X032430Y014134D01*
X032430Y015134D02*
X031830Y015134D01*
X031830Y013134D02*
X032430Y013134D01*
X032430Y012134D02*
X031830Y012134D01*
X031830Y011134D02*
X032430Y011134D01*
X032430Y010134D02*
X031830Y010134D01*
X031830Y009134D02*
X032430Y009134D01*
X032430Y008134D02*
X031830Y008134D01*
X031830Y007134D02*
X032430Y007134D01*
D29*
X030886Y008315D03*
X030630Y008315D03*
X030374Y008315D03*
X030374Y008945D03*
X030630Y008945D03*
X030886Y008945D03*
X030886Y012315D03*
X030630Y012315D03*
X030374Y012315D03*
X030374Y012945D03*
X030630Y012945D03*
X030886Y012945D03*
X032474Y004945D03*
X032730Y004945D03*
X032986Y004945D03*
X032986Y004315D03*
X032730Y004315D03*
X032474Y004315D03*
D30*
X029520Y004350D03*
X027740Y004350D03*
X027740Y006910D03*
X029520Y006910D03*
X001130Y014130D03*
X001130Y015130D03*
D31*
X011452Y018284D03*
X011452Y018658D03*
X011452Y019032D03*
X012476Y019032D03*
X012476Y018284D03*
D32*
X012176Y015730D03*
X012176Y015030D03*
X012884Y015030D03*
X012884Y015730D03*
D33*
X009887Y016130D02*
X009373Y016130D01*
X009373Y017130D02*
X009887Y017130D01*
X009887Y018130D02*
X009373Y018130D01*
X009373Y019130D02*
X009887Y019130D01*
X009887Y020130D02*
X009373Y020130D01*
X009373Y021130D02*
X009887Y021130D01*
X009887Y022130D02*
X009373Y022130D01*
X009373Y023130D02*
X009887Y023130D01*
X009887Y024130D02*
X009373Y024130D01*
X009373Y015130D02*
X009887Y015130D01*
X009887Y014130D02*
X009373Y014130D01*
X009373Y013130D02*
X009887Y013130D01*
X009887Y012130D02*
X009373Y012130D01*
X009373Y011130D02*
X009887Y011130D01*
X009887Y010130D02*
X009373Y010130D01*
X009373Y009130D02*
X009887Y009130D01*
X009887Y008130D02*
X009373Y008130D01*
X009373Y007130D02*
X009887Y007130D01*
X009887Y006130D02*
X009373Y006130D01*
X009373Y005130D02*
X009887Y005130D01*
X026373Y005130D02*
X026887Y005130D01*
X026887Y006130D02*
X026373Y006130D01*
X026373Y007130D02*
X026887Y007130D01*
X026887Y022130D02*
X026373Y022130D01*
X026373Y023130D02*
X026887Y023130D01*
X026887Y024130D02*
X026373Y024130D01*
D34*
X005935Y019819D02*
X005935Y019772D01*
X005935Y019394D01*
X005896Y019378D01*
X005852Y019362D01*
X005809Y019347D01*
X005766Y019331D01*
X005723Y019315D01*
X005679Y019299D01*
X005640Y019284D01*
X005600Y019303D01*
X005565Y019319D01*
X005526Y019335D01*
X005526Y019878D01*
X005565Y019898D01*
X005600Y019913D01*
X005640Y019929D01*
X005679Y019913D01*
X005723Y019898D01*
X005766Y019882D01*
X005809Y019866D01*
X005852Y019850D01*
X005896Y019835D01*
X005935Y019819D01*
D35*
X005526Y019819D01*
X005526Y019820D02*
X005934Y019820D01*
X005935Y019818D02*
X005526Y019818D01*
X005526Y019817D02*
X005935Y019817D01*
X005935Y019816D02*
X005526Y019816D01*
X005526Y019815D02*
X005935Y019815D01*
X005935Y019814D02*
X005526Y019814D01*
X005526Y019813D02*
X005935Y019813D01*
X005935Y019812D02*
X005526Y019812D01*
X005526Y019811D02*
X005935Y019811D01*
X005935Y019810D02*
X005526Y019810D01*
X005526Y019809D02*
X005935Y019809D01*
X005935Y019808D02*
X005526Y019808D01*
X005526Y019807D02*
X005935Y019807D01*
X005935Y019806D02*
X005526Y019806D01*
X005526Y019805D02*
X005935Y019805D01*
X005935Y019804D02*
X005526Y019804D01*
X005526Y019803D02*
X005935Y019803D01*
X005935Y019802D02*
X005526Y019802D01*
X005526Y019801D02*
X005935Y019801D01*
X005935Y019800D02*
X005526Y019800D01*
X005526Y019799D02*
X005935Y019799D01*
X005935Y019798D02*
X005526Y019798D01*
X005526Y019797D02*
X005935Y019797D01*
X005935Y019796D02*
X005526Y019796D01*
X005526Y019795D02*
X005935Y019795D01*
X005935Y019794D02*
X005526Y019794D01*
X005526Y019793D02*
X005935Y019793D01*
X005935Y019792D02*
X005526Y019792D01*
X005526Y019791D02*
X005935Y019791D01*
X005935Y019790D02*
X005526Y019790D01*
X005526Y019789D02*
X005935Y019789D01*
X005935Y019788D02*
X005526Y019788D01*
X005526Y019787D02*
X005935Y019787D01*
X005935Y019786D02*
X005526Y019786D01*
X005526Y019785D02*
X005935Y019785D01*
X005935Y019784D02*
X005526Y019784D01*
X005526Y019783D02*
X005935Y019783D01*
X005935Y019782D02*
X005526Y019782D01*
X005526Y019781D02*
X005935Y019781D01*
X005935Y019780D02*
X005526Y019780D01*
X005526Y019779D02*
X005935Y019779D01*
X005935Y019778D02*
X005526Y019778D01*
X005526Y019777D02*
X005935Y019777D01*
X005935Y019776D02*
X005526Y019776D01*
X005526Y019775D02*
X005935Y019775D01*
X005935Y019774D02*
X005526Y019774D01*
X005526Y019773D02*
X005935Y019773D01*
X005935Y019772D02*
X005526Y019772D01*
X005526Y019771D02*
X005935Y019771D01*
X005935Y019770D02*
X005526Y019770D01*
X005526Y019769D02*
X005935Y019769D01*
X005935Y019768D02*
X005526Y019768D01*
X005526Y019767D02*
X005935Y019767D01*
X005935Y019766D02*
X005526Y019766D01*
X005526Y019765D02*
X005935Y019765D01*
X005935Y019764D02*
X005526Y019764D01*
X005526Y019763D02*
X005935Y019763D01*
X005935Y019762D02*
X005526Y019762D01*
X005526Y019761D02*
X005935Y019761D01*
X005935Y019760D02*
X005526Y019760D01*
X005526Y019759D02*
X005935Y019759D01*
X005935Y019758D02*
X005526Y019758D01*
X005526Y019757D02*
X005935Y019757D01*
X005935Y019756D02*
X005526Y019756D01*
X005526Y019755D02*
X005935Y019755D01*
X005935Y019754D02*
X005526Y019754D01*
X005526Y019753D02*
X005935Y019753D01*
X005935Y019752D02*
X005526Y019752D01*
X005526Y019751D02*
X005935Y019751D01*
X005935Y019750D02*
X005526Y019750D01*
X005526Y019749D02*
X005935Y019749D01*
X005935Y019748D02*
X005526Y019748D01*
X005526Y019747D02*
X005935Y019747D01*
X005935Y019746D02*
X005526Y019746D01*
X005526Y019745D02*
X005935Y019745D01*
X005935Y019744D02*
X005526Y019744D01*
X005526Y019743D02*
X005935Y019743D01*
X005935Y019742D02*
X005526Y019742D01*
X005526Y019741D02*
X005935Y019741D01*
X005935Y019740D02*
X005526Y019740D01*
X005526Y019739D02*
X005935Y019739D01*
X005935Y019738D02*
X005526Y019738D01*
X005526Y019737D02*
X005935Y019737D01*
X005935Y019736D02*
X005526Y019736D01*
X005526Y019735D02*
X005935Y019735D01*
X005935Y019734D02*
X005526Y019734D01*
X005526Y019733D02*
X005935Y019733D01*
X005935Y019732D02*
X005526Y019732D01*
X005526Y019731D02*
X005935Y019731D01*
X005935Y019730D02*
X005526Y019730D01*
X005526Y019729D02*
X005935Y019729D01*
X005935Y019728D02*
X005526Y019728D01*
X005526Y019727D02*
X005935Y019727D01*
X005935Y019726D02*
X005526Y019726D01*
X005526Y019725D02*
X005935Y019725D01*
X005935Y019724D02*
X005526Y019724D01*
X005526Y019723D02*
X005935Y019723D01*
X005935Y019722D02*
X005526Y019722D01*
X005526Y019721D02*
X005935Y019721D01*
X005935Y019720D02*
X005526Y019720D01*
X005526Y019719D02*
X005935Y019719D01*
X005935Y019718D02*
X005526Y019718D01*
X005526Y019717D02*
X005935Y019717D01*
X005935Y019716D02*
X005526Y019716D01*
X005526Y019715D02*
X005935Y019715D01*
X005935Y019714D02*
X005526Y019714D01*
X005526Y019713D02*
X005935Y019713D01*
X005935Y019712D02*
X005526Y019712D01*
X005526Y019711D02*
X005935Y019711D01*
X005935Y019710D02*
X005526Y019710D01*
X005526Y019709D02*
X005935Y019709D01*
X005935Y019708D02*
X005526Y019708D01*
X005526Y019707D02*
X005935Y019707D01*
X005935Y019706D02*
X005526Y019706D01*
X005526Y019705D02*
X005935Y019705D01*
X005935Y019704D02*
X005526Y019704D01*
X005526Y019703D02*
X005935Y019703D01*
X005935Y019702D02*
X005526Y019702D01*
X005526Y019701D02*
X005935Y019701D01*
X005935Y019700D02*
X005526Y019700D01*
X005526Y019699D02*
X005935Y019699D01*
X005935Y019698D02*
X005526Y019698D01*
X005526Y019697D02*
X005935Y019697D01*
X005935Y019696D02*
X005526Y019696D01*
X005526Y019695D02*
X005935Y019695D01*
X005935Y019694D02*
X005526Y019694D01*
X005526Y019693D02*
X005935Y019693D01*
X005935Y019692D02*
X005526Y019692D01*
X005526Y019691D02*
X005935Y019691D01*
X005935Y019690D02*
X005526Y019690D01*
X005526Y019689D02*
X005935Y019689D01*
X005935Y019688D02*
X005526Y019688D01*
X005526Y019687D02*
X005935Y019687D01*
X005935Y019686D02*
X005526Y019686D01*
X005526Y019685D02*
X005935Y019685D01*
X005935Y019684D02*
X005526Y019684D01*
X005526Y019683D02*
X005935Y019683D01*
X005935Y019682D02*
X005526Y019682D01*
X005526Y019681D02*
X005935Y019681D01*
X005935Y019680D02*
X005526Y019680D01*
X005526Y019679D02*
X005935Y019679D01*
X005935Y019678D02*
X005526Y019678D01*
X005526Y019677D02*
X005935Y019677D01*
X005935Y019676D02*
X005526Y019676D01*
X005526Y019675D02*
X005935Y019675D01*
X005935Y019674D02*
X005526Y019674D01*
X005526Y019673D02*
X005935Y019673D01*
X005935Y019672D02*
X005526Y019672D01*
X005526Y019671D02*
X005935Y019671D01*
X005935Y019670D02*
X005526Y019670D01*
X005526Y019669D02*
X005935Y019669D01*
X005935Y019668D02*
X005526Y019668D01*
X005526Y019667D02*
X005935Y019667D01*
X005935Y019666D02*
X005526Y019666D01*
X005526Y019665D02*
X005935Y019665D01*
X005935Y019664D02*
X005526Y019664D01*
X005526Y019663D02*
X005935Y019663D01*
X005935Y019662D02*
X005526Y019662D01*
X005526Y019661D02*
X005935Y019661D01*
X005935Y019660D02*
X005526Y019660D01*
X005526Y019659D02*
X005935Y019659D01*
X005935Y019658D02*
X005526Y019658D01*
X005526Y019657D02*
X005935Y019657D01*
X005935Y019656D02*
X005526Y019656D01*
X005526Y019655D02*
X005935Y019655D01*
X005935Y019654D02*
X005526Y019654D01*
X005526Y019653D02*
X005935Y019653D01*
X005935Y019652D02*
X005526Y019652D01*
X005526Y019651D02*
X005935Y019651D01*
X005935Y019650D02*
X005526Y019650D01*
X005526Y019649D02*
X005935Y019649D01*
X005935Y019648D02*
X005526Y019648D01*
X005526Y019647D02*
X005935Y019647D01*
X005935Y019646D02*
X005526Y019646D01*
X005526Y019645D02*
X005935Y019645D01*
X005935Y019644D02*
X005526Y019644D01*
X005526Y019643D02*
X005935Y019643D01*
X005935Y019642D02*
X005526Y019642D01*
X005526Y019641D02*
X005935Y019641D01*
X005935Y019640D02*
X005526Y019640D01*
X005526Y019639D02*
X005935Y019639D01*
X005935Y019638D02*
X005526Y019638D01*
X005526Y019637D02*
X005935Y019637D01*
X005935Y019636D02*
X005526Y019636D01*
X005526Y019635D02*
X005935Y019635D01*
X005935Y019634D02*
X005526Y019634D01*
X005526Y019633D02*
X005935Y019633D01*
X005935Y019632D02*
X005526Y019632D01*
X005526Y019631D02*
X005935Y019631D01*
X005935Y019630D02*
X005526Y019630D01*
X005526Y019629D02*
X005935Y019629D01*
X005935Y019628D02*
X005526Y019628D01*
X005526Y019627D02*
X005935Y019627D01*
X005935Y019626D02*
X005526Y019626D01*
X005526Y019625D02*
X005935Y019625D01*
X005935Y019624D02*
X005526Y019624D01*
X005526Y019623D02*
X005935Y019623D01*
X005935Y019622D02*
X005526Y019622D01*
X005526Y019621D02*
X005935Y019621D01*
X005935Y019620D02*
X005526Y019620D01*
X005526Y019619D02*
X005935Y019619D01*
X005935Y019618D02*
X005526Y019618D01*
X005526Y019617D02*
X005935Y019617D01*
X005935Y019616D02*
X005526Y019616D01*
X005526Y019615D02*
X005935Y019615D01*
X005935Y019614D02*
X005526Y019614D01*
X005526Y019613D02*
X005935Y019613D01*
X005935Y019612D02*
X005526Y019612D01*
X005526Y019611D02*
X005935Y019611D01*
X005935Y019610D02*
X005526Y019610D01*
X005526Y019609D02*
X005935Y019609D01*
X005935Y019608D02*
X005526Y019608D01*
X005526Y019607D02*
X005935Y019607D01*
X005935Y019606D02*
X005526Y019606D01*
X005526Y019605D02*
X005935Y019605D01*
X005935Y019604D02*
X005526Y019604D01*
X005526Y019603D02*
X005935Y019603D01*
X005935Y019602D02*
X005526Y019602D01*
X005526Y019601D02*
X005935Y019601D01*
X005935Y019600D02*
X005526Y019600D01*
X005526Y019599D02*
X005935Y019599D01*
X005935Y019598D02*
X005526Y019598D01*
X005526Y019597D02*
X005935Y019597D01*
X005935Y019596D02*
X005526Y019596D01*
X005526Y019595D02*
X005935Y019595D01*
X005935Y019594D02*
X005526Y019594D01*
X005526Y019593D02*
X005935Y019593D01*
X005935Y019592D02*
X005526Y019592D01*
X005526Y019591D02*
X005935Y019591D01*
X005935Y019590D02*
X005526Y019590D01*
X005526Y019589D02*
X005935Y019589D01*
X005935Y019588D02*
X005526Y019588D01*
X005526Y019587D02*
X005935Y019587D01*
X005935Y019586D02*
X005526Y019586D01*
X005526Y019585D02*
X005935Y019585D01*
X005935Y019584D02*
X005526Y019584D01*
X005526Y019583D02*
X005935Y019583D01*
X005935Y019582D02*
X005526Y019582D01*
X005526Y019581D02*
X005935Y019581D01*
X005935Y019580D02*
X005526Y019580D01*
X005526Y019579D02*
X005935Y019579D01*
X005935Y019578D02*
X005526Y019578D01*
X005526Y019577D02*
X005935Y019577D01*
X005935Y019576D02*
X005526Y019576D01*
X005526Y019575D02*
X005935Y019575D01*
X005935Y019574D02*
X005526Y019574D01*
X005526Y019573D02*
X005935Y019573D01*
X005935Y019572D02*
X005526Y019572D01*
X005526Y019571D02*
X005935Y019571D01*
X005935Y019570D02*
X005526Y019570D01*
X005526Y019569D02*
X005935Y019569D01*
X005935Y019568D02*
X005526Y019568D01*
X005526Y019567D02*
X005935Y019567D01*
X005935Y019566D02*
X005526Y019566D01*
X005526Y019565D02*
X005935Y019565D01*
X005935Y019564D02*
X005526Y019564D01*
X005526Y019563D02*
X005935Y019563D01*
X005935Y019562D02*
X005526Y019562D01*
X005526Y019561D02*
X005935Y019561D01*
X005935Y019560D02*
X005526Y019560D01*
X005526Y019559D02*
X005935Y019559D01*
X005935Y019558D02*
X005526Y019558D01*
X005526Y019557D02*
X005935Y019557D01*
X005935Y019556D02*
X005526Y019556D01*
X005526Y019555D02*
X005935Y019555D01*
X005935Y019554D02*
X005526Y019554D01*
X005526Y019553D02*
X005935Y019553D01*
X005935Y019552D02*
X005526Y019552D01*
X005526Y019551D02*
X005935Y019551D01*
X005935Y019550D02*
X005526Y019550D01*
X005526Y019549D02*
X005935Y019549D01*
X005935Y019548D02*
X005526Y019548D01*
X005526Y019547D02*
X005935Y019547D01*
X005935Y019546D02*
X005526Y019546D01*
X005526Y019545D02*
X005935Y019545D01*
X005935Y019544D02*
X005526Y019544D01*
X005526Y019543D02*
X005935Y019543D01*
X005935Y019542D02*
X005526Y019542D01*
X005526Y019541D02*
X005935Y019541D01*
X005935Y019540D02*
X005526Y019540D01*
X005526Y019539D02*
X005935Y019539D01*
X005935Y019538D02*
X005526Y019538D01*
X005526Y019537D02*
X005935Y019537D01*
X005935Y019536D02*
X005526Y019536D01*
X005526Y019535D02*
X005935Y019535D01*
X005935Y019534D02*
X005526Y019534D01*
X005526Y019533D02*
X005935Y019533D01*
X005935Y019532D02*
X005526Y019532D01*
X005526Y019531D02*
X005935Y019531D01*
X005935Y019530D02*
X005526Y019530D01*
X005526Y019529D02*
X005935Y019529D01*
X005935Y019528D02*
X005526Y019528D01*
X005526Y019527D02*
X005935Y019527D01*
X005935Y019526D02*
X005526Y019526D01*
X005526Y019525D02*
X005935Y019525D01*
X005935Y019524D02*
X005526Y019524D01*
X005526Y019523D02*
X005935Y019523D01*
X005935Y019522D02*
X005526Y019522D01*
X005526Y019521D02*
X005935Y019521D01*
X005935Y019520D02*
X005526Y019520D01*
X005526Y019519D02*
X005935Y019519D01*
X005935Y019518D02*
X005526Y019518D01*
X005526Y019517D02*
X005935Y019517D01*
X005935Y019516D02*
X005526Y019516D01*
X005526Y019515D02*
X005935Y019515D01*
X005935Y019514D02*
X005526Y019514D01*
X005526Y019513D02*
X005935Y019513D01*
X005935Y019512D02*
X005526Y019512D01*
X005526Y019511D02*
X005935Y019511D01*
X005935Y019510D02*
X005526Y019510D01*
X005526Y019509D02*
X005935Y019509D01*
X005935Y019508D02*
X005526Y019508D01*
X005526Y019507D02*
X005935Y019507D01*
X005935Y019506D02*
X005526Y019506D01*
X005526Y019505D02*
X005935Y019505D01*
X005935Y019504D02*
X005526Y019504D01*
X005526Y019503D02*
X005935Y019503D01*
X005935Y019502D02*
X005526Y019502D01*
X005526Y019501D02*
X005935Y019501D01*
X005935Y019500D02*
X005526Y019500D01*
X005526Y019499D02*
X005935Y019499D01*
X005935Y019498D02*
X005526Y019498D01*
X005526Y019497D02*
X005935Y019497D01*
X005935Y019496D02*
X005526Y019496D01*
X005526Y019495D02*
X005935Y019495D01*
X005935Y019494D02*
X005526Y019494D01*
X005526Y019493D02*
X005935Y019493D01*
X005935Y019492D02*
X005526Y019492D01*
X005526Y019491D02*
X005935Y019491D01*
X005935Y019490D02*
X005526Y019490D01*
X005526Y019489D02*
X005935Y019489D01*
X005935Y019488D02*
X005526Y019488D01*
X005526Y019487D02*
X005935Y019487D01*
X005935Y019486D02*
X005526Y019486D01*
X005526Y019485D02*
X005935Y019485D01*
X005935Y019484D02*
X005526Y019484D01*
X005526Y019483D02*
X005935Y019483D01*
X005935Y019482D02*
X005526Y019482D01*
X005526Y019481D02*
X005935Y019481D01*
X005935Y019480D02*
X005526Y019480D01*
X005526Y019479D02*
X005935Y019479D01*
X005935Y019478D02*
X005526Y019478D01*
X005526Y019477D02*
X005935Y019477D01*
X005935Y019476D02*
X005526Y019476D01*
X005526Y019475D02*
X005935Y019475D01*
X005935Y019474D02*
X005526Y019474D01*
X005526Y019473D02*
X005935Y019473D01*
X005935Y019472D02*
X005526Y019472D01*
X005526Y019471D02*
X005935Y019471D01*
X005935Y019470D02*
X005526Y019470D01*
X005526Y019469D02*
X005935Y019469D01*
X005935Y019468D02*
X005526Y019468D01*
X005526Y019467D02*
X005935Y019467D01*
X005935Y019466D02*
X005526Y019466D01*
X005526Y019465D02*
X005935Y019465D01*
X005935Y019464D02*
X005526Y019464D01*
X005526Y019463D02*
X005935Y019463D01*
X005935Y019462D02*
X005526Y019462D01*
X005526Y019461D02*
X005935Y019461D01*
X005935Y019460D02*
X005526Y019460D01*
X005526Y019459D02*
X005935Y019459D01*
X005935Y019458D02*
X005526Y019458D01*
X005526Y019457D02*
X005935Y019457D01*
X005935Y019456D02*
X005526Y019456D01*
X005526Y019455D02*
X005935Y019455D01*
X005935Y019454D02*
X005526Y019454D01*
X005526Y019453D02*
X005935Y019453D01*
X005935Y019452D02*
X005526Y019452D01*
X005526Y019451D02*
X005935Y019451D01*
X005935Y019450D02*
X005526Y019450D01*
X005526Y019449D02*
X005935Y019449D01*
X005935Y019448D02*
X005526Y019448D01*
X005526Y019447D02*
X005935Y019447D01*
X005935Y019446D02*
X005526Y019446D01*
X005526Y019445D02*
X005935Y019445D01*
X005935Y019444D02*
X005526Y019444D01*
X005526Y019443D02*
X005935Y019443D01*
X005935Y019442D02*
X005526Y019442D01*
X005526Y019441D02*
X005935Y019441D01*
X005935Y019440D02*
X005526Y019440D01*
X005526Y019439D02*
X005935Y019439D01*
X005935Y019438D02*
X005526Y019438D01*
X005526Y019437D02*
X005935Y019437D01*
X005935Y019436D02*
X005526Y019436D01*
X005526Y019435D02*
X005935Y019435D01*
X005935Y019434D02*
X005526Y019434D01*
X005526Y019433D02*
X005935Y019433D01*
X005935Y019432D02*
X005526Y019432D01*
X005526Y019431D02*
X005935Y019431D01*
X005935Y019430D02*
X005526Y019430D01*
X005526Y019429D02*
X005935Y019429D01*
X005935Y019428D02*
X005526Y019428D01*
X005526Y019427D02*
X005935Y019427D01*
X005935Y019426D02*
X005526Y019426D01*
X005526Y019425D02*
X005935Y019425D01*
X005935Y019424D02*
X005526Y019424D01*
X005526Y019423D02*
X005935Y019423D01*
X005935Y019422D02*
X005526Y019422D01*
X005526Y019421D02*
X005935Y019421D01*
X005935Y019420D02*
X005526Y019420D01*
X005526Y019419D02*
X005935Y019419D01*
X005935Y019418D02*
X005526Y019418D01*
X005526Y019417D02*
X005935Y019417D01*
X005935Y019416D02*
X005526Y019416D01*
X005526Y019415D02*
X005935Y019415D01*
X005935Y019414D02*
X005526Y019414D01*
X005526Y019413D02*
X005935Y019413D01*
X005935Y019412D02*
X005526Y019412D01*
X005526Y019411D02*
X005935Y019411D01*
X005935Y019410D02*
X005526Y019410D01*
X005526Y019409D02*
X005935Y019409D01*
X005935Y019408D02*
X005526Y019408D01*
X005526Y019407D02*
X005935Y019407D01*
X005935Y019406D02*
X005526Y019406D01*
X005526Y019405D02*
X005935Y019405D01*
X005935Y019404D02*
X005526Y019404D01*
X005526Y019403D02*
X005935Y019403D01*
X005935Y019402D02*
X005526Y019402D01*
X005526Y019401D02*
X005935Y019401D01*
X005935Y019400D02*
X005526Y019400D01*
X005526Y019399D02*
X005935Y019399D01*
X005935Y019398D02*
X005526Y019398D01*
X005526Y019397D02*
X005935Y019397D01*
X005935Y019396D02*
X005526Y019396D01*
X005526Y019395D02*
X005935Y019395D01*
X005935Y019394D02*
X005526Y019394D01*
X005526Y019393D02*
X005933Y019393D01*
X005931Y019392D02*
X005526Y019392D01*
X005526Y019391D02*
X005928Y019391D01*
X005926Y019390D02*
X005526Y019390D01*
X005526Y019389D02*
X005923Y019389D01*
X005921Y019388D02*
X005526Y019388D01*
X005526Y019387D02*
X005918Y019387D01*
X005916Y019386D02*
X005526Y019386D01*
X005526Y019385D02*
X005913Y019385D01*
X005911Y019384D02*
X005526Y019384D01*
X005526Y019383D02*
X005908Y019383D01*
X005906Y019382D02*
X005526Y019382D01*
X005526Y019381D02*
X005903Y019381D01*
X005901Y019380D02*
X005526Y019380D01*
X005526Y019379D02*
X005898Y019379D01*
X005896Y019378D02*
X005526Y019378D01*
X005526Y019377D02*
X005893Y019377D01*
X005890Y019376D02*
X005526Y019376D01*
X005526Y019375D02*
X005888Y019375D01*
X005885Y019374D02*
X005526Y019374D01*
X005526Y019373D02*
X005882Y019373D01*
X005879Y019372D02*
X005526Y019372D01*
X005526Y019371D02*
X005877Y019371D01*
X005874Y019370D02*
X005526Y019370D01*
X005526Y019369D02*
X005871Y019369D01*
X005868Y019368D02*
X005526Y019368D01*
X005526Y019367D02*
X005866Y019367D01*
X005863Y019366D02*
X005526Y019366D01*
X005526Y019365D02*
X005860Y019365D01*
X005857Y019364D02*
X005526Y019364D01*
X005526Y019363D02*
X005855Y019363D01*
X005852Y019362D02*
X005526Y019362D01*
X005526Y019361D02*
X005849Y019361D01*
X005846Y019360D02*
X005526Y019360D01*
X005526Y019359D02*
X005844Y019359D01*
X005841Y019358D02*
X005526Y019358D01*
X005526Y019357D02*
X005838Y019357D01*
X005835Y019356D02*
X005526Y019356D01*
X005526Y019355D02*
X005833Y019355D01*
X005830Y019354D02*
X005526Y019354D01*
X005526Y019353D02*
X005827Y019353D01*
X005824Y019352D02*
X005526Y019352D01*
X005526Y019351D02*
X005822Y019351D01*
X005819Y019350D02*
X005526Y019350D01*
X005526Y019349D02*
X005816Y019349D01*
X005813Y019348D02*
X005526Y019348D01*
X005526Y019347D02*
X005811Y019347D01*
X005808Y019346D02*
X005526Y019346D01*
X005526Y019345D02*
X005805Y019345D01*
X005802Y019344D02*
X005526Y019344D01*
X005526Y019343D02*
X005800Y019343D01*
X005797Y019342D02*
X005526Y019342D01*
X005526Y019341D02*
X005794Y019341D01*
X005791Y019340D02*
X005526Y019340D01*
X005526Y019339D02*
X005789Y019339D01*
X005786Y019338D02*
X005526Y019338D01*
X005526Y019337D02*
X005783Y019337D01*
X005780Y019336D02*
X005526Y019336D01*
X005526Y019335D02*
X005778Y019335D01*
X005775Y019334D02*
X005527Y019334D01*
X005530Y019333D02*
X005772Y019333D01*
X005769Y019332D02*
X005532Y019332D01*
X005535Y019331D02*
X005767Y019331D01*
X005764Y019330D02*
X005537Y019330D01*
X005540Y019329D02*
X005761Y019329D01*
X005758Y019328D02*
X005542Y019328D01*
X005545Y019327D02*
X005756Y019327D01*
X005753Y019326D02*
X005547Y019326D01*
X005550Y019325D02*
X005750Y019325D01*
X005747Y019324D02*
X005552Y019324D01*
X005555Y019323D02*
X005745Y019323D01*
X005742Y019322D02*
X005557Y019322D01*
X005560Y019321D02*
X005739Y019321D01*
X005736Y019320D02*
X005562Y019320D01*
X005565Y019319D02*
X005734Y019319D01*
X005731Y019318D02*
X005567Y019318D01*
X005569Y019317D02*
X005728Y019317D01*
X005725Y019316D02*
X005572Y019316D01*
X005574Y019315D02*
X005723Y019315D01*
X005720Y019314D02*
X005576Y019314D01*
X005578Y019313D02*
X005717Y019313D01*
X005714Y019312D02*
X005581Y019312D01*
X005583Y019311D02*
X005712Y019311D01*
X005709Y019310D02*
X005585Y019310D01*
X005587Y019309D02*
X005706Y019309D01*
X005703Y019308D02*
X005589Y019308D01*
X005592Y019307D02*
X005701Y019307D01*
X005698Y019306D02*
X005594Y019306D01*
X005596Y019305D02*
X005695Y019305D01*
X005692Y019304D02*
X005598Y019304D01*
X005601Y019303D02*
X005690Y019303D01*
X005687Y019302D02*
X005603Y019302D01*
X005605Y019301D02*
X005684Y019301D01*
X005681Y019300D02*
X005607Y019300D01*
X005609Y019299D02*
X005679Y019299D01*
X005676Y019298D02*
X005611Y019298D01*
X005613Y019297D02*
X005674Y019297D01*
X005671Y019296D02*
X005615Y019296D01*
X005617Y019295D02*
X005669Y019295D01*
X005666Y019294D02*
X005619Y019294D01*
X005621Y019293D02*
X005664Y019293D01*
X005661Y019292D02*
X005623Y019292D01*
X005625Y019291D02*
X005659Y019291D01*
X005656Y019290D02*
X005627Y019290D01*
X005629Y019289D02*
X005654Y019289D01*
X005651Y019288D02*
X005631Y019288D01*
X005633Y019287D02*
X005649Y019287D01*
X005646Y019286D02*
X005635Y019286D01*
X005637Y019285D02*
X005644Y019285D01*
X005641Y019284D02*
X005639Y019284D01*
X005526Y019821D02*
X005931Y019821D01*
X005929Y019822D02*
X005526Y019822D01*
X005526Y019823D02*
X005926Y019823D01*
X005924Y019824D02*
X005526Y019824D01*
X005526Y019825D02*
X005921Y019825D01*
X005919Y019826D02*
X005526Y019826D01*
X005526Y019827D02*
X005916Y019827D01*
X005914Y019828D02*
X005526Y019828D01*
X005526Y019829D02*
X005911Y019829D01*
X005909Y019830D02*
X005526Y019830D01*
X005526Y019831D02*
X005906Y019831D01*
X005904Y019832D02*
X005526Y019832D01*
X005526Y019833D02*
X005901Y019833D01*
X005899Y019834D02*
X005526Y019834D01*
X005526Y019835D02*
X005896Y019835D01*
X005893Y019836D02*
X005526Y019836D01*
X005526Y019837D02*
X005891Y019837D01*
X005888Y019838D02*
X005526Y019838D01*
X005526Y019839D02*
X005885Y019839D01*
X005882Y019840D02*
X005526Y019840D01*
X005526Y019841D02*
X005880Y019841D01*
X005877Y019842D02*
X005526Y019842D01*
X005526Y019843D02*
X005874Y019843D01*
X005871Y019844D02*
X005526Y019844D01*
X005526Y019845D02*
X005869Y019845D01*
X005866Y019846D02*
X005526Y019846D01*
X005526Y019847D02*
X005863Y019847D01*
X005860Y019848D02*
X005526Y019848D01*
X005526Y019849D02*
X005858Y019849D01*
X005855Y019850D02*
X005526Y019850D01*
X005526Y019851D02*
X005852Y019851D01*
X005849Y019852D02*
X005526Y019852D01*
X005526Y019853D02*
X005847Y019853D01*
X005844Y019854D02*
X005526Y019854D01*
X005526Y019855D02*
X005841Y019855D01*
X005838Y019856D02*
X005526Y019856D01*
X005526Y019857D02*
X005836Y019857D01*
X005833Y019858D02*
X005526Y019858D01*
X005526Y019859D02*
X005830Y019859D01*
X005827Y019860D02*
X005526Y019860D01*
X005526Y019861D02*
X005825Y019861D01*
X005822Y019862D02*
X005526Y019862D01*
X005526Y019863D02*
X005819Y019863D01*
X005816Y019864D02*
X005526Y019864D01*
X005526Y019865D02*
X005814Y019865D01*
X005811Y019866D02*
X005526Y019866D01*
X005526Y019867D02*
X005808Y019867D01*
X005805Y019868D02*
X005526Y019868D01*
X005526Y019869D02*
X005803Y019869D01*
X005800Y019870D02*
X005526Y019870D01*
X005526Y019871D02*
X005797Y019871D01*
X005794Y019872D02*
X005526Y019872D01*
X005526Y019873D02*
X005792Y019873D01*
X005789Y019874D02*
X005526Y019874D01*
X005526Y019875D02*
X005786Y019875D01*
X005783Y019876D02*
X005526Y019876D01*
X005526Y019877D02*
X005781Y019877D01*
X005778Y019878D02*
X005526Y019878D01*
X005527Y019879D02*
X005775Y019879D01*
X005772Y019880D02*
X005529Y019880D01*
X005531Y019881D02*
X005770Y019881D01*
X005767Y019882D02*
X005533Y019882D01*
X005535Y019883D02*
X005764Y019883D01*
X005762Y019884D02*
X005537Y019884D01*
X005539Y019885D02*
X005759Y019885D01*
X005756Y019886D02*
X005541Y019886D01*
X005543Y019887D02*
X005753Y019887D01*
X005751Y019888D02*
X005545Y019888D01*
X005547Y019889D02*
X005748Y019889D01*
X005745Y019890D02*
X005549Y019890D01*
X005551Y019891D02*
X005742Y019891D01*
X005740Y019892D02*
X005553Y019892D01*
X005555Y019893D02*
X005737Y019893D01*
X005734Y019894D02*
X005557Y019894D01*
X005559Y019895D02*
X005731Y019895D01*
X005729Y019896D02*
X005561Y019896D01*
X005563Y019897D02*
X005726Y019897D01*
X005723Y019898D02*
X005565Y019898D01*
X005567Y019899D02*
X005720Y019899D01*
X005718Y019900D02*
X005569Y019900D01*
X005571Y019901D02*
X005715Y019901D01*
X005712Y019902D02*
X005574Y019902D01*
X005576Y019903D02*
X005709Y019903D01*
X005707Y019904D02*
X005578Y019904D01*
X005580Y019905D02*
X005704Y019905D01*
X005701Y019906D02*
X005583Y019906D01*
X005585Y019907D02*
X005698Y019907D01*
X005696Y019908D02*
X005587Y019908D01*
X005589Y019909D02*
X005693Y019909D01*
X005690Y019910D02*
X005592Y019910D01*
X005594Y019911D02*
X005687Y019911D01*
X005685Y019912D02*
X005596Y019912D01*
X005598Y019913D02*
X005682Y019913D01*
X005679Y019914D02*
X005601Y019914D01*
X005603Y019915D02*
X005677Y019915D01*
X005674Y019916D02*
X005606Y019916D01*
X005608Y019917D02*
X005672Y019917D01*
X005669Y019918D02*
X005611Y019918D01*
X005613Y019919D02*
X005667Y019919D01*
X005664Y019920D02*
X005616Y019920D01*
X005618Y019921D02*
X005662Y019921D01*
X005659Y019922D02*
X005621Y019922D01*
X005623Y019923D02*
X005657Y019923D01*
X005654Y019923D02*
X005626Y019923D01*
X005628Y019924D02*
X005652Y019924D01*
X005649Y019925D02*
X005631Y019925D01*
X005633Y019926D02*
X005647Y019926D01*
X005644Y019927D02*
X005636Y019927D01*
X005638Y019928D02*
X005642Y019928D01*
D36*
X007730Y015221D03*
X007730Y014827D03*
X007730Y014433D03*
X007730Y014039D03*
D37*
X006519Y012602D03*
X006519Y016658D03*
D38*
X003083Y026705D03*
X030642Y026705D03*
X003083Y003083D03*
D39*
X033930Y017532D03*
X033930Y020524D03*
X033930Y023831D03*
X033930Y026823D03*
D40*
X030859Y025327D03*
X030859Y019028D03*
D41*
X025583Y005504D03*
X025583Y005130D03*
X025583Y004756D03*
X024677Y004756D03*
X024677Y005130D03*
X024677Y005504D03*
M02*
