G75*
G70*
%OFA0B0*%
%FSLAX24Y24*%
%IPPOS*%
%LPD*%
%AMOC8*
5,1,8,0,0,1.08239X$1,22.5*
%
%ADD10C,0.0080*%
%ADD11C,0.0020*%
%ADD12C,0.0050*%
%ADD13C,0.0120*%
%ADD14C,0.0040*%
D10*
X025670Y007170D02*
X025670Y007784D01*
X025670Y008091D02*
X026284Y008705D01*
X026437Y008705D01*
X026591Y008551D01*
X026591Y008244D01*
X026437Y008091D01*
X026591Y007477D02*
X025670Y007477D01*
X026284Y007170D02*
X026591Y007477D01*
X025670Y008091D02*
X025670Y008705D01*
X025823Y009012D02*
X025977Y009012D01*
X026130Y009165D01*
X026130Y009472D01*
X025977Y009625D01*
X025823Y009625D01*
X025670Y009472D01*
X025670Y009165D01*
X025823Y009012D01*
X026130Y009165D02*
X026284Y009012D01*
X026437Y009012D01*
X026591Y009165D01*
X026591Y009472D01*
X026437Y009625D01*
X026284Y009625D01*
X026130Y009472D01*
X025670Y010853D02*
X026591Y011467D01*
X026591Y010853D02*
X025670Y011467D01*
X025823Y012695D02*
X025670Y012848D01*
X025670Y013155D01*
X025823Y013309D01*
X025977Y013309D01*
X026130Y013155D01*
X026130Y012695D01*
X025823Y012695D01*
X026130Y012695D02*
X026437Y013002D01*
X026591Y013309D01*
X026130Y013616D02*
X026130Y014229D01*
X025670Y014076D02*
X026591Y014076D01*
X026130Y013616D01*
X025823Y015457D02*
X025670Y015611D01*
X025670Y015917D01*
X025823Y016071D01*
X026130Y016071D01*
X026130Y015764D01*
X026437Y015457D02*
X025823Y015457D01*
X026437Y015457D02*
X026591Y015611D01*
X026591Y015917D01*
X026437Y016071D01*
X026591Y016378D02*
X026591Y016838D01*
X026437Y016992D01*
X026130Y016992D01*
X025977Y016838D01*
X025977Y016378D01*
X025670Y016378D02*
X026591Y016378D01*
X025977Y016685D02*
X025670Y016992D01*
X025670Y017299D02*
X026284Y017299D01*
X026591Y017606D01*
X026284Y017913D01*
X025670Y017913D01*
X025670Y018219D02*
X026591Y018219D01*
X026591Y018680D01*
X026437Y018833D01*
X026130Y018833D01*
X025977Y018680D01*
X025977Y018219D01*
X026130Y017913D02*
X026130Y017299D01*
X026130Y019140D02*
X026130Y019754D01*
X025670Y019754D02*
X026591Y019754D01*
X026591Y020061D02*
X026591Y020368D01*
X026591Y020214D02*
X025670Y020214D01*
X025670Y020061D02*
X025670Y020368D01*
X025823Y020675D02*
X025670Y020828D01*
X025670Y021135D01*
X025823Y021289D01*
X025823Y021596D02*
X025670Y021749D01*
X025670Y022056D01*
X025823Y022210D01*
X025977Y022210D01*
X026130Y022056D01*
X026130Y021749D01*
X026284Y021596D01*
X026437Y021596D01*
X026591Y021749D01*
X026591Y022056D01*
X026437Y022210D01*
X026437Y021289D02*
X026591Y021135D01*
X026591Y020828D01*
X026437Y020675D01*
X025823Y020675D01*
X025670Y019140D02*
X026591Y019140D01*
X030930Y022780D02*
X030930Y024480D01*
X031725Y024830D02*
X032530Y024830D01*
X033330Y024480D02*
X033330Y022780D01*
X032530Y022430D02*
X031737Y022430D01*
X031430Y023630D02*
X031432Y023682D01*
X031438Y023734D01*
X031448Y023786D01*
X031461Y023836D01*
X031478Y023886D01*
X031499Y023934D01*
X031524Y023980D01*
X031552Y024024D01*
X031583Y024066D01*
X031617Y024106D01*
X031654Y024143D01*
X031694Y024177D01*
X031736Y024208D01*
X031780Y024236D01*
X031826Y024261D01*
X031874Y024282D01*
X031924Y024299D01*
X031974Y024312D01*
X032026Y024322D01*
X032078Y024328D01*
X032130Y024330D01*
X032182Y024328D01*
X032234Y024322D01*
X032286Y024312D01*
X032336Y024299D01*
X032386Y024282D01*
X032434Y024261D01*
X032480Y024236D01*
X032524Y024208D01*
X032566Y024177D01*
X032606Y024143D01*
X032643Y024106D01*
X032677Y024066D01*
X032708Y024024D01*
X032736Y023980D01*
X032761Y023934D01*
X032782Y023886D01*
X032799Y023836D01*
X032812Y023786D01*
X032822Y023734D01*
X032828Y023682D01*
X032830Y023630D01*
X032828Y023578D01*
X032822Y023526D01*
X032812Y023474D01*
X032799Y023424D01*
X032782Y023374D01*
X032761Y023326D01*
X032736Y023280D01*
X032708Y023236D01*
X032677Y023194D01*
X032643Y023154D01*
X032606Y023117D01*
X032566Y023083D01*
X032524Y023052D01*
X032480Y023024D01*
X032434Y022999D01*
X032386Y022978D01*
X032336Y022961D01*
X032286Y022948D01*
X032234Y022938D01*
X032182Y022932D01*
X032130Y022930D01*
X032078Y022932D01*
X032026Y022938D01*
X031974Y022948D01*
X031924Y022961D01*
X031874Y022978D01*
X031826Y022999D01*
X031780Y023024D01*
X031736Y023052D01*
X031694Y023083D01*
X031654Y023117D01*
X031617Y023154D01*
X031583Y023194D01*
X031552Y023236D01*
X031524Y023280D01*
X031499Y023326D01*
X031478Y023374D01*
X031461Y023424D01*
X031448Y023474D01*
X031438Y023526D01*
X031432Y023578D01*
X031430Y023630D01*
X037508Y010973D02*
X037508Y010500D01*
X038059Y010500D01*
X038059Y008768D01*
X037508Y008768D01*
X037508Y008295D01*
X038138Y008295D01*
X039201Y008295D02*
X039201Y010973D01*
X038138Y010973D02*
X037508Y010973D01*
D11*
X037747Y007989D02*
X037747Y007942D01*
X037934Y007756D01*
X037934Y007709D01*
X038024Y007756D02*
X038024Y007989D01*
X037934Y007989D02*
X037747Y007989D01*
X038024Y007756D02*
X038070Y007709D01*
X038164Y007709D01*
X038211Y007756D01*
X038211Y007989D01*
D12*
X013130Y004130D02*
X013130Y025130D01*
X016130Y025130D01*
X016130Y004130D01*
X013130Y004130D01*
X016130Y004130D02*
X029130Y004130D01*
X029130Y025130D01*
X030130Y025130D01*
X030130Y004130D01*
X029130Y004130D01*
X030230Y023734D02*
X030155Y023809D01*
X030155Y023959D01*
X030230Y024034D01*
X030305Y024034D01*
X030380Y023959D01*
X030380Y023809D01*
X030455Y023734D01*
X030530Y023734D01*
X030605Y023809D01*
X030605Y023959D01*
X030530Y024034D01*
X030605Y024195D02*
X030380Y024195D01*
X030455Y024345D01*
X030455Y024420D01*
X030380Y024495D01*
X030230Y024495D01*
X030155Y024420D01*
X030155Y024270D01*
X030230Y024195D01*
X030605Y024195D02*
X030605Y024495D01*
X029130Y025130D02*
X016130Y025130D01*
D13*
X018420Y022304D02*
X018650Y022304D01*
X018881Y022074D01*
X018881Y021383D01*
X018420Y021383D01*
X018190Y021613D01*
X018190Y022074D01*
X018420Y022304D01*
X019341Y021843D02*
X018881Y021383D01*
X019341Y021843D02*
X019571Y022304D01*
X018881Y020923D02*
X018881Y020002D01*
X019111Y019541D02*
X018881Y019311D01*
X018881Y018851D01*
X019111Y018621D01*
X019341Y018621D01*
X019571Y018851D01*
X019571Y019311D01*
X019341Y019541D01*
X019111Y019541D01*
X018881Y019311D02*
X018650Y019541D01*
X018420Y019541D01*
X018190Y019311D01*
X018190Y018851D01*
X018420Y018621D01*
X018650Y018621D01*
X018881Y018851D01*
X019111Y018160D02*
X019341Y018160D01*
X019571Y017930D01*
X019571Y017470D01*
X019341Y017239D01*
X019571Y016319D02*
X018190Y016319D01*
X018190Y016779D02*
X018190Y015858D01*
X018190Y015398D02*
X019571Y015398D01*
X019111Y014937D01*
X019571Y014477D01*
X018190Y014477D01*
X018420Y014017D02*
X018190Y013786D01*
X018190Y013326D01*
X018420Y013096D01*
X019341Y013096D01*
X019571Y013326D01*
X019571Y013786D01*
X019341Y014017D01*
X018881Y014017D02*
X018881Y013556D01*
X018881Y014017D02*
X018420Y014017D01*
X018420Y012636D02*
X019341Y012636D01*
X019571Y012405D01*
X019571Y011945D01*
X019341Y011715D01*
X018420Y011715D01*
X018190Y011945D01*
X018190Y012405D01*
X018420Y012636D01*
X018420Y011254D02*
X019341Y011254D01*
X019571Y011024D01*
X019571Y010334D01*
X018190Y010334D01*
X018190Y011024D01*
X018420Y011254D01*
X018190Y008492D02*
X019111Y008492D01*
X019571Y008032D01*
X019111Y007571D01*
X018190Y007571D01*
X018190Y007111D02*
X018190Y006190D01*
X019571Y006190D01*
X019571Y007111D01*
X018881Y007571D02*
X018881Y008492D01*
X018881Y006650D02*
X018881Y006190D01*
X019111Y015858D02*
X019571Y016319D01*
X018190Y017239D02*
X019111Y018160D01*
X018190Y018160D02*
X018190Y017239D01*
D14*
X022150Y021422D02*
X022150Y021576D01*
X022150Y021499D02*
X022610Y021499D01*
X022610Y021422D02*
X022610Y021576D01*
X022534Y021729D02*
X022227Y021729D01*
X022150Y021806D01*
X022150Y021959D01*
X022227Y022036D01*
X022150Y022190D02*
X022150Y022497D01*
X022150Y022343D02*
X022610Y022343D01*
X022457Y022190D01*
X022534Y022036D02*
X022610Y021959D01*
X022610Y021806D01*
X022534Y021729D01*
M02*
