G75*
G70*
%OFA0B0*%
%FSLAX24Y24*%
%IPPOS*%
%LPD*%
%AMOC8*
5,1,8,0,0,1.08239X$1,22.5*
%
%ADD10C,0.0768*%
%ADD11C,0.0620*%
%ADD12C,0.0160*%
%ADD13C,0.0600*%
%ADD14C,0.0740*%
%ADD15C,0.0515*%
%ADD16C,0.1063*%
%ADD17C,0.0562*%
%ADD18C,0.0160*%
%ADD19C,0.0238*%
%ADD20C,0.0100*%
%ADD21C,0.0060*%
D10*
X035130Y002068D03*
X035130Y004824D03*
D11*
X034067Y004430D03*
X034067Y002461D03*
D12*
X018630Y021630D03*
X018630Y021630D03*
X018630Y021630D03*
X018630Y021630D03*
D13*
X031830Y015134D02*
X032430Y015134D01*
X032430Y014134D02*
X031830Y014134D01*
X031830Y013134D02*
X032430Y013134D01*
X032430Y012134D02*
X031830Y012134D01*
X031830Y011134D02*
X032430Y011134D01*
X032430Y010134D02*
X031830Y010134D01*
X031830Y009134D02*
X032430Y009134D01*
X032430Y008134D02*
X031830Y008134D01*
X031830Y007134D02*
X032430Y007134D01*
D14*
X029520Y006910D03*
X027740Y006910D03*
X027740Y004350D03*
X029520Y004350D03*
X001130Y014130D03*
X001130Y015130D03*
D15*
X009373Y015130D02*
X009887Y015130D01*
X009887Y014130D02*
X009373Y014130D01*
X009373Y013130D02*
X009887Y013130D01*
X009887Y012130D02*
X009373Y012130D01*
X009373Y011130D02*
X009887Y011130D01*
X009887Y010130D02*
X009373Y010130D01*
X009373Y009130D02*
X009887Y009130D01*
X009887Y008130D02*
X009373Y008130D01*
X009373Y007130D02*
X009887Y007130D01*
X009887Y006130D02*
X009373Y006130D01*
X009373Y005130D02*
X009887Y005130D01*
X009887Y016130D02*
X009373Y016130D01*
X009373Y017130D02*
X009887Y017130D01*
X009887Y018130D02*
X009373Y018130D01*
X009373Y019130D02*
X009887Y019130D01*
X009887Y020130D02*
X009373Y020130D01*
X009373Y021130D02*
X009887Y021130D01*
X009887Y022130D02*
X009373Y022130D01*
X009373Y023130D02*
X009887Y023130D01*
X009887Y024130D02*
X009373Y024130D01*
X026373Y024130D02*
X026887Y024130D01*
X026887Y023130D02*
X026373Y023130D01*
X026373Y022130D02*
X026887Y022130D01*
X026887Y007130D02*
X026373Y007130D01*
X026373Y006130D02*
X026887Y006130D01*
X026887Y005130D02*
X026373Y005130D01*
D16*
X033930Y017532D03*
X033930Y020524D03*
X033930Y023831D03*
X033930Y026823D03*
D17*
X030859Y025327D03*
X030859Y019028D03*
D18*
X011630Y015630D02*
X010630Y015630D01*
X010630Y010130D01*
X009630Y010130D01*
X010630Y010130D02*
X010630Y009130D01*
X010630Y004930D01*
X010930Y004630D01*
X011130Y004630D01*
X010130Y012630D02*
X008430Y012630D01*
X006130Y012630D01*
X005380Y012630D01*
X005130Y012630D01*
X003130Y012630D01*
X002630Y012630D01*
X001130Y014130D01*
X001130Y015130D02*
X002630Y016630D01*
X008630Y016630D01*
X008630Y015630D01*
X010130Y015630D01*
X010630Y015630D01*
D19*
X011630Y015630D03*
X012230Y016730D03*
X015930Y017230D03*
X016130Y016930D03*
X018130Y018130D03*
X019030Y018430D03*
X018630Y019255D03*
X018130Y019230D03*
X020130Y018130D03*
X020730Y018130D03*
X022230Y016930D03*
X022630Y016530D03*
X022230Y016330D03*
X023155Y016130D03*
X023330Y017330D03*
X023430Y017930D03*
X023330Y018230D03*
X022330Y019330D03*
X019130Y020830D03*
X018630Y020830D03*
X014880Y019380D03*
X010730Y019630D03*
X018380Y015380D03*
X018780Y016005D03*
X018505Y016380D03*
X021380Y015755D03*
X022830Y014230D03*
X022530Y013930D03*
X021230Y013730D03*
X021230Y013030D03*
X021830Y011930D03*
X021530Y011230D03*
X020930Y011630D03*
X022130Y010830D03*
X022130Y009930D03*
X020930Y009730D03*
X021630Y008930D03*
X019730Y009430D03*
X018830Y010230D03*
X018380Y010330D03*
X017830Y010230D03*
X016530Y009230D03*
X016330Y009530D03*
X016030Y009830D03*
X016730Y008930D03*
X015130Y008830D03*
X015630Y007130D03*
X011630Y009130D03*
X014880Y011880D03*
X015430Y011330D03*
X016030Y011630D03*
X016330Y011930D03*
X017830Y012830D03*
X018530Y013080D03*
X019130Y013030D03*
X018330Y013730D03*
X023630Y014830D03*
X025630Y016130D03*
X025630Y017130D03*
X023930Y012930D03*
X024530Y011830D03*
X025130Y010830D03*
X025430Y010930D03*
X025030Y010530D03*
X024730Y010430D03*
X024630Y010130D03*
X026130Y010430D03*
X026230Y010130D03*
X026530Y010030D03*
X026630Y009730D03*
X027730Y008530D03*
X030630Y008530D03*
X030630Y012530D03*
X032630Y004630D03*
X033730Y003930D03*
X023380Y004630D03*
X011130Y004630D03*
X010130Y012630D03*
X008430Y012630D03*
X005380Y012630D03*
D20*
X005130Y012630D01*
X006130Y012630D02*
X008430Y012630D01*
X011130Y012640D02*
X015870Y012640D01*
X015870Y012738D02*
X011130Y012738D01*
X011130Y012837D02*
X015870Y012837D01*
X015870Y012935D02*
X011130Y012935D01*
X011130Y013034D02*
X015870Y013034D01*
X015870Y013132D02*
X011130Y013132D01*
X011130Y013231D02*
X015870Y013231D01*
X015870Y013329D02*
X011130Y013329D01*
X011130Y013428D02*
X015870Y013428D01*
X015870Y013526D02*
X011130Y013526D01*
X011130Y013625D02*
X015870Y013625D01*
X015870Y013723D02*
X011130Y013723D01*
X011130Y013822D02*
X015870Y013822D01*
X015870Y013920D02*
X011130Y013920D01*
X011130Y014019D02*
X015870Y014019D01*
X015870Y014117D02*
X011130Y014117D01*
X011130Y014216D02*
X015870Y014216D01*
X015870Y014314D02*
X011130Y014314D01*
X011130Y014413D02*
X015870Y014413D01*
X015870Y014511D02*
X011130Y014511D01*
X011130Y014610D02*
X015870Y014610D01*
X015870Y014708D02*
X011130Y014708D01*
X011130Y014807D02*
X015870Y014807D01*
X015870Y014905D02*
X011130Y014905D01*
X011130Y015004D02*
X015870Y015004D01*
X015870Y015102D02*
X011130Y015102D01*
X011130Y015201D02*
X015870Y015201D01*
X015870Y015299D02*
X011130Y015299D01*
X011130Y015398D02*
X015870Y015398D01*
X015870Y015496D02*
X011820Y015496D01*
X011859Y015535D02*
X011725Y015401D01*
X011535Y015401D01*
X011496Y015440D01*
X011130Y015440D01*
X011130Y009290D01*
X011466Y009290D01*
X011535Y009359D01*
X011725Y009359D01*
X011859Y009225D01*
X011859Y009035D01*
X011725Y008901D01*
X011535Y008901D01*
X011466Y008970D01*
X011130Y008970D01*
X011130Y008630D01*
X015270Y008630D01*
X015270Y011166D01*
X015201Y011235D01*
X015201Y011425D01*
X015335Y011559D01*
X015525Y011559D01*
X015659Y011425D01*
X015659Y011235D01*
X015590Y011166D01*
X015590Y008630D01*
X015870Y008630D01*
X015870Y009666D01*
X015801Y009735D01*
X015801Y009925D01*
X015935Y010059D01*
X016125Y010059D01*
X016259Y009925D01*
X016259Y009759D01*
X016425Y009759D01*
X016559Y009625D01*
X016559Y009459D01*
X016625Y009459D01*
X016759Y009325D01*
X016759Y009159D01*
X016825Y009159D01*
X016959Y009025D01*
X016959Y008927D01*
X017296Y008590D01*
X017296Y008590D01*
X019096Y006790D01*
X024864Y006790D01*
X025070Y006996D01*
X025070Y008630D01*
X020430Y008630D01*
X020430Y011430D01*
X019059Y012801D01*
X019035Y012801D01*
X018990Y012846D01*
X018990Y010394D01*
X019059Y010325D01*
X019059Y010135D01*
X018925Y010001D01*
X018735Y010001D01*
X018601Y010135D01*
X018601Y010325D01*
X018670Y010394D01*
X018670Y013130D01*
X018630Y013130D01*
X018630Y015831D01*
X018551Y015910D01*
X018551Y016100D01*
X018630Y016179D01*
X018630Y021404D01*
X018594Y021440D01*
X018551Y021440D01*
X018440Y021551D01*
X018440Y021594D01*
X018404Y021630D01*
X011130Y021630D01*
X011130Y016890D01*
X012066Y016890D01*
X012135Y016959D01*
X012325Y016959D01*
X012459Y016825D01*
X012459Y016635D01*
X012325Y016501D01*
X012135Y016501D01*
X012066Y016570D01*
X011130Y016570D01*
X011130Y015820D01*
X011496Y015820D01*
X011535Y015859D01*
X011725Y015859D01*
X011859Y015725D01*
X011859Y015535D01*
X011859Y015595D02*
X015870Y015595D01*
X015870Y015693D02*
X011859Y015693D01*
X011792Y015792D02*
X015870Y015792D01*
X015870Y015890D02*
X011130Y015890D01*
X011130Y015989D02*
X015870Y015989D01*
X015870Y016087D02*
X011130Y016087D01*
X011130Y016186D02*
X015870Y016186D01*
X015870Y016284D02*
X011130Y016284D01*
X011130Y016383D02*
X015870Y016383D01*
X015870Y016481D02*
X011130Y016481D01*
X011030Y016730D02*
X009880Y017880D01*
X009630Y018130D01*
X009630Y019130D01*
X009130Y019630D02*
X008630Y019130D01*
X008630Y016630D01*
X008630Y015630D01*
X010630Y015630D02*
X010630Y016630D01*
X010130Y017130D01*
X009630Y017130D01*
X009880Y017880D02*
X009630Y018130D01*
X011130Y018156D02*
X017901Y018156D01*
X017901Y018225D02*
X017901Y018035D01*
X018035Y017901D01*
X018170Y017901D01*
X018170Y016696D01*
X017970Y016496D01*
X017970Y015164D01*
X018064Y015070D01*
X018170Y014964D01*
X018170Y013894D01*
X018101Y013825D01*
X018101Y013635D01*
X018235Y013501D01*
X018425Y013501D01*
X018559Y013635D01*
X018559Y013825D01*
X018490Y013894D01*
X018490Y015096D01*
X018290Y015296D01*
X018290Y016364D01*
X018396Y016470D01*
X018490Y016564D01*
X018490Y018196D01*
X018396Y018290D01*
X018294Y018290D01*
X018290Y018294D01*
X018290Y019066D01*
X018359Y019135D01*
X018359Y019325D01*
X018225Y019459D01*
X018035Y019459D01*
X017901Y019325D01*
X017901Y019135D01*
X017970Y019066D01*
X017970Y018294D01*
X017901Y018225D01*
X017930Y018254D02*
X011130Y018254D01*
X011130Y018353D02*
X017970Y018353D01*
X017970Y018451D02*
X011130Y018451D01*
X011130Y018550D02*
X017970Y018550D01*
X017970Y018648D02*
X011130Y018648D01*
X011130Y018747D02*
X017970Y018747D01*
X017970Y018845D02*
X011130Y018845D01*
X011130Y018944D02*
X017970Y018944D01*
X017970Y019042D02*
X011130Y019042D01*
X011130Y019141D02*
X017901Y019141D01*
X017901Y019239D02*
X011130Y019239D01*
X011130Y019338D02*
X017914Y019338D01*
X018012Y019436D02*
X011130Y019436D01*
X011130Y019535D02*
X018630Y019535D01*
X018630Y019633D02*
X011130Y019633D01*
X011130Y019732D02*
X018630Y019732D01*
X018630Y019830D02*
X011130Y019830D01*
X011130Y019929D02*
X018630Y019929D01*
X018630Y020027D02*
X011130Y020027D01*
X011130Y020126D02*
X018630Y020126D01*
X018630Y020224D02*
X011130Y020224D01*
X011130Y020323D02*
X018630Y020323D01*
X018630Y020421D02*
X011130Y020421D01*
X011130Y020520D02*
X018630Y020520D01*
X018630Y020618D02*
X011130Y020618D01*
X011130Y020717D02*
X018630Y020717D01*
X018630Y020815D02*
X011130Y020815D01*
X011130Y020914D02*
X018630Y020914D01*
X018630Y020830D02*
X018630Y021130D01*
X018630Y020830D01*
X018630Y019255D01*
X018255Y019630D01*
X015130Y019630D01*
X014880Y019380D01*
X015835Y017459D02*
X015701Y017325D01*
X015701Y017135D01*
X015835Y017001D01*
X015901Y017001D01*
X015901Y016927D01*
X015870Y016896D01*
X015870Y011794D01*
X015801Y011725D01*
X015801Y011535D01*
X015935Y011401D01*
X016125Y011401D01*
X016259Y011535D01*
X016259Y011701D01*
X016425Y011701D01*
X016559Y011835D01*
X016559Y011933D01*
X016590Y011964D01*
X016590Y017196D01*
X016496Y017290D01*
X016396Y017390D01*
X016094Y017390D01*
X016025Y017459D01*
X015835Y017459D01*
X015744Y017368D02*
X011130Y017368D01*
X011130Y017466D02*
X018170Y017466D01*
X018170Y017368D02*
X016419Y017368D01*
X016517Y017269D02*
X018170Y017269D01*
X018170Y017171D02*
X016590Y017171D01*
X016590Y017072D02*
X018170Y017072D01*
X018170Y016974D02*
X016590Y016974D01*
X016590Y016875D02*
X018170Y016875D01*
X018170Y016777D02*
X016590Y016777D01*
X016590Y016678D02*
X018152Y016678D01*
X018053Y016580D02*
X016590Y016580D01*
X016590Y016481D02*
X017970Y016481D01*
X017970Y016383D02*
X016590Y016383D01*
X016590Y016284D02*
X017970Y016284D01*
X017970Y016186D02*
X016590Y016186D01*
X016590Y016087D02*
X017970Y016087D01*
X017970Y015989D02*
X016590Y015989D01*
X016590Y015890D02*
X017970Y015890D01*
X017970Y015792D02*
X016590Y015792D01*
X016590Y015693D02*
X017970Y015693D01*
X017970Y015595D02*
X016590Y015595D01*
X016590Y015496D02*
X017970Y015496D01*
X017970Y015398D02*
X016590Y015398D01*
X016590Y015299D02*
X017970Y015299D01*
X017970Y015201D02*
X016590Y015201D01*
X016590Y015102D02*
X018032Y015102D01*
X018130Y015004D02*
X016590Y015004D01*
X016590Y014905D02*
X018170Y014905D01*
X018170Y014807D02*
X016590Y014807D01*
X016590Y014708D02*
X018170Y014708D01*
X018170Y014610D02*
X016590Y014610D01*
X016590Y014511D02*
X018170Y014511D01*
X018170Y014413D02*
X016590Y014413D01*
X016590Y014314D02*
X018170Y014314D01*
X018170Y014216D02*
X016590Y014216D01*
X016590Y014117D02*
X018170Y014117D01*
X018170Y014019D02*
X016590Y014019D01*
X016590Y013920D02*
X018170Y013920D01*
X018101Y013822D02*
X016590Y013822D01*
X016590Y013723D02*
X018101Y013723D01*
X018112Y013625D02*
X016590Y013625D01*
X016590Y013526D02*
X018210Y013526D01*
X018330Y013730D02*
X018330Y015030D01*
X018130Y015230D01*
X018130Y016430D01*
X018330Y016630D01*
X018330Y018130D01*
X018130Y018130D01*
X018130Y019230D01*
X018359Y019239D02*
X018630Y019239D01*
X018630Y019255D02*
X018505Y019130D01*
X018630Y019255D01*
X018630Y019338D02*
X018346Y019338D01*
X018248Y019436D02*
X018630Y019436D01*
X018790Y019436D02*
X022098Y019436D01*
X022105Y019429D02*
X022101Y019425D01*
X022101Y019235D01*
X022235Y019101D01*
X022425Y019101D01*
X022559Y019235D01*
X022559Y019425D01*
X022490Y019494D01*
X022490Y019496D01*
X020356Y021630D01*
X027630Y021630D01*
X029130Y023130D01*
X029130Y027730D01*
X035480Y027730D01*
X035480Y016030D01*
X033768Y016030D01*
X033680Y015942D01*
X033680Y015630D01*
X030130Y015630D01*
X027130Y012630D01*
X027130Y011630D01*
X026159Y010659D01*
X026035Y010659D01*
X025901Y010525D01*
X025901Y010427D01*
X025070Y009596D01*
X025070Y008790D01*
X021814Y008790D01*
X021859Y008835D01*
X021859Y008933D01*
X022290Y009364D01*
X022290Y009766D01*
X022359Y009835D01*
X022359Y010025D01*
X022225Y010159D01*
X022035Y010159D01*
X021901Y010025D01*
X021901Y009835D01*
X021970Y009766D01*
X021970Y009496D01*
X021633Y009159D01*
X021535Y009159D01*
X021401Y009025D01*
X021401Y008835D01*
X021446Y008790D01*
X020590Y008790D01*
X020590Y011496D01*
X020316Y011770D01*
X020746Y011770D01*
X020701Y011725D01*
X020701Y011535D01*
X020835Y011401D01*
X020933Y011401D01*
X021170Y011164D01*
X021264Y011070D01*
X021366Y011070D01*
X021435Y011001D01*
X021625Y011001D01*
X021759Y011135D01*
X021759Y011325D01*
X021625Y011459D01*
X021435Y011459D01*
X021381Y011405D01*
X021159Y011627D01*
X021159Y011725D01*
X021114Y011770D01*
X021666Y011770D01*
X021735Y011701D01*
X021925Y011701D01*
X022059Y011835D01*
X022059Y012025D01*
X021925Y012159D01*
X021735Y012159D01*
X021666Y012090D01*
X019996Y012090D01*
X019255Y012831D01*
X019359Y012935D01*
X021001Y012935D01*
X021135Y012801D01*
X021325Y012801D01*
X021459Y012935D01*
X022370Y012935D01*
X022370Y012837D02*
X021360Y012837D01*
X021459Y012935D02*
X021459Y013125D01*
X021390Y013194D01*
X021390Y013566D01*
X021459Y013635D01*
X021459Y013825D01*
X021325Y013959D01*
X021135Y013959D01*
X021001Y013825D01*
X021001Y013635D01*
X021070Y013566D01*
X021070Y013194D01*
X021001Y013125D01*
X021001Y012935D01*
X021001Y013034D02*
X019359Y013034D01*
X019359Y013125D02*
X019290Y013194D01*
X019290Y016396D01*
X018990Y016696D01*
X018990Y018164D01*
X019027Y018201D01*
X019125Y018201D01*
X019259Y018335D01*
X019259Y018525D01*
X019125Y018659D01*
X018935Y018659D01*
X018801Y018525D01*
X018801Y018427D01*
X018790Y018416D01*
X018790Y019091D01*
X018859Y019160D01*
X018859Y019350D01*
X018790Y019419D01*
X018790Y020666D01*
X018859Y020735D01*
X018859Y020925D01*
X018790Y020994D01*
X018790Y021470D01*
X020064Y021470D01*
X022105Y019429D01*
X022101Y019338D02*
X018859Y019338D01*
X018859Y019239D02*
X022101Y019239D01*
X022196Y019141D02*
X018839Y019141D01*
X018790Y019042D02*
X030468Y019042D01*
X030468Y019105D02*
X030468Y018950D01*
X030528Y018806D01*
X030638Y018696D01*
X030781Y018637D01*
X030937Y018637D01*
X031081Y018696D01*
X031191Y018806D01*
X031250Y018950D01*
X031250Y019105D01*
X031191Y019249D01*
X031081Y019359D01*
X030937Y019419D01*
X030781Y019419D01*
X030638Y019359D01*
X030528Y019249D01*
X030468Y019105D01*
X030483Y019141D02*
X022464Y019141D01*
X022559Y019239D02*
X030523Y019239D01*
X030616Y019338D02*
X022559Y019338D01*
X022548Y019436D02*
X035480Y019436D01*
X035480Y019338D02*
X031102Y019338D01*
X031195Y019239D02*
X035480Y019239D01*
X035480Y019141D02*
X031236Y019141D01*
X031250Y019042D02*
X035480Y019042D01*
X035480Y018944D02*
X031248Y018944D01*
X031207Y018845D02*
X035480Y018845D01*
X035480Y018747D02*
X031131Y018747D01*
X030965Y018648D02*
X035480Y018648D01*
X035480Y018550D02*
X019234Y018550D01*
X019259Y018451D02*
X035480Y018451D01*
X035480Y018353D02*
X020831Y018353D01*
X020825Y018359D02*
X020635Y018359D01*
X020566Y018290D01*
X020294Y018290D01*
X020225Y018359D01*
X020035Y018359D01*
X019901Y018225D01*
X019901Y018035D01*
X020035Y017901D01*
X020225Y017901D01*
X020294Y017970D01*
X020566Y017970D01*
X020635Y017901D01*
X020825Y017901D01*
X020959Y018035D01*
X020959Y018225D01*
X020825Y018359D01*
X020930Y018254D02*
X035480Y018254D01*
X035480Y018156D02*
X034100Y018156D01*
X034058Y018173D02*
X033802Y018173D01*
X033567Y018075D01*
X033386Y017895D01*
X033289Y017659D01*
X033289Y017404D01*
X033386Y017168D01*
X033567Y016988D01*
X033802Y016890D01*
X034058Y016890D01*
X034293Y016988D01*
X034474Y017168D01*
X034571Y017404D01*
X034571Y017659D01*
X034474Y017895D01*
X034293Y018075D01*
X034058Y018173D01*
X034312Y018057D02*
X035480Y018057D01*
X035480Y017959D02*
X034410Y017959D01*
X034488Y017860D02*
X035480Y017860D01*
X035480Y017762D02*
X034529Y017762D01*
X034570Y017663D02*
X035480Y017663D01*
X035480Y017565D02*
X034571Y017565D01*
X034571Y017466D02*
X035480Y017466D01*
X035480Y017368D02*
X034556Y017368D01*
X034516Y017269D02*
X035480Y017269D01*
X035480Y017171D02*
X034475Y017171D01*
X034378Y017072D02*
X035480Y017072D01*
X035480Y016974D02*
X034259Y016974D01*
X033601Y016974D02*
X025797Y016974D01*
X025790Y016966D02*
X025859Y017035D01*
X025859Y017225D01*
X025725Y017359D01*
X025535Y017359D01*
X025401Y017225D01*
X025401Y017035D01*
X025470Y016966D01*
X025470Y016294D01*
X025401Y016225D01*
X025401Y016035D01*
X025535Y015901D01*
X025725Y015901D01*
X025859Y016035D01*
X025859Y016225D01*
X025790Y016294D01*
X025790Y016966D01*
X025790Y016875D02*
X035480Y016875D01*
X035480Y016777D02*
X025790Y016777D01*
X025790Y016678D02*
X035480Y016678D01*
X035480Y016580D02*
X025790Y016580D01*
X025790Y016481D02*
X035480Y016481D01*
X035480Y016383D02*
X025790Y016383D01*
X025800Y016284D02*
X035480Y016284D01*
X035480Y016186D02*
X025859Y016186D01*
X025859Y016087D02*
X035480Y016087D01*
X033726Y015989D02*
X025812Y015989D01*
X025630Y016130D02*
X025630Y017130D01*
X025463Y016974D02*
X023490Y016974D01*
X023490Y017072D02*
X025401Y017072D01*
X025401Y017171D02*
X023494Y017171D01*
X023490Y017166D02*
X023559Y017235D01*
X023559Y017425D01*
X023425Y017559D01*
X023285Y017559D01*
X023427Y017701D01*
X023525Y017701D01*
X023659Y017835D01*
X023659Y018025D01*
X023525Y018159D01*
X023335Y018159D01*
X023201Y018025D01*
X023201Y017927D01*
X022379Y017105D01*
X022325Y017159D01*
X022135Y017159D01*
X022001Y017025D01*
X022001Y016835D01*
X022135Y016701D01*
X022325Y016701D01*
X022394Y016770D01*
X022496Y016770D01*
X023101Y017375D01*
X023101Y017235D01*
X023170Y017166D01*
X023170Y016371D01*
X023158Y016359D01*
X023060Y016359D01*
X022926Y016225D01*
X022926Y016035D01*
X023060Y015901D01*
X023250Y015901D01*
X023384Y016035D01*
X023384Y016133D01*
X023490Y016239D01*
X023490Y017166D01*
X023559Y017269D02*
X025445Y017269D01*
X025815Y017269D02*
X033344Y017269D01*
X033304Y017368D02*
X023559Y017368D01*
X023518Y017466D02*
X033289Y017466D01*
X033289Y017565D02*
X023291Y017565D01*
X023389Y017663D02*
X033290Y017663D01*
X033331Y017762D02*
X023585Y017762D01*
X023659Y017860D02*
X033372Y017860D01*
X033450Y017959D02*
X023659Y017959D01*
X023627Y018057D02*
X033548Y018057D01*
X033760Y018156D02*
X023528Y018156D01*
X023332Y018156D02*
X020959Y018156D01*
X020959Y018057D02*
X023233Y018057D01*
X023201Y017959D02*
X020882Y017959D01*
X020930Y017830D02*
X019330Y017830D01*
X019330Y017930D01*
X019330Y018930D01*
X019130Y019130D01*
X019130Y020630D01*
X019130Y020830D01*
X019130Y020930D01*
X019130Y020830D01*
X019130Y020930D02*
X019130Y021130D01*
X018630Y021630D01*
X020130Y021630D01*
X022330Y019430D01*
X022330Y019330D01*
X022452Y019535D02*
X035480Y019535D01*
X035480Y019633D02*
X022353Y019633D01*
X022255Y019732D02*
X035480Y019732D01*
X035480Y019830D02*
X022156Y019830D01*
X022058Y019929D02*
X033691Y019929D01*
X033802Y019882D02*
X034058Y019882D01*
X034293Y019980D01*
X034474Y020160D01*
X034571Y020396D01*
X034571Y020651D01*
X034474Y020887D01*
X034293Y021068D01*
X034058Y021165D01*
X033802Y021165D01*
X033567Y021068D01*
X033386Y020887D01*
X033289Y020651D01*
X033289Y020396D01*
X033386Y020160D01*
X033567Y019980D01*
X033802Y019882D01*
X033519Y020027D02*
X021959Y020027D01*
X021861Y020126D02*
X033421Y020126D01*
X033360Y020224D02*
X021762Y020224D01*
X021664Y020323D02*
X033319Y020323D01*
X033289Y020421D02*
X021565Y020421D01*
X021467Y020520D02*
X033289Y020520D01*
X033289Y020618D02*
X021368Y020618D01*
X021270Y020717D02*
X033316Y020717D01*
X033356Y020815D02*
X021171Y020815D01*
X021073Y020914D02*
X033413Y020914D01*
X033511Y021012D02*
X020974Y021012D01*
X020876Y021111D02*
X033670Y021111D01*
X034190Y021111D02*
X035480Y021111D01*
X035480Y021209D02*
X020777Y021209D01*
X020679Y021308D02*
X035480Y021308D01*
X035480Y021406D02*
X020580Y021406D01*
X020482Y021505D02*
X035480Y021505D01*
X035480Y021603D02*
X020383Y021603D01*
X020128Y021406D02*
X018790Y021406D01*
X018790Y021308D02*
X020226Y021308D01*
X020325Y021209D02*
X018790Y021209D01*
X018790Y021111D02*
X020423Y021111D01*
X020522Y021012D02*
X018790Y021012D01*
X018859Y020914D02*
X020620Y020914D01*
X020719Y020815D02*
X018859Y020815D01*
X018840Y020717D02*
X020817Y020717D01*
X020916Y020618D02*
X018790Y020618D01*
X018790Y020520D02*
X021014Y020520D01*
X021113Y020421D02*
X018790Y020421D01*
X018790Y020323D02*
X021211Y020323D01*
X021310Y020224D02*
X018790Y020224D01*
X018790Y020126D02*
X021408Y020126D01*
X021507Y020027D02*
X018790Y020027D01*
X018790Y019929D02*
X021605Y019929D01*
X021704Y019830D02*
X018790Y019830D01*
X018790Y019732D02*
X021802Y019732D01*
X021901Y019633D02*
X018790Y019633D01*
X018790Y019535D02*
X021999Y019535D01*
X021330Y018230D02*
X020930Y017830D01*
X020730Y018130D02*
X020130Y018130D01*
X020282Y017959D02*
X020578Y017959D01*
X020629Y018353D02*
X020231Y018353D01*
X020029Y018353D02*
X019259Y018353D01*
X019178Y018254D02*
X019930Y018254D01*
X019901Y018156D02*
X018990Y018156D01*
X018990Y018057D02*
X019901Y018057D01*
X019978Y017959D02*
X018990Y017959D01*
X018990Y017860D02*
X023134Y017860D01*
X023035Y017762D02*
X018990Y017762D01*
X018990Y017663D02*
X022937Y017663D01*
X022838Y017565D02*
X018990Y017565D01*
X018990Y017466D02*
X022740Y017466D01*
X022641Y017368D02*
X018990Y017368D01*
X018990Y017269D02*
X022543Y017269D01*
X022444Y017171D02*
X018990Y017171D01*
X018990Y017072D02*
X022048Y017072D01*
X022001Y016974D02*
X018990Y016974D01*
X018990Y016875D02*
X022001Y016875D01*
X022060Y016777D02*
X018990Y016777D01*
X019008Y016678D02*
X022454Y016678D01*
X022401Y016625D02*
X022401Y016483D01*
X022325Y016559D01*
X022135Y016559D01*
X022001Y016425D01*
X022001Y016235D01*
X022070Y016166D01*
X022070Y015464D01*
X023170Y014364D01*
X023270Y014264D01*
X023270Y012116D01*
X022990Y012396D01*
X022990Y014066D01*
X023059Y014135D01*
X023059Y014325D01*
X022925Y014459D01*
X022735Y014459D01*
X022601Y014325D01*
X022601Y014159D01*
X022435Y014159D01*
X022301Y014025D01*
X022301Y013835D01*
X022370Y013766D01*
X022370Y012164D01*
X024401Y010133D01*
X024401Y010035D01*
X024535Y009901D01*
X024725Y009901D01*
X024859Y010035D01*
X024859Y010225D01*
X024854Y010230D01*
X024930Y010306D01*
X024935Y010301D01*
X025125Y010301D01*
X025259Y010435D01*
X025259Y010625D01*
X025254Y010630D01*
X025330Y010706D01*
X025335Y010701D01*
X025525Y010701D01*
X025659Y010835D01*
X025659Y011025D01*
X025525Y011159D01*
X025427Y011159D01*
X024759Y011827D01*
X024759Y011925D01*
X024625Y012059D01*
X024435Y012059D01*
X024301Y011925D01*
X024301Y011885D01*
X023790Y012396D01*
X023790Y012746D01*
X023835Y012701D01*
X024025Y012701D01*
X024159Y012835D01*
X024159Y013025D01*
X024090Y013094D01*
X024090Y014596D01*
X023859Y014827D01*
X023859Y014925D01*
X023725Y015059D01*
X023535Y015059D01*
X023401Y014925D01*
X023401Y014885D01*
X022790Y015496D01*
X029996Y015496D01*
X029898Y015398D02*
X022889Y015398D01*
X022987Y015299D02*
X029799Y015299D01*
X029701Y015201D02*
X023086Y015201D01*
X023184Y015102D02*
X029602Y015102D01*
X029504Y015004D02*
X023780Y015004D01*
X023859Y014905D02*
X029405Y014905D01*
X029307Y014807D02*
X023880Y014807D01*
X023978Y014708D02*
X029208Y014708D01*
X029110Y014610D02*
X024077Y014610D01*
X024090Y014511D02*
X029011Y014511D01*
X028913Y014413D02*
X024090Y014413D01*
X024090Y014314D02*
X028814Y014314D01*
X028716Y014216D02*
X024090Y014216D01*
X024090Y014117D02*
X028617Y014117D01*
X028519Y014019D02*
X024090Y014019D01*
X024090Y013920D02*
X028420Y013920D01*
X028322Y013822D02*
X024090Y013822D01*
X024090Y013723D02*
X028223Y013723D01*
X028125Y013625D02*
X024090Y013625D01*
X024090Y013526D02*
X028026Y013526D01*
X027928Y013428D02*
X024090Y013428D01*
X024090Y013329D02*
X027829Y013329D01*
X027731Y013231D02*
X024090Y013231D01*
X024090Y013132D02*
X027632Y013132D01*
X027534Y013034D02*
X024150Y013034D01*
X024159Y012935D02*
X027435Y012935D01*
X027337Y012837D02*
X024159Y012837D01*
X024062Y012738D02*
X027238Y012738D01*
X027140Y012640D02*
X023790Y012640D01*
X023790Y012738D02*
X023798Y012738D01*
X023790Y012541D02*
X027130Y012541D01*
X027130Y012443D02*
X023790Y012443D01*
X023842Y012344D02*
X027130Y012344D01*
X027130Y012246D02*
X023941Y012246D01*
X024039Y012147D02*
X027130Y012147D01*
X027130Y012049D02*
X024635Y012049D01*
X024734Y011950D02*
X027130Y011950D01*
X027130Y011852D02*
X024759Y011852D01*
X024833Y011753D02*
X027130Y011753D01*
X027130Y011655D02*
X024932Y011655D01*
X025030Y011556D02*
X027056Y011556D01*
X026958Y011458D02*
X025129Y011458D01*
X025227Y011359D02*
X026859Y011359D01*
X026761Y011261D02*
X025326Y011261D01*
X025424Y011162D02*
X026662Y011162D01*
X026564Y011064D02*
X025620Y011064D01*
X025659Y010965D02*
X026465Y010965D01*
X026367Y010867D02*
X025659Y010867D01*
X025592Y010768D02*
X026268Y010768D01*
X026170Y010670D02*
X025293Y010670D01*
X025259Y010571D02*
X025947Y010571D01*
X025901Y010473D02*
X025259Y010473D01*
X025198Y010374D02*
X025848Y010374D01*
X025749Y010276D02*
X024899Y010276D01*
X024859Y010177D02*
X025651Y010177D01*
X025552Y010079D02*
X024859Y010079D01*
X024804Y009980D02*
X025454Y009980D01*
X025355Y009882D02*
X022359Y009882D01*
X022359Y009980D02*
X024456Y009980D01*
X024401Y010079D02*
X022305Y010079D01*
X022130Y009930D02*
X022130Y009430D01*
X021630Y008930D01*
X021470Y009094D02*
X020590Y009094D01*
X020590Y009192D02*
X021666Y009192D01*
X021764Y009291D02*
X020590Y009291D01*
X020590Y009389D02*
X021863Y009389D01*
X021961Y009488D02*
X020590Y009488D01*
X020590Y009586D02*
X021970Y009586D01*
X021970Y009685D02*
X020590Y009685D01*
X020590Y009783D02*
X021953Y009783D01*
X021901Y009882D02*
X020590Y009882D01*
X020590Y009980D02*
X021901Y009980D01*
X021955Y010079D02*
X020590Y010079D01*
X020590Y010177D02*
X024357Y010177D01*
X024258Y010276D02*
X020590Y010276D01*
X020590Y010374D02*
X024160Y010374D01*
X024061Y010473D02*
X020590Y010473D01*
X020590Y010571D02*
X023963Y010571D01*
X023864Y010670D02*
X020590Y010670D01*
X020590Y010768D02*
X023766Y010768D01*
X023667Y010867D02*
X020590Y010867D01*
X020590Y010965D02*
X023569Y010965D01*
X023470Y011064D02*
X021687Y011064D01*
X021759Y011162D02*
X023372Y011162D01*
X023273Y011261D02*
X021759Y011261D01*
X021725Y011359D02*
X023175Y011359D01*
X023076Y011458D02*
X021626Y011458D01*
X021434Y011458D02*
X021329Y011458D01*
X021230Y011556D02*
X022978Y011556D01*
X022879Y011655D02*
X021159Y011655D01*
X021131Y011753D02*
X021683Y011753D01*
X021830Y011930D02*
X019930Y011930D01*
X019730Y011730D01*
X019730Y010730D01*
X018830Y009830D01*
X018930Y009830D01*
X019330Y009830D01*
X019730Y009430D01*
X019780Y009380D01*
X019730Y009430D01*
X020430Y009389D02*
X016695Y009389D01*
X016759Y009291D02*
X020430Y009291D01*
X020430Y009192D02*
X016759Y009192D01*
X016890Y009094D02*
X020430Y009094D01*
X020430Y008995D02*
X016959Y008995D01*
X016990Y008897D02*
X020430Y008897D01*
X020430Y008798D02*
X017088Y008798D01*
X017187Y008700D02*
X020430Y008700D01*
X020590Y008798D02*
X021438Y008798D01*
X021401Y008897D02*
X020590Y008897D01*
X020590Y008995D02*
X021401Y008995D01*
X021822Y008798D02*
X025070Y008798D01*
X025070Y008897D02*
X021859Y008897D01*
X021921Y008995D02*
X025070Y008995D01*
X025070Y009094D02*
X022020Y009094D01*
X022118Y009192D02*
X025070Y009192D01*
X025070Y009291D02*
X022217Y009291D01*
X022290Y009389D02*
X025070Y009389D01*
X025070Y009488D02*
X022290Y009488D01*
X022290Y009586D02*
X025070Y009586D01*
X025158Y009685D02*
X022290Y009685D01*
X022307Y009783D02*
X025257Y009783D01*
X025230Y009530D02*
X026130Y010430D01*
X026230Y010130D02*
X025430Y009330D01*
X025430Y007230D01*
X025430Y006830D01*
X025030Y006430D01*
X018830Y006430D01*
X017130Y008130D01*
X016430Y008830D01*
X016430Y009130D01*
X016530Y009230D01*
X016559Y009488D02*
X020430Y009488D01*
X020430Y009586D02*
X016559Y009586D01*
X016499Y009685D02*
X020430Y009685D01*
X020430Y009783D02*
X016259Y009783D01*
X016259Y009882D02*
X020430Y009882D01*
X020430Y009980D02*
X016204Y009980D01*
X016030Y009830D02*
X016030Y008430D01*
X017130Y007330D01*
X018430Y006030D01*
X025230Y006030D01*
X025830Y006630D01*
X025830Y007230D01*
X025830Y008930D01*
X026630Y009730D01*
X026530Y010030D02*
X025630Y009130D01*
X025630Y007130D01*
X025630Y006730D01*
X025130Y006230D01*
X018630Y006230D01*
X017080Y007780D01*
X017130Y007730D01*
X017080Y007780D02*
X016230Y008630D01*
X016230Y009430D01*
X016330Y009530D01*
X015870Y009488D02*
X015590Y009488D01*
X015590Y009586D02*
X015870Y009586D01*
X015852Y009685D02*
X015590Y009685D01*
X015590Y009783D02*
X015801Y009783D01*
X015801Y009882D02*
X015590Y009882D01*
X015590Y009980D02*
X015856Y009980D01*
X015590Y010079D02*
X017658Y010079D01*
X017601Y010135D02*
X017735Y010001D01*
X017925Y010001D01*
X018059Y010135D01*
X018059Y010325D01*
X017990Y010394D01*
X017990Y012666D01*
X018059Y012735D01*
X018059Y012925D01*
X017925Y013059D01*
X017735Y013059D01*
X017601Y012925D01*
X017601Y012735D01*
X017670Y012666D01*
X017670Y010394D01*
X017601Y010325D01*
X017601Y010135D01*
X017601Y010177D02*
X015590Y010177D01*
X015590Y010276D02*
X017601Y010276D01*
X017650Y010374D02*
X015590Y010374D01*
X015590Y010473D02*
X017670Y010473D01*
X017670Y010571D02*
X015590Y010571D01*
X015590Y010670D02*
X017670Y010670D01*
X017670Y010768D02*
X015590Y010768D01*
X015590Y010867D02*
X017670Y010867D01*
X017670Y010965D02*
X015590Y010965D01*
X015590Y011064D02*
X017670Y011064D01*
X017670Y011162D02*
X015590Y011162D01*
X015659Y011261D02*
X017670Y011261D01*
X017670Y011359D02*
X015659Y011359D01*
X015626Y011458D02*
X015879Y011458D01*
X015801Y011556D02*
X015528Y011556D01*
X015332Y011556D02*
X011130Y011556D01*
X011130Y011458D02*
X015234Y011458D01*
X015201Y011359D02*
X011130Y011359D01*
X011130Y011261D02*
X015201Y011261D01*
X015270Y011162D02*
X011130Y011162D01*
X011130Y011064D02*
X015270Y011064D01*
X015270Y010965D02*
X011130Y010965D01*
X011130Y010867D02*
X015270Y010867D01*
X015270Y010768D02*
X011130Y010768D01*
X011130Y010670D02*
X015270Y010670D01*
X015270Y010571D02*
X011130Y010571D01*
X011130Y010473D02*
X015270Y010473D01*
X015270Y010374D02*
X011130Y010374D01*
X011130Y010276D02*
X015270Y010276D01*
X015270Y010177D02*
X011130Y010177D01*
X011130Y010079D02*
X015270Y010079D01*
X015270Y009980D02*
X011130Y009980D01*
X011130Y009882D02*
X015270Y009882D01*
X015270Y009783D02*
X011130Y009783D01*
X011130Y009685D02*
X015270Y009685D01*
X015270Y009586D02*
X011130Y009586D01*
X011130Y009488D02*
X015270Y009488D01*
X015270Y009389D02*
X011130Y009389D01*
X011130Y009291D02*
X011467Y009291D01*
X011630Y009130D02*
X010630Y009130D01*
X011130Y008897D02*
X015270Y008897D01*
X015270Y008995D02*
X011819Y008995D01*
X011859Y009094D02*
X015270Y009094D01*
X015270Y009192D02*
X011859Y009192D01*
X011793Y009291D02*
X015270Y009291D01*
X015590Y009291D02*
X015870Y009291D01*
X015870Y009389D02*
X015590Y009389D01*
X015590Y009192D02*
X015870Y009192D01*
X015870Y009094D02*
X015590Y009094D01*
X015590Y008995D02*
X015870Y008995D01*
X015870Y008897D02*
X015590Y008897D01*
X015590Y008798D02*
X015870Y008798D01*
X015870Y008700D02*
X015590Y008700D01*
X015270Y008700D02*
X011130Y008700D01*
X011130Y008798D02*
X015270Y008798D01*
X015130Y008830D02*
X015130Y011830D01*
X015430Y011830D01*
X015930Y011330D01*
X016530Y011330D01*
X016630Y011430D01*
X016630Y012930D01*
X016780Y013080D01*
X018530Y013080D01*
X018630Y013230D01*
X018630Y015130D01*
X018380Y015380D01*
X018505Y015505D01*
X018505Y016380D01*
X018505Y018380D01*
X018505Y019130D01*
X018630Y019141D02*
X018359Y019141D01*
X018290Y019042D02*
X018630Y019042D01*
X018630Y018944D02*
X018290Y018944D01*
X018290Y018845D02*
X018630Y018845D01*
X018630Y018747D02*
X018290Y018747D01*
X018290Y018648D02*
X018630Y018648D01*
X018630Y018550D02*
X018290Y018550D01*
X018290Y018451D02*
X018630Y018451D01*
X018630Y018353D02*
X018290Y018353D01*
X018432Y018254D02*
X018630Y018254D01*
X018630Y018156D02*
X018490Y018156D01*
X018490Y018057D02*
X018630Y018057D01*
X018630Y017959D02*
X018490Y017959D01*
X018490Y017860D02*
X018630Y017860D01*
X018630Y017762D02*
X018490Y017762D01*
X018490Y017663D02*
X018630Y017663D01*
X018630Y017565D02*
X018490Y017565D01*
X018490Y017466D02*
X018630Y017466D01*
X018630Y017368D02*
X018490Y017368D01*
X018490Y017269D02*
X018630Y017269D01*
X018630Y017171D02*
X018490Y017171D01*
X018490Y017072D02*
X018630Y017072D01*
X018630Y016974D02*
X018490Y016974D01*
X018490Y016875D02*
X018630Y016875D01*
X018630Y016777D02*
X018490Y016777D01*
X018490Y016678D02*
X018630Y016678D01*
X018630Y016580D02*
X018490Y016580D01*
X018407Y016481D02*
X018630Y016481D01*
X018630Y016383D02*
X018309Y016383D01*
X018290Y016284D02*
X018630Y016284D01*
X018630Y016186D02*
X018290Y016186D01*
X018290Y016087D02*
X018551Y016087D01*
X018551Y015989D02*
X018290Y015989D01*
X018290Y015890D02*
X018571Y015890D01*
X018630Y015792D02*
X018290Y015792D01*
X018290Y015693D02*
X018630Y015693D01*
X018630Y015595D02*
X018290Y015595D01*
X018290Y015496D02*
X018630Y015496D01*
X018630Y015398D02*
X018290Y015398D01*
X018290Y015299D02*
X018630Y015299D01*
X018630Y015201D02*
X018386Y015201D01*
X018484Y015102D02*
X018630Y015102D01*
X018630Y015004D02*
X018490Y015004D01*
X018490Y014905D02*
X018630Y014905D01*
X018630Y014807D02*
X018490Y014807D01*
X018490Y014708D02*
X018630Y014708D01*
X018630Y014610D02*
X018490Y014610D01*
X018490Y014511D02*
X018630Y014511D01*
X018630Y014413D02*
X018490Y014413D01*
X018490Y014314D02*
X018630Y014314D01*
X018630Y014216D02*
X018490Y014216D01*
X018490Y014117D02*
X018630Y014117D01*
X018630Y014019D02*
X018490Y014019D01*
X018490Y013920D02*
X018630Y013920D01*
X018630Y013822D02*
X018559Y013822D01*
X018559Y013723D02*
X018630Y013723D01*
X018630Y013625D02*
X018548Y013625D01*
X018630Y013526D02*
X018450Y013526D01*
X018630Y013428D02*
X016590Y013428D01*
X016590Y013329D02*
X018630Y013329D01*
X018630Y013231D02*
X016590Y013231D01*
X016590Y013132D02*
X018630Y013132D01*
X018670Y013034D02*
X017950Y013034D01*
X018049Y012935D02*
X018670Y012935D01*
X018670Y012837D02*
X018059Y012837D01*
X018059Y012738D02*
X018670Y012738D01*
X018670Y012640D02*
X017990Y012640D01*
X017990Y012541D02*
X018670Y012541D01*
X018670Y012443D02*
X017990Y012443D01*
X017990Y012344D02*
X018670Y012344D01*
X018670Y012246D02*
X017990Y012246D01*
X017990Y012147D02*
X018670Y012147D01*
X018670Y012049D02*
X017990Y012049D01*
X017990Y011950D02*
X018670Y011950D01*
X018670Y011852D02*
X017990Y011852D01*
X017990Y011753D02*
X018670Y011753D01*
X018670Y011655D02*
X017990Y011655D01*
X017990Y011556D02*
X018670Y011556D01*
X018670Y011458D02*
X017990Y011458D01*
X017990Y011359D02*
X018670Y011359D01*
X018670Y011261D02*
X017990Y011261D01*
X017990Y011162D02*
X018670Y011162D01*
X018670Y011064D02*
X017990Y011064D01*
X017990Y010965D02*
X018670Y010965D01*
X018670Y010867D02*
X017990Y010867D01*
X017990Y010768D02*
X018670Y010768D01*
X018670Y010670D02*
X017990Y010670D01*
X017990Y010571D02*
X018670Y010571D01*
X018670Y010473D02*
X017990Y010473D01*
X018010Y010374D02*
X018650Y010374D01*
X018601Y010276D02*
X018059Y010276D01*
X018059Y010177D02*
X018601Y010177D01*
X018658Y010079D02*
X018002Y010079D01*
X017830Y010230D02*
X017830Y012830D01*
X017601Y012837D02*
X016590Y012837D01*
X016590Y012935D02*
X017611Y012935D01*
X017710Y013034D02*
X016590Y013034D01*
X016590Y012738D02*
X017601Y012738D01*
X017670Y012640D02*
X016590Y012640D01*
X016590Y012541D02*
X017670Y012541D01*
X017670Y012443D02*
X016590Y012443D01*
X016590Y012344D02*
X017670Y012344D01*
X017670Y012246D02*
X016590Y012246D01*
X016590Y012147D02*
X017670Y012147D01*
X017670Y012049D02*
X016590Y012049D01*
X016576Y011950D02*
X017670Y011950D01*
X017670Y011852D02*
X016559Y011852D01*
X016477Y011753D02*
X017670Y011753D01*
X017670Y011655D02*
X016259Y011655D01*
X016259Y011556D02*
X017670Y011556D01*
X017670Y011458D02*
X016181Y011458D01*
X016030Y011630D02*
X016030Y016830D01*
X016130Y016930D01*
X015901Y016974D02*
X011130Y016974D01*
X011130Y017072D02*
X015764Y017072D01*
X015701Y017171D02*
X011130Y017171D01*
X011130Y017269D02*
X015701Y017269D01*
X015930Y017230D02*
X016330Y017230D01*
X016430Y017130D01*
X016430Y012030D01*
X016330Y011930D01*
X016030Y011730D02*
X016030Y011630D01*
X015801Y011655D02*
X011130Y011655D01*
X011130Y011753D02*
X015829Y011753D01*
X015870Y011852D02*
X011130Y011852D01*
X011130Y011950D02*
X015870Y011950D01*
X015870Y012049D02*
X011130Y012049D01*
X011130Y012147D02*
X015870Y012147D01*
X015870Y012246D02*
X011130Y012246D01*
X011130Y012344D02*
X015870Y012344D01*
X015870Y012443D02*
X011130Y012443D01*
X011130Y012541D02*
X015870Y012541D01*
X015130Y011880D02*
X015130Y011830D01*
X015130Y011880D02*
X014880Y011880D01*
X015430Y011330D02*
X015430Y007330D01*
X015630Y007130D01*
X017230Y008430D02*
X019030Y006630D01*
X024830Y006630D01*
X024930Y006630D01*
X025230Y006930D01*
X025230Y009530D01*
X024630Y010130D02*
X022530Y012230D01*
X022530Y013930D01*
X022301Y013920D02*
X021364Y013920D01*
X021459Y013822D02*
X022315Y013822D01*
X022370Y013723D02*
X021459Y013723D01*
X021448Y013625D02*
X022370Y013625D01*
X022370Y013526D02*
X021390Y013526D01*
X021390Y013428D02*
X022370Y013428D01*
X022370Y013329D02*
X021390Y013329D01*
X021390Y013231D02*
X022370Y013231D01*
X022370Y013132D02*
X021452Y013132D01*
X021459Y013034D02*
X022370Y013034D01*
X022370Y012738D02*
X019348Y012738D01*
X019260Y012837D02*
X021100Y012837D01*
X021230Y013030D02*
X021230Y013730D01*
X021001Y013723D02*
X019290Y013723D01*
X019290Y013625D02*
X021012Y013625D01*
X021070Y013526D02*
X019290Y013526D01*
X019290Y013428D02*
X021070Y013428D01*
X021070Y013329D02*
X019290Y013329D01*
X019290Y013231D02*
X021070Y013231D01*
X021008Y013132D02*
X019352Y013132D01*
X019359Y013125D02*
X019359Y012935D01*
X019130Y013030D02*
X019130Y016330D01*
X018830Y016630D01*
X018830Y018230D01*
X019030Y018430D01*
X018801Y018451D02*
X018790Y018451D01*
X018790Y018550D02*
X018826Y018550D01*
X018790Y018648D02*
X018924Y018648D01*
X018790Y018747D02*
X030587Y018747D01*
X030511Y018845D02*
X018790Y018845D01*
X018790Y018944D02*
X030471Y018944D01*
X030754Y018648D02*
X019136Y018648D01*
X018170Y017860D02*
X011130Y017860D01*
X011130Y017762D02*
X018170Y017762D01*
X018170Y017663D02*
X011130Y017663D01*
X011130Y017565D02*
X018170Y017565D01*
X017978Y017959D02*
X011130Y017959D01*
X011130Y018057D02*
X017901Y018057D01*
X019330Y017830D02*
X019330Y017630D01*
X021030Y015930D01*
X021030Y014330D01*
X021530Y013830D01*
X021530Y012630D01*
X022130Y012030D01*
X022130Y010830D01*
X021030Y009730D01*
X020930Y009730D01*
X020430Y010079D02*
X019002Y010079D01*
X019059Y010177D02*
X020430Y010177D01*
X020430Y010276D02*
X019059Y010276D01*
X019010Y010374D02*
X020430Y010374D01*
X020430Y010473D02*
X018990Y010473D01*
X018990Y010571D02*
X020430Y010571D01*
X020430Y010670D02*
X018990Y010670D01*
X018990Y010768D02*
X020430Y010768D01*
X020430Y010867D02*
X018990Y010867D01*
X018990Y010965D02*
X020430Y010965D01*
X020430Y011064D02*
X018990Y011064D01*
X018990Y011162D02*
X020430Y011162D01*
X020430Y011261D02*
X018990Y011261D01*
X018990Y011359D02*
X020430Y011359D01*
X020402Y011458D02*
X018990Y011458D01*
X018990Y011556D02*
X020304Y011556D01*
X020205Y011655D02*
X018990Y011655D01*
X018990Y011753D02*
X020107Y011753D01*
X020008Y011852D02*
X018990Y011852D01*
X018990Y011950D02*
X019910Y011950D01*
X019811Y012049D02*
X018990Y012049D01*
X018990Y012147D02*
X019713Y012147D01*
X019614Y012246D02*
X018990Y012246D01*
X018990Y012344D02*
X019516Y012344D01*
X019417Y012443D02*
X018990Y012443D01*
X018990Y012541D02*
X019319Y012541D01*
X019220Y012640D02*
X018990Y012640D01*
X018990Y012738D02*
X019122Y012738D01*
X019000Y012837D02*
X018990Y012837D01*
X019447Y012640D02*
X022370Y012640D01*
X022370Y012541D02*
X019545Y012541D01*
X019644Y012443D02*
X022370Y012443D01*
X022370Y012344D02*
X019742Y012344D01*
X019841Y012246D02*
X022370Y012246D01*
X022387Y012147D02*
X021937Y012147D01*
X022035Y012049D02*
X022485Y012049D01*
X022584Y011950D02*
X022059Y011950D01*
X022059Y011852D02*
X022682Y011852D01*
X022781Y011753D02*
X021977Y011753D01*
X021723Y012147D02*
X019939Y012147D01*
X020333Y011753D02*
X020729Y011753D01*
X020701Y011655D02*
X020432Y011655D01*
X020530Y011556D02*
X020701Y011556D01*
X020779Y011458D02*
X020590Y011458D01*
X020590Y011359D02*
X020975Y011359D01*
X021073Y011261D02*
X020590Y011261D01*
X020590Y011162D02*
X021172Y011162D01*
X021330Y011230D02*
X020930Y011630D01*
X021330Y011230D02*
X021530Y011230D01*
X021373Y011064D02*
X020590Y011064D01*
X018830Y010230D02*
X018830Y015955D01*
X018780Y016005D01*
X018830Y015955D01*
X019290Y015989D02*
X022070Y015989D01*
X022070Y016087D02*
X019290Y016087D01*
X019290Y016186D02*
X022051Y016186D01*
X022001Y016284D02*
X019290Y016284D01*
X019290Y016383D02*
X022001Y016383D01*
X022057Y016481D02*
X019205Y016481D01*
X019107Y016580D02*
X022401Y016580D01*
X022401Y016625D02*
X022535Y016759D01*
X022725Y016759D01*
X022859Y016625D01*
X022859Y016435D01*
X022790Y016366D01*
X022790Y015496D01*
X022790Y015595D02*
X030095Y015595D01*
X030630Y014630D02*
X031130Y015130D01*
X030630Y014630D01*
X030630Y012530D01*
X030630Y008530D01*
X029520Y006910D02*
X029520Y005220D01*
X028130Y003830D01*
X027130Y003830D01*
X026630Y004330D01*
X024430Y004330D01*
X024130Y004630D01*
X023630Y004630D01*
X023380Y004630D01*
X023130Y004630D01*
X011630Y004630D01*
X011130Y004630D01*
X011630Y004630D01*
X016730Y008930D02*
X017230Y008430D01*
X017384Y008503D02*
X025070Y008503D01*
X025070Y008601D02*
X017285Y008601D01*
X017482Y008404D02*
X025070Y008404D01*
X025070Y008306D02*
X017581Y008306D01*
X017679Y008207D02*
X025070Y008207D01*
X025070Y008109D02*
X017778Y008109D01*
X017876Y008010D02*
X025070Y008010D01*
X025070Y007912D02*
X017975Y007912D01*
X018073Y007813D02*
X025070Y007813D01*
X025070Y007715D02*
X018172Y007715D01*
X018270Y007616D02*
X025070Y007616D01*
X025070Y007518D02*
X018369Y007518D01*
X018467Y007419D02*
X025070Y007419D01*
X025070Y007321D02*
X018566Y007321D01*
X018664Y007222D02*
X025070Y007222D01*
X025070Y007124D02*
X018763Y007124D01*
X018861Y007025D02*
X025070Y007025D01*
X025000Y006927D02*
X018960Y006927D01*
X019058Y006828D02*
X024902Y006828D01*
X027730Y006920D02*
X027740Y006910D01*
X027730Y006920D02*
X027730Y008530D01*
X025030Y010530D02*
X023430Y012130D01*
X023430Y014330D01*
X023330Y014430D01*
X022230Y015530D01*
X022230Y016330D01*
X022630Y016530D02*
X022630Y015430D01*
X023630Y014430D01*
X023630Y012330D01*
X025130Y010830D01*
X025430Y010930D02*
X024530Y011830D01*
X024326Y011950D02*
X024236Y011950D01*
X024138Y012049D02*
X024425Y012049D01*
X023930Y012930D02*
X023930Y014530D01*
X023630Y014830D01*
X023480Y015004D02*
X023283Y015004D01*
X023381Y014905D02*
X023401Y014905D01*
X023023Y014511D02*
X019290Y014511D01*
X019290Y014413D02*
X022689Y014413D01*
X022601Y014314D02*
X019290Y014314D01*
X019290Y014216D02*
X022601Y014216D01*
X022830Y014230D02*
X022830Y012430D01*
X022830Y012330D01*
X024730Y010430D01*
X023270Y012147D02*
X023239Y012147D01*
X023270Y012246D02*
X023141Y012246D01*
X023042Y012344D02*
X023270Y012344D01*
X023270Y012443D02*
X022990Y012443D01*
X022990Y012541D02*
X023270Y012541D01*
X023270Y012640D02*
X022990Y012640D01*
X022990Y012738D02*
X023270Y012738D01*
X023270Y012837D02*
X022990Y012837D01*
X022990Y012935D02*
X023270Y012935D01*
X023270Y013034D02*
X022990Y013034D01*
X022990Y013132D02*
X023270Y013132D01*
X023270Y013231D02*
X022990Y013231D01*
X022990Y013329D02*
X023270Y013329D01*
X023270Y013428D02*
X022990Y013428D01*
X022990Y013526D02*
X023270Y013526D01*
X023270Y013625D02*
X022990Y013625D01*
X022990Y013723D02*
X023270Y013723D01*
X023270Y013822D02*
X022990Y013822D01*
X022990Y013920D02*
X023270Y013920D01*
X023270Y014019D02*
X022990Y014019D01*
X023041Y014117D02*
X023270Y014117D01*
X023270Y014216D02*
X023059Y014216D01*
X023059Y014314D02*
X023220Y014314D01*
X023121Y014413D02*
X022971Y014413D01*
X022924Y014610D02*
X019290Y014610D01*
X019290Y014708D02*
X022826Y014708D01*
X022727Y014807D02*
X019290Y014807D01*
X019290Y014905D02*
X022629Y014905D01*
X022530Y015004D02*
X019290Y015004D01*
X019290Y015102D02*
X022432Y015102D01*
X022333Y015201D02*
X019290Y015201D01*
X019290Y015299D02*
X022235Y015299D01*
X022136Y015398D02*
X019290Y015398D01*
X019290Y015496D02*
X022070Y015496D01*
X022070Y015595D02*
X019290Y015595D01*
X019290Y015693D02*
X022070Y015693D01*
X022070Y015792D02*
X019290Y015792D01*
X019290Y015890D02*
X022070Y015890D01*
X021380Y015755D02*
X021205Y015755D01*
X021030Y015930D01*
X021205Y015755D01*
X021380Y015755D01*
X022790Y015792D02*
X033680Y015792D01*
X033680Y015890D02*
X022790Y015890D01*
X022790Y015989D02*
X022973Y015989D01*
X022926Y016087D02*
X022790Y016087D01*
X022790Y016186D02*
X022926Y016186D01*
X022985Y016284D02*
X022790Y016284D01*
X022806Y016383D02*
X023170Y016383D01*
X023170Y016481D02*
X022859Y016481D01*
X022859Y016580D02*
X023170Y016580D01*
X023170Y016678D02*
X022806Y016678D01*
X022601Y016875D02*
X023170Y016875D01*
X023170Y016777D02*
X022503Y016777D01*
X022430Y016930D02*
X023430Y017930D01*
X023330Y018230D02*
X021330Y018230D01*
X022700Y016974D02*
X023170Y016974D01*
X023170Y017072D02*
X022798Y017072D01*
X022897Y017171D02*
X023166Y017171D01*
X023101Y017269D02*
X022995Y017269D01*
X023094Y017368D02*
X023101Y017368D01*
X023330Y017330D02*
X023330Y016305D01*
X023155Y016130D01*
X023337Y015989D02*
X025448Y015989D01*
X025401Y016087D02*
X023384Y016087D01*
X023437Y016186D02*
X025401Y016186D01*
X025460Y016284D02*
X023490Y016284D01*
X023490Y016383D02*
X025470Y016383D01*
X025470Y016481D02*
X023490Y016481D01*
X023490Y016580D02*
X025470Y016580D01*
X025470Y016678D02*
X023490Y016678D01*
X023490Y016777D02*
X025470Y016777D01*
X025470Y016875D02*
X023490Y016875D01*
X022430Y016930D02*
X022230Y016930D01*
X022790Y015693D02*
X033680Y015693D01*
X032130Y015134D02*
X031134Y015134D01*
X031130Y015130D01*
X033385Y017171D02*
X025859Y017171D01*
X025859Y017072D02*
X033482Y017072D01*
X034169Y019929D02*
X035480Y019929D01*
X035480Y020027D02*
X034341Y020027D01*
X034439Y020126D02*
X035480Y020126D01*
X035480Y020224D02*
X034500Y020224D01*
X034541Y020323D02*
X035480Y020323D01*
X035480Y020421D02*
X034571Y020421D01*
X034571Y020520D02*
X035480Y020520D01*
X035480Y020618D02*
X034571Y020618D01*
X034544Y020717D02*
X035480Y020717D01*
X035480Y020815D02*
X034504Y020815D01*
X034447Y020914D02*
X035480Y020914D01*
X035480Y021012D02*
X034349Y021012D01*
X035480Y021702D02*
X027702Y021702D01*
X027800Y021800D02*
X035480Y021800D01*
X035480Y021899D02*
X027899Y021899D01*
X027997Y021997D02*
X035480Y021997D01*
X035480Y022096D02*
X028096Y022096D01*
X028194Y022194D02*
X035480Y022194D01*
X035480Y022293D02*
X028293Y022293D01*
X028391Y022391D02*
X035480Y022391D01*
X035480Y022490D02*
X028490Y022490D01*
X028588Y022588D02*
X035480Y022588D01*
X035480Y022687D02*
X028687Y022687D01*
X028785Y022785D02*
X035480Y022785D01*
X035480Y022884D02*
X028884Y022884D01*
X028982Y022982D02*
X030832Y022982D01*
X030712Y023032D02*
X030998Y022913D01*
X031309Y022913D01*
X031595Y023032D01*
X031815Y023251D01*
X031934Y023538D01*
X031934Y023848D01*
X031815Y024135D01*
X031595Y024354D01*
X031309Y024473D01*
X030998Y024473D01*
X030712Y024354D01*
X030492Y024135D01*
X030374Y023848D01*
X030374Y023538D01*
X030492Y023251D01*
X030712Y023032D01*
X030663Y023081D02*
X029081Y023081D01*
X029130Y023179D02*
X030565Y023179D01*
X030482Y023278D02*
X029130Y023278D01*
X029130Y023376D02*
X030441Y023376D01*
X030400Y023475D02*
X029130Y023475D01*
X029130Y023573D02*
X030374Y023573D01*
X030374Y023672D02*
X029130Y023672D01*
X029130Y023770D02*
X030374Y023770D01*
X030382Y023869D02*
X029130Y023869D01*
X029130Y023967D02*
X030423Y023967D01*
X030464Y024066D02*
X029130Y024066D01*
X029130Y024164D02*
X030522Y024164D01*
X030620Y024263D02*
X029130Y024263D01*
X029130Y024361D02*
X030728Y024361D01*
X030966Y024460D02*
X029130Y024460D01*
X029130Y024558D02*
X035480Y024558D01*
X035480Y024460D02*
X034088Y024460D01*
X034058Y024472D02*
X033802Y024472D01*
X033567Y024375D01*
X033386Y024194D01*
X033289Y023958D01*
X033289Y023703D01*
X033386Y023467D01*
X033567Y023287D01*
X033802Y023189D01*
X034058Y023189D01*
X034293Y023287D01*
X034474Y023467D01*
X034571Y023703D01*
X034571Y023958D01*
X034474Y024194D01*
X034293Y024375D01*
X034058Y024472D01*
X034307Y024361D02*
X035480Y024361D01*
X035480Y024263D02*
X034405Y024263D01*
X034486Y024164D02*
X035480Y024164D01*
X035480Y024066D02*
X034527Y024066D01*
X034568Y023967D02*
X035480Y023967D01*
X035480Y023869D02*
X034571Y023869D01*
X034571Y023770D02*
X035480Y023770D01*
X035480Y023672D02*
X034558Y023672D01*
X034518Y023573D02*
X035480Y023573D01*
X035480Y023475D02*
X034477Y023475D01*
X034382Y023376D02*
X035480Y023376D01*
X035480Y023278D02*
X034271Y023278D01*
X033589Y023278D02*
X031826Y023278D01*
X031867Y023376D02*
X033478Y023376D01*
X033383Y023475D02*
X031907Y023475D01*
X031934Y023573D02*
X033342Y023573D01*
X033302Y023672D02*
X031934Y023672D01*
X031934Y023770D02*
X033289Y023770D01*
X033289Y023869D02*
X031925Y023869D01*
X031884Y023967D02*
X033292Y023967D01*
X033333Y024066D02*
X031843Y024066D01*
X031786Y024164D02*
X033374Y024164D01*
X033455Y024263D02*
X031687Y024263D01*
X031579Y024361D02*
X033553Y024361D01*
X033772Y024460D02*
X031341Y024460D01*
X031081Y024995D02*
X031191Y025105D01*
X031250Y025249D01*
X031250Y025405D01*
X031191Y025548D01*
X031081Y025658D01*
X030937Y025718D01*
X030781Y025718D01*
X030638Y025658D01*
X030528Y025548D01*
X030468Y025405D01*
X030468Y025249D01*
X030528Y025105D01*
X030638Y024995D01*
X030781Y024936D01*
X030937Y024936D01*
X031081Y024995D01*
X031136Y025051D02*
X035480Y025051D01*
X035480Y025149D02*
X031209Y025149D01*
X031250Y025248D02*
X035480Y025248D01*
X035480Y025346D02*
X031250Y025346D01*
X031234Y025445D02*
X035480Y025445D01*
X035480Y025543D02*
X031193Y025543D01*
X031098Y025642D02*
X035480Y025642D01*
X035480Y025740D02*
X029130Y025740D01*
X029130Y025642D02*
X030621Y025642D01*
X030525Y025543D02*
X029130Y025543D01*
X029130Y025445D02*
X030485Y025445D01*
X030468Y025346D02*
X029130Y025346D01*
X029130Y025248D02*
X030469Y025248D01*
X030509Y025149D02*
X029130Y025149D01*
X029130Y025051D02*
X030582Y025051D01*
X030742Y024952D02*
X029130Y024952D01*
X029130Y024854D02*
X035480Y024854D01*
X035480Y024952D02*
X030976Y024952D01*
X030773Y026043D02*
X030510Y026043D01*
X030267Y026144D01*
X030081Y026330D01*
X029980Y026573D01*
X029980Y026836D01*
X030081Y027080D01*
X030267Y027266D01*
X030510Y027367D01*
X030773Y027367D01*
X031017Y027266D01*
X031203Y027080D01*
X031304Y026836D01*
X031304Y026573D01*
X031203Y026330D01*
X031017Y026144D01*
X030773Y026043D01*
X030993Y026134D02*
X035480Y026134D01*
X035480Y026036D02*
X029130Y026036D01*
X029130Y026134D02*
X030290Y026134D01*
X030178Y026233D02*
X029130Y026233D01*
X029130Y026331D02*
X030080Y026331D01*
X030039Y026430D02*
X029130Y026430D01*
X029130Y026528D02*
X029999Y026528D01*
X029980Y026627D02*
X029130Y026627D01*
X029130Y026725D02*
X029980Y026725D01*
X029980Y026824D02*
X029130Y026824D01*
X029130Y026922D02*
X030015Y026922D01*
X030056Y027021D02*
X029130Y027021D01*
X029130Y027119D02*
X030120Y027119D01*
X030219Y027218D02*
X029130Y027218D01*
X029130Y027316D02*
X030388Y027316D01*
X030895Y027316D02*
X033516Y027316D01*
X033567Y027367D02*
X033386Y027186D01*
X033289Y026951D01*
X033289Y026695D01*
X033386Y026460D01*
X033567Y026279D01*
X033802Y026181D01*
X034058Y026181D01*
X034293Y026279D01*
X034474Y026460D01*
X034571Y026695D01*
X034571Y026951D01*
X034474Y027186D01*
X034293Y027367D01*
X034058Y027464D01*
X033802Y027464D01*
X033567Y027367D01*
X033682Y027415D02*
X029130Y027415D01*
X029130Y027513D02*
X035480Y027513D01*
X035480Y027415D02*
X034178Y027415D01*
X034344Y027316D02*
X035480Y027316D01*
X035480Y027218D02*
X034443Y027218D01*
X034502Y027119D02*
X035480Y027119D01*
X035480Y027021D02*
X034542Y027021D01*
X034571Y026922D02*
X035480Y026922D01*
X035480Y026824D02*
X034571Y026824D01*
X034571Y026725D02*
X035480Y026725D01*
X035480Y026627D02*
X034543Y026627D01*
X034502Y026528D02*
X035480Y026528D01*
X035480Y026430D02*
X034444Y026430D01*
X034345Y026331D02*
X035480Y026331D01*
X035480Y026233D02*
X034181Y026233D01*
X033679Y026233D02*
X031106Y026233D01*
X031203Y026331D02*
X033515Y026331D01*
X033416Y026430D02*
X031244Y026430D01*
X031285Y026528D02*
X033358Y026528D01*
X033317Y026627D02*
X031304Y026627D01*
X031304Y026725D02*
X033289Y026725D01*
X033289Y026824D02*
X031304Y026824D01*
X031268Y026922D02*
X033289Y026922D01*
X033318Y027021D02*
X031227Y027021D01*
X031163Y027119D02*
X033358Y027119D01*
X033417Y027218D02*
X031065Y027218D01*
X029130Y027612D02*
X035480Y027612D01*
X035480Y027710D02*
X029130Y027710D01*
X029130Y025937D02*
X035480Y025937D01*
X035480Y025839D02*
X029130Y025839D01*
X029130Y024755D02*
X035480Y024755D01*
X035480Y024657D02*
X029130Y024657D01*
X031475Y022982D02*
X035480Y022982D01*
X035480Y023081D02*
X031644Y023081D01*
X031743Y023179D02*
X035480Y023179D01*
X022393Y014117D02*
X019290Y014117D01*
X019290Y014019D02*
X022301Y014019D01*
X021096Y013920D02*
X019290Y013920D01*
X019290Y013822D02*
X021001Y013822D01*
X018380Y012630D02*
X018380Y010280D01*
X018830Y009830D01*
X018380Y010280D02*
X018380Y010330D01*
X018380Y010280D01*
X023130Y004630D02*
X023380Y004630D01*
X023630Y004630D02*
X024130Y004630D01*
X028130Y003830D02*
X032630Y003830D01*
X032630Y004030D01*
X032630Y004630D01*
X032630Y003830D02*
X033530Y003830D01*
X033730Y003930D01*
X015870Y016580D02*
X012403Y016580D01*
X012459Y016678D02*
X015870Y016678D01*
X015870Y016777D02*
X012459Y016777D01*
X012409Y016875D02*
X015870Y016875D01*
X019330Y017630D02*
X019330Y017830D01*
X018630Y021012D02*
X011130Y021012D01*
X011130Y021111D02*
X018630Y021111D01*
X018630Y021130D02*
X018630Y021630D01*
X018130Y022130D01*
X011130Y022130D01*
X010730Y021730D01*
X010730Y019630D01*
X009130Y019630D01*
X011130Y021209D02*
X018630Y021209D01*
X018630Y021308D02*
X011130Y021308D01*
X011130Y021406D02*
X018628Y021406D01*
X018487Y021505D02*
X011130Y021505D01*
X011130Y021603D02*
X018431Y021603D01*
X012230Y016730D02*
X011030Y016730D01*
D21*
X000260Y029000D02*
X000260Y000260D01*
X024181Y000260D01*
X024181Y003021D01*
X024282Y003397D01*
X024476Y003733D01*
X024476Y003733D01*
X024751Y004008D01*
X024751Y004008D01*
X025088Y004203D01*
X025088Y004203D01*
X025463Y004303D01*
X025852Y004303D01*
X026227Y004203D01*
X026227Y004203D01*
X026564Y004008D01*
X026564Y004008D01*
X026839Y003733D01*
X026839Y003733D01*
X027033Y003397D01*
X027033Y003397D01*
X027134Y003021D01*
X027134Y001506D01*
X035500Y001506D01*
X035500Y001768D01*
X035398Y001666D01*
X035224Y001594D01*
X035036Y001594D01*
X034862Y001666D01*
X034728Y001799D01*
X034656Y001974D01*
X034656Y002162D01*
X034728Y002336D01*
X034862Y002470D01*
X035036Y002542D01*
X035224Y002542D01*
X035398Y002470D01*
X035500Y002368D01*
X035500Y004524D01*
X035398Y004422D01*
X035224Y004350D01*
X035036Y004350D01*
X034862Y004422D01*
X034728Y004555D01*
X034656Y004729D01*
X034656Y004918D01*
X034728Y005092D01*
X034862Y005225D01*
X035036Y005298D01*
X035224Y005298D01*
X035398Y005225D01*
X035500Y005124D01*
X035500Y006250D01*
X033776Y006250D01*
X033700Y006326D01*
X033700Y015490D01*
X032590Y015490D01*
X032651Y015465D01*
X032761Y015355D01*
X032820Y015212D01*
X032820Y015056D01*
X032761Y014913D01*
X032651Y014803D01*
X032508Y014744D01*
X031752Y014744D01*
X031609Y014803D01*
X031499Y014913D01*
X031466Y014994D01*
X031192Y014994D01*
X030770Y014572D01*
X030770Y012686D01*
X030839Y012617D01*
X030839Y012443D01*
X030770Y012374D01*
X030770Y008686D01*
X030839Y008617D01*
X030839Y008443D01*
X030717Y008321D01*
X030543Y008321D01*
X030421Y008443D01*
X030421Y008617D01*
X030490Y008686D01*
X030490Y012374D01*
X030421Y012443D01*
X030421Y012617D01*
X030490Y012686D01*
X030490Y014688D01*
X030994Y015192D01*
X030994Y015192D01*
X031076Y015274D01*
X031466Y015274D01*
X031499Y015355D01*
X031609Y015465D01*
X031670Y015490D01*
X030188Y015490D01*
X027270Y012572D01*
X027270Y011572D01*
X026277Y010579D01*
X026339Y010517D01*
X026339Y010343D01*
X026326Y010330D01*
X026430Y010226D01*
X026443Y010239D01*
X026617Y010239D01*
X026739Y010117D01*
X026739Y009943D01*
X026726Y009930D01*
X026839Y009817D01*
X026839Y009643D01*
X026717Y009521D01*
X026619Y009521D01*
X025970Y008872D01*
X025970Y006572D01*
X025888Y006490D01*
X025288Y005890D01*
X018372Y005890D01*
X018290Y005972D01*
X016990Y007272D01*
X015890Y008372D01*
X015890Y008490D01*
X015570Y008490D01*
X015570Y007388D01*
X015619Y007339D01*
X015717Y007339D01*
X015839Y007217D01*
X015839Y007043D01*
X015717Y006921D01*
X015543Y006921D01*
X015421Y007043D01*
X015421Y007141D01*
X015290Y007272D01*
X015290Y008490D01*
X011072Y008490D01*
X010990Y008572D01*
X010990Y016590D01*
X010972Y016590D01*
X010195Y017367D01*
X010231Y017314D01*
X010260Y017243D01*
X010275Y017168D01*
X010275Y017160D01*
X009660Y017160D01*
X009660Y017100D01*
X010275Y017100D01*
X010275Y017092D01*
X010260Y017017D01*
X010231Y016946D01*
X010188Y016883D01*
X010134Y016829D01*
X010071Y016787D01*
X010001Y016757D01*
X009926Y016743D01*
X009660Y016743D01*
X009660Y017100D01*
X009600Y017100D01*
X009600Y016743D01*
X009334Y016743D01*
X009259Y016757D01*
X009189Y016787D01*
X009126Y016829D01*
X009072Y016883D01*
X009029Y016946D01*
X009000Y017017D01*
X008985Y017092D01*
X008985Y017100D01*
X009600Y017100D01*
X009600Y017160D01*
X009600Y017517D01*
X009334Y017517D01*
X009259Y017503D01*
X009189Y017473D01*
X009126Y017431D01*
X009072Y017377D01*
X009029Y017314D01*
X009000Y017243D01*
X008985Y017168D01*
X008985Y017160D01*
X009600Y017160D01*
X009660Y017160D01*
X009660Y017517D01*
X009926Y017517D01*
X010001Y017503D01*
X010071Y017473D01*
X010124Y017438D01*
X009822Y017740D01*
X009822Y017740D01*
X009779Y017783D01*
X009303Y017783D01*
X009176Y017835D01*
X009078Y017933D01*
X009025Y018061D01*
X009025Y018199D01*
X009078Y018327D01*
X009176Y018425D01*
X009303Y018477D01*
X009490Y018477D01*
X009490Y018783D01*
X009303Y018783D01*
X009176Y018835D01*
X009078Y018933D01*
X009025Y019061D01*
X009025Y019199D01*
X009078Y019327D01*
X009176Y019425D01*
X009303Y019477D01*
X009957Y019477D01*
X010084Y019425D01*
X010182Y019327D01*
X010235Y019199D01*
X010235Y019061D01*
X010182Y018933D01*
X010084Y018835D01*
X009957Y018783D01*
X009770Y018783D01*
X009770Y018477D01*
X009957Y018477D01*
X010084Y018425D01*
X010182Y018327D01*
X010235Y018199D01*
X010235Y018061D01*
X010182Y017933D01*
X010103Y017855D01*
X010990Y016968D01*
X010990Y021688D01*
X011072Y021770D01*
X018530Y021770D01*
X018560Y021800D01*
X018700Y021800D01*
X018730Y021770D01*
X027572Y021770D01*
X028990Y023188D01*
X028990Y027750D01*
X027134Y027750D01*
X027134Y026235D01*
X027033Y025859D01*
X027033Y025859D01*
X026839Y025523D01*
X026839Y025523D01*
X026839Y025523D01*
X026564Y025248D01*
X026564Y025248D01*
X026227Y025053D01*
X026227Y025053D01*
X025852Y024953D01*
X025463Y024953D01*
X025088Y025053D01*
X025088Y025053D01*
X024751Y025248D01*
X024751Y025248D01*
X024476Y025523D01*
X024476Y025523D01*
X024282Y025859D01*
X024282Y025859D01*
X024181Y026235D01*
X024181Y029000D01*
X000260Y029000D01*
X000260Y028971D02*
X024181Y028971D01*
X024181Y028912D02*
X000260Y028912D01*
X000260Y028854D02*
X024181Y028854D01*
X024181Y028795D02*
X000260Y028795D01*
X000260Y028737D02*
X024181Y028737D01*
X024181Y028678D02*
X000260Y028678D01*
X000260Y028620D02*
X024181Y028620D01*
X024181Y028561D02*
X000260Y028561D01*
X000260Y028503D02*
X024181Y028503D01*
X024181Y028444D02*
X000260Y028444D01*
X000260Y028386D02*
X024181Y028386D01*
X024181Y028327D02*
X000260Y028327D01*
X000260Y028269D02*
X024181Y028269D01*
X024181Y028210D02*
X000260Y028210D01*
X000260Y028152D02*
X024181Y028152D01*
X024181Y028093D02*
X000260Y028093D01*
X000260Y028035D02*
X024181Y028035D01*
X024181Y027976D02*
X000260Y027976D01*
X000260Y027918D02*
X024181Y027918D01*
X024181Y027859D02*
X000260Y027859D01*
X000260Y027801D02*
X024181Y027801D01*
X024181Y027742D02*
X000260Y027742D01*
X000260Y027684D02*
X000933Y027684D01*
X001069Y027740D02*
X000790Y027625D01*
X000576Y027411D01*
X000461Y027132D01*
X000461Y026829D01*
X000576Y026550D01*
X000790Y026336D01*
X001069Y026220D01*
X001372Y026220D01*
X001651Y026336D01*
X001865Y026550D01*
X001980Y026829D01*
X001980Y027132D01*
X001865Y027411D01*
X001651Y027625D01*
X001372Y027740D01*
X001069Y027740D01*
X000791Y027625D02*
X000260Y027625D01*
X000260Y027567D02*
X000732Y027567D01*
X000674Y027508D02*
X000260Y027508D01*
X000260Y027450D02*
X000615Y027450D01*
X000568Y027391D02*
X000260Y027391D01*
X000260Y027333D02*
X000544Y027333D01*
X000520Y027274D02*
X000260Y027274D01*
X000260Y027216D02*
X000495Y027216D01*
X000471Y027157D02*
X000260Y027157D01*
X000260Y027099D02*
X000461Y027099D01*
X000461Y027040D02*
X000260Y027040D01*
X000260Y026982D02*
X000461Y026982D01*
X000461Y026923D02*
X000260Y026923D01*
X000260Y026865D02*
X000461Y026865D01*
X000470Y026806D02*
X000260Y026806D01*
X000260Y026748D02*
X000494Y026748D01*
X000519Y026689D02*
X000260Y026689D01*
X000260Y026631D02*
X000543Y026631D01*
X000567Y026572D02*
X000260Y026572D01*
X000260Y026514D02*
X000613Y026514D01*
X000671Y026455D02*
X000260Y026455D01*
X000260Y026397D02*
X000730Y026397D01*
X000788Y026338D02*
X000260Y026338D01*
X000260Y026280D02*
X000927Y026280D01*
X001068Y026221D02*
X000260Y026221D01*
X000260Y026163D02*
X002717Y026163D01*
X002719Y026161D02*
X002955Y026063D01*
X003210Y026063D01*
X003446Y026161D01*
X003627Y026341D01*
X003725Y026577D01*
X003725Y026832D01*
X003627Y027068D01*
X003446Y027249D01*
X003210Y027347D01*
X002955Y027347D01*
X002719Y027249D01*
X002539Y027068D01*
X002441Y026832D01*
X002441Y026577D01*
X002539Y026341D01*
X002719Y026161D01*
X002659Y026221D02*
X001373Y026221D01*
X001514Y026280D02*
X002600Y026280D01*
X002542Y026338D02*
X001653Y026338D01*
X001711Y026397D02*
X002516Y026397D01*
X002491Y026455D02*
X001770Y026455D01*
X001828Y026514D02*
X002467Y026514D01*
X002443Y026572D02*
X001874Y026572D01*
X001898Y026631D02*
X002441Y026631D01*
X002441Y026689D02*
X001922Y026689D01*
X001947Y026748D02*
X002441Y026748D01*
X002441Y026806D02*
X001971Y026806D01*
X001980Y026865D02*
X002454Y026865D01*
X002478Y026923D02*
X001980Y026923D01*
X001980Y026982D02*
X002503Y026982D01*
X002527Y027040D02*
X001980Y027040D01*
X001980Y027099D02*
X002569Y027099D01*
X002627Y027157D02*
X001970Y027157D01*
X001946Y027216D02*
X002686Y027216D01*
X002780Y027274D02*
X001921Y027274D01*
X001897Y027333D02*
X002921Y027333D01*
X003244Y027333D02*
X018611Y027333D01*
X018635Y027391D02*
X001873Y027391D01*
X001826Y027450D02*
X018682Y027450D01*
X018643Y027411D02*
X018528Y027132D01*
X018528Y026829D01*
X018643Y026550D01*
X018857Y026336D01*
X019136Y026220D01*
X019439Y026220D01*
X019718Y026336D01*
X019932Y026550D01*
X020047Y026829D01*
X020047Y027132D01*
X019932Y027411D01*
X019718Y027625D01*
X019439Y027740D01*
X019136Y027740D01*
X018857Y027625D01*
X018643Y027411D01*
X018741Y027508D02*
X001768Y027508D01*
X001709Y027567D02*
X018799Y027567D01*
X018858Y027625D02*
X001650Y027625D01*
X001509Y027684D02*
X018999Y027684D01*
X019576Y027684D02*
X024181Y027684D01*
X024181Y027625D02*
X019717Y027625D01*
X019776Y027567D02*
X024181Y027567D01*
X024181Y027508D02*
X019834Y027508D01*
X019893Y027450D02*
X024181Y027450D01*
X024181Y027391D02*
X019940Y027391D01*
X019964Y027333D02*
X024181Y027333D01*
X024181Y027274D02*
X019988Y027274D01*
X020013Y027216D02*
X024181Y027216D01*
X024181Y027157D02*
X020037Y027157D01*
X020047Y027099D02*
X024181Y027099D01*
X024181Y027040D02*
X020047Y027040D01*
X020047Y026982D02*
X024181Y026982D01*
X024181Y026923D02*
X020047Y026923D01*
X020047Y026865D02*
X024181Y026865D01*
X024181Y026806D02*
X020038Y026806D01*
X020014Y026748D02*
X024181Y026748D01*
X024181Y026689D02*
X019989Y026689D01*
X019965Y026631D02*
X024181Y026631D01*
X024181Y026572D02*
X019941Y026572D01*
X019895Y026514D02*
X024181Y026514D01*
X024181Y026455D02*
X019837Y026455D01*
X019778Y026397D02*
X024181Y026397D01*
X024181Y026338D02*
X019720Y026338D01*
X019581Y026280D02*
X024181Y026280D01*
X024185Y026221D02*
X019440Y026221D01*
X019135Y026221D02*
X003507Y026221D01*
X003565Y026280D02*
X018994Y026280D01*
X018855Y026338D02*
X003624Y026338D01*
X003650Y026397D02*
X018797Y026397D01*
X018738Y026455D02*
X003674Y026455D01*
X003698Y026514D02*
X018680Y026514D01*
X018634Y026572D02*
X003722Y026572D01*
X003725Y026631D02*
X018610Y026631D01*
X018586Y026689D02*
X003725Y026689D01*
X003725Y026748D02*
X018561Y026748D01*
X018537Y026806D02*
X003725Y026806D01*
X003711Y026865D02*
X018528Y026865D01*
X018528Y026923D02*
X003687Y026923D01*
X003663Y026982D02*
X018528Y026982D01*
X018528Y027040D02*
X003639Y027040D01*
X003597Y027099D02*
X018528Y027099D01*
X018538Y027157D02*
X003538Y027157D01*
X003480Y027216D02*
X018562Y027216D01*
X018587Y027274D02*
X003385Y027274D01*
X003448Y026163D02*
X024200Y026163D01*
X024216Y026104D02*
X003310Y026104D01*
X002856Y026104D02*
X000260Y026104D01*
X000260Y026046D02*
X024232Y026046D01*
X024247Y025987D02*
X000260Y025987D01*
X000260Y025929D02*
X024263Y025929D01*
X024279Y025870D02*
X000260Y025870D01*
X000260Y025812D02*
X024309Y025812D01*
X024343Y025753D02*
X000260Y025753D01*
X000260Y025695D02*
X024377Y025695D01*
X024411Y025636D02*
X000260Y025636D01*
X000260Y025578D02*
X024444Y025578D01*
X024480Y025519D02*
X000260Y025519D01*
X000260Y025461D02*
X024538Y025461D01*
X024597Y025402D02*
X000260Y025402D01*
X000260Y025344D02*
X024655Y025344D01*
X024714Y025285D02*
X000260Y025285D01*
X000260Y025227D02*
X024788Y025227D01*
X024889Y025168D02*
X000260Y025168D01*
X000260Y025110D02*
X024990Y025110D01*
X025096Y025051D02*
X000260Y025051D01*
X000260Y024993D02*
X025314Y024993D01*
X026001Y024993D02*
X028990Y024993D01*
X028990Y025051D02*
X026219Y025051D01*
X026325Y025110D02*
X028990Y025110D01*
X028990Y025168D02*
X026426Y025168D01*
X026527Y025227D02*
X028990Y025227D01*
X028990Y025285D02*
X026601Y025285D01*
X026660Y025344D02*
X028990Y025344D01*
X028990Y025402D02*
X026718Y025402D01*
X026777Y025461D02*
X028990Y025461D01*
X028990Y025519D02*
X026835Y025519D01*
X026871Y025578D02*
X028990Y025578D01*
X028990Y025636D02*
X026905Y025636D01*
X026938Y025695D02*
X028990Y025695D01*
X028990Y025753D02*
X026972Y025753D01*
X027006Y025812D02*
X028990Y025812D01*
X028990Y025870D02*
X027036Y025870D01*
X027052Y025929D02*
X028990Y025929D01*
X028990Y025987D02*
X027068Y025987D01*
X027083Y026046D02*
X028990Y026046D01*
X028990Y026104D02*
X027099Y026104D01*
X027115Y026163D02*
X028990Y026163D01*
X028990Y026221D02*
X027130Y026221D01*
X027134Y026280D02*
X028990Y026280D01*
X028990Y026338D02*
X027134Y026338D01*
X027134Y026397D02*
X028990Y026397D01*
X028990Y026455D02*
X027134Y026455D01*
X027134Y026514D02*
X028990Y026514D01*
X028990Y026572D02*
X027134Y026572D01*
X027134Y026631D02*
X028990Y026631D01*
X028990Y026689D02*
X027134Y026689D01*
X027134Y026748D02*
X028990Y026748D01*
X028990Y026806D02*
X027134Y026806D01*
X027134Y026865D02*
X028990Y026865D01*
X028990Y026923D02*
X027134Y026923D01*
X027134Y026982D02*
X028990Y026982D01*
X028990Y027040D02*
X027134Y027040D01*
X027134Y027099D02*
X028990Y027099D01*
X028990Y027157D02*
X027134Y027157D01*
X027134Y027216D02*
X028990Y027216D01*
X028990Y027274D02*
X027134Y027274D01*
X027134Y027333D02*
X028990Y027333D01*
X028990Y027391D02*
X027134Y027391D01*
X027134Y027450D02*
X028990Y027450D01*
X028990Y027508D02*
X027134Y027508D01*
X027134Y027567D02*
X028990Y027567D01*
X028990Y027625D02*
X027134Y027625D01*
X027134Y027684D02*
X028990Y027684D01*
X028990Y027742D02*
X027134Y027742D01*
X028990Y024934D02*
X000260Y024934D01*
X000260Y024876D02*
X028990Y024876D01*
X028990Y024817D02*
X000260Y024817D01*
X000260Y024759D02*
X028990Y024759D01*
X028990Y024700D02*
X000260Y024700D01*
X000260Y024642D02*
X028990Y024642D01*
X028990Y024583D02*
X000260Y024583D01*
X000260Y024525D02*
X028990Y024525D01*
X028990Y024466D02*
X026984Y024466D01*
X026957Y024477D02*
X027084Y024425D01*
X027182Y024327D01*
X027235Y024199D01*
X027235Y024061D01*
X027182Y023933D01*
X027084Y023835D01*
X026957Y023783D01*
X026303Y023783D01*
X026176Y023835D01*
X026078Y023933D01*
X026025Y024061D01*
X026025Y024199D01*
X026078Y024327D01*
X026176Y024425D01*
X026303Y024477D01*
X026957Y024477D01*
X027101Y024408D02*
X028990Y024408D01*
X028990Y024349D02*
X027160Y024349D01*
X027197Y024291D02*
X028990Y024291D01*
X028990Y024232D02*
X027221Y024232D01*
X027235Y024174D02*
X028990Y024174D01*
X028990Y024115D02*
X027235Y024115D01*
X027233Y024057D02*
X028990Y024057D01*
X028990Y023998D02*
X027209Y023998D01*
X027185Y023940D02*
X028990Y023940D01*
X028990Y023881D02*
X027130Y023881D01*
X027053Y023823D02*
X028990Y023823D01*
X028990Y023764D02*
X000260Y023764D01*
X000260Y023706D02*
X028990Y023706D01*
X028990Y023647D02*
X000260Y023647D01*
X000260Y023589D02*
X028990Y023589D01*
X028990Y023530D02*
X000260Y023530D01*
X000260Y023472D02*
X009289Y023472D01*
X009303Y023477D02*
X009176Y023425D01*
X009078Y023327D01*
X009025Y023199D01*
X009025Y023061D01*
X009078Y022933D01*
X009176Y022835D01*
X009303Y022783D01*
X009957Y022783D01*
X010084Y022835D01*
X010182Y022933D01*
X010235Y023061D01*
X010235Y023199D01*
X010182Y023327D01*
X010084Y023425D01*
X009957Y023477D01*
X009303Y023477D01*
X009164Y023413D02*
X000260Y023413D01*
X000260Y023355D02*
X009106Y023355D01*
X009065Y023296D02*
X000260Y023296D01*
X000260Y023238D02*
X009041Y023238D01*
X009025Y023179D02*
X000260Y023179D01*
X000260Y023121D02*
X009025Y023121D01*
X009025Y023062D02*
X000260Y023062D01*
X000260Y023004D02*
X009049Y023004D01*
X009073Y022945D02*
X000260Y022945D01*
X000260Y022887D02*
X009125Y022887D01*
X009193Y022828D02*
X000260Y022828D01*
X000260Y022770D02*
X028572Y022770D01*
X028630Y022828D02*
X027067Y022828D01*
X027084Y022835D02*
X027182Y022933D01*
X027235Y023061D01*
X027235Y023199D01*
X027182Y023327D01*
X027084Y023425D01*
X026957Y023477D01*
X026303Y023477D01*
X026176Y023425D01*
X026078Y023327D01*
X026025Y023199D01*
X026025Y023061D01*
X026078Y022933D01*
X026176Y022835D01*
X026303Y022783D01*
X026957Y022783D01*
X027084Y022835D01*
X027135Y022887D02*
X028689Y022887D01*
X028747Y022945D02*
X027187Y022945D01*
X027211Y023004D02*
X028806Y023004D01*
X028864Y023062D02*
X027235Y023062D01*
X027235Y023121D02*
X028923Y023121D01*
X028981Y023179D02*
X027235Y023179D01*
X027219Y023238D02*
X028990Y023238D01*
X028990Y023296D02*
X027195Y023296D01*
X027154Y023355D02*
X028990Y023355D01*
X028990Y023413D02*
X027096Y023413D01*
X026971Y023472D02*
X028990Y023472D01*
X028513Y022711D02*
X000260Y022711D01*
X000260Y022653D02*
X028455Y022653D01*
X028396Y022594D02*
X000260Y022594D01*
X000260Y022536D02*
X028338Y022536D01*
X028279Y022477D02*
X026958Y022477D01*
X026957Y022477D02*
X027084Y022425D01*
X027182Y022327D01*
X027235Y022199D01*
X027235Y022061D01*
X027182Y021933D01*
X027084Y021835D01*
X026957Y021783D01*
X026303Y021783D01*
X026176Y021835D01*
X026078Y021933D01*
X026025Y022061D01*
X026025Y022199D01*
X026078Y022327D01*
X026176Y022425D01*
X026303Y022477D01*
X026302Y022477D02*
X009958Y022477D01*
X009957Y022477D02*
X010084Y022425D01*
X010182Y022327D01*
X010235Y022199D01*
X010235Y022061D01*
X010182Y021933D01*
X010084Y021835D01*
X009957Y021783D01*
X009303Y021783D01*
X009176Y021835D01*
X009078Y021933D01*
X009025Y022061D01*
X009025Y022199D01*
X009078Y022327D01*
X009176Y022425D01*
X009303Y022477D01*
X009302Y022477D02*
X000260Y022477D01*
X000260Y022419D02*
X009170Y022419D01*
X009111Y022360D02*
X000260Y022360D01*
X000260Y022302D02*
X009067Y022302D01*
X009043Y022243D02*
X000260Y022243D01*
X000260Y022185D02*
X009025Y022185D01*
X009025Y022126D02*
X000260Y022126D01*
X000260Y022068D02*
X009025Y022068D01*
X009046Y022009D02*
X000260Y022009D01*
X000260Y021951D02*
X009071Y021951D01*
X009119Y021892D02*
X000260Y021892D01*
X000260Y021834D02*
X009180Y021834D01*
X009303Y021477D02*
X009176Y021425D01*
X009078Y021327D01*
X009025Y021199D01*
X009025Y021061D01*
X009078Y020933D01*
X009176Y020835D01*
X009303Y020783D01*
X009957Y020783D01*
X010084Y020835D01*
X010182Y020933D01*
X010235Y021061D01*
X010235Y021199D01*
X010182Y021327D01*
X010084Y021425D01*
X009957Y021477D01*
X009303Y021477D01*
X009175Y021424D02*
X000260Y021424D01*
X000260Y021366D02*
X009117Y021366D01*
X009070Y021307D02*
X000260Y021307D01*
X000260Y021249D02*
X009046Y021249D01*
X009025Y021190D02*
X000260Y021190D01*
X000260Y021132D02*
X009025Y021132D01*
X009025Y021073D02*
X000260Y021073D01*
X000260Y021015D02*
X009044Y021015D01*
X009068Y020956D02*
X000260Y020956D01*
X000260Y020898D02*
X009114Y020898D01*
X009172Y020839D02*
X000260Y020839D01*
X000260Y020781D02*
X010990Y020781D01*
X010990Y020839D02*
X010088Y020839D01*
X010146Y020898D02*
X010990Y020898D01*
X010990Y020956D02*
X010192Y020956D01*
X010216Y021015D02*
X010990Y021015D01*
X010990Y021073D02*
X010235Y021073D01*
X010235Y021132D02*
X010990Y021132D01*
X010990Y021190D02*
X010235Y021190D01*
X010214Y021249D02*
X010990Y021249D01*
X010990Y021307D02*
X010190Y021307D01*
X010143Y021366D02*
X010990Y021366D01*
X010990Y021424D02*
X010085Y021424D01*
X010080Y021834D02*
X026180Y021834D01*
X026119Y021892D02*
X010141Y021892D01*
X010189Y021951D02*
X026071Y021951D01*
X026046Y022009D02*
X010214Y022009D01*
X010235Y022068D02*
X026025Y022068D01*
X026025Y022126D02*
X010235Y022126D01*
X010235Y022185D02*
X026025Y022185D01*
X026043Y022243D02*
X010217Y022243D01*
X010193Y022302D02*
X026067Y022302D01*
X026111Y022360D02*
X010149Y022360D01*
X010090Y022419D02*
X026170Y022419D01*
X026303Y022477D02*
X026957Y022477D01*
X027090Y022419D02*
X028221Y022419D01*
X028162Y022360D02*
X027149Y022360D01*
X027193Y022302D02*
X028104Y022302D01*
X028045Y022243D02*
X027217Y022243D01*
X027235Y022185D02*
X027987Y022185D01*
X027928Y022126D02*
X027235Y022126D01*
X027235Y022068D02*
X027870Y022068D01*
X027811Y022009D02*
X027214Y022009D01*
X027189Y021951D02*
X027753Y021951D01*
X027694Y021892D02*
X027141Y021892D01*
X027080Y021834D02*
X027636Y021834D01*
X027577Y021775D02*
X018725Y021775D01*
X018535Y021775D02*
X000260Y021775D01*
X000260Y021717D02*
X011019Y021717D01*
X010990Y021658D02*
X000260Y021658D01*
X000260Y021600D02*
X010990Y021600D01*
X010990Y021541D02*
X000260Y021541D01*
X000260Y021483D02*
X010990Y021483D01*
X010990Y020722D02*
X000260Y020722D01*
X000260Y020664D02*
X010990Y020664D01*
X010990Y020605D02*
X000260Y020605D01*
X000260Y020547D02*
X010990Y020547D01*
X010990Y020488D02*
X000260Y020488D01*
X000260Y020430D02*
X009188Y020430D01*
X009176Y020425D02*
X009078Y020327D01*
X009025Y020199D01*
X009025Y020061D01*
X009078Y019933D01*
X009176Y019835D01*
X009303Y019783D01*
X009957Y019783D01*
X010084Y019835D01*
X010182Y019933D01*
X010235Y020061D01*
X010235Y020199D01*
X010182Y020327D01*
X010084Y020425D01*
X009957Y020477D01*
X009303Y020477D01*
X009176Y020425D01*
X009122Y020371D02*
X000260Y020371D01*
X000260Y020313D02*
X009072Y020313D01*
X009048Y020254D02*
X000260Y020254D01*
X000260Y020196D02*
X009025Y020196D01*
X009025Y020137D02*
X000260Y020137D01*
X000260Y020079D02*
X009025Y020079D01*
X009042Y020020D02*
X000260Y020020D01*
X000260Y019962D02*
X009066Y019962D01*
X009108Y019903D02*
X000260Y019903D01*
X000260Y019845D02*
X009167Y019845D01*
X009295Y019786D02*
X000260Y019786D01*
X000260Y019728D02*
X010990Y019728D01*
X010990Y019786D02*
X009965Y019786D01*
X010093Y019845D02*
X010990Y019845D01*
X010990Y019903D02*
X010152Y019903D01*
X010194Y019962D02*
X010990Y019962D01*
X010990Y020020D02*
X010218Y020020D01*
X010235Y020079D02*
X010990Y020079D01*
X010990Y020137D02*
X010235Y020137D01*
X010235Y020196D02*
X010990Y020196D01*
X010990Y020254D02*
X010212Y020254D01*
X010188Y020313D02*
X010990Y020313D01*
X010990Y020371D02*
X010138Y020371D01*
X010072Y020430D02*
X010990Y020430D01*
X010990Y019669D02*
X000260Y019669D01*
X000260Y019611D02*
X010990Y019611D01*
X010990Y019552D02*
X000260Y019552D01*
X000260Y019494D02*
X010990Y019494D01*
X010990Y019435D02*
X010059Y019435D01*
X010132Y019377D02*
X010990Y019377D01*
X010990Y019318D02*
X010186Y019318D01*
X010210Y019260D02*
X010990Y019260D01*
X010990Y019201D02*
X010234Y019201D01*
X010235Y019143D02*
X010990Y019143D01*
X010990Y019084D02*
X010235Y019084D01*
X010220Y019026D02*
X010990Y019026D01*
X010990Y018967D02*
X010196Y018967D01*
X010157Y018909D02*
X010990Y018909D01*
X010990Y018850D02*
X010099Y018850D01*
X009978Y018792D02*
X010990Y018792D01*
X010990Y018733D02*
X009770Y018733D01*
X009770Y018675D02*
X010990Y018675D01*
X010990Y018616D02*
X009770Y018616D01*
X009770Y018558D02*
X010990Y018558D01*
X010990Y018499D02*
X009770Y018499D01*
X009490Y018499D02*
X000260Y018499D01*
X000260Y018441D02*
X009214Y018441D01*
X009133Y018382D02*
X000260Y018382D01*
X000260Y018324D02*
X009077Y018324D01*
X009052Y018265D02*
X000260Y018265D01*
X000260Y018207D02*
X009028Y018207D01*
X009025Y018148D02*
X000260Y018148D01*
X000260Y018090D02*
X009025Y018090D01*
X009037Y018031D02*
X000260Y018031D01*
X000260Y017973D02*
X009062Y017973D01*
X009097Y017914D02*
X000260Y017914D01*
X000260Y017856D02*
X009156Y017856D01*
X009268Y017797D02*
X000260Y017797D01*
X000260Y017739D02*
X009823Y017739D01*
X009882Y017680D02*
X000260Y017680D01*
X000260Y017622D02*
X009940Y017622D01*
X009999Y017563D02*
X000260Y017563D01*
X000260Y017505D02*
X009269Y017505D01*
X009148Y017446D02*
X000260Y017446D01*
X000260Y017388D02*
X009082Y017388D01*
X009040Y017329D02*
X000260Y017329D01*
X000260Y017271D02*
X009011Y017271D01*
X008994Y017212D02*
X000260Y017212D01*
X000260Y017154D02*
X009600Y017154D01*
X009600Y017212D02*
X009660Y017212D01*
X009660Y017154D02*
X010408Y017154D01*
X010350Y017212D02*
X010266Y017212D01*
X010249Y017271D02*
X010291Y017271D01*
X010233Y017329D02*
X010220Y017329D01*
X010116Y017446D02*
X010112Y017446D01*
X010057Y017505D02*
X009991Y017505D01*
X010219Y017739D02*
X010990Y017739D01*
X010990Y017797D02*
X010161Y017797D01*
X010104Y017856D02*
X010990Y017856D01*
X010990Y017914D02*
X010163Y017914D01*
X010198Y017973D02*
X010990Y017973D01*
X010990Y018031D02*
X010223Y018031D01*
X010235Y018090D02*
X010990Y018090D01*
X010990Y018148D02*
X010235Y018148D01*
X010232Y018207D02*
X010990Y018207D01*
X010990Y018265D02*
X010208Y018265D01*
X010183Y018324D02*
X010990Y018324D01*
X010990Y018382D02*
X010127Y018382D01*
X010046Y018441D02*
X010990Y018441D01*
X010990Y017680D02*
X010278Y017680D01*
X010336Y017622D02*
X010990Y017622D01*
X010990Y017563D02*
X010395Y017563D01*
X010453Y017505D02*
X010990Y017505D01*
X010990Y017446D02*
X010512Y017446D01*
X010570Y017388D02*
X010990Y017388D01*
X010990Y017329D02*
X010629Y017329D01*
X010687Y017271D02*
X010990Y017271D01*
X010990Y017212D02*
X010746Y017212D01*
X010804Y017154D02*
X010990Y017154D01*
X010990Y017095D02*
X010863Y017095D01*
X010921Y017037D02*
X010990Y017037D01*
X010980Y016978D02*
X010990Y016978D01*
X010759Y016803D02*
X010095Y016803D01*
X010167Y016861D02*
X010701Y016861D01*
X010642Y016920D02*
X010213Y016920D01*
X010244Y016978D02*
X010584Y016978D01*
X010525Y017037D02*
X010264Y017037D01*
X010275Y017095D02*
X010467Y017095D01*
X010818Y016744D02*
X009933Y016744D01*
X009957Y016477D02*
X010084Y016425D01*
X010182Y016327D01*
X010235Y016199D01*
X010235Y016061D01*
X010182Y015933D01*
X010084Y015835D01*
X009957Y015783D01*
X009303Y015783D01*
X009176Y015835D01*
X009078Y015933D01*
X009025Y016061D01*
X009025Y016199D01*
X009078Y016327D01*
X009176Y016425D01*
X009303Y016477D01*
X009957Y016477D01*
X010019Y016452D02*
X010990Y016452D01*
X010990Y016510D02*
X000260Y016510D01*
X000260Y016452D02*
X009241Y016452D01*
X009144Y016393D02*
X000260Y016393D01*
X000260Y016335D02*
X009086Y016335D01*
X009057Y016276D02*
X000260Y016276D01*
X000260Y016218D02*
X003666Y016218D01*
X003739Y016260D02*
X003588Y016172D01*
X003500Y016021D01*
X003500Y015987D01*
X003500Y013239D01*
X003588Y013088D01*
X003739Y013000D01*
X002500Y013000D01*
X002442Y013059D02*
X003638Y013059D01*
X003588Y013088D02*
X003588Y013088D01*
X003588Y013088D01*
X003571Y013117D02*
X002383Y013117D01*
X002325Y013176D02*
X003537Y013176D01*
X003503Y013234D02*
X002266Y013234D01*
X002208Y013293D02*
X003500Y013293D01*
X003500Y013351D02*
X002149Y013351D01*
X002091Y013410D02*
X003500Y013410D01*
X003500Y013468D02*
X002032Y013468D01*
X001974Y013527D02*
X003500Y013527D01*
X003500Y013585D02*
X001915Y013585D01*
X001857Y013644D02*
X003500Y013644D01*
X003500Y013702D02*
X001798Y013702D01*
X001740Y013761D02*
X003500Y013761D01*
X003500Y013819D02*
X001681Y013819D01*
X001623Y013878D02*
X003500Y013878D01*
X003500Y013936D02*
X001564Y013936D01*
X001552Y013948D02*
X001590Y014038D01*
X001590Y014221D01*
X001520Y014391D01*
X001391Y014520D01*
X001221Y014590D01*
X001038Y014590D01*
X000869Y014520D01*
X000740Y014391D01*
X000670Y014221D01*
X000670Y014038D01*
X000740Y013869D01*
X000869Y013740D01*
X001038Y013670D01*
X001221Y013670D01*
X001312Y013708D01*
X002560Y012460D01*
X005254Y012460D01*
X005293Y012421D01*
X005467Y012421D01*
X005506Y012460D01*
X008304Y012460D01*
X008343Y012421D01*
X008517Y012421D01*
X008556Y012460D01*
X009261Y012460D01*
X009176Y012425D01*
X009078Y012327D01*
X009025Y012199D01*
X009025Y012061D01*
X009078Y011933D01*
X009176Y011835D01*
X009303Y011783D01*
X009957Y011783D01*
X010084Y011835D01*
X010182Y011933D01*
X010235Y012061D01*
X010235Y012199D01*
X010182Y012327D01*
X010088Y012421D01*
X010217Y012421D01*
X010339Y012543D01*
X010339Y012717D01*
X010217Y012839D01*
X010088Y012839D01*
X010182Y012933D01*
X010235Y013061D01*
X010235Y013199D01*
X010182Y013327D01*
X010084Y013425D01*
X009957Y013477D01*
X009303Y013477D01*
X009176Y013425D01*
X009078Y013327D01*
X009025Y013199D01*
X009025Y013061D01*
X009078Y012933D01*
X009176Y012835D01*
X009261Y012800D01*
X008556Y012800D01*
X008517Y012839D01*
X008343Y012839D01*
X008304Y012800D01*
X005506Y012800D01*
X005467Y012839D01*
X005293Y012839D01*
X005254Y012800D01*
X002700Y012800D01*
X001552Y013948D01*
X001572Y013995D02*
X003500Y013995D01*
X003500Y014053D02*
X001590Y014053D01*
X001590Y014112D02*
X003500Y014112D01*
X003500Y014170D02*
X001590Y014170D01*
X001587Y014229D02*
X003500Y014229D01*
X003500Y014287D02*
X001563Y014287D01*
X001539Y014346D02*
X003500Y014346D01*
X003500Y014404D02*
X001506Y014404D01*
X001448Y014463D02*
X003500Y014463D01*
X003500Y014521D02*
X001388Y014521D01*
X001247Y014580D02*
X003500Y014580D01*
X003500Y014638D02*
X001220Y014638D01*
X001247Y014642D02*
X001169Y014630D01*
X001160Y014630D01*
X001160Y015100D01*
X001160Y015160D01*
X001630Y015160D01*
X001630Y015169D01*
X001618Y015247D01*
X001593Y015322D01*
X001558Y015392D01*
X001511Y015456D01*
X001456Y015511D01*
X001392Y015558D01*
X001322Y015593D01*
X001247Y015618D01*
X001169Y015630D01*
X001160Y015630D01*
X001160Y015160D01*
X001100Y015160D01*
X001100Y015630D01*
X001091Y015630D01*
X001013Y015618D01*
X000938Y015593D01*
X000868Y015558D01*
X000804Y015511D01*
X000749Y015456D01*
X000702Y015392D01*
X000667Y015322D01*
X000642Y015247D01*
X000630Y015169D01*
X000630Y015160D01*
X001100Y015160D01*
X001100Y015100D01*
X001160Y015100D01*
X001630Y015100D01*
X001630Y015091D01*
X001618Y015013D01*
X001593Y014938D01*
X001558Y014868D01*
X001511Y014804D01*
X001456Y014749D01*
X001392Y014702D01*
X001322Y014667D01*
X001247Y014642D01*
X001160Y014638D02*
X001100Y014638D01*
X001100Y014630D02*
X001100Y015100D01*
X000630Y015100D01*
X000630Y015091D01*
X000642Y015013D01*
X000667Y014938D01*
X000702Y014868D01*
X000749Y014804D01*
X000804Y014749D01*
X000868Y014702D01*
X000938Y014667D01*
X001013Y014642D01*
X001091Y014630D01*
X001100Y014630D01*
X001040Y014638D02*
X000260Y014638D01*
X000260Y014580D02*
X001013Y014580D01*
X001100Y014697D02*
X001160Y014697D01*
X001160Y014755D02*
X001100Y014755D01*
X001100Y014814D02*
X001160Y014814D01*
X001160Y014872D02*
X001100Y014872D01*
X001100Y014931D02*
X001160Y014931D01*
X001160Y014989D02*
X001100Y014989D01*
X001100Y015048D02*
X001160Y015048D01*
X001160Y015106D02*
X003500Y015106D01*
X003500Y015048D02*
X001623Y015048D01*
X001610Y014989D02*
X003500Y014989D01*
X003500Y014931D02*
X001590Y014931D01*
X001560Y014872D02*
X003500Y014872D01*
X003500Y014814D02*
X001518Y014814D01*
X001462Y014755D02*
X003500Y014755D01*
X003500Y014697D02*
X001381Y014697D01*
X001100Y015106D02*
X000260Y015106D01*
X000260Y015048D02*
X000637Y015048D01*
X000650Y014989D02*
X000260Y014989D01*
X000260Y014931D02*
X000670Y014931D01*
X000700Y014872D02*
X000260Y014872D01*
X000260Y014814D02*
X000742Y014814D01*
X000798Y014755D02*
X000260Y014755D01*
X000260Y014697D02*
X000879Y014697D01*
X000872Y014521D02*
X000260Y014521D01*
X000260Y014463D02*
X000812Y014463D01*
X000754Y014404D02*
X000260Y014404D01*
X000260Y014346D02*
X000721Y014346D01*
X000697Y014287D02*
X000260Y014287D01*
X000260Y014229D02*
X000673Y014229D01*
X000670Y014170D02*
X000260Y014170D01*
X000260Y014112D02*
X000670Y014112D01*
X000670Y014053D02*
X000260Y014053D01*
X000260Y013995D02*
X000688Y013995D01*
X000712Y013936D02*
X000260Y013936D01*
X000260Y013878D02*
X000737Y013878D01*
X000790Y013819D02*
X000260Y013819D01*
X000260Y013761D02*
X000849Y013761D01*
X000961Y013702D02*
X000260Y013702D01*
X000260Y013644D02*
X001376Y013644D01*
X001318Y013702D02*
X001299Y013702D01*
X001435Y013585D02*
X000260Y013585D01*
X000260Y013527D02*
X001493Y013527D01*
X001552Y013468D02*
X000260Y013468D01*
X000260Y013410D02*
X001610Y013410D01*
X001669Y013351D02*
X000260Y013351D01*
X000260Y013293D02*
X001727Y013293D01*
X001786Y013234D02*
X000260Y013234D01*
X000260Y013176D02*
X001844Y013176D01*
X001903Y013117D02*
X000260Y013117D01*
X000260Y013059D02*
X001961Y013059D01*
X002020Y013000D02*
X000260Y013000D01*
X000260Y012942D02*
X002078Y012942D01*
X002137Y012883D02*
X000260Y012883D01*
X000260Y012825D02*
X002195Y012825D01*
X002254Y012766D02*
X000260Y012766D01*
X000260Y012708D02*
X002312Y012708D01*
X002371Y012649D02*
X000260Y012649D01*
X000260Y012591D02*
X002429Y012591D01*
X002488Y012532D02*
X000260Y012532D01*
X000260Y012474D02*
X002546Y012474D01*
X002676Y012825D02*
X005279Y012825D01*
X005481Y012825D02*
X008329Y012825D01*
X008531Y012825D02*
X009202Y012825D01*
X009128Y012883D02*
X002617Y012883D01*
X002559Y012942D02*
X009074Y012942D01*
X009050Y013000D02*
X004521Y013000D01*
X004672Y013088D01*
X004760Y013239D01*
X004760Y016021D01*
X004672Y016172D01*
X004672Y016172D01*
X004521Y016260D01*
X003739Y016260D01*
X003588Y016172D02*
X003588Y016172D01*
X003588Y016172D01*
X003580Y016159D02*
X000260Y016159D01*
X000260Y016101D02*
X003546Y016101D01*
X003512Y016042D02*
X000260Y016042D01*
X000260Y015984D02*
X003500Y015984D01*
X003500Y015925D02*
X000260Y015925D01*
X000260Y015867D02*
X003500Y015867D01*
X003500Y015808D02*
X000260Y015808D01*
X000260Y015750D02*
X003500Y015750D01*
X003500Y015691D02*
X000260Y015691D01*
X000260Y015633D02*
X003500Y015633D01*
X003500Y015574D02*
X001360Y015574D01*
X001450Y015516D02*
X003500Y015516D01*
X003500Y015457D02*
X001510Y015457D01*
X001553Y015399D02*
X003500Y015399D01*
X003500Y015340D02*
X001584Y015340D01*
X001606Y015282D02*
X003500Y015282D01*
X003500Y015223D02*
X001621Y015223D01*
X001630Y015165D02*
X003500Y015165D01*
X004760Y015165D02*
X009025Y015165D01*
X009025Y015199D02*
X009025Y015061D01*
X009078Y014933D01*
X009176Y014835D01*
X009303Y014783D01*
X009957Y014783D01*
X010084Y014835D01*
X010182Y014933D01*
X010235Y015061D01*
X010235Y015199D01*
X010182Y015327D01*
X010084Y015425D01*
X009957Y015477D01*
X009303Y015477D01*
X009176Y015425D01*
X009078Y015327D01*
X009025Y015199D01*
X009035Y015223D02*
X004760Y015223D01*
X004760Y015282D02*
X009059Y015282D01*
X009091Y015340D02*
X004760Y015340D01*
X004760Y015399D02*
X009150Y015399D01*
X009254Y015457D02*
X004760Y015457D01*
X004760Y015516D02*
X010990Y015516D01*
X010990Y015574D02*
X004760Y015574D01*
X004760Y015633D02*
X010990Y015633D01*
X010990Y015691D02*
X004760Y015691D01*
X004760Y015750D02*
X010990Y015750D01*
X010990Y015808D02*
X010018Y015808D01*
X010115Y015867D02*
X010990Y015867D01*
X010990Y015925D02*
X010174Y015925D01*
X010203Y015984D02*
X010990Y015984D01*
X010990Y016042D02*
X010227Y016042D01*
X010235Y016101D02*
X010990Y016101D01*
X010990Y016159D02*
X010235Y016159D01*
X010227Y016218D02*
X010990Y016218D01*
X010990Y016276D02*
X010203Y016276D01*
X010174Y016335D02*
X010990Y016335D01*
X010990Y016393D02*
X010116Y016393D01*
X009660Y016744D02*
X009600Y016744D01*
X009600Y016803D02*
X009660Y016803D01*
X009660Y016861D02*
X009600Y016861D01*
X009600Y016920D02*
X009660Y016920D01*
X009660Y016978D02*
X009600Y016978D01*
X009600Y017037D02*
X009660Y017037D01*
X009660Y017095D02*
X009600Y017095D01*
X009600Y017271D02*
X009660Y017271D01*
X009660Y017329D02*
X009600Y017329D01*
X009600Y017388D02*
X009660Y017388D01*
X009660Y017446D02*
X009600Y017446D01*
X009600Y017505D02*
X009660Y017505D01*
X008985Y017095D02*
X000260Y017095D01*
X000260Y017037D02*
X008996Y017037D01*
X009016Y016978D02*
X000260Y016978D01*
X000260Y016920D02*
X009047Y016920D01*
X009093Y016861D02*
X000260Y016861D01*
X000260Y016803D02*
X009165Y016803D01*
X009327Y016744D02*
X000260Y016744D01*
X000260Y016686D02*
X010876Y016686D01*
X010935Y016627D02*
X000260Y016627D01*
X000260Y016569D02*
X010990Y016569D01*
X010990Y015457D02*
X010006Y015457D01*
X010110Y015399D02*
X010990Y015399D01*
X010990Y015340D02*
X010169Y015340D01*
X010201Y015282D02*
X010990Y015282D01*
X010990Y015223D02*
X010225Y015223D01*
X010235Y015165D02*
X010990Y015165D01*
X010990Y015106D02*
X010235Y015106D01*
X010229Y015048D02*
X010990Y015048D01*
X010990Y014989D02*
X010205Y014989D01*
X010179Y014931D02*
X010990Y014931D01*
X010990Y014872D02*
X010121Y014872D01*
X010032Y014814D02*
X010990Y014814D01*
X010990Y014755D02*
X004760Y014755D01*
X004760Y014697D02*
X010990Y014697D01*
X010990Y014638D02*
X004760Y014638D01*
X004760Y014580D02*
X010990Y014580D01*
X010990Y014521D02*
X004760Y014521D01*
X004760Y014463D02*
X009267Y014463D01*
X009303Y014477D02*
X009176Y014425D01*
X009078Y014327D01*
X009025Y014199D01*
X009025Y014061D01*
X009078Y013933D01*
X009176Y013835D01*
X009303Y013783D01*
X009957Y013783D01*
X010084Y013835D01*
X010182Y013933D01*
X010235Y014061D01*
X010235Y014199D01*
X010182Y014327D01*
X010084Y014425D01*
X009957Y014477D01*
X009303Y014477D01*
X009155Y014404D02*
X004760Y014404D01*
X004760Y014346D02*
X009097Y014346D01*
X009061Y014287D02*
X004760Y014287D01*
X004760Y014229D02*
X009037Y014229D01*
X009025Y014170D02*
X004760Y014170D01*
X004760Y014112D02*
X009025Y014112D01*
X009028Y014053D02*
X004760Y014053D01*
X004760Y013995D02*
X009053Y013995D01*
X009077Y013936D02*
X004760Y013936D01*
X004760Y013878D02*
X009134Y013878D01*
X009215Y013819D02*
X004760Y013819D01*
X004760Y013761D02*
X010990Y013761D01*
X010990Y013819D02*
X010045Y013819D01*
X010126Y013878D02*
X010990Y013878D01*
X010990Y013936D02*
X010183Y013936D01*
X010207Y013995D02*
X010990Y013995D01*
X010990Y014053D02*
X010232Y014053D01*
X010235Y014112D02*
X010990Y014112D01*
X010990Y014170D02*
X010235Y014170D01*
X010223Y014229D02*
X010990Y014229D01*
X010990Y014287D02*
X010199Y014287D01*
X010163Y014346D02*
X010990Y014346D01*
X010990Y014404D02*
X010105Y014404D01*
X009993Y014463D02*
X010990Y014463D01*
X010990Y013702D02*
X004760Y013702D01*
X004760Y013644D02*
X010990Y013644D01*
X010990Y013585D02*
X004760Y013585D01*
X004760Y013527D02*
X010990Y013527D01*
X010990Y013468D02*
X009979Y013468D01*
X010099Y013410D02*
X010990Y013410D01*
X010990Y013351D02*
X010158Y013351D01*
X010196Y013293D02*
X010990Y013293D01*
X010990Y013234D02*
X010220Y013234D01*
X010235Y013176D02*
X010990Y013176D01*
X010990Y013117D02*
X010235Y013117D01*
X010234Y013059D02*
X010990Y013059D01*
X010990Y013000D02*
X010210Y013000D01*
X010186Y012942D02*
X010990Y012942D01*
X010990Y012883D02*
X010132Y012883D01*
X010231Y012825D02*
X010990Y012825D01*
X010990Y012766D02*
X010290Y012766D01*
X010339Y012708D02*
X010990Y012708D01*
X010990Y012649D02*
X010339Y012649D01*
X010339Y012591D02*
X010990Y012591D01*
X010990Y012532D02*
X010328Y012532D01*
X010269Y012474D02*
X010990Y012474D01*
X010990Y012415D02*
X010094Y012415D01*
X010152Y012357D02*
X010990Y012357D01*
X010990Y012298D02*
X010194Y012298D01*
X010218Y012240D02*
X010990Y012240D01*
X010990Y012181D02*
X010235Y012181D01*
X010235Y012123D02*
X010990Y012123D01*
X010990Y012064D02*
X010235Y012064D01*
X010212Y012006D02*
X010990Y012006D01*
X010990Y011947D02*
X010188Y011947D01*
X010137Y011889D02*
X010990Y011889D01*
X010990Y011830D02*
X010071Y011830D01*
X009957Y011477D02*
X010084Y011425D01*
X010182Y011327D01*
X010235Y011199D01*
X010235Y011061D01*
X010182Y010933D01*
X010084Y010835D01*
X009957Y010783D01*
X009303Y010783D01*
X009176Y010835D01*
X009078Y010933D01*
X009025Y011061D01*
X009025Y011199D01*
X009078Y011327D01*
X009176Y011425D01*
X009303Y011477D01*
X009957Y011477D01*
X010088Y011421D02*
X010990Y011421D01*
X010990Y011479D02*
X000260Y011479D01*
X000260Y011421D02*
X009172Y011421D01*
X009113Y011362D02*
X000260Y011362D01*
X000260Y011304D02*
X009068Y011304D01*
X009044Y011245D02*
X000260Y011245D01*
X000260Y011187D02*
X009025Y011187D01*
X009025Y011128D02*
X000260Y011128D01*
X000260Y011070D02*
X009025Y011070D01*
X009046Y011011D02*
X000260Y011011D01*
X000260Y010953D02*
X009070Y010953D01*
X009117Y010894D02*
X000260Y010894D01*
X000260Y010836D02*
X009176Y010836D01*
X009259Y010503D02*
X009189Y010473D01*
X009126Y010431D01*
X009072Y010377D01*
X009029Y010314D01*
X009000Y010243D01*
X008985Y010168D01*
X008985Y010160D01*
X009600Y010160D01*
X009600Y010517D01*
X009334Y010517D01*
X009259Y010503D01*
X009216Y010485D02*
X000260Y010485D01*
X000260Y010543D02*
X010990Y010543D01*
X010990Y010485D02*
X010044Y010485D01*
X010071Y010473D02*
X010001Y010503D01*
X009926Y010517D01*
X009660Y010517D01*
X009660Y010160D01*
X009600Y010160D01*
X009600Y010100D01*
X009660Y010100D01*
X009660Y010160D01*
X010275Y010160D01*
X010275Y010168D01*
X010260Y010243D01*
X010231Y010314D01*
X010188Y010377D01*
X010134Y010431D01*
X010071Y010473D01*
X010139Y010426D02*
X010990Y010426D01*
X010990Y010368D02*
X010195Y010368D01*
X010233Y010309D02*
X010990Y010309D01*
X010990Y010251D02*
X010257Y010251D01*
X010270Y010192D02*
X010990Y010192D01*
X010990Y010134D02*
X009660Y010134D01*
X009660Y010100D02*
X010275Y010100D01*
X010275Y010092D01*
X010260Y010017D01*
X010231Y009946D01*
X010188Y009883D01*
X010134Y009829D01*
X010071Y009787D01*
X010001Y009757D01*
X009926Y009743D01*
X009660Y009743D01*
X009660Y010100D01*
X009660Y010075D02*
X009600Y010075D01*
X009600Y010100D02*
X009600Y009743D01*
X009334Y009743D01*
X009259Y009757D01*
X009189Y009787D01*
X009126Y009829D01*
X009072Y009883D01*
X009029Y009946D01*
X009000Y010017D01*
X008985Y010092D01*
X008985Y010100D01*
X009600Y010100D01*
X009600Y010134D02*
X000260Y010134D01*
X000260Y010192D02*
X008990Y010192D01*
X009003Y010251D02*
X000260Y010251D01*
X000260Y010309D02*
X009027Y010309D01*
X009065Y010368D02*
X000260Y010368D01*
X000260Y010426D02*
X009121Y010426D01*
X008988Y010075D02*
X000260Y010075D01*
X000260Y010017D02*
X009000Y010017D01*
X009024Y009958D02*
X000260Y009958D01*
X000260Y009900D02*
X009060Y009900D01*
X009113Y009841D02*
X000260Y009841D01*
X000260Y009783D02*
X009199Y009783D01*
X009303Y009477D02*
X009176Y009425D01*
X009078Y009327D01*
X009025Y009199D01*
X009025Y009061D01*
X009078Y008933D01*
X009176Y008835D01*
X009303Y008783D01*
X009957Y008783D01*
X010084Y008835D01*
X010182Y008933D01*
X010235Y009061D01*
X010235Y009199D01*
X010182Y009327D01*
X010084Y009425D01*
X009957Y009477D01*
X009303Y009477D01*
X009192Y009432D02*
X000260Y009432D01*
X000260Y009490D02*
X010990Y009490D01*
X010990Y009432D02*
X010068Y009432D01*
X010136Y009373D02*
X010990Y009373D01*
X010990Y009315D02*
X010187Y009315D01*
X010211Y009256D02*
X010990Y009256D01*
X010990Y009198D02*
X010235Y009198D01*
X010235Y009139D02*
X010990Y009139D01*
X010990Y009081D02*
X010235Y009081D01*
X010219Y009022D02*
X010990Y009022D01*
X010990Y008964D02*
X010195Y008964D01*
X010154Y008905D02*
X010990Y008905D01*
X010990Y008847D02*
X010095Y008847D01*
X009970Y008788D02*
X010990Y008788D01*
X010990Y008730D02*
X000260Y008730D01*
X000260Y008788D02*
X009290Y008788D01*
X009165Y008847D02*
X000260Y008847D01*
X000260Y008905D02*
X009106Y008905D01*
X009065Y008964D02*
X000260Y008964D01*
X000260Y009022D02*
X009041Y009022D01*
X009025Y009081D02*
X000260Y009081D01*
X000260Y009139D02*
X009025Y009139D01*
X009025Y009198D02*
X000260Y009198D01*
X000260Y009256D02*
X009049Y009256D01*
X009073Y009315D02*
X000260Y009315D01*
X000260Y009373D02*
X009124Y009373D01*
X009600Y009783D02*
X009660Y009783D01*
X009660Y009841D02*
X009600Y009841D01*
X009600Y009900D02*
X009660Y009900D01*
X009660Y009958D02*
X009600Y009958D01*
X009600Y010017D02*
X009660Y010017D01*
X009660Y010192D02*
X009600Y010192D01*
X009600Y010251D02*
X009660Y010251D01*
X009660Y010309D02*
X009600Y010309D01*
X009600Y010368D02*
X009660Y010368D01*
X009660Y010426D02*
X009600Y010426D01*
X009600Y010485D02*
X009660Y010485D01*
X010236Y009958D02*
X010990Y009958D01*
X010990Y009900D02*
X010200Y009900D01*
X010146Y009841D02*
X010990Y009841D01*
X010990Y009783D02*
X010061Y009783D01*
X010260Y010017D02*
X010990Y010017D01*
X010990Y010075D02*
X010272Y010075D01*
X010990Y009724D02*
X000260Y009724D01*
X000260Y009666D02*
X010990Y009666D01*
X010990Y009607D02*
X000260Y009607D01*
X000260Y009549D02*
X010990Y009549D01*
X010990Y008671D02*
X000260Y008671D01*
X000260Y008613D02*
X010990Y008613D01*
X011008Y008554D02*
X000260Y008554D01*
X000260Y008496D02*
X011066Y008496D01*
X010235Y008199D02*
X010235Y008061D01*
X010182Y007933D01*
X010084Y007835D01*
X009957Y007783D01*
X009303Y007783D01*
X009176Y007835D01*
X009078Y007933D01*
X009025Y008061D01*
X009025Y008199D01*
X009078Y008327D01*
X009176Y008425D01*
X009303Y008477D01*
X009957Y008477D01*
X010084Y008425D01*
X010182Y008327D01*
X010235Y008199D01*
X010233Y008203D02*
X015290Y008203D01*
X015290Y008145D02*
X010235Y008145D01*
X010235Y008086D02*
X015290Y008086D01*
X015290Y008028D02*
X010221Y008028D01*
X010197Y007969D02*
X015290Y007969D01*
X015290Y007911D02*
X010159Y007911D01*
X010101Y007852D02*
X015290Y007852D01*
X015290Y007794D02*
X009983Y007794D01*
X009957Y007477D02*
X010084Y007425D01*
X010182Y007327D01*
X010235Y007199D01*
X010235Y007061D01*
X010182Y006933D01*
X010084Y006835D01*
X009957Y006783D01*
X009303Y006783D01*
X009176Y006835D01*
X009078Y006933D01*
X009025Y007061D01*
X009025Y007199D01*
X009078Y007327D01*
X009176Y007425D01*
X009303Y007477D01*
X009957Y007477D01*
X010041Y007443D02*
X015290Y007443D01*
X015290Y007501D02*
X000260Y007501D01*
X000260Y007443D02*
X009219Y007443D01*
X009135Y007384D02*
X000260Y007384D01*
X000260Y007326D02*
X009077Y007326D01*
X009053Y007267D02*
X000260Y007267D01*
X000260Y007209D02*
X009029Y007209D01*
X009025Y007150D02*
X000260Y007150D01*
X000260Y007092D02*
X009025Y007092D01*
X009037Y007033D02*
X000260Y007033D01*
X000260Y006975D02*
X009061Y006975D01*
X009095Y006916D02*
X000260Y006916D01*
X000260Y006858D02*
X009154Y006858D01*
X009264Y006799D02*
X000260Y006799D01*
X000260Y006741D02*
X017521Y006741D01*
X017463Y006799D02*
X009996Y006799D01*
X010106Y006858D02*
X017404Y006858D01*
X017346Y006916D02*
X010165Y006916D01*
X010199Y006975D02*
X015490Y006975D01*
X015431Y007033D02*
X010223Y007033D01*
X010235Y007092D02*
X015421Y007092D01*
X015412Y007150D02*
X010235Y007150D01*
X010231Y007209D02*
X015353Y007209D01*
X015295Y007267D02*
X010207Y007267D01*
X010183Y007326D02*
X015290Y007326D01*
X015290Y007384D02*
X010125Y007384D01*
X009277Y007794D02*
X000260Y007794D01*
X000260Y007852D02*
X009159Y007852D01*
X009101Y007911D02*
X000260Y007911D01*
X000260Y007969D02*
X009063Y007969D01*
X009039Y008028D02*
X000260Y008028D01*
X000260Y008086D02*
X009025Y008086D01*
X009025Y008145D02*
X000260Y008145D01*
X000260Y008203D02*
X009027Y008203D01*
X009051Y008262D02*
X000260Y008262D01*
X000260Y008320D02*
X009075Y008320D01*
X009130Y008379D02*
X000260Y008379D01*
X000260Y008437D02*
X009206Y008437D01*
X010054Y008437D02*
X015290Y008437D01*
X015290Y008379D02*
X010130Y008379D01*
X010185Y008320D02*
X015290Y008320D01*
X015290Y008262D02*
X010209Y008262D01*
X009957Y006477D02*
X009303Y006477D01*
X009176Y006425D01*
X009078Y006327D01*
X009025Y006199D01*
X009025Y006061D01*
X009078Y005933D01*
X009176Y005835D01*
X009303Y005783D01*
X009957Y005783D01*
X010084Y005835D01*
X010182Y005933D01*
X010235Y006061D01*
X010235Y006199D01*
X010182Y006327D01*
X010084Y006425D01*
X009957Y006477D01*
X010028Y006448D02*
X017814Y006448D01*
X017872Y006390D02*
X010119Y006390D01*
X010178Y006331D02*
X017931Y006331D01*
X017989Y006273D02*
X010205Y006273D01*
X010229Y006214D02*
X018048Y006214D01*
X018106Y006156D02*
X010235Y006156D01*
X010235Y006097D02*
X018165Y006097D01*
X018223Y006039D02*
X010226Y006039D01*
X010201Y005980D02*
X018282Y005980D01*
X018340Y005922D02*
X010170Y005922D01*
X010112Y005863D02*
X026148Y005863D01*
X026176Y005835D02*
X026078Y005933D01*
X026025Y006061D01*
X026025Y006199D01*
X026078Y006327D01*
X026176Y006425D01*
X026303Y006477D01*
X026957Y006477D01*
X027084Y006425D01*
X027182Y006327D01*
X027235Y006199D01*
X027235Y006061D01*
X027182Y005933D01*
X027084Y005835D01*
X026957Y005783D01*
X026303Y005783D01*
X026176Y005835D01*
X026250Y005805D02*
X010010Y005805D01*
X009957Y005477D02*
X010084Y005425D01*
X010182Y005327D01*
X010235Y005199D01*
X010235Y005061D01*
X010182Y004933D01*
X010084Y004835D01*
X009957Y004783D01*
X009303Y004783D01*
X009176Y004835D01*
X009078Y004933D01*
X009025Y005061D01*
X009025Y005199D01*
X009078Y005327D01*
X009176Y005425D01*
X009303Y005477D01*
X009957Y005477D01*
X010014Y005454D02*
X026246Y005454D01*
X026303Y005477D02*
X026176Y005425D01*
X026078Y005327D01*
X026025Y005199D01*
X026025Y005061D01*
X026078Y004933D01*
X026176Y004835D01*
X026303Y004783D01*
X026957Y004783D01*
X027084Y004835D01*
X027182Y004933D01*
X027235Y005061D01*
X027235Y005199D01*
X027182Y005327D01*
X027084Y005425D01*
X026957Y005477D01*
X026303Y005477D01*
X026146Y005395D02*
X010114Y005395D01*
X010172Y005337D02*
X026088Y005337D01*
X026058Y005278D02*
X010202Y005278D01*
X010227Y005220D02*
X026033Y005220D01*
X026025Y005161D02*
X010235Y005161D01*
X010235Y005103D02*
X026025Y005103D01*
X026032Y005044D02*
X010228Y005044D01*
X010204Y004986D02*
X026056Y004986D01*
X026084Y004927D02*
X010176Y004927D01*
X010117Y004869D02*
X026143Y004869D01*
X026237Y004810D02*
X010023Y004810D01*
X009237Y004810D02*
X000260Y004810D01*
X000260Y004752D02*
X027507Y004752D01*
X027479Y004740D02*
X027350Y004611D01*
X027280Y004441D01*
X027280Y004258D01*
X027350Y004089D01*
X027479Y003960D01*
X027648Y003890D01*
X027831Y003890D01*
X028001Y003960D01*
X028130Y004089D01*
X028200Y004258D01*
X028200Y004441D01*
X028130Y004611D01*
X028001Y004740D01*
X027831Y004810D01*
X027648Y004810D01*
X027479Y004740D01*
X027432Y004693D02*
X000260Y004693D01*
X000260Y004635D02*
X027374Y004635D01*
X027336Y004576D02*
X000260Y004576D01*
X000260Y004518D02*
X027311Y004518D01*
X027287Y004459D02*
X000260Y004459D01*
X000260Y004401D02*
X027280Y004401D01*
X027280Y004342D02*
X000260Y004342D01*
X000260Y004284D02*
X025389Y004284D01*
X025171Y004225D02*
X000260Y004225D01*
X000260Y004167D02*
X025025Y004167D01*
X024924Y004108D02*
X000260Y004108D01*
X000260Y004050D02*
X024822Y004050D01*
X024734Y003991D02*
X000260Y003991D01*
X000260Y003933D02*
X024675Y003933D01*
X024617Y003874D02*
X000260Y003874D01*
X000260Y003816D02*
X024558Y003816D01*
X024500Y003757D02*
X000260Y003757D01*
X000260Y003699D02*
X002892Y003699D01*
X002955Y003725D02*
X002719Y003627D01*
X002539Y003446D01*
X002441Y003210D01*
X002441Y002955D01*
X002539Y002719D01*
X002719Y002539D01*
X002955Y002441D01*
X003210Y002441D01*
X003446Y002539D01*
X003627Y002719D01*
X003725Y002955D01*
X003725Y003210D01*
X003627Y003446D01*
X003446Y003627D01*
X003210Y003725D01*
X002955Y003725D01*
X002751Y003640D02*
X000260Y003640D01*
X000260Y003582D02*
X002674Y003582D01*
X002615Y003523D02*
X000260Y003523D01*
X000260Y003465D02*
X002557Y003465D01*
X002522Y003406D02*
X000260Y003406D01*
X000260Y003348D02*
X002498Y003348D01*
X002474Y003289D02*
X000260Y003289D01*
X000260Y003231D02*
X002449Y003231D01*
X002441Y003172D02*
X000260Y003172D01*
X000260Y003114D02*
X002441Y003114D01*
X002441Y003055D02*
X000260Y003055D01*
X000260Y002997D02*
X000975Y002997D01*
X001069Y003036D02*
X000790Y002920D01*
X000576Y002706D01*
X000461Y002427D01*
X000461Y002125D01*
X000576Y001845D01*
X000790Y001631D01*
X001069Y001516D01*
X001372Y001516D01*
X001651Y001631D01*
X001865Y001845D01*
X001980Y002125D01*
X001980Y002427D01*
X001865Y002706D01*
X001651Y002920D01*
X001372Y003036D01*
X001069Y003036D01*
X000834Y002938D02*
X000260Y002938D01*
X000260Y002880D02*
X000750Y002880D01*
X000691Y002821D02*
X000260Y002821D01*
X000260Y002763D02*
X000633Y002763D01*
X000575Y002704D02*
X000260Y002704D01*
X000260Y002646D02*
X000551Y002646D01*
X000527Y002587D02*
X000260Y002587D01*
X000260Y002529D02*
X000503Y002529D01*
X000479Y002470D02*
X000260Y002470D01*
X000260Y002412D02*
X000461Y002412D01*
X000461Y002353D02*
X000260Y002353D01*
X000260Y002295D02*
X000461Y002295D01*
X000461Y002236D02*
X000260Y002236D01*
X000260Y002178D02*
X000461Y002178D01*
X000463Y002119D02*
X000260Y002119D01*
X000260Y002061D02*
X000487Y002061D01*
X000511Y002002D02*
X000260Y002002D01*
X000260Y001944D02*
X000536Y001944D01*
X000560Y001885D02*
X000260Y001885D01*
X000260Y001827D02*
X000595Y001827D01*
X000654Y001768D02*
X000260Y001768D01*
X000260Y001710D02*
X000712Y001710D01*
X000771Y001651D02*
X000260Y001651D01*
X000260Y001593D02*
X000884Y001593D01*
X001025Y001534D02*
X000260Y001534D01*
X000260Y001476D02*
X024181Y001476D01*
X024181Y001534D02*
X019483Y001534D01*
X019439Y001516D02*
X019718Y001631D01*
X019932Y001845D01*
X020047Y002125D01*
X020047Y002427D01*
X019932Y002706D01*
X019718Y002920D01*
X019439Y003036D01*
X019136Y003036D01*
X018857Y002920D01*
X018643Y002706D01*
X018528Y002427D01*
X018528Y002125D01*
X018643Y001845D01*
X018857Y001631D01*
X019136Y001516D01*
X019439Y001516D01*
X019624Y001593D02*
X024181Y001593D01*
X024181Y001651D02*
X019738Y001651D01*
X019796Y001710D02*
X024181Y001710D01*
X024181Y001768D02*
X019855Y001768D01*
X019913Y001827D02*
X024181Y001827D01*
X024181Y001885D02*
X019948Y001885D01*
X019972Y001944D02*
X024181Y001944D01*
X024181Y002002D02*
X019997Y002002D01*
X020021Y002061D02*
X024181Y002061D01*
X024181Y002119D02*
X020045Y002119D01*
X020047Y002178D02*
X024181Y002178D01*
X024181Y002236D02*
X020047Y002236D01*
X020047Y002295D02*
X024181Y002295D01*
X024181Y002353D02*
X020047Y002353D01*
X020047Y002412D02*
X024181Y002412D01*
X024181Y002470D02*
X020030Y002470D01*
X020005Y002529D02*
X024181Y002529D01*
X024181Y002587D02*
X019981Y002587D01*
X019957Y002646D02*
X024181Y002646D01*
X024181Y002704D02*
X019933Y002704D01*
X019875Y002763D02*
X024181Y002763D01*
X024181Y002821D02*
X019817Y002821D01*
X019758Y002880D02*
X024181Y002880D01*
X024181Y002938D02*
X019674Y002938D01*
X019533Y002997D02*
X024181Y002997D01*
X024190Y003055D02*
X003725Y003055D01*
X003725Y002997D02*
X019042Y002997D01*
X018901Y002938D02*
X003717Y002938D01*
X003693Y002880D02*
X018817Y002880D01*
X018758Y002821D02*
X003669Y002821D01*
X003645Y002763D02*
X018700Y002763D01*
X018642Y002704D02*
X003612Y002704D01*
X003553Y002646D02*
X018618Y002646D01*
X018594Y002587D02*
X003495Y002587D01*
X003422Y002529D02*
X018570Y002529D01*
X018545Y002470D02*
X003281Y002470D01*
X002885Y002470D02*
X001963Y002470D01*
X001980Y002412D02*
X018528Y002412D01*
X018528Y002353D02*
X001980Y002353D01*
X001980Y002295D02*
X018528Y002295D01*
X018528Y002236D02*
X001980Y002236D01*
X001980Y002178D02*
X018528Y002178D01*
X018530Y002119D02*
X001978Y002119D01*
X001954Y002061D02*
X018554Y002061D01*
X018578Y002002D02*
X001930Y002002D01*
X001905Y001944D02*
X018603Y001944D01*
X018627Y001885D02*
X001881Y001885D01*
X001846Y001827D02*
X018662Y001827D01*
X018720Y001768D02*
X001788Y001768D01*
X001729Y001710D02*
X018779Y001710D01*
X018837Y001651D02*
X001671Y001651D01*
X001557Y001593D02*
X018951Y001593D01*
X019092Y001534D02*
X001416Y001534D01*
X001938Y002529D02*
X002744Y002529D01*
X002671Y002587D02*
X001914Y002587D01*
X001890Y002646D02*
X002612Y002646D01*
X002554Y002704D02*
X001866Y002704D01*
X001808Y002763D02*
X002521Y002763D01*
X002496Y002821D02*
X001750Y002821D01*
X001691Y002880D02*
X002472Y002880D01*
X002448Y002938D02*
X001607Y002938D01*
X001466Y002997D02*
X002441Y002997D01*
X003273Y003699D02*
X024456Y003699D01*
X024422Y003640D02*
X003415Y003640D01*
X003492Y003582D02*
X024388Y003582D01*
X024355Y003523D02*
X003550Y003523D01*
X003609Y003465D02*
X024321Y003465D01*
X024287Y003406D02*
X003644Y003406D01*
X003668Y003348D02*
X024269Y003348D01*
X024253Y003289D02*
X003692Y003289D01*
X003716Y003231D02*
X024237Y003231D01*
X024222Y003172D02*
X003725Y003172D01*
X003725Y003114D02*
X024206Y003114D01*
X025926Y004284D02*
X027280Y004284D01*
X027294Y004225D02*
X026144Y004225D01*
X026290Y004167D02*
X027318Y004167D01*
X027342Y004108D02*
X026391Y004108D01*
X026493Y004050D02*
X027390Y004050D01*
X027448Y003991D02*
X026581Y003991D01*
X026640Y003933D02*
X027546Y003933D01*
X027934Y003933D02*
X029326Y003933D01*
X029259Y003960D02*
X029428Y003890D01*
X029611Y003890D01*
X029781Y003960D01*
X029910Y004089D01*
X029980Y004258D01*
X029980Y004441D01*
X029910Y004611D01*
X029781Y004740D01*
X029611Y004810D01*
X029428Y004810D01*
X029259Y004740D01*
X029130Y004611D01*
X029060Y004441D01*
X029060Y004258D01*
X029130Y004089D01*
X029259Y003960D01*
X029228Y003991D02*
X028032Y003991D01*
X028090Y004050D02*
X029170Y004050D01*
X029122Y004108D02*
X028138Y004108D01*
X028162Y004167D02*
X029098Y004167D01*
X029074Y004225D02*
X028186Y004225D01*
X028200Y004284D02*
X029060Y004284D01*
X029060Y004342D02*
X028200Y004342D01*
X028200Y004401D02*
X029060Y004401D01*
X029067Y004459D02*
X028193Y004459D01*
X028169Y004518D02*
X029091Y004518D01*
X029116Y004576D02*
X028144Y004576D01*
X028106Y004635D02*
X029154Y004635D01*
X029212Y004693D02*
X028048Y004693D01*
X027973Y004752D02*
X029287Y004752D01*
X029753Y004752D02*
X033823Y004752D01*
X033840Y004769D02*
X033728Y004657D01*
X033667Y004510D01*
X033667Y004350D01*
X033728Y004203D01*
X033840Y004091D01*
X033987Y004030D01*
X034147Y004030D01*
X034294Y004091D01*
X034406Y004203D01*
X034467Y004350D01*
X034467Y004510D01*
X034406Y004657D01*
X034294Y004769D01*
X034147Y004830D01*
X033987Y004830D01*
X033840Y004769D01*
X033939Y004810D02*
X031321Y004810D01*
X031305Y004803D02*
X031584Y004919D01*
X031798Y005133D01*
X031914Y005412D01*
X031914Y005714D01*
X031798Y005994D01*
X031584Y006207D01*
X031305Y006323D01*
X031002Y006323D01*
X030723Y006207D01*
X030509Y005994D01*
X030394Y005714D01*
X030394Y005412D01*
X030509Y005133D01*
X030723Y004919D01*
X031002Y004803D01*
X031305Y004803D01*
X031463Y004869D02*
X034656Y004869D01*
X034660Y004927D02*
X031592Y004927D01*
X031651Y004986D02*
X034684Y004986D01*
X034708Y005044D02*
X031709Y005044D01*
X031768Y005103D02*
X034739Y005103D01*
X034797Y005161D02*
X031810Y005161D01*
X031834Y005220D02*
X034856Y005220D01*
X034989Y005278D02*
X031858Y005278D01*
X031882Y005337D02*
X035500Y005337D01*
X035500Y005395D02*
X031907Y005395D01*
X031914Y005454D02*
X035500Y005454D01*
X035500Y005512D02*
X031914Y005512D01*
X031914Y005571D02*
X035500Y005571D01*
X035500Y005629D02*
X031914Y005629D01*
X031914Y005688D02*
X035500Y005688D01*
X035500Y005746D02*
X031900Y005746D01*
X031876Y005805D02*
X035500Y005805D01*
X035500Y005863D02*
X031852Y005863D01*
X031828Y005922D02*
X035500Y005922D01*
X035500Y005980D02*
X031803Y005980D01*
X031753Y006039D02*
X035500Y006039D01*
X035500Y006097D02*
X031694Y006097D01*
X031636Y006156D02*
X035500Y006156D01*
X035500Y006214D02*
X031568Y006214D01*
X031427Y006273D02*
X033754Y006273D01*
X033700Y006331D02*
X027178Y006331D01*
X027205Y006273D02*
X030881Y006273D01*
X030739Y006214D02*
X027229Y006214D01*
X027235Y006156D02*
X030671Y006156D01*
X030613Y006097D02*
X027235Y006097D01*
X027226Y006039D02*
X030554Y006039D01*
X030504Y005980D02*
X027201Y005980D01*
X027170Y005922D02*
X030480Y005922D01*
X030455Y005863D02*
X027112Y005863D01*
X027010Y005805D02*
X030431Y005805D01*
X030407Y005746D02*
X000260Y005746D01*
X000260Y005688D02*
X030394Y005688D01*
X030394Y005629D02*
X000260Y005629D01*
X000260Y005571D02*
X030394Y005571D01*
X030394Y005512D02*
X000260Y005512D01*
X000260Y005454D02*
X009246Y005454D01*
X009146Y005395D02*
X000260Y005395D01*
X000260Y005337D02*
X009088Y005337D01*
X009058Y005278D02*
X000260Y005278D01*
X000260Y005220D02*
X009033Y005220D01*
X009025Y005161D02*
X000260Y005161D01*
X000260Y005103D02*
X009025Y005103D01*
X009032Y005044D02*
X000260Y005044D01*
X000260Y004986D02*
X009056Y004986D01*
X009084Y004927D02*
X000260Y004927D01*
X000260Y004869D02*
X009143Y004869D01*
X009250Y005805D02*
X000260Y005805D01*
X000260Y005863D02*
X009148Y005863D01*
X009090Y005922D02*
X000260Y005922D01*
X000260Y005980D02*
X009059Y005980D01*
X009034Y006039D02*
X000260Y006039D01*
X000260Y006097D02*
X009025Y006097D01*
X009025Y006156D02*
X000260Y006156D01*
X000260Y006214D02*
X009031Y006214D01*
X009055Y006273D02*
X000260Y006273D01*
X000260Y006331D02*
X009082Y006331D01*
X009141Y006390D02*
X000260Y006390D01*
X000260Y006448D02*
X009232Y006448D01*
X010990Y010602D02*
X000260Y010602D01*
X000260Y010660D02*
X010990Y010660D01*
X010990Y010719D02*
X000260Y010719D01*
X000260Y010777D02*
X010990Y010777D01*
X010990Y010836D02*
X010084Y010836D01*
X010143Y010894D02*
X010990Y010894D01*
X010990Y010953D02*
X010190Y010953D01*
X010214Y011011D02*
X010990Y011011D01*
X010990Y011070D02*
X010235Y011070D01*
X010235Y011128D02*
X010990Y011128D01*
X010990Y011187D02*
X010235Y011187D01*
X010216Y011245D02*
X010990Y011245D01*
X010990Y011304D02*
X010192Y011304D01*
X010147Y011362D02*
X010990Y011362D01*
X010990Y011538D02*
X000260Y011538D01*
X000260Y011596D02*
X010990Y011596D01*
X010990Y011655D02*
X000260Y011655D01*
X000260Y011713D02*
X010990Y011713D01*
X010990Y011772D02*
X000260Y011772D01*
X000260Y011830D02*
X009189Y011830D01*
X009123Y011889D02*
X000260Y011889D01*
X000260Y011947D02*
X009072Y011947D01*
X009048Y012006D02*
X000260Y012006D01*
X000260Y012064D02*
X009025Y012064D01*
X009025Y012123D02*
X000260Y012123D01*
X000260Y012181D02*
X009025Y012181D01*
X009042Y012240D02*
X000260Y012240D01*
X000260Y012298D02*
X009066Y012298D01*
X009108Y012357D02*
X000260Y012357D01*
X000260Y012415D02*
X009166Y012415D01*
X009026Y013059D02*
X004622Y013059D01*
X004672Y013088D02*
X004672Y013088D01*
X004672Y013088D01*
X004689Y013117D02*
X009025Y013117D01*
X009025Y013176D02*
X004723Y013176D01*
X004757Y013234D02*
X009040Y013234D01*
X009064Y013293D02*
X004760Y013293D01*
X004760Y013351D02*
X009102Y013351D01*
X009161Y013410D02*
X004760Y013410D01*
X004760Y013468D02*
X009281Y013468D01*
X009228Y014814D02*
X004760Y014814D01*
X004760Y014872D02*
X009139Y014872D01*
X009081Y014931D02*
X004760Y014931D01*
X004760Y014989D02*
X009055Y014989D01*
X009031Y015048D02*
X004760Y015048D01*
X004760Y015106D02*
X009025Y015106D01*
X009242Y015808D02*
X004760Y015808D01*
X004760Y015867D02*
X009145Y015867D01*
X009086Y015925D02*
X004760Y015925D01*
X004760Y015984D02*
X009057Y015984D01*
X009033Y016042D02*
X004748Y016042D01*
X004760Y016021D02*
X004760Y016021D01*
X004714Y016101D02*
X009025Y016101D01*
X009025Y016159D02*
X004680Y016159D01*
X004594Y016218D02*
X009033Y016218D01*
X009490Y018558D02*
X000260Y018558D01*
X000260Y018616D02*
X009490Y018616D01*
X009490Y018675D02*
X000260Y018675D01*
X000260Y018733D02*
X009490Y018733D01*
X009282Y018792D02*
X000260Y018792D01*
X000260Y018850D02*
X009161Y018850D01*
X009103Y018909D02*
X000260Y018909D01*
X000260Y018967D02*
X009064Y018967D01*
X009040Y019026D02*
X000260Y019026D01*
X000260Y019084D02*
X009025Y019084D01*
X009025Y019143D02*
X000260Y019143D01*
X000260Y019201D02*
X009026Y019201D01*
X009050Y019260D02*
X000260Y019260D01*
X000260Y019318D02*
X009074Y019318D01*
X009128Y019377D02*
X000260Y019377D01*
X000260Y019435D02*
X009201Y019435D01*
X009303Y022477D02*
X009957Y022477D01*
X010067Y022828D02*
X026193Y022828D01*
X026125Y022887D02*
X010135Y022887D01*
X010187Y022945D02*
X026073Y022945D01*
X026049Y023004D02*
X010211Y023004D01*
X010235Y023062D02*
X026025Y023062D01*
X026025Y023121D02*
X010235Y023121D01*
X010235Y023179D02*
X026025Y023179D01*
X026041Y023238D02*
X010219Y023238D01*
X010195Y023296D02*
X026065Y023296D01*
X026106Y023355D02*
X010154Y023355D01*
X010096Y023413D02*
X026164Y023413D01*
X026289Y023472D02*
X009971Y023472D01*
X009957Y023783D02*
X010084Y023835D01*
X010182Y023933D01*
X010235Y024061D01*
X010235Y024199D01*
X010182Y024327D01*
X010084Y024425D01*
X009957Y024477D01*
X009303Y024477D01*
X009176Y024425D01*
X009078Y024327D01*
X009025Y024199D01*
X009025Y024061D01*
X009078Y023933D01*
X009176Y023835D01*
X009303Y023783D01*
X009957Y023783D01*
X010053Y023823D02*
X026207Y023823D01*
X026130Y023881D02*
X010130Y023881D01*
X010185Y023940D02*
X026075Y023940D01*
X026051Y023998D02*
X010209Y023998D01*
X010233Y024057D02*
X026027Y024057D01*
X026025Y024115D02*
X010235Y024115D01*
X010235Y024174D02*
X026025Y024174D01*
X026039Y024232D02*
X010221Y024232D01*
X010197Y024291D02*
X026063Y024291D01*
X026100Y024349D02*
X010160Y024349D01*
X010101Y024408D02*
X026159Y024408D01*
X026276Y024466D02*
X009984Y024466D01*
X009276Y024466D02*
X000260Y024466D01*
X000260Y024408D02*
X009159Y024408D01*
X009100Y024349D02*
X000260Y024349D01*
X000260Y024291D02*
X009063Y024291D01*
X009039Y024232D02*
X000260Y024232D01*
X000260Y024174D02*
X009025Y024174D01*
X009025Y024115D02*
X000260Y024115D01*
X000260Y024057D02*
X009027Y024057D01*
X009051Y023998D02*
X000260Y023998D01*
X000260Y023940D02*
X009075Y023940D01*
X009130Y023881D02*
X000260Y023881D01*
X000260Y023823D02*
X009207Y023823D01*
X001160Y015574D02*
X001100Y015574D01*
X001100Y015516D02*
X001160Y015516D01*
X001160Y015457D02*
X001100Y015457D01*
X001100Y015399D02*
X001160Y015399D01*
X001160Y015340D02*
X001100Y015340D01*
X001100Y015282D02*
X001160Y015282D01*
X001160Y015223D02*
X001100Y015223D01*
X001100Y015165D02*
X001160Y015165D01*
X000750Y015457D02*
X000260Y015457D01*
X000260Y015399D02*
X000707Y015399D01*
X000676Y015340D02*
X000260Y015340D01*
X000260Y015282D02*
X000654Y015282D01*
X000639Y015223D02*
X000260Y015223D01*
X000260Y015165D02*
X000630Y015165D01*
X000810Y015516D02*
X000260Y015516D01*
X000260Y015574D02*
X000900Y015574D01*
X003739Y013000D02*
X004521Y013000D01*
X000260Y007735D02*
X015290Y007735D01*
X015290Y007677D02*
X000260Y007677D01*
X000260Y007618D02*
X015290Y007618D01*
X015290Y007560D02*
X000260Y007560D01*
X000260Y006682D02*
X017580Y006682D01*
X017638Y006624D02*
X000260Y006624D01*
X000260Y006565D02*
X017697Y006565D01*
X017755Y006507D02*
X000260Y006507D01*
X000260Y001417D02*
X024181Y001417D01*
X024181Y001359D02*
X000260Y001359D01*
X000260Y001300D02*
X024181Y001300D01*
X024181Y001242D02*
X000260Y001242D01*
X000260Y001183D02*
X024181Y001183D01*
X024181Y001125D02*
X000260Y001125D01*
X000260Y001066D02*
X024181Y001066D01*
X024181Y001008D02*
X000260Y001008D01*
X000260Y000949D02*
X024181Y000949D01*
X024181Y000891D02*
X000260Y000891D01*
X000260Y000832D02*
X024181Y000832D01*
X024181Y000774D02*
X000260Y000774D01*
X000260Y000715D02*
X024181Y000715D01*
X024181Y000657D02*
X000260Y000657D01*
X000260Y000598D02*
X024181Y000598D01*
X024181Y000540D02*
X000260Y000540D01*
X000260Y000481D02*
X024181Y000481D01*
X024181Y000423D02*
X000260Y000423D01*
X000260Y000364D02*
X024181Y000364D01*
X024181Y000306D02*
X000260Y000306D01*
X015574Y007384D02*
X016878Y007384D01*
X016936Y007326D02*
X015730Y007326D01*
X015789Y007267D02*
X016995Y007267D01*
X017053Y007209D02*
X015839Y007209D01*
X015839Y007150D02*
X017112Y007150D01*
X017170Y007092D02*
X015839Y007092D01*
X015829Y007033D02*
X017229Y007033D01*
X017287Y006975D02*
X015770Y006975D01*
X015570Y007443D02*
X016819Y007443D01*
X016761Y007501D02*
X015570Y007501D01*
X015570Y007560D02*
X016702Y007560D01*
X016644Y007618D02*
X015570Y007618D01*
X015570Y007677D02*
X016585Y007677D01*
X016527Y007735D02*
X015570Y007735D01*
X015570Y007794D02*
X016468Y007794D01*
X016410Y007852D02*
X015570Y007852D01*
X015570Y007911D02*
X016351Y007911D01*
X016293Y007969D02*
X015570Y007969D01*
X015570Y008028D02*
X016234Y008028D01*
X016176Y008086D02*
X015570Y008086D01*
X015570Y008145D02*
X016117Y008145D01*
X016059Y008203D02*
X015570Y008203D01*
X015570Y008262D02*
X016000Y008262D01*
X015942Y008320D02*
X015570Y008320D01*
X015570Y008379D02*
X015890Y008379D01*
X015890Y008437D02*
X015570Y008437D01*
X025320Y005922D02*
X026090Y005922D01*
X026059Y005980D02*
X025378Y005980D01*
X025437Y006039D02*
X026034Y006039D01*
X026025Y006097D02*
X025495Y006097D01*
X025554Y006156D02*
X026025Y006156D01*
X026031Y006214D02*
X025612Y006214D01*
X025671Y006273D02*
X026055Y006273D01*
X026082Y006331D02*
X025729Y006331D01*
X025788Y006390D02*
X026141Y006390D01*
X026232Y006448D02*
X025846Y006448D01*
X025905Y006507D02*
X027512Y006507D01*
X027479Y006520D02*
X027648Y006450D01*
X027831Y006450D01*
X028001Y006520D01*
X028130Y006649D01*
X028200Y006818D01*
X028200Y007001D01*
X028130Y007171D01*
X028001Y007300D01*
X027870Y007354D01*
X027870Y008374D01*
X027939Y008443D01*
X027939Y008617D01*
X027817Y008739D01*
X027643Y008739D01*
X027521Y008617D01*
X027521Y008443D01*
X027590Y008374D01*
X027590Y007346D01*
X027479Y007300D01*
X027350Y007171D01*
X027280Y007001D01*
X027280Y006818D01*
X027350Y006649D01*
X027479Y006520D01*
X027434Y006565D02*
X025963Y006565D01*
X025970Y006624D02*
X027376Y006624D01*
X027337Y006682D02*
X025970Y006682D01*
X025970Y006741D02*
X027312Y006741D01*
X027288Y006799D02*
X026996Y006799D01*
X026957Y006783D02*
X027084Y006835D01*
X027182Y006933D01*
X027235Y007061D01*
X027235Y007199D01*
X027182Y007327D01*
X027084Y007425D01*
X026957Y007477D01*
X026303Y007477D01*
X026176Y007425D01*
X026078Y007327D01*
X026025Y007199D01*
X026025Y007061D01*
X026078Y006933D01*
X026176Y006835D01*
X026303Y006783D01*
X026957Y006783D01*
X027106Y006858D02*
X027280Y006858D01*
X027280Y006916D02*
X027165Y006916D01*
X027199Y006975D02*
X027280Y006975D01*
X027293Y007033D02*
X027223Y007033D01*
X027235Y007092D02*
X027317Y007092D01*
X027342Y007150D02*
X027235Y007150D01*
X027231Y007209D02*
X027388Y007209D01*
X027446Y007267D02*
X027207Y007267D01*
X027183Y007326D02*
X027541Y007326D01*
X027590Y007384D02*
X027125Y007384D01*
X027041Y007443D02*
X027590Y007443D01*
X027590Y007501D02*
X025970Y007501D01*
X025970Y007443D02*
X026219Y007443D01*
X026135Y007384D02*
X025970Y007384D01*
X025970Y007326D02*
X026077Y007326D01*
X026053Y007267D02*
X025970Y007267D01*
X025970Y007209D02*
X026029Y007209D01*
X026025Y007150D02*
X025970Y007150D01*
X025970Y007092D02*
X026025Y007092D01*
X026037Y007033D02*
X025970Y007033D01*
X025970Y006975D02*
X026061Y006975D01*
X026095Y006916D02*
X025970Y006916D01*
X025970Y006858D02*
X026154Y006858D01*
X026264Y006799D02*
X025970Y006799D01*
X025970Y007560D02*
X027590Y007560D01*
X027590Y007618D02*
X025970Y007618D01*
X025970Y007677D02*
X027590Y007677D01*
X027590Y007735D02*
X025970Y007735D01*
X025970Y007794D02*
X027590Y007794D01*
X027590Y007852D02*
X025970Y007852D01*
X025970Y007911D02*
X027590Y007911D01*
X027590Y007969D02*
X025970Y007969D01*
X025970Y008028D02*
X027590Y008028D01*
X027590Y008086D02*
X025970Y008086D01*
X025970Y008145D02*
X027590Y008145D01*
X027590Y008203D02*
X025970Y008203D01*
X025970Y008262D02*
X027590Y008262D01*
X027590Y008320D02*
X025970Y008320D01*
X025970Y008379D02*
X027586Y008379D01*
X027527Y008437D02*
X025970Y008437D01*
X025970Y008496D02*
X027521Y008496D01*
X027521Y008554D02*
X025970Y008554D01*
X025970Y008613D02*
X027521Y008613D01*
X027575Y008671D02*
X025970Y008671D01*
X025970Y008730D02*
X027634Y008730D01*
X027826Y008730D02*
X030490Y008730D01*
X030490Y008788D02*
X025970Y008788D01*
X025970Y008847D02*
X030490Y008847D01*
X030490Y008905D02*
X026003Y008905D01*
X026062Y008964D02*
X030490Y008964D01*
X030490Y009022D02*
X026120Y009022D01*
X026179Y009081D02*
X030490Y009081D01*
X030490Y009139D02*
X026237Y009139D01*
X026296Y009198D02*
X030490Y009198D01*
X030490Y009256D02*
X026354Y009256D01*
X026413Y009315D02*
X030490Y009315D01*
X030490Y009373D02*
X026471Y009373D01*
X026530Y009432D02*
X030490Y009432D01*
X030490Y009490D02*
X026588Y009490D01*
X026744Y009549D02*
X030490Y009549D01*
X030490Y009607D02*
X026803Y009607D01*
X026839Y009666D02*
X030490Y009666D01*
X030490Y009724D02*
X026839Y009724D01*
X026839Y009783D02*
X030490Y009783D01*
X030490Y009841D02*
X026815Y009841D01*
X026756Y009900D02*
X030490Y009900D01*
X030490Y009958D02*
X026739Y009958D01*
X026739Y010017D02*
X030490Y010017D01*
X030490Y010075D02*
X026739Y010075D01*
X026722Y010134D02*
X030490Y010134D01*
X030490Y010192D02*
X026664Y010192D01*
X026405Y010251D02*
X030490Y010251D01*
X030490Y010309D02*
X026347Y010309D01*
X026339Y010368D02*
X030490Y010368D01*
X030490Y010426D02*
X026339Y010426D01*
X026339Y010485D02*
X030490Y010485D01*
X030490Y010543D02*
X026313Y010543D01*
X026300Y010602D02*
X030490Y010602D01*
X030490Y010660D02*
X026358Y010660D01*
X026417Y010719D02*
X030490Y010719D01*
X030490Y010777D02*
X026475Y010777D01*
X026534Y010836D02*
X030490Y010836D01*
X030490Y010894D02*
X026592Y010894D01*
X026651Y010953D02*
X030490Y010953D01*
X030490Y011011D02*
X026709Y011011D01*
X026768Y011070D02*
X030490Y011070D01*
X030490Y011128D02*
X026826Y011128D01*
X026885Y011187D02*
X030490Y011187D01*
X030490Y011245D02*
X026943Y011245D01*
X027002Y011304D02*
X030490Y011304D01*
X030490Y011362D02*
X027060Y011362D01*
X027119Y011421D02*
X030490Y011421D01*
X030490Y011479D02*
X027177Y011479D01*
X027236Y011538D02*
X030490Y011538D01*
X030490Y011596D02*
X027270Y011596D01*
X027270Y011655D02*
X030490Y011655D01*
X030490Y011713D02*
X027270Y011713D01*
X027270Y011772D02*
X030490Y011772D01*
X030490Y011830D02*
X027270Y011830D01*
X027270Y011889D02*
X030490Y011889D01*
X030490Y011947D02*
X027270Y011947D01*
X027270Y012006D02*
X030490Y012006D01*
X030490Y012064D02*
X027270Y012064D01*
X027270Y012123D02*
X030490Y012123D01*
X030490Y012181D02*
X027270Y012181D01*
X027270Y012240D02*
X030490Y012240D01*
X030490Y012298D02*
X027270Y012298D01*
X027270Y012357D02*
X030490Y012357D01*
X030449Y012415D02*
X027270Y012415D01*
X027270Y012474D02*
X030421Y012474D01*
X030421Y012532D02*
X027270Y012532D01*
X027289Y012591D02*
X030421Y012591D01*
X030453Y012649D02*
X027347Y012649D01*
X027406Y012708D02*
X030490Y012708D01*
X030490Y012766D02*
X027464Y012766D01*
X027523Y012825D02*
X030490Y012825D01*
X030490Y012883D02*
X027581Y012883D01*
X027640Y012942D02*
X030490Y012942D01*
X030490Y013000D02*
X027698Y013000D01*
X027757Y013059D02*
X030490Y013059D01*
X030490Y013117D02*
X027815Y013117D01*
X027874Y013176D02*
X030490Y013176D01*
X030490Y013234D02*
X027932Y013234D01*
X027991Y013293D02*
X030490Y013293D01*
X030490Y013351D02*
X028049Y013351D01*
X028108Y013410D02*
X030490Y013410D01*
X030490Y013468D02*
X028166Y013468D01*
X028225Y013527D02*
X030490Y013527D01*
X030490Y013585D02*
X028283Y013585D01*
X028342Y013644D02*
X030490Y013644D01*
X030490Y013702D02*
X028400Y013702D01*
X028459Y013761D02*
X030490Y013761D01*
X030490Y013819D02*
X028517Y013819D01*
X028576Y013878D02*
X030490Y013878D01*
X030490Y013936D02*
X028634Y013936D01*
X028693Y013995D02*
X030490Y013995D01*
X030490Y014053D02*
X028751Y014053D01*
X028810Y014112D02*
X030490Y014112D01*
X030490Y014170D02*
X028868Y014170D01*
X028927Y014229D02*
X030490Y014229D01*
X030490Y014287D02*
X028985Y014287D01*
X029044Y014346D02*
X030490Y014346D01*
X030490Y014404D02*
X029102Y014404D01*
X029161Y014463D02*
X030490Y014463D01*
X030490Y014521D02*
X029219Y014521D01*
X029278Y014580D02*
X030490Y014580D01*
X030490Y014638D02*
X029336Y014638D01*
X029395Y014697D02*
X030499Y014697D01*
X030557Y014755D02*
X029453Y014755D01*
X029512Y014814D02*
X030616Y014814D01*
X030674Y014872D02*
X029570Y014872D01*
X029629Y014931D02*
X030733Y014931D01*
X030791Y014989D02*
X029687Y014989D01*
X029746Y015048D02*
X030850Y015048D01*
X030908Y015106D02*
X029804Y015106D01*
X029863Y015165D02*
X030967Y015165D01*
X031025Y015223D02*
X029921Y015223D01*
X029980Y015282D02*
X031469Y015282D01*
X031493Y015340D02*
X030038Y015340D01*
X030097Y015399D02*
X031543Y015399D01*
X031602Y015457D02*
X030155Y015457D01*
X030895Y014697D02*
X033700Y014697D01*
X033700Y014755D02*
X032534Y014755D01*
X032661Y014814D02*
X033700Y014814D01*
X033700Y014872D02*
X032720Y014872D01*
X032768Y014931D02*
X033700Y014931D01*
X033700Y014989D02*
X032792Y014989D01*
X032816Y015048D02*
X033700Y015048D01*
X033700Y015106D02*
X032820Y015106D01*
X032820Y015165D02*
X033700Y015165D01*
X033700Y015223D02*
X032815Y015223D01*
X032791Y015282D02*
X033700Y015282D01*
X033700Y015340D02*
X032767Y015340D01*
X032717Y015399D02*
X033700Y015399D01*
X033700Y015457D02*
X032658Y015457D01*
X031726Y014755D02*
X030953Y014755D01*
X031012Y014814D02*
X031599Y014814D01*
X031540Y014872D02*
X031070Y014872D01*
X031129Y014931D02*
X031492Y014931D01*
X031468Y014989D02*
X031187Y014989D01*
X030836Y014638D02*
X033700Y014638D01*
X033700Y014580D02*
X030778Y014580D01*
X030770Y014521D02*
X031745Y014521D01*
X031752Y014524D02*
X031609Y014465D01*
X031499Y014355D01*
X031440Y014212D01*
X031440Y014056D01*
X031499Y013913D01*
X031609Y013803D01*
X031752Y013744D01*
X032508Y013744D01*
X032651Y013803D01*
X032761Y013913D01*
X032820Y014056D01*
X032820Y014212D01*
X032761Y014355D01*
X032651Y014465D01*
X032508Y014524D01*
X031752Y014524D01*
X031607Y014463D02*
X030770Y014463D01*
X030770Y014404D02*
X031549Y014404D01*
X031496Y014346D02*
X030770Y014346D01*
X030770Y014287D02*
X031471Y014287D01*
X031447Y014229D02*
X030770Y014229D01*
X030770Y014170D02*
X031440Y014170D01*
X031440Y014112D02*
X030770Y014112D01*
X030770Y014053D02*
X031441Y014053D01*
X031466Y013995D02*
X030770Y013995D01*
X030770Y013936D02*
X031490Y013936D01*
X031535Y013878D02*
X030770Y013878D01*
X030770Y013819D02*
X031593Y013819D01*
X031712Y013761D02*
X030770Y013761D01*
X030770Y013702D02*
X033700Y013702D01*
X033700Y013644D02*
X030770Y013644D01*
X030770Y013585D02*
X033700Y013585D01*
X033700Y013527D02*
X030770Y013527D01*
X030770Y013468D02*
X031618Y013468D01*
X031609Y013465D02*
X031499Y013355D01*
X031440Y013212D01*
X031440Y013056D01*
X031499Y012913D01*
X031609Y012803D01*
X031752Y012744D01*
X032508Y012744D01*
X032651Y012803D01*
X032761Y012913D01*
X032820Y013056D01*
X032820Y013212D01*
X032761Y013355D01*
X032651Y013465D01*
X032508Y013524D01*
X031752Y013524D01*
X031609Y013465D01*
X031554Y013410D02*
X030770Y013410D01*
X030770Y013351D02*
X031498Y013351D01*
X031474Y013293D02*
X030770Y013293D01*
X030770Y013234D02*
X031449Y013234D01*
X031440Y013176D02*
X030770Y013176D01*
X030770Y013117D02*
X031440Y013117D01*
X031440Y013059D02*
X030770Y013059D01*
X030770Y013000D02*
X031463Y013000D01*
X031488Y012942D02*
X030770Y012942D01*
X030770Y012883D02*
X031529Y012883D01*
X031588Y012825D02*
X030770Y012825D01*
X030770Y012766D02*
X031699Y012766D01*
X031752Y012524D02*
X031609Y012465D01*
X031499Y012355D01*
X031440Y012212D01*
X031440Y012056D01*
X031499Y011913D01*
X031609Y011803D01*
X031752Y011744D01*
X032508Y011744D01*
X032651Y011803D01*
X032761Y011913D01*
X032820Y012056D01*
X032820Y012212D01*
X032761Y012355D01*
X032651Y012465D01*
X032508Y012524D01*
X031752Y012524D01*
X031631Y012474D02*
X030839Y012474D01*
X030839Y012532D02*
X033700Y012532D01*
X033700Y012474D02*
X032629Y012474D01*
X032700Y012415D02*
X033700Y012415D01*
X033700Y012357D02*
X032759Y012357D01*
X032784Y012298D02*
X033700Y012298D01*
X033700Y012240D02*
X032808Y012240D01*
X032820Y012181D02*
X033700Y012181D01*
X033700Y012123D02*
X032820Y012123D01*
X032820Y012064D02*
X033700Y012064D01*
X033700Y012006D02*
X032799Y012006D01*
X032775Y011947D02*
X033700Y011947D01*
X033700Y011889D02*
X032736Y011889D01*
X032678Y011830D02*
X033700Y011830D01*
X033700Y011772D02*
X032574Y011772D01*
X032508Y011524D02*
X032651Y011465D01*
X032761Y011355D01*
X032820Y011212D01*
X032820Y011056D01*
X032761Y010913D01*
X032651Y010803D01*
X032508Y010744D01*
X031752Y010744D01*
X031609Y010803D01*
X031499Y010913D01*
X031440Y011056D01*
X031440Y011212D01*
X031499Y011355D01*
X031609Y011465D01*
X031752Y011524D01*
X032508Y011524D01*
X032616Y011479D02*
X033700Y011479D01*
X033700Y011421D02*
X032695Y011421D01*
X032753Y011362D02*
X033700Y011362D01*
X033700Y011304D02*
X032782Y011304D01*
X032806Y011245D02*
X033700Y011245D01*
X033700Y011187D02*
X032820Y011187D01*
X032820Y011128D02*
X033700Y011128D01*
X033700Y011070D02*
X032820Y011070D01*
X032801Y011011D02*
X033700Y011011D01*
X033700Y010953D02*
X032777Y010953D01*
X032742Y010894D02*
X033700Y010894D01*
X033700Y010836D02*
X032683Y010836D01*
X032588Y010777D02*
X033700Y010777D01*
X033700Y010719D02*
X030770Y010719D01*
X030770Y010777D02*
X031672Y010777D01*
X031577Y010836D02*
X030770Y010836D01*
X030770Y010894D02*
X031518Y010894D01*
X031483Y010953D02*
X030770Y010953D01*
X030770Y011011D02*
X031459Y011011D01*
X031440Y011070D02*
X030770Y011070D01*
X030770Y011128D02*
X031440Y011128D01*
X031440Y011187D02*
X030770Y011187D01*
X030770Y011245D02*
X031454Y011245D01*
X031478Y011304D02*
X030770Y011304D01*
X030770Y011362D02*
X031507Y011362D01*
X031565Y011421D02*
X030770Y011421D01*
X030770Y011479D02*
X031644Y011479D01*
X031686Y011772D02*
X030770Y011772D01*
X030770Y011830D02*
X031582Y011830D01*
X031524Y011889D02*
X030770Y011889D01*
X030770Y011947D02*
X031485Y011947D01*
X031461Y012006D02*
X030770Y012006D01*
X030770Y012064D02*
X031440Y012064D01*
X031440Y012123D02*
X030770Y012123D01*
X030770Y012181D02*
X031440Y012181D01*
X031452Y012240D02*
X030770Y012240D01*
X030770Y012298D02*
X031476Y012298D01*
X031501Y012357D02*
X030770Y012357D01*
X030811Y012415D02*
X031560Y012415D01*
X030839Y012591D02*
X033700Y012591D01*
X033700Y012649D02*
X030807Y012649D01*
X030770Y012708D02*
X033700Y012708D01*
X033700Y012766D02*
X032561Y012766D01*
X032672Y012825D02*
X033700Y012825D01*
X033700Y012883D02*
X032731Y012883D01*
X032772Y012942D02*
X033700Y012942D01*
X033700Y013000D02*
X032797Y013000D01*
X032820Y013059D02*
X033700Y013059D01*
X033700Y013117D02*
X032820Y013117D01*
X032820Y013176D02*
X033700Y013176D01*
X033700Y013234D02*
X032811Y013234D01*
X032786Y013293D02*
X033700Y013293D01*
X033700Y013351D02*
X032762Y013351D01*
X032706Y013410D02*
X033700Y013410D01*
X033700Y013468D02*
X032642Y013468D01*
X032548Y013761D02*
X033700Y013761D01*
X033700Y013819D02*
X032667Y013819D01*
X032725Y013878D02*
X033700Y013878D01*
X033700Y013936D02*
X032770Y013936D01*
X032794Y013995D02*
X033700Y013995D01*
X033700Y014053D02*
X032819Y014053D01*
X032820Y014112D02*
X033700Y014112D01*
X033700Y014170D02*
X032820Y014170D01*
X032813Y014229D02*
X033700Y014229D01*
X033700Y014287D02*
X032789Y014287D01*
X032764Y014346D02*
X033700Y014346D01*
X033700Y014404D02*
X032711Y014404D01*
X032653Y014463D02*
X033700Y014463D01*
X033700Y014521D02*
X032515Y014521D01*
X033700Y011713D02*
X030770Y011713D01*
X030770Y011655D02*
X033700Y011655D01*
X033700Y011596D02*
X030770Y011596D01*
X030770Y011538D02*
X033700Y011538D01*
X033700Y010660D02*
X030770Y010660D01*
X030770Y010602D02*
X033700Y010602D01*
X033700Y010543D02*
X030770Y010543D01*
X030770Y010485D02*
X031657Y010485D01*
X031609Y010465D02*
X031499Y010355D01*
X031440Y010212D01*
X031440Y010056D01*
X031499Y009913D01*
X031609Y009803D01*
X031752Y009744D01*
X032508Y009744D01*
X032651Y009803D01*
X032761Y009913D01*
X032820Y010056D01*
X032820Y010212D01*
X032761Y010355D01*
X032651Y010465D01*
X032508Y010524D01*
X031752Y010524D01*
X031609Y010465D01*
X031571Y010426D02*
X030770Y010426D01*
X030770Y010368D02*
X031512Y010368D01*
X031480Y010309D02*
X030770Y010309D01*
X030770Y010251D02*
X031456Y010251D01*
X031440Y010192D02*
X030770Y010192D01*
X030770Y010134D02*
X031440Y010134D01*
X031440Y010075D02*
X030770Y010075D01*
X030770Y010017D02*
X031456Y010017D01*
X031481Y009958D02*
X030770Y009958D01*
X030770Y009900D02*
X031513Y009900D01*
X031571Y009841D02*
X030770Y009841D01*
X030770Y009783D02*
X031659Y009783D01*
X031752Y009524D02*
X031609Y009465D01*
X031499Y009355D01*
X031440Y009212D01*
X031440Y009056D01*
X031499Y008913D01*
X031609Y008803D01*
X031752Y008744D01*
X032508Y008744D01*
X032651Y008803D01*
X032761Y008913D01*
X032820Y009056D01*
X032820Y009212D01*
X032761Y009355D01*
X032651Y009465D01*
X032508Y009524D01*
X031752Y009524D01*
X031671Y009490D02*
X030770Y009490D01*
X030770Y009432D02*
X031576Y009432D01*
X031518Y009373D02*
X030770Y009373D01*
X030770Y009315D02*
X031483Y009315D01*
X031458Y009256D02*
X030770Y009256D01*
X030770Y009198D02*
X031440Y009198D01*
X031440Y009139D02*
X030770Y009139D01*
X030770Y009081D02*
X031440Y009081D01*
X031454Y009022D02*
X030770Y009022D01*
X030770Y008964D02*
X031478Y008964D01*
X031507Y008905D02*
X030770Y008905D01*
X030770Y008847D02*
X031566Y008847D01*
X031646Y008788D02*
X030770Y008788D01*
X030770Y008730D02*
X033700Y008730D01*
X033700Y008788D02*
X032614Y008788D01*
X032694Y008847D02*
X033700Y008847D01*
X033700Y008905D02*
X032753Y008905D01*
X032782Y008964D02*
X033700Y008964D01*
X033700Y009022D02*
X032806Y009022D01*
X032820Y009081D02*
X033700Y009081D01*
X033700Y009139D02*
X032820Y009139D01*
X032820Y009198D02*
X033700Y009198D01*
X033700Y009256D02*
X032802Y009256D01*
X032777Y009315D02*
X033700Y009315D01*
X033700Y009373D02*
X032742Y009373D01*
X032684Y009432D02*
X033700Y009432D01*
X033700Y009490D02*
X032589Y009490D01*
X032601Y009783D02*
X033700Y009783D01*
X033700Y009841D02*
X032689Y009841D01*
X032747Y009900D02*
X033700Y009900D01*
X033700Y009958D02*
X032779Y009958D01*
X032804Y010017D02*
X033700Y010017D01*
X033700Y010075D02*
X032820Y010075D01*
X032820Y010134D02*
X033700Y010134D01*
X033700Y010192D02*
X032820Y010192D01*
X032804Y010251D02*
X033700Y010251D01*
X033700Y010309D02*
X032780Y010309D01*
X032748Y010368D02*
X033700Y010368D01*
X033700Y010426D02*
X032689Y010426D01*
X032603Y010485D02*
X033700Y010485D01*
X033700Y009724D02*
X030770Y009724D01*
X030770Y009666D02*
X033700Y009666D01*
X033700Y009607D02*
X030770Y009607D01*
X030770Y009549D02*
X033700Y009549D01*
X033700Y008671D02*
X030785Y008671D01*
X030839Y008613D02*
X033700Y008613D01*
X033700Y008554D02*
X030839Y008554D01*
X030839Y008496D02*
X031684Y008496D01*
X031752Y008524D02*
X031609Y008465D01*
X031499Y008355D01*
X031440Y008212D01*
X031440Y008056D01*
X031499Y007913D01*
X031609Y007803D01*
X031752Y007744D01*
X032508Y007744D01*
X032651Y007803D01*
X032761Y007913D01*
X032820Y008056D01*
X032820Y008212D01*
X032761Y008355D01*
X032651Y008465D01*
X032508Y008524D01*
X031752Y008524D01*
X031582Y008437D02*
X030833Y008437D01*
X030774Y008379D02*
X031523Y008379D01*
X031485Y008320D02*
X027870Y008320D01*
X027870Y008262D02*
X031461Y008262D01*
X031440Y008203D02*
X027870Y008203D01*
X027870Y008145D02*
X031440Y008145D01*
X031440Y008086D02*
X027870Y008086D01*
X027870Y008028D02*
X031452Y008028D01*
X031476Y007969D02*
X027870Y007969D01*
X027870Y007911D02*
X031502Y007911D01*
X031560Y007852D02*
X027870Y007852D01*
X027870Y007794D02*
X031633Y007794D01*
X031752Y007524D02*
X031609Y007465D01*
X031499Y007355D01*
X031440Y007212D01*
X031440Y007056D01*
X031499Y006913D01*
X031609Y006803D01*
X031752Y006744D01*
X032508Y006744D01*
X032651Y006803D01*
X032761Y006913D01*
X032820Y007056D01*
X032820Y007212D01*
X032761Y007355D01*
X032651Y007465D01*
X032508Y007524D01*
X031752Y007524D01*
X031697Y007501D02*
X027870Y007501D01*
X027870Y007443D02*
X031587Y007443D01*
X031529Y007384D02*
X029679Y007384D01*
X029712Y007373D02*
X029637Y007398D01*
X029559Y007410D01*
X029550Y007410D01*
X029550Y006940D01*
X029490Y006940D01*
X029490Y007410D01*
X029481Y007410D01*
X029403Y007398D01*
X029328Y007373D01*
X029258Y007338D01*
X029194Y007291D01*
X029139Y007236D01*
X029092Y007172D01*
X029057Y007102D01*
X029032Y007027D01*
X029020Y006949D01*
X029020Y006940D01*
X029490Y006940D01*
X029490Y006880D01*
X029020Y006880D01*
X029020Y006871D01*
X029032Y006793D01*
X029057Y006718D01*
X029092Y006648D01*
X029139Y006584D01*
X029194Y006529D01*
X029258Y006482D01*
X029328Y006447D01*
X029403Y006422D01*
X029481Y006410D01*
X029490Y006410D01*
X029490Y006880D01*
X029550Y006880D01*
X029550Y006940D01*
X030020Y006940D01*
X030020Y006949D01*
X030008Y007027D01*
X029983Y007102D01*
X029948Y007172D01*
X029901Y007236D01*
X029846Y007291D01*
X029782Y007338D01*
X029712Y007373D01*
X029799Y007326D02*
X031487Y007326D01*
X031463Y007267D02*
X029870Y007267D01*
X029921Y007209D02*
X031440Y007209D01*
X031440Y007150D02*
X029959Y007150D01*
X029987Y007092D02*
X031440Y007092D01*
X031450Y007033D02*
X030006Y007033D01*
X030016Y006975D02*
X031474Y006975D01*
X031498Y006916D02*
X029550Y006916D01*
X029550Y006880D02*
X030020Y006880D01*
X030020Y006871D01*
X030008Y006793D01*
X029983Y006718D01*
X029948Y006648D01*
X029901Y006584D01*
X029846Y006529D01*
X029782Y006482D01*
X029712Y006447D01*
X029637Y006422D01*
X029559Y006410D01*
X029550Y006410D01*
X029550Y006880D01*
X029550Y006858D02*
X029490Y006858D01*
X029490Y006916D02*
X028200Y006916D01*
X028200Y006858D02*
X029022Y006858D01*
X029031Y006799D02*
X028192Y006799D01*
X028168Y006741D02*
X029049Y006741D01*
X029075Y006682D02*
X028143Y006682D01*
X028104Y006624D02*
X029110Y006624D01*
X029158Y006565D02*
X028046Y006565D01*
X027968Y006507D02*
X029225Y006507D01*
X029325Y006448D02*
X027028Y006448D01*
X027119Y006390D02*
X033700Y006390D01*
X033700Y006448D02*
X029715Y006448D01*
X029815Y006507D02*
X033700Y006507D01*
X033700Y006565D02*
X029882Y006565D01*
X029930Y006624D02*
X033700Y006624D01*
X033700Y006682D02*
X029965Y006682D01*
X029991Y006741D02*
X033700Y006741D01*
X033700Y006799D02*
X032641Y006799D01*
X032705Y006858D02*
X033700Y006858D01*
X033700Y006916D02*
X032762Y006916D01*
X032786Y006975D02*
X033700Y006975D01*
X033700Y007033D02*
X032810Y007033D01*
X032820Y007092D02*
X033700Y007092D01*
X033700Y007150D02*
X032820Y007150D01*
X032820Y007209D02*
X033700Y007209D01*
X033700Y007267D02*
X032797Y007267D01*
X032773Y007326D02*
X033700Y007326D01*
X033700Y007384D02*
X032731Y007384D01*
X032673Y007443D02*
X033700Y007443D01*
X033700Y007501D02*
X032563Y007501D01*
X032627Y007794D02*
X033700Y007794D01*
X033700Y007852D02*
X032700Y007852D01*
X032758Y007911D02*
X033700Y007911D01*
X033700Y007969D02*
X032784Y007969D01*
X032808Y008028D02*
X033700Y008028D01*
X033700Y008086D02*
X032820Y008086D01*
X032820Y008145D02*
X033700Y008145D01*
X033700Y008203D02*
X032820Y008203D01*
X032799Y008262D02*
X033700Y008262D01*
X033700Y008320D02*
X032775Y008320D01*
X032737Y008379D02*
X033700Y008379D01*
X033700Y008437D02*
X032678Y008437D01*
X032576Y008496D02*
X033700Y008496D01*
X033700Y007735D02*
X027870Y007735D01*
X027870Y007677D02*
X033700Y007677D01*
X033700Y007618D02*
X027870Y007618D01*
X027870Y007560D02*
X033700Y007560D01*
X031619Y006799D02*
X030009Y006799D01*
X030018Y006858D02*
X031555Y006858D01*
X029550Y006799D02*
X029490Y006799D01*
X029490Y006741D02*
X029550Y006741D01*
X029550Y006682D02*
X029490Y006682D01*
X029490Y006624D02*
X029550Y006624D01*
X029550Y006565D02*
X029490Y006565D01*
X029490Y006507D02*
X029550Y006507D01*
X029550Y006448D02*
X029490Y006448D01*
X029490Y006975D02*
X029550Y006975D01*
X029550Y007033D02*
X029490Y007033D01*
X029490Y007092D02*
X029550Y007092D01*
X029550Y007150D02*
X029490Y007150D01*
X029490Y007209D02*
X029550Y007209D01*
X029550Y007267D02*
X029490Y007267D01*
X029490Y007326D02*
X029550Y007326D01*
X029550Y007384D02*
X029490Y007384D01*
X029361Y007384D02*
X027870Y007384D01*
X027939Y007326D02*
X029241Y007326D01*
X029170Y007267D02*
X028034Y007267D01*
X028092Y007209D02*
X029119Y007209D01*
X029081Y007150D02*
X028138Y007150D01*
X028163Y007092D02*
X029053Y007092D01*
X029034Y007033D02*
X028187Y007033D01*
X028200Y006975D02*
X029024Y006975D01*
X027874Y008379D02*
X030486Y008379D01*
X030427Y008437D02*
X027933Y008437D01*
X027939Y008496D02*
X030421Y008496D01*
X030421Y008554D02*
X027939Y008554D01*
X027939Y008613D02*
X030421Y008613D01*
X030475Y008671D02*
X027885Y008671D01*
X027014Y005454D02*
X030394Y005454D01*
X030401Y005395D02*
X027114Y005395D01*
X027172Y005337D02*
X030425Y005337D01*
X030449Y005278D02*
X027202Y005278D01*
X027227Y005220D02*
X030473Y005220D01*
X030498Y005161D02*
X027235Y005161D01*
X027235Y005103D02*
X030539Y005103D01*
X030598Y005044D02*
X027228Y005044D01*
X027204Y004986D02*
X030656Y004986D01*
X030715Y004927D02*
X027176Y004927D01*
X027117Y004869D02*
X030845Y004869D01*
X030986Y004810D02*
X027023Y004810D01*
X026698Y003874D02*
X035500Y003874D01*
X035500Y003816D02*
X026757Y003816D01*
X026815Y003757D02*
X035500Y003757D01*
X035500Y003699D02*
X026859Y003699D01*
X026893Y003640D02*
X035500Y003640D01*
X035500Y003582D02*
X026927Y003582D01*
X026960Y003523D02*
X035500Y003523D01*
X035500Y003465D02*
X026994Y003465D01*
X027028Y003406D02*
X035500Y003406D01*
X035500Y003348D02*
X027047Y003348D01*
X027062Y003289D02*
X035500Y003289D01*
X035500Y003231D02*
X027078Y003231D01*
X027094Y003172D02*
X035500Y003172D01*
X035500Y003114D02*
X027109Y003114D01*
X027125Y003055D02*
X035500Y003055D01*
X035500Y002997D02*
X027134Y002997D01*
X027134Y002938D02*
X035500Y002938D01*
X035500Y002880D02*
X027134Y002880D01*
X027134Y002821D02*
X033890Y002821D01*
X033840Y002801D02*
X033728Y002688D01*
X033667Y002541D01*
X033667Y002382D01*
X033728Y002235D01*
X033840Y002122D01*
X033987Y002061D01*
X034147Y002061D01*
X034294Y002122D01*
X034406Y002235D01*
X034467Y002382D01*
X034467Y002541D01*
X034406Y002688D01*
X034294Y002801D01*
X034147Y002862D01*
X033987Y002862D01*
X033840Y002801D01*
X033802Y002763D02*
X027134Y002763D01*
X027134Y002704D02*
X033744Y002704D01*
X033710Y002646D02*
X027134Y002646D01*
X027134Y002587D02*
X033686Y002587D01*
X033667Y002529D02*
X027134Y002529D01*
X027134Y002470D02*
X033667Y002470D01*
X033667Y002412D02*
X027134Y002412D01*
X027134Y002353D02*
X033679Y002353D01*
X033703Y002295D02*
X027134Y002295D01*
X027134Y002236D02*
X033727Y002236D01*
X033785Y002178D02*
X027134Y002178D01*
X027134Y002119D02*
X033848Y002119D01*
X034286Y002119D02*
X034656Y002119D01*
X034656Y002061D02*
X027134Y002061D01*
X027134Y002002D02*
X034656Y002002D01*
X034669Y001944D02*
X027134Y001944D01*
X027134Y001885D02*
X034693Y001885D01*
X034717Y001827D02*
X027134Y001827D01*
X027134Y001768D02*
X034760Y001768D01*
X034818Y001710D02*
X027134Y001710D01*
X027134Y001651D02*
X034898Y001651D01*
X035362Y001651D02*
X035500Y001651D01*
X035500Y001593D02*
X027134Y001593D01*
X027134Y001534D02*
X035500Y001534D01*
X035500Y001710D02*
X035442Y001710D01*
X034663Y002178D02*
X034349Y002178D01*
X034407Y002236D02*
X034687Y002236D01*
X034711Y002295D02*
X034431Y002295D01*
X034455Y002353D02*
X034745Y002353D01*
X034804Y002412D02*
X034467Y002412D01*
X034467Y002470D02*
X034863Y002470D01*
X035004Y002529D02*
X034467Y002529D01*
X034448Y002587D02*
X035500Y002587D01*
X035500Y002529D02*
X035256Y002529D01*
X035397Y002470D02*
X035500Y002470D01*
X035500Y002412D02*
X035456Y002412D01*
X035500Y002646D02*
X034424Y002646D01*
X034390Y002704D02*
X035500Y002704D01*
X035500Y002763D02*
X034332Y002763D01*
X034244Y002821D02*
X035500Y002821D01*
X035500Y003933D02*
X029714Y003933D01*
X029812Y003991D02*
X035500Y003991D01*
X035500Y004050D02*
X034194Y004050D01*
X034311Y004108D02*
X035500Y004108D01*
X035500Y004167D02*
X034369Y004167D01*
X034415Y004225D02*
X035500Y004225D01*
X035500Y004284D02*
X034439Y004284D01*
X034464Y004342D02*
X035500Y004342D01*
X035500Y004401D02*
X035347Y004401D01*
X035435Y004459D02*
X035500Y004459D01*
X035494Y004518D02*
X035500Y004518D01*
X034913Y004401D02*
X034467Y004401D01*
X034467Y004459D02*
X034825Y004459D01*
X034766Y004518D02*
X034464Y004518D01*
X034440Y004576D02*
X034720Y004576D01*
X034695Y004635D02*
X034415Y004635D01*
X034370Y004693D02*
X034671Y004693D01*
X034656Y004752D02*
X034311Y004752D01*
X034195Y004810D02*
X034656Y004810D01*
X035271Y005278D02*
X035500Y005278D01*
X035500Y005220D02*
X035404Y005220D01*
X035463Y005161D02*
X035500Y005161D01*
X033764Y004693D02*
X029828Y004693D01*
X029886Y004635D02*
X033719Y004635D01*
X033694Y004576D02*
X029924Y004576D01*
X029949Y004518D02*
X033670Y004518D01*
X033667Y004459D02*
X029973Y004459D01*
X029980Y004401D02*
X033667Y004401D01*
X033670Y004342D02*
X029980Y004342D01*
X029980Y004284D02*
X033695Y004284D01*
X033719Y004225D02*
X029966Y004225D01*
X029942Y004167D02*
X033765Y004167D01*
X033823Y004108D02*
X029918Y004108D01*
X029870Y004050D02*
X033940Y004050D01*
M02*
